<svg width="1128" height="65" viewBox="0 0 1128 65" fill="none" xmlns="http://www.w3.org/2000/svg">
<path d="M1009.8 17.242L1006.98 27H1005.55L1003.28 19.146L1000.93 27L999.515 27.014L996.785 17.242H998.143L1000.27 25.516L1002.62 17.242H1004.05L1006.29 25.488L1008.43 17.242H1009.8ZM1010.72 23.136C1010.72 22.352 1010.88 21.666 1011.2 21.078C1011.52 20.4807 1011.95 20.0187 1012.5 19.692C1013.06 19.3653 1013.68 19.202 1014.36 19.202C1015.04 19.202 1015.62 19.3467 1016.11 19.636C1016.61 19.9253 1016.98 20.2893 1017.22 20.728V19.328H1018.51V27H1017.22V25.572C1016.97 26.02 1016.59 26.3933 1016.09 26.692C1015.59 26.9813 1015.01 27.126 1014.35 27.126C1013.67 27.126 1013.05 26.958 1012.5 26.622C1011.95 26.286 1011.52 25.8147 1011.2 25.208C1010.88 24.6013 1010.72 23.9107 1010.72 23.136ZM1017.22 23.15C1017.22 22.5713 1017.1 22.0673 1016.87 21.638C1016.64 21.2087 1016.32 20.882 1015.92 20.658C1015.53 20.4247 1015.09 20.308 1014.62 20.308C1014.14 20.308 1013.71 20.42 1013.31 20.644C1012.92 20.868 1012.61 21.1947 1012.38 21.624C1012.14 22.0533 1012.03 22.5573 1012.03 23.136C1012.03 23.724 1012.14 24.2373 1012.38 24.676C1012.61 25.1053 1012.92 25.4367 1013.31 25.67C1013.71 25.894 1014.14 26.006 1014.62 26.006C1015.09 26.006 1015.53 25.894 1015.92 25.67C1016.32 25.4367 1016.64 25.1053 1016.87 24.676C1017.1 24.2373 1017.22 23.7287 1017.22 23.15ZM1024.4 19.188C1025.33 19.188 1026.09 19.4727 1026.67 20.042C1027.24 20.602 1027.53 21.414 1027.53 22.478V27H1026.27V22.66C1026.27 21.8947 1026.08 21.3113 1025.7 20.91C1025.32 20.4993 1024.79 20.294 1024.13 20.294C1023.46 20.294 1022.92 20.504 1022.52 20.924C1022.13 21.344 1021.93 21.9553 1021.93 22.758V27H1020.66V19.328H1021.93V20.42C1022.19 20.028 1022.53 19.7247 1022.96 19.51C1023.39 19.2953 1023.88 19.188 1024.4 19.188ZM1031.17 20.378V24.9C1031.17 25.2733 1031.25 25.5393 1031.41 25.698C1031.57 25.8473 1031.84 25.922 1032.23 25.922H1033.17V27H1032.02C1031.31 27 1030.78 26.8367 1030.43 26.51C1030.07 26.1833 1029.9 25.6467 1029.9 24.9V20.378H1028.9V19.328H1029.9V17.396H1031.17V19.328H1033.17V20.378H1031.17ZM1040 20.378V24.9C1040 25.2733 1040.08 25.5393 1040.24 25.698C1040.4 25.8473 1040.67 25.922 1041.07 25.922H1042V27H1040.86C1040.15 27 1039.61 26.8367 1039.26 26.51C1038.9 26.1833 1038.73 25.6467 1038.73 24.9V20.378H1037.73V19.328H1038.73V17.396H1040V19.328H1042V20.378H1040ZM1046.89 27.126C1046.17 27.126 1045.52 26.9627 1044.93 26.636C1044.35 26.3093 1043.9 25.8473 1043.56 25.25C1043.23 24.6433 1043.07 23.9433 1043.07 23.15C1043.07 22.366 1043.24 21.6753 1043.57 21.078C1043.92 20.4713 1044.39 20.0093 1044.97 19.692C1045.56 19.3653 1046.22 19.202 1046.95 19.202C1047.68 19.202 1048.33 19.3653 1048.92 19.692C1049.51 20.0093 1049.97 20.4667 1050.31 21.064C1050.65 21.6613 1050.83 22.3567 1050.83 23.15C1050.83 23.9433 1050.65 24.6433 1050.29 25.25C1049.95 25.8473 1049.48 26.3093 1048.88 26.636C1048.28 26.9627 1047.62 27.126 1046.89 27.126ZM1046.89 26.006C1047.35 26.006 1047.78 25.8987 1048.18 25.684C1048.58 25.4693 1048.9 25.1473 1049.15 24.718C1049.4 24.2887 1049.52 23.766 1049.52 23.15C1049.52 22.534 1049.4 22.0113 1049.16 21.582C1048.92 21.1527 1048.6 20.8353 1048.21 20.63C1047.82 20.4153 1047.39 20.308 1046.93 20.308C1046.47 20.308 1046.04 20.4153 1045.65 20.63C1045.26 20.8353 1044.96 21.1527 1044.72 21.582C1044.49 22.0113 1044.37 22.534 1044.37 23.15C1044.37 23.7753 1044.48 24.3027 1044.71 24.732C1044.94 25.1613 1045.25 25.4833 1045.63 25.698C1046.02 25.9033 1046.44 26.006 1046.89 26.006ZM1058.42 20.294C1058.64 19.93 1058.96 19.636 1059.38 19.412C1059.8 19.188 1060.28 19.076 1060.83 19.076C1061.47 19.076 1062.05 19.2393 1062.58 19.566C1063.1 19.8927 1063.51 20.3593 1063.81 20.966C1064.12 21.5727 1064.27 22.2773 1064.27 23.08C1064.27 23.8827 1064.12 24.592 1063.81 25.208C1063.51 25.8147 1063.1 26.286 1062.58 26.622C1062.05 26.9487 1061.47 27.112 1060.83 27.112C1060.28 27.112 1059.79 27.0047 1059.38 26.79C1058.97 26.566 1058.65 26.272 1058.42 25.908V27H1056.02V16.64H1058.42V20.294ZM1061.83 23.08C1061.83 22.4827 1061.67 22.016 1061.33 21.68C1061 21.3347 1060.6 21.162 1060.11 21.162C1059.64 21.162 1059.23 21.3347 1058.89 21.68C1058.57 22.0253 1058.4 22.4967 1058.4 23.094C1058.4 23.6913 1058.57 24.1627 1058.89 24.508C1059.23 24.8533 1059.64 25.026 1060.11 25.026C1060.59 25.026 1060.99 24.8533 1061.33 24.508C1061.67 24.1533 1061.83 23.6773 1061.83 23.08ZM1073.24 19.188V27H1070.85V25.936C1070.6 26.2813 1070.27 26.5613 1069.85 26.776C1069.44 26.9813 1068.98 27.084 1068.48 27.084C1067.88 27.084 1067.36 26.9533 1066.9 26.692C1066.44 26.4213 1066.09 26.034 1065.83 25.53C1065.58 25.026 1065.46 24.4333 1065.46 23.752V19.188H1067.84V23.43C1067.84 23.9527 1067.97 24.3587 1068.24 24.648C1068.51 24.9373 1068.88 25.082 1069.33 25.082C1069.8 25.082 1070.17 24.9373 1070.44 24.648C1070.71 24.3587 1070.85 23.9527 1070.85 23.43V19.188H1073.24ZM1076.16 18.376C1075.74 18.376 1075.4 18.2547 1075.13 18.012C1074.87 17.76 1074.74 17.452 1074.74 17.088C1074.74 16.7147 1074.87 16.4067 1075.13 16.164C1075.4 15.912 1075.74 15.786 1076.16 15.786C1076.57 15.786 1076.91 15.912 1077.17 16.164C1077.44 16.4067 1077.58 16.7147 1077.58 17.088C1077.58 17.452 1077.44 17.76 1077.17 18.012C1076.91 18.2547 1076.57 18.376 1076.16 18.376ZM1077.35 19.188V27H1074.96V19.188H1077.35ZM1081.48 16.64V27H1079.09V16.64H1081.48ZM1082.74 23.08C1082.74 22.2773 1082.89 21.5727 1083.19 20.966C1083.5 20.3593 1083.91 19.8927 1084.44 19.566C1084.96 19.2393 1085.54 19.076 1086.19 19.076C1086.7 19.076 1087.17 19.1833 1087.59 19.398C1088.01 19.6127 1088.35 19.902 1088.59 20.266V16.64H1090.99V27H1088.59V25.88C1088.37 26.2533 1088.05 26.552 1087.63 26.776C1087.22 27 1086.74 27.112 1086.19 27.112C1085.54 27.112 1084.96 26.9487 1084.44 26.622C1083.91 26.286 1083.5 25.8147 1083.19 25.208C1082.89 24.592 1082.74 23.8827 1082.74 23.08ZM1088.59 23.094C1088.59 22.4967 1088.43 22.0253 1088.09 21.68C1087.76 21.3347 1087.36 21.162 1086.89 21.162C1086.41 21.162 1086 21.3347 1085.67 21.68C1085.34 22.016 1085.18 22.4827 1085.18 23.08C1085.18 23.6773 1085.34 24.1533 1085.67 24.508C1086 24.8533 1086.41 25.026 1086.89 25.026C1087.36 25.026 1087.76 24.8533 1088.09 24.508C1088.43 24.1627 1088.59 23.6913 1088.59 23.094ZM1103.67 19.188L1098.77 30.71H1096.19L1097.98 26.734L1094.8 19.188H1097.48L1099.28 24.074L1101.08 19.188H1103.67ZM1108.09 27.112C1107.32 27.112 1106.63 26.9487 1106.02 26.622C1105.41 26.2953 1104.93 25.8287 1104.57 25.222C1104.23 24.6153 1104.06 23.906 1104.06 23.094C1104.06 22.2913 1104.23 21.5867 1104.59 20.98C1104.94 20.364 1105.43 19.8927 1106.04 19.566C1106.66 19.2393 1107.35 19.076 1108.12 19.076C1108.88 19.076 1109.57 19.2393 1110.19 19.566C1110.8 19.8927 1111.29 20.364 1111.64 20.98C1112 21.5867 1112.18 22.2913 1112.18 23.094C1112.18 23.8967 1111.99 24.606 1111.63 25.222C1111.28 25.8287 1110.79 26.2953 1110.16 26.622C1109.54 26.9487 1108.85 27.112 1108.09 27.112ZM1108.09 25.04C1108.55 25.04 1108.93 24.872 1109.25 24.536C1109.58 24.2 1109.74 23.7193 1109.74 23.094C1109.74 22.4687 1109.58 21.988 1109.26 21.652C1108.96 21.316 1108.57 21.148 1108.12 21.148C1107.65 21.148 1107.26 21.316 1106.95 21.652C1106.65 21.9787 1106.49 22.4593 1106.49 23.094C1106.49 23.7193 1106.64 24.2 1106.94 24.536C1107.25 24.872 1107.63 25.04 1108.09 25.04ZM1121.16 19.188V27H1118.77V25.936C1118.52 26.2813 1118.19 26.5613 1117.77 26.776C1117.36 26.9813 1116.9 27.084 1116.4 27.084C1115.8 27.084 1115.28 26.9533 1114.82 26.692C1114.36 26.4213 1114.01 26.034 1113.75 25.53C1113.5 25.026 1113.38 24.4333 1113.38 23.752V19.188H1115.76V23.43C1115.76 23.9527 1115.89 24.3587 1116.16 24.648C1116.43 24.9373 1116.8 25.082 1117.25 25.082C1117.72 25.082 1118.09 24.9373 1118.36 24.648C1118.63 24.3587 1118.77 23.9527 1118.77 23.43V19.188H1121.16ZM1125.27 20.49C1125.55 20.0607 1125.9 19.7247 1126.32 19.482C1126.74 19.23 1127.21 19.104 1127.72 19.104V21.638H1127.07C1126.47 21.638 1126.02 21.7687 1125.72 22.03C1125.42 22.282 1125.27 22.73 1125.27 23.374V27H1122.88V19.188H1125.27V20.49ZM1015.6 37.294C1015.82 36.93 1016.14 36.636 1016.56 36.412C1016.98 36.188 1017.46 36.076 1018.01 36.076C1018.65 36.076 1019.23 36.2393 1019.76 36.566C1020.28 36.8927 1020.69 37.3593 1020.99 37.966C1021.3 38.5727 1021.45 39.2773 1021.45 40.08C1021.45 40.8827 1021.3 41.592 1020.99 42.208C1020.69 42.8147 1020.28 43.286 1019.76 43.622C1019.23 43.9487 1018.65 44.112 1018.01 44.112C1017.46 44.112 1016.97 44.0047 1016.56 43.79C1016.15 43.566 1015.83 43.272 1015.6 42.908V44H1013.2V33.64H1015.6V37.294ZM1019.01 40.08C1019.01 39.4827 1018.85 39.016 1018.51 38.68C1018.18 38.3347 1017.78 38.162 1017.29 38.162C1016.82 38.162 1016.41 38.3347 1016.07 38.68C1015.75 39.0253 1015.58 39.4967 1015.58 40.094C1015.58 40.6913 1015.75 41.1627 1016.07 41.508C1016.41 41.8533 1016.82 42.026 1017.29 42.026C1017.77 42.026 1018.17 41.8533 1018.51 41.508C1018.85 41.1533 1019.01 40.6773 1019.01 40.08ZM1025.1 37.49C1025.38 37.0607 1025.73 36.7247 1026.15 36.482C1026.57 36.23 1027.04 36.104 1027.55 36.104V38.638H1026.89C1026.29 38.638 1025.85 38.7687 1025.55 39.03C1025.25 39.282 1025.1 39.73 1025.1 40.374V44H1022.71V36.188H1025.1V37.49ZM1028.22 40.08C1028.22 39.2773 1028.37 38.5727 1028.67 37.966C1028.97 37.3593 1029.39 36.8927 1029.91 36.566C1030.43 36.2393 1031.02 36.076 1031.66 36.076C1032.21 36.076 1032.69 36.188 1033.1 36.412C1033.52 36.636 1033.85 36.93 1034.07 37.294V36.188H1036.46V44H1034.07V42.894C1033.84 43.258 1033.51 43.552 1033.09 43.776C1032.68 44 1032.2 44.112 1031.65 44.112C1031.01 44.112 1030.43 43.9487 1029.91 43.622C1029.39 43.286 1028.97 42.8147 1028.67 42.208C1028.37 41.592 1028.22 40.8827 1028.22 40.08ZM1034.07 40.094C1034.07 39.4967 1033.9 39.0253 1033.57 38.68C1033.24 38.3347 1032.84 38.162 1032.36 38.162C1031.89 38.162 1031.48 38.3347 1031.14 38.68C1030.82 39.016 1030.65 39.4827 1030.65 40.08C1030.65 40.6773 1030.82 41.1533 1031.14 41.508C1031.48 41.8533 1031.89 42.026 1032.36 42.026C1032.84 42.026 1033.24 41.8533 1033.57 41.508C1033.9 41.1627 1034.07 40.6913 1034.07 40.094ZM1042.96 36.104C1043.87 36.104 1044.6 36.4027 1045.14 37C1045.69 37.588 1045.97 38.4 1045.97 39.436V44H1043.59V39.758C1043.59 39.2353 1043.45 38.8293 1043.18 38.54C1042.91 38.2507 1042.55 38.106 1042.09 38.106C1041.63 38.106 1041.27 38.2507 1041 38.54C1040.73 38.8293 1040.59 39.2353 1040.59 39.758V44H1038.2V36.188H1040.59V37.224C1040.83 36.8787 1041.16 36.608 1041.57 36.412C1041.98 36.2067 1042.44 36.104 1042.96 36.104ZM1047.15 40.08C1047.15 39.2773 1047.3 38.5727 1047.6 37.966C1047.91 37.3593 1048.33 36.8927 1048.85 36.566C1049.37 36.2393 1049.95 36.076 1050.6 36.076C1051.11 36.076 1051.58 36.1833 1052 36.398C1052.43 36.6127 1052.76 36.902 1053.01 37.266V33.64H1055.4V44H1053.01V42.88C1052.78 43.2533 1052.46 43.552 1052.04 43.776C1051.63 44 1051.15 44.112 1050.6 44.112C1049.95 44.112 1049.37 43.9487 1048.85 43.622C1048.33 43.286 1047.91 42.8147 1047.6 42.208C1047.3 41.592 1047.15 40.8827 1047.15 40.08ZM1053.01 40.094C1053.01 39.4967 1052.84 39.0253 1052.5 38.68C1052.18 38.3347 1051.77 38.162 1051.3 38.162C1050.82 38.162 1050.42 38.3347 1050.08 38.68C1049.75 39.016 1049.59 39.4827 1049.59 40.08C1049.59 40.6773 1049.75 41.1533 1050.08 41.508C1050.42 41.8533 1050.82 42.026 1051.3 42.026C1051.77 42.026 1052.18 41.8533 1052.5 41.508C1052.84 41.1627 1053.01 40.6913 1053.01 40.094ZM1060 33.626C1061 33.626 1061.8 33.8873 1062.4 34.41C1063 34.9327 1063.31 35.67 1063.31 36.622C1063.31 37.4993 1063.02 38.1853 1062.44 38.68C1061.87 39.1653 1061.11 39.4127 1060.17 39.422L1060.1 40.472H1058L1057.93 37.868H1058.77C1059.49 37.868 1060.03 37.7793 1060.41 37.602C1060.79 37.4247 1060.98 37.1027 1060.98 36.636C1060.98 36.3093 1060.89 36.0527 1060.72 35.866C1060.54 35.6793 1060.29 35.586 1059.97 35.586C1059.64 35.586 1059.38 35.684 1059.19 35.88C1059 36.0667 1058.91 36.3233 1058.91 36.65H1056.66C1056.64 36.0807 1056.75 35.5673 1057.01 35.11C1057.27 34.6527 1057.65 34.2933 1058.15 34.032C1058.67 33.7613 1059.28 33.626 1060 33.626ZM1059.08 44.112C1058.66 44.112 1058.31 43.9907 1058.04 43.748C1057.78 43.496 1057.65 43.188 1057.65 42.824C1057.65 42.4507 1057.78 42.138 1058.04 41.886C1058.31 41.634 1058.66 41.508 1059.08 41.508C1059.49 41.508 1059.82 41.634 1060.09 41.886C1060.36 42.138 1060.49 42.4507 1060.49 42.824C1060.49 43.188 1060.36 43.496 1060.09 43.748C1059.82 43.9907 1059.49 44.112 1059.08 44.112ZM1067.23 39.072C1067.23 38.1013 1067.44 37.238 1067.86 36.482C1068.28 35.7167 1068.86 35.124 1069.61 34.704C1070.36 34.2747 1071.22 34.06 1072.17 34.06C1073.33 34.06 1074.33 34.368 1075.16 34.984C1075.99 35.6 1076.55 36.44 1076.83 37.504H1074.2C1074 37.0933 1073.72 36.7807 1073.36 36.566C1073 36.3513 1072.6 36.244 1072.14 36.244C1071.4 36.244 1070.81 36.5007 1070.35 37.014C1069.89 37.5273 1069.66 38.2133 1069.66 39.072C1069.66 39.9307 1069.89 40.6167 1070.35 41.13C1070.81 41.6433 1071.4 41.9 1072.14 41.9C1072.6 41.9 1073 41.7927 1073.36 41.578C1073.72 41.3633 1074 41.0507 1074.2 40.64H1076.83C1076.55 41.704 1075.99 42.544 1075.16 43.16C1074.33 43.7667 1073.33 44.07 1072.17 44.07C1071.22 44.07 1070.36 43.86 1069.61 43.44C1068.86 43.0107 1068.28 42.418 1067.86 41.662C1067.44 40.906 1067.23 40.0427 1067.23 39.072ZM1081.85 44.112C1081.09 44.112 1080.4 43.9487 1079.78 43.622C1079.17 43.2953 1078.69 42.8287 1078.34 42.222C1077.99 41.6153 1077.82 40.906 1077.82 40.094C1077.82 39.2913 1078 38.5867 1078.35 37.98C1078.71 37.364 1079.19 36.8927 1079.81 36.566C1080.42 36.2393 1081.11 36.076 1081.88 36.076C1082.65 36.076 1083.34 36.2393 1083.95 36.566C1084.57 36.8927 1085.05 37.364 1085.41 37.98C1085.76 38.5867 1085.94 39.2913 1085.94 40.094C1085.94 40.8967 1085.76 41.606 1085.39 42.222C1085.04 42.8287 1084.55 43.2953 1083.92 43.622C1083.31 43.9487 1082.62 44.112 1081.85 44.112ZM1081.85 42.04C1082.31 42.04 1082.7 41.872 1083.01 41.536C1083.34 41.2 1083.5 40.7193 1083.5 40.094C1083.5 39.4687 1083.35 38.988 1083.03 38.652C1082.72 38.316 1082.34 38.148 1081.88 38.148C1081.41 38.148 1081.03 38.316 1080.72 38.652C1080.41 38.9787 1080.26 39.4593 1080.26 40.094C1080.26 40.7193 1080.41 41.2 1080.7 41.536C1081.01 41.872 1081.39 42.04 1081.85 42.04ZM1091.97 36.104C1092.88 36.104 1093.61 36.4027 1094.15 37C1094.7 37.588 1094.98 38.4 1094.98 39.436V44H1092.6V39.758C1092.6 39.2353 1092.46 38.8293 1092.19 38.54C1091.92 38.2507 1091.56 38.106 1091.1 38.106C1090.64 38.106 1090.28 38.2507 1090.01 38.54C1089.74 38.8293 1089.6 39.2353 1089.6 39.758V44H1087.21V36.188H1089.6V37.224C1089.85 36.8787 1090.17 36.608 1090.58 36.412C1090.99 36.2067 1091.46 36.104 1091.97 36.104ZM1101.4 36.104C1102.32 36.104 1103.05 36.4027 1103.59 37C1104.14 37.588 1104.41 38.4 1104.41 39.436V44H1102.03V39.758C1102.03 39.2353 1101.9 38.8293 1101.63 38.54C1101.36 38.2507 1100.99 38.106 1100.54 38.106C1100.08 38.106 1099.71 38.2507 1099.44 38.54C1099.17 38.8293 1099.04 39.2353 1099.04 39.758V44H1096.64V36.188H1099.04V37.224C1099.28 36.8787 1099.61 36.608 1100.02 36.412C1100.43 36.2067 1100.89 36.104 1101.4 36.104ZM1113.44 39.968C1113.44 40.192 1113.43 40.4253 1113.4 40.668H1107.98C1108.02 41.1533 1108.17 41.5267 1108.44 41.788C1108.72 42.04 1109.06 42.166 1109.46 42.166C1110.06 42.166 1110.48 41.914 1110.71 41.41H1113.26C1113.13 41.9233 1112.89 42.3853 1112.54 42.796C1112.21 43.2067 1111.78 43.5287 1111.27 43.762C1110.76 43.9953 1110.18 44.112 1109.55 44.112C1108.78 44.112 1108.1 43.9487 1107.5 43.622C1106.91 43.2953 1106.44 42.8287 1106.1 42.222C1105.77 41.6153 1105.6 40.906 1105.6 40.094C1105.6 39.282 1105.76 38.5727 1106.09 37.966C1106.43 37.3593 1106.89 36.8927 1107.49 36.566C1108.09 36.2393 1108.77 36.076 1109.55 36.076C1110.3 36.076 1110.98 36.2347 1111.56 36.552C1112.15 36.8693 1112.61 37.322 1112.94 37.91C1113.27 38.498 1113.44 39.184 1113.44 39.968ZM1110.99 39.338C1110.99 38.9273 1110.85 38.6007 1110.57 38.358C1110.29 38.1153 1109.94 37.994 1109.52 37.994C1109.12 37.994 1108.78 38.1107 1108.5 38.344C1108.23 38.5773 1108.06 38.9087 1107.99 39.338H1110.99ZM1114.23 40.094C1114.23 39.282 1114.39 38.5727 1114.72 37.966C1115.05 37.3593 1115.52 36.8927 1116.1 36.566C1116.7 36.2393 1117.38 36.076 1118.15 36.076C1119.13 36.076 1119.94 36.3327 1120.6 36.846C1121.26 37.3593 1121.69 38.0827 1121.9 39.016H1119.35C1119.14 38.4187 1118.72 38.12 1118.11 38.12C1117.67 38.12 1117.32 38.2927 1117.06 38.638C1116.79 38.974 1116.66 39.4593 1116.66 40.094C1116.66 40.7287 1116.79 41.2187 1117.06 41.564C1117.32 41.9 1117.67 42.068 1118.11 42.068C1118.72 42.068 1119.14 41.7693 1119.35 41.172H1121.9C1121.69 42.0867 1121.26 42.8053 1120.6 43.328C1119.94 43.8507 1119.12 44.112 1118.15 44.112C1117.38 44.112 1116.7 43.9487 1116.1 43.622C1115.52 43.2953 1115.05 42.8287 1114.72 42.222C1114.39 41.6153 1114.23 40.906 1114.23 40.094ZM1127.53 41.97V44H1126.32C1125.45 44 1124.77 43.79 1124.29 43.37C1123.8 42.9407 1123.56 42.2453 1123.56 41.284V38.176H1122.61V36.188H1123.56V34.284H1125.95V36.188H1127.52V38.176H1125.95V41.312C1125.95 41.5453 1126.01 41.7133 1126.12 41.816C1126.23 41.9187 1126.42 41.97 1126.68 41.97H1127.53ZM1086.14 53.328L1083.75 61H1082.43L1080.58 54.91L1078.74 61H1077.42L1075.01 53.328H1076.31L1078.08 59.768L1079.98 53.328H1081.28L1083.15 59.782L1084.88 53.328H1086.14ZM1088.06 52.082C1087.82 52.082 1087.62 51.998 1087.45 51.83C1087.28 51.662 1087.2 51.4567 1087.2 51.214C1087.2 50.9713 1087.28 50.766 1087.45 50.598C1087.62 50.43 1087.82 50.346 1088.06 50.346C1088.3 50.346 1088.49 50.43 1088.65 50.598C1088.82 50.766 1088.9 50.9713 1088.9 51.214C1088.9 51.4567 1088.82 51.662 1088.65 51.83C1088.49 51.998 1088.3 52.082 1088.06 52.082ZM1088.68 53.328V61H1087.41V53.328H1088.68ZM1092.41 54.378V58.9C1092.41 59.2733 1092.48 59.5393 1092.64 59.698C1092.8 59.8473 1093.08 59.922 1093.47 59.922H1094.41V61H1093.26C1092.55 61 1092.02 60.8367 1091.66 60.51C1091.31 60.1833 1091.13 59.6467 1091.13 58.9V54.378H1090.14V53.328H1091.13V51.396H1092.41V53.328H1094.41V54.378H1092.41ZM1099.76 53.188C1100.34 53.188 1100.86 53.314 1101.33 53.566C1101.79 53.8087 1102.16 54.1773 1102.42 54.672C1102.69 55.1667 1102.83 55.7687 1102.83 56.478V61H1101.57V56.66C1101.57 55.8947 1101.37 55.3113 1100.99 54.91C1100.61 54.4993 1100.09 54.294 1099.42 54.294C1098.75 54.294 1098.21 54.504 1097.81 54.924C1097.42 55.344 1097.23 55.9553 1097.23 56.758V61H1095.95V50.64H1097.23V54.42C1097.48 54.028 1097.82 53.7247 1098.26 53.51C1098.71 53.2953 1099.21 53.188 1099.76 53.188ZM1115.44 53.328V61H1114.17V59.866C1113.93 60.258 1113.59 60.566 1113.15 60.79C1112.72 61.0047 1112.24 61.112 1111.72 61.112C1111.12 61.112 1110.58 60.9907 1110.11 60.748C1109.63 60.496 1109.25 60.1227 1108.97 59.628C1108.7 59.1333 1108.57 58.5313 1108.57 57.822V53.328H1109.83V57.654C1109.83 58.41 1110.02 58.9933 1110.4 59.404C1110.79 59.8053 1111.31 60.006 1111.97 60.006C1112.65 60.006 1113.19 59.796 1113.58 59.376C1113.97 58.956 1114.17 58.3447 1114.17 57.542V53.328H1115.44ZM1120.31 61.126C1119.72 61.126 1119.19 61.028 1118.73 60.832C1118.26 60.6267 1117.89 60.3467 1117.62 59.992C1117.35 59.628 1117.2 59.2127 1117.17 58.746H1118.49C1118.53 59.1287 1118.7 59.4413 1119.02 59.684C1119.35 59.9267 1119.77 60.048 1120.3 60.048C1120.78 60.048 1121.16 59.9407 1121.44 59.726C1121.72 59.5113 1121.86 59.2407 1121.86 58.914C1121.86 58.578 1121.71 58.3307 1121.42 58.172C1121.12 58.004 1120.65 57.8407 1120.03 57.682C1119.46 57.5327 1118.99 57.3833 1118.63 57.234C1118.27 57.0753 1117.97 56.8467 1117.71 56.548C1117.45 56.24 1117.33 55.8387 1117.33 55.344C1117.33 54.952 1117.44 54.5927 1117.68 54.266C1117.91 53.9393 1118.24 53.6827 1118.67 53.496C1119.1 53.3 1119.59 53.202 1120.14 53.202C1120.99 53.202 1121.68 53.4167 1122.2 53.846C1122.72 54.2753 1123 54.8633 1123.04 55.61H1121.77C1121.74 55.2087 1121.57 54.8867 1121.28 54.644C1120.99 54.4013 1120.59 54.28 1120.1 54.28C1119.64 54.28 1119.28 54.378 1119.01 54.574C1118.74 54.77 1118.6 55.0267 1118.6 55.344C1118.6 55.596 1118.68 55.806 1118.84 55.974C1119.01 56.1327 1119.21 56.2633 1119.46 56.366C1119.71 56.4593 1120.05 56.5667 1120.49 56.688C1121.04 56.8373 1121.49 56.9867 1121.84 57.136C1122.18 57.276 1122.47 57.4907 1122.72 57.78C1122.97 58.0693 1123.1 58.4473 1123.11 58.914C1123.11 59.334 1122.99 59.712 1122.76 60.048C1122.53 60.384 1122.19 60.65 1121.77 60.846C1121.35 61.0327 1120.86 61.126 1120.31 61.126ZM1126.56 51.242L1126.41 58.242H1125.34L1125.19 51.242H1126.56ZM1125.93 61.084C1125.69 61.084 1125.48 61 1125.31 60.832C1125.15 60.664 1125.06 60.4587 1125.06 60.216C1125.06 59.9733 1125.15 59.768 1125.31 59.6C1125.48 59.432 1125.69 59.348 1125.93 59.348C1126.16 59.348 1126.36 59.432 1126.52 59.6C1126.69 59.768 1126.77 59.9733 1126.77 60.216C1126.77 60.4587 1126.69 60.664 1126.52 60.832C1126.36 61 1126.16 61.084 1125.93 61.084Z" fill="black"/>
<path d="M31 62C13.9114 62 0 48.1745 0 31C0 13.9114 13.9114 0 31 0C48.0886 0 62 13.9114 62 31C62 48.1745 48.1745 62 31 62Z" fill="black"/>
<path d="M11.1636 35.2083V27.0505H8.3298V25.1613H16.0583V27.0505H13.2245V35.2083H11.1636Z" fill="white"/>
<path d="M14.4269 35.2083L18.377 25.1613H20.6097L24.5599 35.2083H22.413L21.5543 32.9757H17.2607L16.402 35.2083H14.4269ZM17.9477 31.2582H20.9532L19.4075 27.2222L17.9477 31.2582Z" fill="white"/>
<path d="M28.2522 35.2083V27.0505H25.4184V25.1613H33.147V27.0505H30.3132V35.2083H28.2522Z" fill="white"/>
<path d="M38.9864 35.4655C38.3853 35.4655 37.87 35.3797 37.2689 35.2079C36.6678 35.0362 36.2384 34.7785 35.8091 34.5209C35.3797 34.1774 35.0362 33.8339 34.6927 33.4046C34.3492 32.9752 34.1775 32.46 34.0058 31.9447C33.834 31.4295 33.7481 30.8284 33.7481 30.2273C33.7481 29.6262 33.834 29.0251 34.0058 28.5098C34.1775 27.9946 34.4351 27.4794 34.6927 27.05C35.0362 26.6206 35.3797 26.2772 35.8091 25.9337C36.2384 25.5902 36.7537 25.3326 37.2689 25.1608C37.7842 24.9891 38.3853 24.9032 38.9864 24.9032C39.5875 24.9032 40.1027 24.9891 40.7038 25.1608C41.2191 25.3326 41.7343 25.5902 42.1637 25.8478C42.593 26.1913 42.9365 26.5348 43.28 26.9641C43.6235 27.3935 43.7952 27.9087 43.967 28.424C44.1387 28.9392 44.2246 29.5403 44.2246 30.1414C44.2246 30.7425 44.1387 31.3436 43.967 31.8589C43.7952 32.3741 43.5376 32.8893 43.28 33.3187C42.9365 33.7481 42.593 34.0916 42.1637 34.4351C41.7343 34.7785 41.2191 35.0362 40.7038 35.2079C40.1886 35.3797 39.5875 35.4655 38.9864 35.4655ZM39.0722 33.5763C39.5016 33.5763 39.931 33.4905 40.2745 33.3187C40.6179 33.147 40.9614 32.8893 41.2191 32.6317C41.4767 32.2882 41.7343 31.9447 41.8202 31.6013C41.9919 31.1719 42.0778 30.7425 42.0778 30.2273C42.0778 29.7121 41.9919 29.2827 41.8202 28.8533C41.6484 28.424 41.4767 28.0805 41.2191 27.8229C40.9614 27.4794 40.6179 27.3076 40.2745 27.1359C39.931 26.9641 39.5016 26.8783 39.0722 26.8783C38.6429 26.8783 38.2135 26.9641 37.87 27.1359C37.5265 27.3076 37.183 27.5652 36.9254 27.8229C36.6678 28.1664 36.4102 28.5098 36.3243 28.8533C36.1526 29.2827 36.0667 29.7121 36.0667 30.2273C36.0667 30.7425 36.1526 31.1719 36.3243 31.6013C36.4961 32.0306 36.6678 32.3741 36.9254 32.6317C37.183 32.9752 37.5265 33.147 37.87 33.3187C38.2135 33.4905 38.557 33.5763 39.0722 33.5763Z" fill="white"/>
<path d="M48.8615 35.3797C48.2603 35.3797 47.7451 35.2938 47.2299 35.0362C46.7146 34.8644 46.2853 34.5209 45.9418 34.0916C45.5983 33.6622 45.3407 33.2328 45.2548 32.7176L47.2299 32.2882C47.3157 32.7176 47.5734 32.9752 47.831 33.2328C48.1745 33.4905 48.518 33.5763 48.9473 33.5763C49.2908 33.5763 49.5484 33.4905 49.7202 33.4046C49.8919 33.3187 50.1495 33.147 50.2354 32.9752C50.3213 32.8035 50.4072 32.5459 50.4072 32.2882C50.4072 31.9447 50.3213 31.6871 50.0637 31.5154C49.8061 31.3436 49.4626 31.1719 48.9473 31.0002L48.518 30.9143C47.4875 30.6567 46.7146 30.3132 46.1994 29.7979C45.6842 29.2827 45.4266 28.6816 45.4266 27.9946C45.4266 27.5652 45.5124 27.1359 45.6842 26.7924C45.8559 26.4489 46.1135 26.1054 46.457 25.8478C46.8005 25.5902 47.144 25.3326 47.5734 25.1608C48.0027 24.9891 48.4321 24.9032 48.9473 24.9032C49.4626 24.9032 50.0637 24.9891 50.493 25.2467C51.0083 25.4184 51.3518 25.7619 51.6953 26.1054C52.0387 26.5348 52.2105 26.9641 52.3822 27.4794L50.4072 27.9087C50.3213 27.5652 50.0637 27.2218 49.8061 27.05C49.5484 26.8783 49.2049 26.7065 48.8615 26.7065C48.6038 26.7065 48.3462 26.7924 48.1745 26.8783C48.0027 26.9641 47.831 27.1359 47.6592 27.3076C47.5734 27.4794 47.4875 27.6511 47.4875 27.9087C47.4875 28.2522 47.5734 28.5098 47.831 28.6816C48.0886 28.8533 48.4321 29.0251 48.9473 29.111L49.3767 29.1968C50.4072 29.4544 51.18 29.7979 51.6953 30.3132C52.2105 30.8284 52.4681 31.4295 52.4681 32.2024C52.4681 32.7176 52.3822 33.147 52.2105 33.4905C52.0387 33.9198 51.7811 34.2633 51.4376 34.5209C51.0941 34.7785 50.7506 35.0362 50.3213 35.2079C49.8061 35.2938 49.3767 35.3797 48.8615 35.3797Z" fill="white"/>
<path d="M52.468 36.3235H9.27411V40.016H52.468V36.3235Z" fill="#FFF200"/>
<path d="M15.5427 38.9004V37.6982H15.1134V37.4406H16.3156V37.6982H15.8862V38.9004H15.5427Z" fill="#2B2B2B"/>
<path d="M16.5732 38.8998V37.3541H16.9166V37.9552H17.6036V37.3541H17.9471V38.8998H17.6036V38.2987H16.9166V38.8998H16.5732Z" fill="#2B2B2B"/>
<path d="M18.1189 38.8998V37.3541H19.0635V37.6117H18.4624V37.9552H19.0635V38.2128H18.4624V38.6422H19.1494V38.8998H18.1189Z" fill="#2B2B2B"/>
<path d="M19.6645 38.8998L20.2656 37.3541H20.6091L21.2102 38.8998H20.8667L20.7809 38.5563H20.0939L20.008 38.8998H19.6645ZM20.1798 38.2987H20.6091L20.3515 37.6976L20.1798 38.2987Z" fill="#2B2B2B"/>
<path d="M21.382 38.8998V37.3541H21.7255V38.6422H22.3266V38.8998H21.382Z" fill="#2B2B2B"/>
<path d="M22.4987 38.8998V37.3541H23.014C23.0999 37.3541 23.2716 37.3541 23.3575 37.4399C23.4433 37.5258 23.5292 37.5258 23.5292 37.6117C23.6151 37.6976 23.6151 37.7834 23.6151 37.8693C23.6151 37.9552 23.6151 38.041 23.6151 38.041C23.6151 38.1269 23.5292 38.1269 23.5292 38.2128C23.4433 38.2987 23.4433 38.2987 23.3575 38.2987C23.2716 38.2987 23.1857 38.2987 23.0999 38.2987C23.014 38.2987 23.014 38.2987 22.9281 38.2987V38.8139H22.4987V38.8998ZM22.8422 37.6117V38.041C22.9281 38.041 22.9281 38.041 23.014 38.041C23.0999 38.041 23.1857 38.041 23.1857 37.9552C23.2716 37.9552 23.2716 37.8693 23.2716 37.7834C23.2716 37.6976 23.2716 37.6117 23.1857 37.6117C23.0999 37.6117 23.0999 37.5258 23.014 37.5258H22.8422V37.6117Z" fill="#2B2B2B"/>
<path d="M23.7866 38.8998V37.3541H24.1301V37.9552H24.817V37.3541H25.1605V38.8998H24.817V38.2987H24.1301V38.8998H23.7866Z" fill="#2B2B2B"/>
<path d="M25.2461 38.8998L25.8472 37.3541H26.1907L26.7918 38.8998H26.4483L26.3625 38.5563H25.6755L25.5896 38.8998H25.2461ZM25.7614 38.2987H26.1907L25.9331 37.6976L25.7614 38.2987Z" fill="#2B2B2B"/>
<path d="M27.3075 38.8998L27.9086 37.3541H28.2521L28.8532 38.8998H28.5098L28.4239 38.5563H27.7369L27.651 38.8998H27.3075ZM27.8228 38.2987H28.2521L27.9945 37.6976L27.8228 38.2987Z" fill="#2B2B2B"/>
<path d="M29.0251 38.8998V37.3541H29.2827L29.9697 38.3845V37.3541H30.3132V38.8998H30.0556L29.3686 37.8693V38.8998H29.0251Z" fill="#2B2B2B"/>
<path d="M30.5705 38.8998V37.3541H31.1716C31.2575 37.3541 31.4293 37.3541 31.5151 37.4399C31.601 37.5258 31.6869 37.5258 31.7727 37.6117C31.8586 37.6976 31.8586 37.7834 31.9445 37.8693C31.9445 37.9552 32.0304 38.041 32.0304 38.2128C32.0304 38.3845 32.0304 38.3845 31.9445 38.5563C31.9445 38.6422 31.8586 38.728 31.7727 38.8139C31.6869 38.8998 31.601 38.8998 31.5151 38.9856C31.4293 39.0715 31.3434 39.0715 31.1716 39.0715H30.5705V38.8998ZM30.914 38.6422H31.1716C31.2575 38.6422 31.3434 38.6422 31.4293 38.5563C31.5151 38.5563 31.601 38.4704 31.601 38.3845C31.601 38.2987 31.6869 38.2128 31.6869 38.1269C31.6869 38.041 31.6869 37.9552 31.601 37.8693C31.601 37.7834 31.5151 37.7834 31.4293 37.6976C31.3434 37.6976 31.2575 37.6117 31.1716 37.6117H30.914V38.6422Z" fill="#2B2B2B"/>
<path d="M32.975 38.9004V37.6982H32.5456V37.4406H33.7478V37.6982H33.3185V38.9004H32.975Z" fill="#2B2B2B"/>
<path d="M33.9195 38.8998V37.3541H34.263V37.9552H34.9499V37.3541H35.2076V38.8998H34.8641V38.2987H34.1771V38.8998H33.9195Z" fill="#2B2B2B"/>
<path d="M35.5506 38.8998V37.3541H36.4952V37.6117H35.8941V37.9552H36.4952V38.2128H35.8941V38.6422H36.581V38.8998H35.5506Z" fill="#2B2B2B"/>
<path d="M37.8699 38.8998C37.784 38.8998 37.6981 38.8998 37.6123 38.8998C37.5264 38.8998 37.4405 38.8139 37.3546 38.8139C37.2688 38.728 37.2688 38.728 37.1829 38.6422C37.097 38.5563 37.097 38.4704 37.097 38.3845C37.097 38.2987 37.097 38.2128 37.097 38.1269C37.097 38.041 37.097 37.9552 37.097 37.8693C37.097 37.7834 37.1829 37.6976 37.1829 37.6117C37.2688 37.5258 37.2688 37.5258 37.3546 37.4399C37.4405 37.3541 37.5264 37.3541 37.6123 37.3541C37.6981 37.3541 37.784 37.3541 37.8699 37.3541C37.9558 37.3541 38.0416 37.3541 38.1275 37.3541C38.2134 37.3541 38.2992 37.4399 38.3851 37.4399C38.471 37.5258 38.471 37.5258 38.5569 37.6117C38.6427 37.6976 38.6427 37.7834 38.6427 37.8693C38.6427 37.9552 38.6427 38.041 38.6427 38.1269C38.6427 38.2128 38.6427 38.2987 38.6427 38.3845C38.6427 38.4704 38.5569 38.5563 38.5569 38.6422C38.471 38.728 38.471 38.728 38.3851 38.8139C38.2992 38.8998 38.2134 38.8998 38.1275 38.8998C38.0416 38.8998 37.9558 38.8998 37.8699 38.8998ZM37.8699 38.6422C37.9558 38.6422 37.9558 38.6422 38.0416 38.6422C38.1275 38.6422 38.1275 38.5563 38.2134 38.5563C38.2992 38.5563 38.2992 38.4704 38.2992 38.3845C38.2992 38.2987 38.2992 38.2128 38.2992 38.2128C38.2992 38.1269 38.2992 38.041 38.2992 38.041C38.2992 38.041 38.2992 37.7834 38.2134 37.7834C38.2134 37.6976 38.1275 37.6976 38.0416 37.6976C37.9558 37.6976 37.9558 37.6976 37.8699 37.6976C37.784 37.6976 37.784 37.6976 37.6981 37.6976C37.6123 37.6976 37.6123 37.7834 37.5264 37.7834C37.5264 37.8693 37.4405 37.8693 37.4405 37.9552C37.4405 38.041 37.4405 38.1269 37.4405 38.1269C37.4405 38.2128 37.4405 38.2987 37.4405 38.2987C37.4405 38.3845 37.5264 38.3845 37.5264 38.4704C37.5264 38.5563 37.6123 38.5563 37.6981 38.5563C37.784 38.6422 37.8699 38.6422 37.8699 38.6422Z" fill="#2B2B2B"/>
<path d="M38.9003 38.8998V37.3541H39.1579L39.6731 38.2128L40.1884 37.3541H40.446V38.8998H40.1025V37.9552L39.759 38.5563H39.5014L39.1579 37.9552V38.8998H38.9003Z" fill="#2B2B2B"/>
<path d="M40.7034 38.8998V37.3541H41.648V37.6117H41.0468V37.9552H41.648V38.2128H41.0468V38.6422H41.7338V38.8998H40.7034Z" fill="#2B2B2B"/>
<path d="M42.5927 38.8998C42.5069 38.8998 42.421 38.8998 42.3351 38.8998C42.2493 38.8998 42.1634 38.8139 42.1634 38.8139C42.0775 38.728 42.0775 38.6422 41.9916 38.6422C41.9058 38.5563 41.9058 38.4704 41.9058 38.3845C41.9058 38.2987 41.9058 38.2128 41.9058 38.1269C41.9058 38.041 41.9058 37.9552 41.9058 37.8693C41.9058 37.7834 41.9916 37.6976 41.9916 37.6117C42.0775 37.5258 42.0775 37.5258 42.1634 37.4399C42.2493 37.3541 42.3351 37.3541 42.421 37.3541C42.5069 37.3541 42.5927 37.3541 42.6786 37.3541C42.7645 37.3541 42.8504 37.3541 42.9362 37.4399C43.0221 37.4399 43.108 37.5258 43.1939 37.6117C43.2797 37.6976 43.2797 37.7834 43.3656 37.8693L43.0221 37.9552C43.0221 37.8693 42.9362 37.8693 42.8504 37.7834C42.7645 37.7834 42.6786 37.6976 42.6786 37.6976C42.5927 37.6976 42.5927 37.6976 42.5069 37.6976C42.421 37.6976 42.421 37.7834 42.3351 37.7834C42.3351 37.8693 42.2493 37.8693 42.2493 37.9552C42.2493 38.041 42.2493 38.041 42.2493 38.1269C42.2493 38.2128 42.2493 38.2987 42.2493 38.2987C42.2493 38.2987 42.3351 38.3845 42.3351 38.4704C42.3351 38.5563 42.421 38.5563 42.5069 38.5563C42.5927 38.5563 42.5927 38.5563 42.6786 38.5563C42.7645 38.5563 42.8504 38.5563 42.8504 38.5563C42.9362 38.5563 42.9362 38.4704 43.0221 38.4704C43.0221 38.3845 43.108 38.3845 43.108 38.2987H42.7645V38.041H43.4515V38.2128C43.4515 38.2987 43.4515 38.3845 43.3656 38.4704C43.3656 38.5563 43.2797 38.6422 43.1939 38.728C43.108 38.8139 43.0221 38.8139 42.9362 38.8998C42.8504 38.8998 42.7645 38.8998 42.5927 38.8998Z" fill="#2B2B2B"/>
<path d="M43.4514 38.8998L44.0526 37.3541H44.396L44.9972 38.8998H44.6537L44.5678 38.5563H43.8808L43.7949 38.8998H43.4514ZM43.9667 38.2987H44.396L44.1384 37.6976L43.9667 38.2987Z" fill="#2B2B2B"/>
<path d="M45.0831 37.3541H45.169L45.2548 37.4399C45.2548 37.4399 45.2548 37.5258 45.2548 37.6117C45.2548 37.6976 45.2548 37.6976 45.2548 37.7834C45.2548 37.8693 45.169 37.8693 45.169 37.9552C45.0831 37.9552 45.0831 38.041 44.9972 38.041L44.9113 37.8693C44.9113 37.8693 44.9972 37.8693 44.9972 37.7834L45.0831 37.6976V37.6117C45.0831 37.6117 45.0831 37.6117 44.9972 37.6117H44.9113C44.9113 37.6117 44.9113 37.6117 44.8255 37.5258V37.4399V37.3541C44.9972 37.4399 44.9972 37.4399 45.0831 37.3541C45.0831 37.3541 44.9972 37.3541 45.0831 37.3541Z" fill="#2B2B2B"/>
<path d="M46.0275 38.8998C45.9416 38.8998 45.8557 38.8998 45.7699 38.8139C45.684 38.728 45.5981 38.728 45.5981 38.6422C45.5122 38.6422 45.5122 38.6422 45.4264 38.5563L45.684 38.4704C45.684 38.5563 45.7699 38.5563 45.7699 38.6422C45.8557 38.6422 45.8557 38.728 45.9416 38.728C46.0275 38.728 46.0275 38.728 46.0275 38.728C46.0275 38.728 46.1134 38.728 46.1134 38.6422V38.5563C46.1134 38.4704 46.1134 38.4704 46.0275 38.4704C46.0275 38.4704 45.9416 38.3845 45.8557 38.3845H45.7699C45.5981 38.3845 45.5122 38.2987 45.4264 38.2128C45.5122 38.041 45.5122 37.9552 45.5122 37.7834C45.5122 37.6976 45.5122 37.6117 45.5122 37.6117C45.5122 37.5258 45.5981 37.5258 45.5981 37.4399C45.684 37.4399 45.684 37.3541 45.7699 37.3541C45.8557 37.3541 45.9416 37.3541 45.9416 37.3541C46.0275 37.3541 46.1134 37.3541 46.1992 37.4399C46.2851 37.4399 46.371 37.5258 46.371 37.6117C46.4568 37.6976 46.4568 37.6976 46.4568 37.7834H46.2851C46.2851 37.6976 46.1992 37.6976 46.1992 37.6117C46.1992 37.6117 46.1134 37.5258 46.0275 37.5258H45.9416C45.9416 37.5258 45.8557 37.5258 45.8557 37.6117V37.6976C45.8557 37.7834 45.8557 37.7834 45.9416 37.7834C45.9416 37.7834 46.0275 37.8693 46.1134 37.8693H46.1992C46.371 37.8693 46.4568 37.9552 46.5427 38.041C46.6286 38.1269 46.6286 38.2128 46.6286 38.2987C46.6286 38.3845 46.6286 38.4704 46.6286 38.4704C46.6286 38.4704 46.5427 38.5563 46.5427 38.6422C46.5427 38.728 46.4568 38.728 46.371 38.728C46.2851 38.728 46.1134 38.8998 46.0275 38.8998Z" fill="#2B2B2B"/>
<path d="M81.8964 15.926V17.395H79.4784V25H77.6584V17.395H75.2404V15.926H81.8964ZM88.7884 23.271H85.1744L84.5764 25H82.6654L85.9284 15.913H88.0474L91.3104 25H89.3864L88.7884 23.271ZM88.2944 21.815L86.9814 18.019L85.6684 21.815H88.2944ZM98.705 15.926V17.395H96.287V25H94.467V17.395H92.049V15.926H98.705ZM104.245 25.091C103.396 25.091 102.616 24.8917 101.905 24.493C101.194 24.0943 100.631 23.544 100.215 22.842C99.799 22.1313 99.591 21.3297 99.591 20.437C99.591 19.553 99.799 18.76 100.215 18.058C100.631 17.3473 101.194 16.7927 101.905 16.394C102.616 15.9953 103.396 15.796 104.245 15.796C105.103 15.796 105.883 15.9953 106.585 16.394C107.296 16.7927 107.855 17.3473 108.262 18.058C108.678 18.76 108.886 19.553 108.886 20.437C108.886 21.3297 108.678 22.1313 108.262 22.842C107.855 23.544 107.296 24.0943 106.585 24.493C105.874 24.8917 105.094 25.091 104.245 25.091ZM104.245 23.466C104.791 23.466 105.272 23.3447 105.688 23.102C106.104 22.8507 106.429 22.4953 106.663 22.036C106.897 21.5767 107.014 21.0437 107.014 20.437C107.014 19.8303 106.897 19.3017 106.663 18.851C106.429 18.3917 106.104 18.0407 105.688 17.798C105.272 17.5553 104.791 17.434 104.245 17.434C103.699 17.434 103.214 17.5553 102.789 17.798C102.373 18.0407 102.048 18.3917 101.814 18.851C101.58 19.3017 101.463 19.8303 101.463 20.437C101.463 21.0437 101.58 21.5767 101.814 22.036C102.048 22.4953 102.373 22.8507 102.789 23.102C103.214 23.3447 103.699 23.466 104.245 23.466ZM113.373 25.091C112.74 25.091 112.168 24.9827 111.657 24.766C111.154 24.5493 110.756 24.2373 110.461 23.83C110.166 23.4227 110.015 22.9417 110.006 22.387H111.956C111.982 22.7597 112.112 23.0543 112.346 23.271C112.589 23.4877 112.918 23.596 113.334 23.596C113.759 23.596 114.092 23.4963 114.335 23.297C114.578 23.089 114.699 22.8203 114.699 22.491C114.699 22.2223 114.617 22.0013 114.452 21.828C114.287 21.6547 114.079 21.5203 113.828 21.425C113.585 21.321 113.247 21.2083 112.814 21.087C112.225 20.9137 111.744 20.7447 111.371 20.58C111.007 20.4067 110.691 20.151 110.422 19.813C110.162 19.4663 110.032 19.007 110.032 18.435C110.032 17.8977 110.166 17.4297 110.435 17.031C110.704 16.6323 111.081 16.329 111.566 16.121C112.051 15.9043 112.606 15.796 113.23 15.796C114.166 15.796 114.924 16.0257 115.505 16.485C116.094 16.9357 116.419 17.5683 116.48 18.383H114.478C114.461 18.071 114.326 17.8153 114.075 17.616C113.832 17.408 113.507 17.304 113.1 17.304C112.745 17.304 112.459 17.395 112.242 17.577C112.034 17.759 111.93 18.0233 111.93 18.37C111.93 18.6127 112.008 18.8163 112.164 18.981C112.329 19.137 112.528 19.267 112.762 19.371C113.005 19.4663 113.343 19.579 113.776 19.709C114.365 19.8823 114.846 20.0557 115.219 20.229C115.592 20.4023 115.912 20.6623 116.181 21.009C116.45 21.3557 116.584 21.8107 116.584 22.374C116.584 22.8593 116.458 23.31 116.207 23.726C115.956 24.142 115.587 24.4757 115.102 24.727C114.617 24.9697 114.04 25.091 113.373 25.091ZM127.435 15.926V17.395H125.017V25H123.197V17.395H120.779V15.926H127.435ZM135.457 21.243C135.457 21.503 135.44 21.737 135.405 21.945H130.14C130.184 22.465 130.366 22.8723 130.686 23.167C131.007 23.4617 131.401 23.609 131.869 23.609C132.545 23.609 133.026 23.3187 133.312 22.738H135.275C135.067 23.4313 134.669 24.0033 134.079 24.454C133.49 24.896 132.766 25.117 131.908 25.117C131.215 25.117 130.591 24.9653 130.036 24.662C129.49 24.35 129.061 23.9123 128.749 23.349C128.446 22.7857 128.294 22.1357 128.294 21.399C128.294 20.6537 128.446 19.9993 128.749 19.436C129.053 18.8727 129.477 18.4393 130.023 18.136C130.569 17.8327 131.198 17.681 131.908 17.681C132.593 17.681 133.204 17.8283 133.741 18.123C134.287 18.4177 134.708 18.838 135.002 19.384C135.306 19.9213 135.457 20.541 135.457 21.243ZM133.572 20.723C133.564 20.255 133.395 19.8823 133.065 19.605C132.736 19.319 132.333 19.176 131.856 19.176C131.406 19.176 131.024 19.3147 130.712 19.592C130.409 19.8607 130.223 20.2377 130.153 20.723H133.572ZM136.318 21.399C136.318 20.6537 136.47 20.0037 136.773 19.449C137.076 18.8857 137.497 18.4523 138.034 18.149C138.571 17.837 139.187 17.681 139.88 17.681C140.773 17.681 141.509 17.9063 142.09 18.357C142.679 18.799 143.074 19.423 143.273 20.229H141.31C141.206 19.917 141.028 19.6743 140.777 19.501C140.534 19.319 140.231 19.228 139.867 19.228C139.347 19.228 138.935 19.4187 138.632 19.8C138.329 20.1727 138.177 20.7057 138.177 21.399C138.177 22.0837 138.329 22.6167 138.632 22.998C138.935 23.3707 139.347 23.557 139.867 23.557C140.604 23.557 141.085 23.2277 141.31 22.569H143.273C143.074 23.349 142.679 23.9687 142.09 24.428C141.501 24.8873 140.764 25.117 139.88 25.117C139.187 25.117 138.571 24.9653 138.034 24.662C137.497 24.35 137.076 23.9167 136.773 23.362C136.47 22.7987 136.318 22.1443 136.318 21.399ZM148.662 17.694C149.208 17.694 149.694 17.8153 150.118 18.058C150.543 18.292 150.872 18.643 151.106 19.111C151.349 19.5703 151.47 20.125 151.47 20.775V25H149.65V21.022C149.65 20.45 149.507 20.0123 149.221 19.709C148.935 19.397 148.545 19.241 148.051 19.241C147.549 19.241 147.15 19.397 146.855 19.709C146.569 20.0123 146.426 20.45 146.426 21.022V25H144.606V15.38H146.426V18.695C146.66 18.383 146.972 18.1403 147.362 17.967C147.752 17.785 148.186 17.694 148.662 17.694ZM157.192 17.694C158.05 17.694 158.743 17.967 159.272 18.513C159.801 19.0503 160.065 19.8043 160.065 20.775V25H158.245V21.022C158.245 20.45 158.102 20.0123 157.816 19.709C157.53 19.397 157.14 19.241 156.646 19.241C156.143 19.241 155.745 19.397 155.45 19.709C155.164 20.0123 155.021 20.45 155.021 21.022V25H153.201V17.798H155.021V18.695C155.264 18.383 155.571 18.1403 155.944 17.967C156.325 17.785 156.741 17.694 157.192 17.694ZM164.994 25.117C164.3 25.117 163.676 24.9653 163.122 24.662C162.567 24.35 162.129 23.9123 161.809 23.349C161.497 22.7857 161.341 22.1357 161.341 21.399C161.341 20.6623 161.501 20.0123 161.822 19.449C162.151 18.8857 162.597 18.4523 163.161 18.149C163.724 17.837 164.352 17.681 165.046 17.681C165.739 17.681 166.367 17.837 166.931 18.149C167.494 18.4523 167.936 18.8857 168.257 19.449C168.586 20.0123 168.751 20.6623 168.751 21.399C168.751 22.1357 168.582 22.7857 168.244 23.349C167.914 23.9123 167.464 24.35 166.892 24.662C166.328 24.9653 165.696 25.117 164.994 25.117ZM164.994 23.531C165.323 23.531 165.631 23.453 165.917 23.297C166.211 23.1323 166.445 22.8897 166.619 22.569C166.792 22.2483 166.879 21.8583 166.879 21.399C166.879 20.7143 166.697 20.19 166.333 19.826C165.977 19.4533 165.54 19.267 165.02 19.267C164.5 19.267 164.062 19.4533 163.707 19.826C163.36 20.19 163.187 20.7143 163.187 21.399C163.187 22.0837 163.356 22.6123 163.694 22.985C164.04 23.349 164.474 23.531 164.994 23.531ZM171.906 15.38V25H170.086V15.38H171.906ZM176.902 25.117C176.209 25.117 175.585 24.9653 175.03 24.662C174.475 24.35 174.038 23.9123 173.717 23.349C173.405 22.7857 173.249 22.1357 173.249 21.399C173.249 20.6623 173.409 20.0123 173.73 19.449C174.059 18.8857 174.506 18.4523 175.069 18.149C175.632 17.837 176.261 17.681 176.954 17.681C177.647 17.681 178.276 17.837 178.839 18.149C179.402 18.4523 179.844 18.8857 180.165 19.449C180.494 20.0123 180.659 20.6623 180.659 21.399C180.659 22.1357 180.49 22.7857 180.152 23.349C179.823 23.9123 179.372 24.35 178.8 24.662C178.237 24.9653 177.604 25.117 176.902 25.117ZM176.902 23.531C177.231 23.531 177.539 23.453 177.825 23.297C178.12 23.1323 178.354 22.8897 178.527 22.569C178.7 22.2483 178.787 21.8583 178.787 21.399C178.787 20.7143 178.605 20.19 178.241 19.826C177.886 19.4533 177.448 19.267 176.928 19.267C176.408 19.267 175.97 19.4533 175.615 19.826C175.268 20.19 175.095 20.7143 175.095 21.399C175.095 22.0837 175.264 22.6123 175.602 22.985C175.949 23.349 176.382 23.531 176.902 23.531ZM184.815 17.681C185.352 17.681 185.825 17.7893 186.232 18.006C186.639 18.214 186.96 18.487 187.194 18.825V17.798H189.027V25.052C189.027 25.7193 188.893 26.313 188.624 26.833C188.355 27.3617 187.952 27.7777 187.415 28.081C186.878 28.393 186.228 28.549 185.465 28.549C184.442 28.549 183.602 28.3107 182.943 27.834C182.293 27.3573 181.925 26.7073 181.838 25.884H183.645C183.74 26.2133 183.944 26.4733 184.256 26.664C184.577 26.8633 184.962 26.963 185.413 26.963C185.942 26.963 186.371 26.8027 186.7 26.482C187.029 26.17 187.194 25.6933 187.194 25.052V23.934C186.96 24.272 186.635 24.5537 186.219 24.779C185.812 25.0043 185.344 25.117 184.815 25.117C184.208 25.117 183.654 24.961 183.151 24.649C182.648 24.337 182.25 23.8993 181.955 23.336C181.669 22.764 181.526 22.1097 181.526 21.373C181.526 20.645 181.669 19.9993 181.955 19.436C182.25 18.8727 182.644 18.4393 183.138 18.136C183.641 17.8327 184.2 17.681 184.815 17.681ZM187.194 21.399C187.194 20.957 187.107 20.58 186.934 20.268C186.761 19.9473 186.527 19.7047 186.232 19.54C185.937 19.3667 185.621 19.28 185.283 19.28C184.945 19.28 184.633 19.3623 184.347 19.527C184.061 19.6917 183.827 19.9343 183.645 20.255C183.472 20.567 183.385 20.9397 183.385 21.373C183.385 21.8063 183.472 22.1877 183.645 22.517C183.827 22.8377 184.061 23.0847 184.347 23.258C184.642 23.4313 184.954 23.518 185.283 23.518C185.621 23.518 185.937 23.4357 186.232 23.271C186.527 23.0977 186.761 22.855 186.934 22.543C187.107 22.2223 187.194 21.841 187.194 21.399ZM191.727 16.94C191.407 16.94 191.138 16.8403 190.921 16.641C190.713 16.433 190.609 16.1773 190.609 15.874C190.609 15.5707 190.713 15.3193 190.921 15.12C191.138 14.912 191.407 14.808 191.727 14.808C192.048 14.808 192.312 14.912 192.52 15.12C192.737 15.3193 192.845 15.5707 192.845 15.874C192.845 16.1773 192.737 16.433 192.52 16.641C192.312 16.8403 192.048 16.94 191.727 16.94ZM192.624 17.798V25H190.804V17.798H192.624ZM201.118 21.243C201.118 21.503 201.1 21.737 201.066 21.945H195.801C195.844 22.465 196.026 22.8723 196.347 23.167C196.667 23.4617 197.062 23.609 197.53 23.609C198.206 23.609 198.687 23.3187 198.973 22.738H200.936C200.728 23.4313 200.329 24.0033 199.74 24.454C199.15 24.896 198.427 25.117 197.569 25.117C196.875 25.117 196.251 24.9653 195.697 24.662C195.151 24.35 194.722 23.9123 194.41 23.349C194.106 22.7857 193.955 22.1357 193.955 21.399C193.955 20.6537 194.106 19.9993 194.41 19.436C194.713 18.8727 195.138 18.4393 195.684 18.136C196.23 17.8327 196.858 17.681 197.569 17.681C198.253 17.681 198.864 17.8283 199.402 18.123C199.948 18.4177 200.368 18.838 200.663 19.384C200.966 19.9213 201.118 20.541 201.118 21.243ZM199.233 20.723C199.224 20.255 199.055 19.8823 198.726 19.605C198.396 19.319 197.993 19.176 197.517 19.176C197.066 19.176 196.685 19.3147 196.373 19.592C196.069 19.8607 195.883 20.2377 195.814 20.723H199.233ZM205.202 25.117C204.613 25.117 204.084 25.013 203.616 24.805C203.148 24.5883 202.775 24.298 202.498 23.934C202.229 23.57 202.082 23.167 202.056 22.725H203.889C203.924 23.0023 204.058 23.232 204.292 23.414C204.535 23.596 204.834 23.687 205.189 23.687C205.536 23.687 205.804 23.6177 205.995 23.479C206.194 23.3403 206.294 23.1627 206.294 22.946C206.294 22.712 206.173 22.5387 205.93 22.426C205.696 22.3047 205.319 22.1747 204.799 22.036C204.262 21.906 203.82 21.7717 203.473 21.633C203.135 21.4943 202.84 21.282 202.589 20.996C202.346 20.71 202.225 20.3243 202.225 19.839C202.225 19.4403 202.338 19.0763 202.563 18.747C202.797 18.4177 203.126 18.1577 203.551 17.967C203.984 17.7763 204.491 17.681 205.072 17.681C205.93 17.681 206.615 17.8977 207.126 18.331C207.637 18.7557 207.919 19.332 207.971 20.06H206.229C206.203 19.774 206.082 19.5487 205.865 19.384C205.657 19.2107 205.375 19.124 205.02 19.124C204.691 19.124 204.435 19.1847 204.253 19.306C204.08 19.4273 203.993 19.5963 203.993 19.813C203.993 20.0557 204.114 20.242 204.357 20.372C204.6 20.4933 204.977 20.619 205.488 20.749C206.008 20.879 206.437 21.0133 206.775 21.152C207.113 21.2907 207.403 21.5073 207.646 21.802C207.897 22.088 208.027 22.4693 208.036 22.946C208.036 23.362 207.919 23.7347 207.685 24.064C207.46 24.3933 207.13 24.6533 206.697 24.844C206.272 25.026 205.774 25.117 205.202 25.117Z" fill="black"/>
<path d="M84.6499 33.462C85.9819 33.462 87.1399 33.714 88.1239 34.218C89.1079 34.722 89.8639 35.43 90.3919 36.342C90.9199 37.242 91.1839 38.286 91.1839 39.474C91.1839 40.422 91.0279 41.334 90.7159 42.21C90.4039 43.074 89.9479 43.776 89.3479 44.316C88.7599 44.856 88.0699 45.126 87.2779 45.126C86.6779 45.126 86.2159 44.976 85.8919 44.676C85.5679 44.376 85.3819 43.968 85.3339 43.452C84.9619 43.968 84.4879 44.376 83.9119 44.676C83.3479 44.976 82.7479 45.126 82.1119 45.126C81.1999 45.126 80.4799 44.85 79.9519 44.298C79.4359 43.734 79.1779 42.978 79.1779 42.03C79.1779 41.13 79.3639 40.29 79.7359 39.51C80.1199 38.73 80.6479 38.106 81.3199 37.638C81.9919 37.158 82.7539 36.918 83.6059 36.918C84.7459 36.918 85.5139 37.35 85.9099 38.214L86.1079 37.098H87.5299L86.6299 42.3C86.5939 42.528 86.5759 42.738 86.5759 42.93C86.5759 43.65 86.8939 44.01 87.5299 44.01C88.0099 44.01 88.4239 43.782 88.7719 43.326C89.1319 42.87 89.4019 42.3 89.5819 41.616C89.7619 40.92 89.8519 40.236 89.8519 39.564C89.8519 37.992 89.3779 36.774 88.4299 35.91C87.4939 35.046 86.1679 34.614 84.4519 34.614C83.0239 34.614 81.7339 34.962 80.5819 35.658C79.4419 36.342 78.5479 37.284 77.8999 38.484C77.2519 39.684 76.9279 41.01 76.9279 42.462C76.9159 44.046 77.3899 45.264 78.3499 46.116C79.3099 46.98 80.6419 47.412 82.3459 47.412C83.4739 47.412 84.4699 47.208 85.3339 46.8L85.5499 47.916C84.4819 48.36 83.3059 48.582 82.0219 48.582C80.7379 48.582 79.6039 48.336 78.6199 47.844C77.6479 47.364 76.8919 46.668 76.3519 45.756C75.8239 44.856 75.5599 43.806 75.5599 42.606C75.5599 40.914 75.9499 39.372 76.7299 37.98C77.5099 36.576 78.5899 35.472 79.9699 34.668C81.3619 33.864 82.9219 33.462 84.6499 33.462ZM82.5979 43.848C83.1379 43.848 83.6359 43.692 84.0919 43.38C84.5479 43.056 84.9079 42.624 85.1719 42.084C85.4359 41.532 85.5679 40.932 85.5679 40.284C85.5679 39.66 85.3939 39.156 85.0459 38.772C84.7099 38.376 84.2299 38.178 83.6059 38.178C83.0299 38.178 82.5199 38.352 82.0759 38.7C81.6439 39.036 81.3079 39.486 81.0679 40.05C80.8279 40.602 80.7079 41.178 80.7079 41.778C80.7079 42.414 80.8699 42.918 81.1939 43.29C81.5179 43.662 81.9859 43.848 82.5979 43.848ZM95.8764 36.486V42.3C95.8764 42.78 95.9784 43.122 96.1824 43.326C96.3864 43.518 96.7404 43.614 97.2444 43.614H98.4504V45H96.9744C96.0624 45 95.3784 44.79 94.9224 44.37C94.4664 43.95 94.2384 43.26 94.2384 42.3V36.486H92.9604V35.136H94.2384V32.652H95.8764V35.136H98.4504V36.486H95.8764ZM99.823 40.032C99.823 39.024 100.027 38.142 100.435 37.386C100.843 36.618 101.401 36.024 102.109 35.604C102.829 35.184 103.627 34.974 104.503 34.974C105.367 34.974 106.117 35.16 106.753 35.532C107.389 35.904 107.863 36.372 108.175 36.936V35.136H109.831V45H108.175V43.164C107.851 43.74 107.365 44.22 106.717 44.604C106.081 44.976 105.337 45.162 104.485 45.162C103.609 45.162 102.817 44.946 102.109 44.514C101.401 44.082 100.843 43.476 100.435 42.696C100.027 41.916 99.823 41.028 99.823 40.032ZM108.175 40.05C108.175 39.306 108.025 38.658 107.725 38.106C107.425 37.554 107.017 37.134 106.501 36.846C105.997 36.546 105.439 36.396 104.827 36.396C104.215 36.396 103.657 36.54 103.153 36.828C102.649 37.116 102.247 37.536 101.947 38.088C101.647 38.64 101.497 39.288 101.497 40.032C101.497 40.788 101.647 41.448 101.947 42.012C102.247 42.564 102.649 42.99 103.153 43.29C103.657 43.578 104.215 43.722 104.827 43.722C105.439 43.722 105.997 43.578 106.501 43.29C107.017 42.99 107.425 42.564 107.725 42.012C108.025 41.448 108.175 40.794 108.175 40.05ZM114.597 36.486V42.3C114.597 42.78 114.699 43.122 114.903 43.326C115.107 43.518 115.461 43.614 115.965 43.614H117.171V45H115.695C114.783 45 114.099 44.79 113.643 44.37C113.187 43.95 112.959 43.26 112.959 42.3V36.486H111.681V35.136H112.959V32.652H114.597V35.136H117.171V36.486H114.597ZM123.458 45.162C122.534 45.162 121.694 44.952 120.938 44.532C120.194 44.112 119.606 43.518 119.174 42.75C118.754 41.97 118.544 41.07 118.544 40.05C118.544 39.042 118.76 38.154 119.192 37.386C119.636 36.606 120.236 36.012 120.992 35.604C121.748 35.184 122.594 34.974 123.53 34.974C124.466 34.974 125.312 35.184 126.068 35.604C126.824 36.012 127.418 36.6 127.85 37.368C128.294 38.136 128.516 39.03 128.516 40.05C128.516 41.07 128.288 41.97 127.832 42.75C127.388 43.518 126.782 44.112 126.014 44.532C125.246 44.952 124.394 45.162 123.458 45.162ZM123.458 43.722C124.046 43.722 124.598 43.584 125.114 43.308C125.63 43.032 126.044 42.618 126.356 42.066C126.68 41.514 126.842 40.842 126.842 40.05C126.842 39.258 126.686 38.586 126.374 38.034C126.062 37.482 125.654 37.074 125.15 36.81C124.646 36.534 124.1 36.396 123.512 36.396C122.912 36.396 122.36 36.534 121.856 36.81C121.364 37.074 120.968 37.482 120.668 38.034C120.368 38.586 120.218 39.258 120.218 40.05C120.218 40.854 120.362 41.532 120.65 42.084C120.95 42.636 121.346 43.05 121.838 43.326C122.33 43.59 122.87 43.722 123.458 43.722ZM134.161 45.162C133.405 45.162 132.727 45.036 132.127 44.784C131.527 44.52 131.053 44.16 130.705 43.704C130.357 43.236 130.165 42.702 130.129 42.102H131.821C131.869 42.594 132.097 42.996 132.505 43.308C132.925 43.62 133.471 43.776 134.143 43.776C134.767 43.776 135.259 43.638 135.619 43.362C135.979 43.086 136.159 42.738 136.159 42.318C136.159 41.886 135.967 41.568 135.583 41.364C135.199 41.148 134.605 40.938 133.801 40.734C133.069 40.542 132.469 40.35 132.001 40.158C131.545 39.954 131.149 39.66 130.813 39.276C130.489 38.88 130.327 38.364 130.327 37.728C130.327 37.224 130.477 36.762 130.777 36.342C131.077 35.922 131.503 35.592 132.055 35.352C132.607 35.1 133.237 34.974 133.945 34.974C135.037 34.974 135.919 35.25 136.591 35.802C137.263 36.354 137.623 37.11 137.671 38.07H136.033C135.997 37.554 135.787 37.14 135.403 36.828C135.031 36.516 134.527 36.36 133.891 36.36C133.303 36.36 132.835 36.486 132.487 36.738C132.139 36.99 131.965 37.32 131.965 37.728C131.965 38.052 132.067 38.322 132.271 38.538C132.487 38.742 132.751 38.91 133.063 39.042C133.387 39.162 133.831 39.3 134.395 39.456C135.103 39.648 135.679 39.84 136.123 40.032C136.567 40.212 136.945 40.488 137.257 40.86C137.581 41.232 137.749 41.718 137.761 42.318C137.761 42.858 137.611 43.344 137.311 43.776C137.011 44.208 136.585 44.55 136.033 44.802C135.493 45.042 134.869 45.162 134.161 45.162ZM140.596 45.108C140.284 45.108 140.02 45 139.804 44.784C139.588 44.568 139.48 44.304 139.48 43.992C139.48 43.68 139.588 43.416 139.804 43.2C140.02 42.984 140.284 42.876 140.596 42.876C140.896 42.876 141.148 42.984 141.352 43.2C141.568 43.416 141.676 43.68 141.676 43.992C141.676 44.304 141.568 44.568 141.352 44.784C141.148 45 140.896 45.108 140.596 45.108ZM145.851 36.486V42.3C145.851 42.78 145.953 43.122 146.157 43.326C146.361 43.518 146.715 43.614 147.219 43.614H148.425V45H146.949C146.037 45 145.353 44.79 144.897 44.37C144.441 43.95 144.213 43.26 144.213 42.3V36.486H142.935V35.136H144.213V32.652H145.851V35.136H148.425V36.486H145.851ZM159.41 39.69C159.41 40.002 159.392 40.332 159.356 40.68H151.472C151.532 41.652 151.862 42.414 152.462 42.966C153.074 43.506 153.812 43.776 154.676 43.776C155.384 43.776 155.972 43.614 156.44 43.29C156.92 42.954 157.256 42.51 157.448 41.958H159.212C158.948 42.906 158.42 43.68 157.628 44.28C156.836 44.868 155.852 45.162 154.676 45.162C153.74 45.162 152.9 44.952 152.156 44.532C151.424 44.112 150.848 43.518 150.428 42.75C150.008 41.97 149.798 41.07 149.798 40.05C149.798 39.03 150.002 38.136 150.41 37.368C150.818 36.6 151.388 36.012 152.12 35.604C152.864 35.184 153.716 34.974 154.676 34.974C155.612 34.974 156.44 35.178 157.16 35.586C157.88 35.994 158.432 36.558 158.816 37.278C159.212 37.986 159.41 38.79 159.41 39.69ZM157.718 39.348C157.718 38.724 157.58 38.19 157.304 37.746C157.028 37.29 156.65 36.948 156.17 36.72C155.702 36.48 155.18 36.36 154.604 36.36C153.776 36.36 153.068 36.624 152.48 37.152C151.904 37.68 151.574 38.412 151.49 39.348H157.718ZM160.96 40.05C160.96 39.03 161.164 38.142 161.572 37.386C161.98 36.618 162.544 36.024 163.264 35.604C163.996 35.184 164.83 34.974 165.766 34.974C166.978 34.974 167.974 35.268 168.754 35.856C169.546 36.444 170.068 37.26 170.32 38.304H168.556C168.388 37.704 168.058 37.23 167.566 36.882C167.086 36.534 166.486 36.36 165.766 36.36C164.83 36.36 164.074 36.684 163.498 37.332C162.922 37.968 162.634 38.874 162.634 40.05C162.634 41.238 162.922 42.156 163.498 42.804C164.074 43.452 164.83 43.776 165.766 43.776C166.486 43.776 167.086 43.608 167.566 43.272C168.046 42.936 168.376 42.456 168.556 41.832H170.32C170.056 42.84 169.528 43.65 168.736 44.262C167.944 44.862 166.954 45.162 165.766 45.162C164.83 45.162 163.996 44.952 163.264 44.532C162.544 44.112 161.98 43.518 161.572 42.75C161.164 41.982 160.96 41.082 160.96 40.05ZM177.401 34.956C178.145 34.956 178.817 35.118 179.417 35.442C180.017 35.754 180.485 36.228 180.821 36.864C181.169 37.5 181.343 38.274 181.343 39.186V45H179.723V39.42C179.723 38.436 179.477 37.686 178.985 37.17C178.493 36.642 177.821 36.378 176.969 36.378C176.105 36.378 175.415 36.648 174.899 37.188C174.395 37.728 174.143 38.514 174.143 39.546V45H172.505V31.68H174.143V36.54C174.467 36.036 174.911 35.646 175.475 35.37C176.051 35.094 176.693 34.956 177.401 34.956Z" fill="black"/>
<path d="M519.027 30.3386H516.202V26.7416H512.038V30.3386H509.985V33.4664H512.038V41.2859C512.018 44.2279 514.022 45.6843 517.042 45.5573C518.118 45.5182 518.88 45.3031 519.3 45.1663L518.645 42.0678C518.44 42.1069 518 42.2046 517.609 42.2046C516.779 42.2046 516.202 41.8919 516.202 40.7385V33.4664H519.027V30.3386ZM528.42 45.6452C532.134 45.6452 534.636 43.837 535.223 41.0513L531.372 40.7971C530.951 41.9407 529.876 42.537 528.488 42.537C526.406 42.537 525.087 41.1588 525.087 38.9205V38.9107H535.311V37.7671C535.311 32.6649 532.222 30.1431 528.254 30.1431C523.836 30.1431 520.972 33.2807 520.972 37.9137C520.972 42.6738 523.797 45.6452 528.42 45.6452ZM525.087 36.3303C525.175 34.6197 526.475 33.2513 528.322 33.2513C530.13 33.2513 531.381 34.5416 531.391 36.3303H525.087ZM544.811 45.6452C548.809 45.6452 551.321 43.2994 551.517 39.849H547.587C547.343 41.452 546.287 42.3513 544.86 42.3513C542.915 42.3513 541.654 40.7189 541.654 37.8453C541.654 35.0107 542.925 33.3882 544.86 33.3882C546.385 33.3882 547.363 34.3949 547.587 35.8904H551.517C551.341 32.4205 548.711 30.1431 544.792 30.1431C540.237 30.1431 537.422 33.3002 537.422 37.9039C537.422 42.4686 540.188 45.6452 544.811 45.6452ZM558.346 36.6724C558.356 34.737 559.539 33.6032 561.24 33.6032C562.931 33.6032 563.928 34.6882 563.918 36.5355V45.352H568.082V35.7927C568.092 32.2739 566.019 30.1431 562.892 30.1431C560.614 30.1431 559.089 31.2183 558.405 32.9874H558.229V25.3341H554.183V45.352H558.346V36.6724Z" fill="#2B2B2B"/>
<path d="M571.985 42.2126C571.758 39.4171 571.495 36.6395 571.196 33.8799C570.909 31.1203 570.485 28.3666 569.924 25.619C569.9 25.5234 569.888 25.4398 569.888 25.3681C569.888 25.2845 569.888 25.2068 569.888 25.1351C569.888 24.8604 569.942 24.6214 570.049 24.4183C570.169 24.2152 570.324 24.048 570.515 23.9166C570.706 23.7732 570.921 23.6657 571.16 23.594C571.411 23.5224 571.674 23.4865 571.949 23.4865C572.678 23.4865 573.179 23.827 573.454 24.5079C573.574 24.8544 573.693 25.3502 573.812 25.9953C573.944 26.6404 574.075 27.387 574.207 28.2352C574.35 29.0834 574.487 30.0152 574.619 31.0307C574.75 32.0342 574.876 33.0676 574.995 34.1308C575.031 34.4294 575.127 34.5788 575.282 34.5788C575.413 34.5788 575.551 34.4892 575.694 34.31C577.438 32.0163 579.505 30.8694 581.894 30.8694C582.79 30.8694 583.626 31.0665 584.403 31.4608C585.179 31.855 585.854 32.3926 586.428 33.0735C587.001 33.7545 587.449 34.5609 587.772 35.4927C588.106 36.4245 588.274 37.428 588.274 38.5032C588.274 39.5067 588.112 40.4385 587.79 41.2986C587.479 42.1588 587.043 42.8995 586.482 43.5207C585.92 44.1419 585.251 44.6317 584.475 44.9901C583.71 45.3365 582.874 45.5098 581.966 45.5098C580.843 45.5098 579.744 45.2947 578.669 44.8647C577.593 44.4226 576.578 43.8313 575.622 43.0906C575.515 42.995 575.401 42.9473 575.282 42.9473C575.127 42.9473 574.983 43.0309 574.852 43.1981C574.661 43.4132 574.458 43.5565 574.243 43.6282C574.027 43.6879 573.765 43.7178 573.454 43.7178C572.51 43.7178 572.02 43.2161 571.985 42.2126ZM581.267 34.2025C580.789 34.2025 580.311 34.316 579.833 34.5429C579.368 34.758 578.926 35.0686 578.507 35.4748C578.089 35.8809 577.701 36.3707 577.343 36.9442C576.996 37.5057 576.703 38.1328 576.465 38.8257C576.441 38.8616 576.423 38.9153 576.411 38.987C576.399 39.0587 576.393 39.1184 576.393 39.1662C576.393 39.3693 576.465 39.5246 576.608 39.6321C577.038 40.0025 577.48 40.3489 577.934 40.6715C578.4 40.994 578.86 41.2748 579.314 41.5137C579.768 41.7526 580.216 41.9438 580.658 42.0871C581.1 42.2185 581.512 42.2842 581.894 42.2842C582.754 42.2842 583.405 42.0334 583.847 41.5316C584.301 41.0299 584.528 40.3011 584.528 39.3454C584.528 38.6047 584.445 37.9238 584.278 37.3026C584.11 36.6694 583.883 36.1258 583.597 35.6719C583.31 35.206 582.963 34.8476 582.557 34.5967C582.163 34.3339 581.733 34.2025 581.267 34.2025ZM601.91 30.6902C602.568 30.6902 603.201 30.7918 603.81 30.9948C604.419 31.1979 604.957 31.4787 605.423 31.8371C605.889 32.1955 606.259 32.6255 606.534 33.1273C606.82 33.629 606.964 34.1845 606.964 34.7938C606.964 35.0447 606.904 35.2896 606.785 35.5285C606.677 35.7555 606.528 35.9586 606.337 36.1378C606.145 36.305 605.924 36.4424 605.674 36.5499C605.435 36.6455 605.184 36.6933 604.921 36.6933C604.897 36.6933 604.873 36.6993 604.849 36.7112C604.837 36.7112 604.819 36.7112 604.796 36.7112C604.772 36.7232 604.748 36.7291 604.724 36.7291L604.796 38.1627C604.843 39.871 605.082 41.1195 605.512 41.9079C605.954 42.6964 606.528 43.0906 607.233 43.0906C607.483 43.0906 607.704 43.0667 607.896 43.0189C608.099 42.9711 608.284 42.9174 608.451 42.8577C608.63 42.786 608.798 42.7262 608.953 42.6785C609.108 42.6307 609.263 42.6068 609.419 42.6068C609.694 42.6068 609.932 42.7262 610.136 42.9652C610.351 43.2041 610.458 43.4908 610.458 43.8253C610.458 44.1598 610.327 44.4943 610.064 44.8288C609.813 45.1633 609.479 45.468 609.06 45.7427C608.642 46.0055 608.17 46.2206 607.645 46.3878C607.119 46.5551 606.587 46.6387 606.05 46.6387C605.118 46.6387 604.3 46.2564 603.595 45.4918C602.89 44.7153 602.388 43.5804 602.09 42.0871C602.018 41.8482 601.922 41.7287 601.803 41.7287C601.66 41.7287 601.534 41.8004 601.427 41.9438C600.244 43.4371 598.984 44.56 597.646 45.3126C596.308 46.0533 594.987 46.4237 593.685 46.4237C593.076 46.4237 592.527 46.3341 592.037 46.1549C591.547 45.9757 591.129 45.7248 590.782 45.4022C590.448 45.0677 590.185 44.6675 589.994 44.2016C589.815 43.7238 589.725 43.1922 589.725 42.6068C589.725 41.7825 589.904 40.9164 590.263 40.0084C590.633 39.1005 591.129 38.2045 591.75 37.3205C592.371 36.4364 593.088 35.5942 593.9 34.7938C594.725 33.9934 595.585 33.2886 596.481 32.6793C597.389 32.07 598.309 31.5862 599.24 31.2278C600.172 30.8694 601.062 30.6902 601.91 30.6902ZM601.319 36.8904C601.534 36.4842 601.731 36.1915 601.91 36.0124C602.09 35.8212 602.346 35.6958 602.681 35.636C602.944 35.6002 603.075 35.5166 603.075 35.3852C603.075 35.2896 603.039 35.188 602.968 35.0805C602.741 34.7699 602.502 34.5011 602.251 34.2741C602 34.0352 601.666 33.9158 601.247 33.9158C600.793 33.9158 600.286 34.0472 599.724 34.31C599.163 34.5728 598.589 34.9252 598.004 35.3672C597.431 35.7973 596.863 36.2931 596.302 36.8546C595.752 37.4041 595.262 37.9716 594.832 38.5569C594.402 39.1423 594.056 39.7217 593.793 40.2951C593.53 40.8686 593.399 41.3823 593.399 41.8362C593.399 42.2424 593.506 42.559 593.721 42.786C593.948 43.013 594.253 43.1265 594.635 43.1265C595.615 43.1265 596.684 42.6068 597.843 41.5674C599.001 40.5281 600.16 38.9691 601.319 36.8904ZM610.082 25.9415C610.082 25.3203 610.261 24.8783 610.619 24.6155C610.978 24.3526 611.569 24.2212 612.393 24.2212C612.68 24.2212 612.931 24.2511 613.146 24.3108C613.361 24.3705 613.54 24.4721 613.684 24.6155C613.827 24.7469 613.941 24.932 614.024 25.171C614.12 25.3979 614.197 25.6906 614.257 26.049C614.412 27.1123 614.568 28.2292 614.723 29.4C614.89 30.5588 615.046 31.7176 615.189 32.8764C615.344 34.0233 615.488 35.1462 615.619 36.2453C615.75 37.3324 615.864 38.3479 615.959 39.2916C616.067 40.2235 616.145 41.0537 616.192 41.7825C616.252 42.4993 616.282 43.0667 616.282 43.4848C616.282 43.9149 616.24 44.2793 616.157 44.5779C616.085 44.8766 615.953 45.1155 615.762 45.2947C615.583 45.4739 615.344 45.6053 615.046 45.689C614.759 45.7606 614.4 45.7965 613.97 45.7965C613.552 45.7965 613.218 45.689 612.967 45.4739C612.728 45.2589 612.608 44.9304 612.608 44.4883C612.608 44.0344 612.573 43.4311 612.501 42.6785C612.429 41.9139 612.334 41.0657 612.214 40.1339C612.095 39.202 611.957 38.2105 611.802 37.1592C611.659 36.1079 611.503 35.0686 611.336 34.0412C611.181 33.0138 611.026 32.0282 610.87 31.0844C610.727 30.1287 610.596 29.2865 610.476 28.5578C610.357 27.8171 610.261 27.2138 610.189 26.7479C610.118 26.27 610.082 26.0012 610.082 25.9415ZM618.181 25.9415C618.181 25.3203 618.361 24.8783 618.719 24.6155C619.077 24.3526 619.669 24.2212 620.493 24.2212C620.78 24.2212 621.031 24.2511 621.246 24.3108C621.461 24.3705 621.64 24.4721 621.783 24.6155C621.927 24.7469 622.04 24.932 622.124 25.171C622.219 25.3979 622.297 25.6906 622.357 26.049C622.512 27.1123 622.667 28.2292 622.823 29.4C622.99 30.5588 623.145 31.7176 623.289 32.8764C623.444 34.0233 623.587 35.1462 623.719 36.2453C623.85 37.3324 623.964 38.3479 624.059 39.2916C624.167 40.2235 624.244 41.0537 624.292 41.7825C624.352 42.4993 624.382 43.0667 624.382 43.4848C624.382 43.9149 624.34 44.2793 624.256 44.5779C624.185 44.8766 624.053 45.1155 623.862 45.2947C623.683 45.4739 623.444 45.6053 623.145 45.689C622.859 45.7606 622.5 45.7965 622.07 45.7965C621.652 45.7965 621.317 45.689 621.067 45.4739C620.828 45.2589 620.708 44.9304 620.708 44.4883C620.708 44.0344 620.672 43.4311 620.601 42.6785C620.529 41.9139 620.433 41.0657 620.314 40.1339C620.194 39.202 620.057 38.2105 619.902 37.1592C619.758 36.1079 619.603 35.0686 619.436 34.0412C619.281 33.0138 619.125 32.0282 618.97 31.0844C618.827 30.1287 618.695 29.2865 618.576 28.5578C618.456 27.8171 618.361 27.2138 618.289 26.7479C618.217 26.27 618.181 26.0012 618.181 25.9415ZM627.482 40.4027C627.482 40.1996 627.506 39.9726 627.553 39.7217C627.601 39.4708 627.625 39.1961 627.625 38.8974C627.625 38.6943 627.536 38.539 627.356 38.4315C627.189 38.324 626.998 38.2045 626.783 38.0731C626.568 37.9417 626.371 37.7744 626.192 37.5714C626.024 37.3683 625.941 37.0756 625.941 36.6933C625.941 36.4185 626.012 36.1438 626.156 35.869C626.311 35.5942 626.532 35.3434 626.819 35.1164C627.524 34.5907 628.252 34.1188 629.005 33.7007C629.77 33.2826 630.528 32.9302 631.281 32.6435C632.045 32.3567 632.798 32.1357 633.539 31.9804C634.279 31.8251 634.99 31.7475 635.671 31.7475C636.818 31.7475 637.893 31.9625 638.897 32.3926C639.912 32.8107 640.79 33.3901 641.531 34.1308C642.283 34.8595 642.875 35.7197 643.305 36.7112C643.747 37.6908 643.968 38.7421 643.968 39.8651C643.968 40.9641 643.735 42.0095 643.269 43.001C642.815 43.9806 642.2 44.8408 641.423 45.5814C640.647 46.3221 639.733 46.9075 638.682 47.3376C637.642 47.7796 636.543 48.0006 635.384 48.0006C634.249 48.0006 633.198 47.8095 632.231 47.4272C631.263 47.0449 630.427 46.5192 629.722 45.8502C629.017 45.1693 628.467 44.3689 628.073 43.449C627.679 42.5172 627.482 41.5017 627.482 40.4027ZM635.779 44.7751C636.28 44.7751 636.8 44.6735 637.338 44.4704C637.875 44.2673 638.365 43.9746 638.807 43.5924C639.261 43.1981 639.631 42.7203 639.918 42.1588C640.217 41.5973 640.366 40.9641 640.366 40.2593C640.366 39.5425 640.235 38.8735 639.972 38.2523C639.709 37.6311 639.345 37.0935 638.879 36.6395C638.425 36.1736 637.881 35.8093 637.248 35.5464C636.627 35.2836 635.952 35.1522 635.223 35.1522C633.897 35.1522 632.882 35.4987 632.177 36.1915C631.472 36.8725 631.119 37.9238 631.119 39.3454C631.119 40.1219 631.233 40.8447 631.46 41.5137C631.699 42.1707 632.027 42.7442 632.446 43.234C632.864 43.7118 633.353 44.0881 633.915 44.3629C634.488 44.6377 635.11 44.7751 635.779 44.7751ZM647.982 25.6548C647.982 25.0216 648.161 24.5796 648.519 24.3287C648.878 24.0659 649.469 23.9345 650.294 23.9345C650.592 23.9345 650.843 23.9644 651.046 24.0241C651.261 24.0719 651.44 24.1675 651.584 24.3108C651.739 24.4542 651.858 24.6453 651.942 24.8842C652.038 25.1112 652.115 25.4039 652.175 25.7623C652.318 26.8733 652.474 28.0202 652.641 29.2029C652.82 30.3856 653.005 31.5742 653.196 32.7689C653.268 33.3065 653.549 33.5753 654.039 33.5753C654.17 33.5753 654.385 33.5633 654.684 33.5394C654.994 33.5036 655.359 33.4678 655.777 33.4319C656.195 33.3841 656.643 33.3363 657.121 33.2886C657.611 33.2408 658.095 33.199 658.572 33.1631C659.062 33.1153 659.522 33.0795 659.952 33.0556C660.394 33.0198 660.782 33.0018 661.117 33.0018C661.38 33.0018 661.589 33.0556 661.744 33.1631C661.899 33.2587 662.019 33.3901 662.103 33.5574C662.198 33.7127 662.258 33.8919 662.282 34.0949C662.318 34.2861 662.336 34.4832 662.336 34.6863C662.336 34.8655 662.3 35.0507 662.228 35.2418C662.168 35.4329 662.079 35.6062 661.959 35.7615C661.852 35.9048 661.714 36.0243 661.547 36.1199C661.38 36.2154 661.189 36.2632 660.974 36.2632C659.934 36.2632 658.883 36.2991 657.82 36.3707C656.768 36.4305 655.717 36.5141 654.666 36.6216C654.128 36.6933 653.86 36.9621 653.86 37.428C653.86 37.4638 653.865 37.5116 653.877 37.5714C653.889 37.6191 653.895 37.661 653.895 37.6968C654.039 38.7361 654.17 39.7098 654.29 40.6177C654.421 41.5256 654.529 42.338 654.612 43.0548C654.708 43.7596 654.779 44.351 654.827 44.8288C654.887 45.2947 654.917 45.6053 654.917 45.7606C654.917 46.1907 654.875 46.5491 654.791 46.8358C654.708 47.1345 654.57 47.3734 654.379 47.5526C654.188 47.7437 653.931 47.8752 653.609 47.9468C653.298 48.0305 652.904 48.0723 652.426 48.0723C651.972 48.0723 651.637 47.9648 651.422 47.7497C651.207 47.5347 651.088 47.2062 651.064 46.7641C650.992 45.3545 650.879 43.9388 650.724 42.5172C650.568 41.0836 650.389 39.656 650.186 38.2344C650.078 37.7207 649.81 37.4638 649.38 37.4638C649.344 37.4638 649.302 37.4698 649.254 37.4818C649.206 37.4937 649.165 37.4997 649.129 37.4997C648.388 37.6669 647.689 37.8342 647.032 38.0014C646.375 38.1687 645.76 38.3479 645.186 38.539C644.864 38.6465 644.577 38.7242 644.326 38.772C644.075 38.8078 643.848 38.8257 643.645 38.8257C643.371 38.8257 643.167 38.7063 643.036 38.4673C642.905 38.2165 642.839 37.9059 642.839 37.5355C642.839 37.4041 642.851 37.2548 642.875 37.0875C642.899 36.9083 642.946 36.7351 643.018 36.5679C643.078 36.3887 643.173 36.2274 643.305 36.084C643.424 35.9287 643.592 35.8033 643.807 35.7077C644.308 35.5046 644.977 35.2956 645.814 35.0805C646.65 34.8535 647.594 34.6445 648.645 34.4533C648.884 34.3936 649.069 34.298 649.2 34.1666C649.344 34.0233 649.415 33.8142 649.415 33.5394C649.415 33.4797 649.415 33.42 649.415 33.3602C649.415 33.2886 649.404 33.2169 649.38 33.1452C649.188 32.0461 649.003 31.0486 648.824 30.1526C648.657 29.2447 648.508 28.4682 648.376 27.8231C648.257 27.178 648.161 26.6702 648.089 26.2999C648.018 25.9296 647.982 25.7145 647.982 25.6548Z" fill="#F7CA31"/>
<path d="M512.226 23.3535V15.1573H509.379V13.2593H517.144V15.1573H514.297V23.3535H512.226Z" fill="#2B2B2B"/>
<path d="M516.508 23.3535L520.476 13.2593H522.72L526.688 23.3535H524.531L523.669 21.1103H519.355L518.492 23.3535H516.508ZM520.045 19.3848H523.065L521.512 15.3299L520.045 19.3848Z" fill="#2B2B2B"/>
<path d="M529.395 23.3535V15.1573H526.548V13.2593H534.313V15.1573H531.466V23.3535H529.395Z" fill="#2B2B2B"/>
<path d="M540.18 23.6118C539.576 23.6118 539.058 23.5256 538.454 23.353C537.85 23.1805 537.419 22.9216 536.987 22.6628C536.556 22.3177 536.211 21.9726 535.866 21.5412C535.521 21.1099 535.348 20.5922 535.176 20.0746C535.003 19.5569 534.917 18.953 534.917 18.3491C534.917 17.7451 535.003 17.1412 535.176 16.6236C535.348 16.1059 535.607 15.5883 535.866 15.1569C536.211 14.7255 536.556 14.3804 536.987 14.0353C537.419 13.6902 537.936 13.4314 538.454 13.2588C538.972 13.0863 539.576 13 540.18 13C540.784 13 541.301 13.0863 541.905 13.2588C542.423 13.4314 542.94 13.6902 543.372 13.949C543.803 14.2941 544.148 14.6392 544.493 15.0706C544.839 15.502 545.011 16.0196 545.184 16.5373C545.356 17.0549 545.442 17.6589 545.442 18.2628C545.442 18.8667 545.356 19.4706 545.184 19.9883C545.011 20.5059 544.752 21.0236 544.493 21.455C544.148 21.8863 543.803 22.2314 543.372 22.5765C542.94 22.9216 542.423 23.1805 541.905 23.353C541.388 23.5256 540.784 23.6118 540.18 23.6118ZM540.266 21.7138C540.697 21.7138 541.129 21.6275 541.474 21.455C541.819 21.2824 542.164 21.0236 542.423 20.7648C542.682 20.4197 542.94 20.0746 543.027 19.7295C543.199 19.2981 543.286 18.8667 543.286 18.3491C543.286 17.8314 543.199 17.4 543.027 16.9687C542.854 16.5373 542.682 16.1922 542.423 15.9334C542.164 15.5883 541.819 15.4157 541.474 15.2432C541.129 15.0706 540.697 14.9843 540.266 14.9843C539.835 14.9843 539.403 15.0706 539.058 15.2432C538.713 15.4157 538.368 15.6745 538.109 15.9334C537.85 16.2785 537.591 16.6236 537.505 16.9687C537.333 17.4 537.246 17.8314 537.246 18.3491C537.246 18.8667 537.333 19.2981 537.505 19.7295C537.678 20.1608 537.85 20.5059 538.109 20.7648C538.368 21.1099 538.713 21.2824 539.058 21.455C539.403 21.6275 539.748 21.7138 540.266 21.7138Z" fill="#2B2B2B"/>
<path d="M550.101 23.5256C549.497 23.5256 548.979 23.4393 548.462 23.1805C547.944 23.0079 547.513 22.6628 547.168 22.2314C546.823 21.8001 546.564 21.3687 546.477 20.851L548.462 20.4197C548.548 20.851 548.807 21.1099 549.066 21.3687C549.411 21.6275 549.756 21.7138 550.187 21.7138C550.532 21.7138 550.791 21.6275 550.964 21.5412C551.136 21.455 551.395 21.2824 551.481 21.1099C551.568 20.9373 551.654 20.6785 551.654 20.4197C551.654 20.0746 551.568 19.8157 551.309 19.6432C551.05 19.4706 550.705 19.2981 550.187 19.1255L549.756 19.0393C548.721 18.7804 547.944 18.4353 547.427 17.9177C546.909 17.4 546.65 16.7961 546.65 16.1059C546.65 15.6745 546.736 15.2432 546.909 14.8981C547.081 14.553 547.34 14.2079 547.685 13.949C548.03 13.6902 548.376 13.4314 548.807 13.2588C549.238 13.0863 549.67 13 550.187 13C550.705 13 551.309 13.0863 551.74 13.3451C552.258 13.5177 552.603 13.8628 552.948 14.2079C553.293 14.6392 553.466 15.0706 553.638 15.5883L551.654 16.0196C551.568 15.6745 551.309 15.3294 551.05 15.1569C550.791 14.9843 550.446 14.8118 550.101 14.8118C549.842 14.8118 549.583 14.8981 549.411 14.9843C549.238 15.0706 549.066 15.2432 548.893 15.4157C548.807 15.5883 548.721 15.7608 548.721 16.0196C548.721 16.3647 548.807 16.6236 549.066 16.7961C549.325 16.9687 549.67 17.1412 550.187 17.2275L550.619 17.3138C551.654 17.5726 552.43 17.9177 552.948 18.4353C553.466 18.953 553.725 19.5569 553.725 20.3334C553.725 20.851 553.638 21.2824 553.466 21.6275C553.293 22.0589 553.034 22.404 552.689 22.6628C552.344 22.9216 551.999 23.1805 551.568 23.353C551.05 23.4393 550.619 23.5256 550.101 23.5256Z" fill="#2B2B2B"/>
<path d="M500.207 28.118L498.893 34.2517H503.951V39.2303H497.818L496.384 46.0012H491.087L492.52 39.2303H485.272L483.838 46.0012H478.58L480.014 39.2303H474V34.2517H481.09L482.404 28.118H476.43V23.1394H483.479L484.873 16.5278H490.131L488.737 23.1394H495.986L497.38 16.5278H502.677L501.283 23.1394H506.381V28.118H500.207ZM494.91 28.118H487.661L486.347 34.2517H493.596L494.91 28.118Z" fill="#2B2B2B"/>
</svg>
