<svg width="1006" height="96" viewBox="0 0 1006 96" fill="none" xmlns="http://www.w3.org/2000/svg">
<path d="M51.1 79.2C31.2 79.2 15 63.1 15 43.1C15 23.2 31.2 7 51.1 7C71 7 87.2 23.2 87.2 43.1C87.2 63.1 71.1 79.2 51.1 79.2Z" fill="black"/>
<path d="M28.0002 47.9988V38.4988H24.7002V36.2988H33.7002V38.4988H30.4002V47.9988H28.0002Z" fill="white"/>
<path d="M31.7998 47.9988L36.3998 36.2988H38.9998L43.5998 47.9988H41.0998L40.0998 45.3988H35.0998L34.0998 47.9988H31.7998ZM35.8998 43.3988H39.3998L37.5998 38.6988L35.8998 43.3988Z" fill="white"/>
<path d="M47.8996 47.9988V38.4988H44.5996V36.2988H53.5996V38.4988H50.2996V47.9988H47.8996Z" fill="white"/>
<path d="M60.3998 48.3C59.6998 48.3 59.0998 48.2 58.3998 48C57.6998 47.8 57.1998 47.5 56.6998 47.2C56.1998 46.8 55.7998 46.4 55.3998 45.9C54.9998 45.4 54.7998 44.8 54.5998 44.2C54.3998 43.6 54.2998 42.9 54.2998 42.2C54.2998 41.5 54.3998 40.8 54.5998 40.2C54.7998 39.6 55.0998 39 55.3998 38.5C55.7998 38 56.1998 37.6 56.6998 37.2C57.1998 36.8 57.7998 36.5 58.3998 36.3C58.9998 36.1 59.6998 36 60.3998 36C61.0998 36 61.6998 36.1 62.3998 36.3C62.9998 36.5 63.5998 36.8 64.0998 37.1C64.5998 37.5 64.9998 37.9 65.3998 38.4C65.7998 38.9 65.9998 39.5 66.1998 40.1C66.3998 40.7 66.4998 41.4 66.4998 42.1C66.4998 42.8 66.3998 43.5 66.1998 44.1C65.9998 44.7 65.6998 45.3 65.3998 45.8C64.9998 46.3 64.5998 46.7 64.0998 47.1C63.5998 47.5 62.9998 47.8 62.3998 48C61.7998 48.2 61.0998 48.3 60.3998 48.3ZM60.4998 46.1C60.9998 46.1 61.4998 46 61.8998 45.8C62.2998 45.6 62.6998 45.3 62.9998 45C63.2998 44.6 63.5998 44.2 63.6998 43.8C63.8998 43.3 63.9998 42.8 63.9998 42.2C63.9998 41.6 63.8998 41.1 63.6998 40.6C63.4998 40.1 63.2998 39.7 62.9998 39.4C62.6998 39 62.2998 38.8 61.8998 38.6C61.4998 38.4 60.9998 38.3 60.4998 38.3C59.9998 38.3 59.4998 38.4 59.0998 38.6C58.6998 38.8 58.2998 39.1 57.9998 39.4C57.6998 39.8 57.3998 40.2 57.2998 40.6C57.0998 41.1 56.9998 41.6 56.9998 42.2C56.9998 42.8 57.0998 43.3 57.2998 43.8C57.4998 44.3 57.6998 44.7 57.9998 45C58.2998 45.4 58.6998 45.6 59.0998 45.8C59.4998 46 59.8998 46.1 60.4998 46.1Z" fill="white"/>
<path d="M71.9002 48.2C71.2002 48.2 70.6002 48.1 70.0002 47.8C69.4002 47.6 68.9002 47.2 68.5002 46.7C68.1002 46.2 67.8002 45.7 67.7002 45.1L70.0002 44.6C70.1002 45.1 70.4002 45.4 70.7002 45.7C71.1002 46 71.5002 46.1 72.0002 46.1C72.4002 46.1 72.7002 46 72.9002 45.9C73.1002 45.8 73.4002 45.6 73.5002 45.4C73.6002 45.2 73.7002 44.9 73.7002 44.6C73.7002 44.2 73.6001 43.9 73.3001 43.7C73.0001 43.5 72.6002 43.3 72.0002 43.1L71.5002 43C70.3002 42.7 69.4001 42.3 68.8001 41.7C68.2001 41.1 67.9002 40.4 67.9002 39.6C67.9002 39.1 68.0002 38.6 68.2002 38.2C68.4002 37.8 68.7001 37.4 69.1001 37.1C69.5001 36.8 69.9002 36.5 70.4002 36.3C70.9002 36.1 71.4002 36 72.0002 36C72.6002 36 73.3001 36.1 73.8001 36.4C74.4001 36.6 74.8002 37 75.2002 37.4C75.6002 37.9 75.8002 38.4 76.0002 39L73.7002 39.5C73.6002 39.1 73.3002 38.7 73.0002 38.5C72.7002 38.3 72.3002 38.1 71.9002 38.1C71.6002 38.1 71.3001 38.2 71.1001 38.3C70.9001 38.4 70.7002 38.6 70.5002 38.8C70.4002 39 70.3001 39.2 70.3001 39.5C70.3001 39.9 70.4002 40.2 70.7002 40.4C71.0002 40.6 71.4002 40.8 72.0002 40.9L72.5002 41C73.7002 41.3 74.6002 41.7 75.2002 42.3C75.8002 42.9 76.1001 43.6 76.1001 44.5C76.1001 45.1 76.0001 45.6 75.8001 46C75.6001 46.5 75.3002 46.9 74.9002 47.2C74.5002 47.5 74.1001 47.8 73.6001 48C73.0001 48.1 72.5002 48.2 71.9002 48.2Z" fill="white"/>
<path d="M76.0998 49.2988H25.7998V53.5988H76.0998V49.2988Z" fill="#FFF200"/>
<path d="M33.0996 52.2996V50.8996H32.5996V50.5996H33.9996V50.8996H33.4996V52.2996H33.0996Z" fill="#2B2B2B"/>
<path d="M34.2998 52.3V50.5H34.6998V51.2H35.4998V50.5H35.8998V52.3H35.4998V51.6H34.6998V52.3H34.2998Z" fill="#2B2B2B"/>
<path d="M36.0996 52.3V50.5H37.1996V50.8H36.4996V51.2H37.1996V51.5H36.4996V52H37.2996V52.3H36.0996Z" fill="#2B2B2B"/>
<path d="M37.9004 52.3L38.6004 50.5H39.0004L39.7004 52.3H39.3004L39.2004 51.9H38.4004L38.3004 52.3H37.9004ZM38.5004 51.6H39.0004L38.7004 50.9L38.5004 51.6Z" fill="#2B2B2B"/>
<path d="M39.9004 52.3V50.5H40.3004V52H41.0004V52.3H39.9004Z" fill="#2B2B2B"/>
<path d="M41.2002 52.3V50.5H41.8001C41.9001 50.5 42.1002 50.5 42.2002 50.6C42.3002 50.7 42.4002 50.7 42.4002 50.8C42.5002 50.9 42.5002 51 42.5002 51.1C42.5002 51.2 42.5002 51.3 42.5002 51.3C42.5002 51.4 42.4002 51.4 42.4002 51.5C42.3002 51.6 42.3002 51.6 42.2002 51.6C42.1002 51.6 42.0002 51.6 41.9002 51.6C41.8002 51.6 41.8002 51.6 41.7002 51.6V52.2H41.2002V52.3ZM41.6002 50.8V51.3C41.7002 51.3 41.7001 51.3 41.8001 51.3C41.9001 51.3 42.0002 51.3 42.0002 51.2C42.1002 51.2 42.1002 51.1 42.1002 51C42.1002 50.9 42.1002 50.8 42.0002 50.8C41.9002 50.8 41.9001 50.7 41.8001 50.7H41.6002V50.8Z" fill="#2B2B2B"/>
<path d="M42.7002 52.3V50.5H43.1002V51.2H43.9002V50.5H44.3001V52.3H43.9002V51.6H43.1002V52.3H42.7002Z" fill="#2B2B2B"/>
<path d="M44.4004 52.3L45.1004 50.5H45.5004L46.2004 52.3H45.8004L45.7004 51.9H44.9004L44.8004 52.3H44.4004ZM45.0004 51.6H45.5004L45.2004 50.9L45.0004 51.6Z" fill="#2B2B2B"/>
<path d="M46.7998 52.3L47.4998 50.5H47.8998L48.5998 52.3H48.1998L48.0998 51.9H47.2998L47.1998 52.3H46.7998ZM47.3998 51.6H47.8998L47.5998 50.9L47.3998 51.6Z" fill="#2B2B2B"/>
<path d="M48.7998 52.3V50.5H49.0998L49.8998 51.7V50.5H50.2998V52.3H49.9998L49.1998 51.1V52.3H48.7998Z" fill="#2B2B2B"/>
<path d="M50.5996 52.3V50.5H51.2996C51.3996 50.5 51.5996 50.5 51.6996 50.6C51.7996 50.7 51.8996 50.7 51.9996 50.8C52.0996 50.9 52.0996 51 52.1996 51.1C52.1996 51.2 52.2996 51.3 52.2996 51.5C52.2996 51.7 52.2996 51.7 52.1996 51.9C52.1996 52 52.0996 52.1 51.9996 52.2C51.8996 52.3 51.7996 52.3 51.6996 52.4C51.5996 52.5 51.4996 52.5 51.2996 52.5H50.5996V52.3ZM50.9996 52H51.2996C51.3996 52 51.4996 52 51.5996 51.9C51.6996 51.9 51.7996 51.8 51.7996 51.7C51.7996 51.6 51.8996 51.5 51.8996 51.4C51.8996 51.3 51.8996 51.2 51.7996 51.1C51.7996 51 51.6996 51 51.5996 50.9C51.4996 50.9 51.3996 50.8 51.2996 50.8H50.9996V52Z" fill="#2B2B2B"/>
<path d="M53.4004 52.2996V50.8996H52.9004V50.5996H54.3004V50.8996H53.8004V52.2996H53.4004Z" fill="#2B2B2B"/>
<path d="M54.5 52.3V50.5H54.9V51.2H55.7V50.5H56V52.3H55.6V51.6H54.8V52.3H54.5Z" fill="#2B2B2B"/>
<path d="M56.4004 52.3V50.5H57.5004V50.8H56.8004V51.2H57.5004V51.5H56.8004V52H57.6004V52.3H56.4004Z" fill="#2B2B2B"/>
<path d="M59.1001 52.3C59.0001 52.3 58.9001 52.3 58.8001 52.3C58.7001 52.3 58.6002 52.2 58.5002 52.2C58.4002 52.1 58.4001 52.1 58.3001 52C58.2001 51.9 58.2002 51.8 58.2002 51.7C58.2002 51.6 58.2002 51.5 58.2002 51.4C58.2002 51.3 58.2002 51.2 58.2002 51.1C58.2002 51 58.3001 50.9 58.3001 50.8C58.4001 50.7 58.4002 50.7 58.5002 50.6C58.6002 50.5 58.7001 50.5 58.8001 50.5C58.9001 50.5 59.0001 50.5 59.1001 50.5C59.2001 50.5 59.3002 50.5 59.4002 50.5C59.5002 50.5 59.6002 50.6 59.7002 50.6C59.8002 50.7 59.8002 50.7 59.9002 50.8C60.0002 50.9 60.0002 51 60.0002 51.1C60.0002 51.2 60.0002 51.3 60.0002 51.4C60.0002 51.5 60.0002 51.6 60.0002 51.7C60.0002 51.8 59.9002 51.9 59.9002 52C59.8002 52.1 59.8002 52.1 59.7002 52.2C59.6002 52.3 59.5002 52.3 59.4002 52.3C59.3002 52.3 59.2001 52.3 59.1001 52.3ZM59.1001 52C59.2001 52 59.2001 52 59.3001 52C59.4001 52 59.4002 51.9 59.5002 51.9C59.6002 51.9 59.6001 51.8 59.6001 51.7C59.6001 51.6 59.6001 51.5 59.6001 51.5C59.6001 51.4 59.6001 51.3 59.6001 51.3C59.6001 51.3 59.6002 51 59.5002 51C59.5002 50.9 59.4001 50.9 59.3001 50.9C59.2001 50.9 59.2001 50.9 59.1001 50.9C59.0001 50.9 59.0002 50.9 58.9002 50.9C58.8002 50.9 58.8002 51 58.7002 51C58.7002 51.1 58.6001 51.1 58.6001 51.2C58.6001 51.3 58.6001 51.4 58.6001 51.4C58.6001 51.5 58.6001 51.6 58.6001 51.6C58.6001 51.7 58.7002 51.7 58.7002 51.8C58.7002 51.9 58.8002 51.9 58.9002 51.9C59.0002 52 59.1001 52 59.1001 52Z" fill="#2B2B2B"/>
<path d="M60.2998 52.3V50.5H60.5998L61.1998 51.5L61.7998 50.5H62.0998V52.3H61.6998V51.2L61.2998 51.9H60.9998L60.5998 51.2V52.3H60.2998Z" fill="#2B2B2B"/>
<path d="M62.4004 52.3V50.5H63.5004V50.8H62.8004V51.2H63.5004V51.5H62.8004V52H63.6004V52.3H62.4004Z" fill="#2B2B2B"/>
<path d="M64.5998 52.3C64.4998 52.3 64.3998 52.3 64.2998 52.3C64.1998 52.3 64.0998 52.2 64.0998 52.2C63.9998 52.1 63.9998 52 63.8998 52C63.7998 51.9 63.7998 51.8 63.7998 51.7C63.7998 51.6 63.7998 51.5 63.7998 51.4C63.7998 51.3 63.7998 51.2 63.7998 51.1C63.7998 51 63.8998 50.9 63.8998 50.8C63.9998 50.7 63.9998 50.7 64.0998 50.6C64.1998 50.5 64.2998 50.5 64.3998 50.5C64.4998 50.5 64.5998 50.5 64.6998 50.5C64.7998 50.5 64.8998 50.5 64.9998 50.6C65.0998 50.6 65.1998 50.7 65.2998 50.8C65.3998 50.9 65.3998 51 65.4998 51.1L65.0998 51.2C65.0998 51.1 64.9998 51.1 64.8998 51C64.7998 51 64.6998 50.9 64.6998 50.9C64.5998 50.9 64.5998 50.9 64.4998 50.9C64.3998 50.9 64.3998 51 64.2998 51C64.2998 51.1 64.1998 51.1 64.1998 51.2C64.1998 51.3 64.1998 51.3 64.1998 51.4C64.1998 51.5 64.1998 51.6 64.1998 51.6C64.1998 51.6 64.2998 51.7 64.2998 51.8C64.2998 51.9 64.3998 51.9 64.4998 51.9C64.5998 51.9 64.5998 51.9 64.6998 51.9C64.7998 51.9 64.8998 51.9 64.8998 51.9C64.9998 51.9 64.9998 51.8 65.0998 51.8C65.0998 51.7 65.1998 51.7 65.1998 51.6H64.7998V51.3H65.5998V51.5C65.5998 51.6 65.5998 51.7 65.4998 51.8C65.4998 51.9 65.3998 52 65.2998 52.1C65.1998 52.2 65.0998 52.2 64.9998 52.3C64.8998 52.3 64.7998 52.3 64.5998 52.3Z" fill="#2B2B2B"/>
<path d="M65.5996 52.3L66.2996 50.5H66.6996L67.3996 52.3H66.9996L66.8996 51.9H66.0996L65.9996 52.3H65.5996ZM66.1996 51.6H66.6996L66.3996 50.9L66.1996 51.6Z" fill="#2B2B2B"/>
<path d="M67.5002 50.5H67.6001L67.7002 50.6C67.7002 50.6 67.7002 50.7 67.7002 50.8C67.7002 50.9 67.7002 50.9 67.7002 51C67.7002 51.1 67.6001 51.1 67.6001 51.2C67.5001 51.2 67.5002 51.3 67.4002 51.3L67.3001 51.1C67.3001 51.1 67.4002 51.1 67.4002 51L67.5002 50.9V50.8C67.5002 50.8 67.5002 50.8 67.4002 50.8H67.3001C67.3001 50.8 67.3002 50.8 67.2002 50.7V50.6V50.5C67.4002 50.6 67.4002 50.6 67.5002 50.5C67.5002 50.5 67.4002 50.5 67.5002 50.5Z" fill="#2B2B2B"/>
<path d="M68.6004 52.3C68.5004 52.3 68.4004 52.3 68.3004 52.2C68.2004 52.1 68.1004 52.1 68.1004 52C68.0004 52 68.0004 52 67.9004 51.9L68.2004 51.8C68.2004 51.9 68.3004 51.9 68.3004 52C68.4004 52 68.4004 52.1 68.5004 52.1C68.6004 52.1 68.6004 52.1 68.6004 52.1C68.6004 52.1 68.7004 52.1 68.7004 52V51.9C68.7004 51.8 68.7004 51.8 68.6004 51.8C68.6004 51.8 68.5004 51.7 68.4004 51.7H68.3004C68.1004 51.7 68.0004 51.6 67.9004 51.5C68.0004 51.3 68.0004 51.2 68.0004 51C68.0004 50.9 68.0004 50.8 68.0004 50.8C68.0004 50.7 68.1004 50.7 68.1004 50.6C68.2004 50.6 68.2004 50.5 68.3004 50.5C68.4004 50.5 68.5004 50.5 68.5004 50.5C68.6004 50.5 68.7004 50.5 68.8004 50.6C68.9004 50.6 69.0004 50.7 69.0004 50.8C69.1004 50.9 69.1004 50.9 69.1004 51H68.9004C68.9004 50.9 68.8004 50.9 68.8004 50.8C68.8004 50.8 68.7004 50.7 68.6004 50.7H68.5004C68.5004 50.7 68.4004 50.7 68.4004 50.8V50.9C68.4004 51 68.4004 51 68.5004 51C68.5004 51 68.6004 51.1 68.7004 51.1H68.8004C69.0004 51.1 69.1004 51.2 69.2004 51.3C69.3004 51.4 69.3004 51.5 69.3004 51.6C69.3004 51.7 69.3004 51.8 69.3004 51.8C69.3004 51.8 69.2004 51.9 69.2004 52C69.2004 52.1 69.1004 52.1 69.0004 52.1C68.9004 52.1 68.7004 52.3 68.6004 52.3Z" fill="#2B2B2B"/>
<path d="M100.346 25.8094H102.95V33.9994H104.91V25.8094H107.514V24.2274H100.346V25.8094ZM115.581 33.9994H117.653L114.139 24.2134H111.857L108.343 33.9994H110.401L111.045 32.1374H114.937L115.581 33.9994ZM114.405 30.5694H111.577L112.991 26.4814L114.405 30.5694ZM118.448 25.8094H121.052V33.9994H123.012V25.8094H125.616V24.2274H118.448V25.8094ZM136.58 29.0854C136.58 26.1594 134.368 24.0874 131.582 24.0874C128.824 24.0874 126.57 26.1594 126.57 29.0854C126.57 32.0254 128.824 34.0974 131.582 34.0974C134.354 34.0974 136.58 32.0254 136.58 29.0854ZM128.586 29.0854C128.586 27.0974 129.804 25.8514 131.582 25.8514C133.346 25.8514 134.564 27.0974 134.564 29.0854C134.564 31.0734 133.346 32.3474 131.582 32.3474C129.804 32.3474 128.586 31.0734 128.586 29.0854ZM144.87 31.1714C144.87 27.7274 139.858 28.8194 139.858 26.8594C139.858 26.0614 140.432 25.6834 141.202 25.7114C142.042 25.7254 142.56 26.2294 142.602 26.8734H144.758C144.632 25.1094 143.26 24.0874 141.258 24.0874C139.242 24.0874 137.814 25.1514 137.814 26.9154C137.8 30.4574 142.84 29.1834 142.84 31.2974C142.84 31.9974 142.294 32.4874 141.37 32.4874C140.46 32.4874 139.942 31.9694 139.886 31.1854H137.786C137.814 33.0334 139.382 34.0974 141.412 34.0974C143.638 34.0974 144.87 32.7114 144.87 31.1714ZM149.387 25.8094H151.991V33.9994H153.951V25.8094H156.555V24.2274H149.387V25.8094ZM161.318 27.7274C162.326 27.7274 163.138 28.3714 163.166 29.3934H159.484C159.638 28.3294 160.38 27.7274 161.318 27.7274ZM165 31.5634H162.886C162.634 32.0814 162.172 32.5014 161.332 32.5014C160.352 32.5014 159.568 31.8574 159.47 30.7094H165.14C165.182 30.4574 165.196 30.2054 165.196 29.9534C165.196 27.6434 163.614 26.1174 161.374 26.1174C159.078 26.1174 157.482 27.6714 157.482 30.1214C157.482 32.5574 159.12 34.1254 161.374 34.1254C163.292 34.1254 164.58 32.9914 165 31.5634ZM166.122 30.1214C166.122 32.5574 167.718 34.1254 169.958 34.1254C171.89 34.1254 173.192 33.0334 173.612 31.3814H171.498C171.26 32.0814 170.756 32.4454 169.944 32.4454C168.852 32.4454 168.124 31.6334 168.124 30.1214C168.124 28.6094 168.852 27.7834 169.944 27.7834C170.756 27.7834 171.274 28.2034 171.498 28.8614H173.612C173.192 27.1254 171.89 26.1174 169.958 26.1174C167.718 26.1174 166.122 27.6854 166.122 30.1214ZM175.048 33.9994H177.008V29.7154C177.008 28.4694 177.694 27.7974 178.758 27.7974C179.794 27.7974 180.48 28.4694 180.48 29.7154V33.9994H182.44V29.4494C182.44 27.3074 181.166 26.1314 179.416 26.1314C178.38 26.1314 177.512 26.5514 177.008 27.2094V23.6394H175.048V33.9994ZM189.736 33.9994H191.696V29.4494C191.696 27.3074 190.408 26.1314 188.602 26.1314C187.608 26.1314 186.768 26.5514 186.264 27.2094V26.2434H184.304V33.9994H186.264V29.7154C186.264 28.4694 186.95 27.7974 188.014 27.7974C189.05 27.7974 189.736 28.4694 189.736 29.7154V33.9994ZM201.05 30.1214C201.05 27.6714 199.3 26.1174 197.06 26.1174C194.82 26.1174 193.07 27.6714 193.07 30.1214C193.07 32.5574 194.764 34.1254 197.004 34.1254C199.258 34.1254 201.05 32.5574 201.05 30.1214ZM195.058 30.1214C195.058 28.5674 195.996 27.8254 197.032 27.8254C198.068 27.8254 199.034 28.5674 199.034 30.1214C199.034 31.6614 198.04 32.4174 197.004 32.4174C195.954 32.4174 195.058 31.6614 195.058 30.1214ZM202.487 33.9994H204.447V23.6394H202.487V33.9994ZM213.874 30.1214C213.874 27.6714 212.124 26.1174 209.884 26.1174C207.644 26.1174 205.894 27.6714 205.894 30.1214C205.894 32.5574 207.588 34.1254 209.828 34.1254C212.082 34.1254 213.874 32.5574 213.874 30.1214ZM207.882 30.1214C207.882 28.5674 208.82 27.8254 209.856 27.8254C210.892 27.8254 211.858 28.5674 211.858 30.1214C211.858 31.6614 210.864 32.4174 209.828 32.4174C208.778 32.4174 207.882 31.6614 207.882 30.1214ZM214.808 30.0934C214.808 32.5154 216.376 34.1254 218.35 34.1254C219.568 34.1254 220.45 33.5234 220.912 32.8514V34.0554C220.912 35.4974 220.072 36.1134 218.994 36.1134C218.014 36.1134 217.286 35.6514 217.09 34.9514H215.144C215.34 36.7294 216.866 37.8214 219.05 37.8214C221.598 37.8214 222.886 36.1554 222.886 34.0554V26.2434H220.912V27.3494C220.45 26.6774 219.568 26.1174 218.35 26.1174C216.376 26.1174 214.808 27.6714 214.808 30.0934ZM220.912 30.1214C220.912 31.5914 219.932 32.4034 218.854 32.4034C217.804 32.4034 216.81 31.5634 216.81 30.0934C216.81 28.6234 217.804 27.8394 218.854 27.8394C219.932 27.8394 220.912 28.6514 220.912 30.1214ZM224.8 33.9994H226.76V26.2434H224.8V33.9994ZM225.794 25.3194C226.48 25.3194 226.998 24.8154 226.998 24.1714C226.998 23.5274 226.48 23.0234 225.794 23.0234C225.094 23.0234 224.59 23.5274 224.59 24.1714C224.59 24.8154 225.094 25.3194 225.794 25.3194ZM232.028 27.7274C233.036 27.7274 233.848 28.3714 233.876 29.3934H230.194C230.348 28.3294 231.09 27.7274 232.028 27.7274ZM235.71 31.5634H233.596C233.344 32.0814 232.882 32.5014 232.042 32.5014C231.062 32.5014 230.278 31.8574 230.18 30.7094H235.85C235.892 30.4574 235.906 30.2054 235.906 29.9534C235.906 27.6434 234.324 26.1174 232.084 26.1174C229.788 26.1174 228.192 27.6714 228.192 30.1214C228.192 32.5574 229.83 34.1254 232.084 34.1254C234.002 34.1254 235.29 32.9914 235.71 31.5634ZM243.357 31.7874C243.301 28.9454 239.003 29.8274 239.003 28.4134C239.003 27.9654 239.381 27.6714 240.109 27.6714C240.879 27.6714 241.355 28.0774 241.411 28.6794H243.287C243.175 27.1394 242.041 26.1174 240.165 26.1174C238.247 26.1174 237.099 27.1534 237.099 28.4414C237.099 31.2834 241.481 30.4014 241.481 31.7874C241.481 32.2354 241.061 32.5854 240.291 32.5854C239.507 32.5854 238.961 32.1374 238.891 31.5494H236.917C237.001 32.9914 238.359 34.1254 240.305 34.1254C242.195 34.1254 243.357 33.1174 243.357 31.7874Z" fill="white"/>
<path d="M116.86 56.1682C120.196 56.1682 122.068 52.3282 122.068 48.6322C122.068 43.8802 118.78 40.6162 113.356 40.6162C106.3 40.6162 101.236 45.9682 101.236 52.8082C101.236 57.6802 104.668 60.7762 109.852 60.7762C111.508 60.7762 113.116 60.4882 114.556 59.8882L114.268 58.4002C113.044 58.9762 111.604 59.2162 110.284 59.2162C105.772 59.2162 103.036 56.8882 103.06 52.6162C103.06 46.7362 107.284 42.1522 113.092 42.1522C117.676 42.1522 120.292 44.5762 120.292 48.7522C120.292 51.2722 119.26 54.6802 117.196 54.6802C115.972 54.6802 115.78 53.7682 115.996 52.4002L117.196 45.4642H115.3L115.036 46.9522C114.508 45.8002 113.476 45.2242 111.964 45.2242C108.46 45.2242 106.06 48.4642 106.06 52.0402C106.06 54.5362 107.5 56.1682 109.972 56.1682C111.652 56.1682 113.284 55.3282 114.268 53.9362C114.388 55.2802 115.228 56.1682 116.86 56.1682ZM114.556 50.0722C114.412 52.5442 112.732 54.4642 110.62 54.4642C108.94 54.4642 108.1 53.3362 108.1 51.7042C108.1 49.3282 109.564 46.9042 111.964 46.9042C113.836 46.9042 114.7 48.3202 114.556 50.0722ZM126.141 52.4002C126.141 55.0402 127.461 56.0002 129.789 56.0002H131.757V54.1522H130.148C128.805 54.1522 128.325 53.6962 128.325 52.4002V44.6482H131.757V42.8482H128.325V39.5362H126.141V42.8482H124.437V44.6482H126.141V52.4002ZM133.587 49.3762C133.587 53.4562 136.299 56.2162 139.803 56.2162C142.227 56.2162 143.931 54.9682 144.723 53.5522V56.0002H146.931V42.8482H144.723V45.2482C143.955 43.8802 142.275 42.6322 139.827 42.6322C136.299 42.6322 133.587 45.2722 133.587 49.3762ZM144.723 49.4002C144.723 52.4962 142.659 54.2962 140.259 54.2962C137.859 54.2962 135.819 52.4722 135.819 49.3762C135.819 46.2802 137.859 44.5282 140.259 44.5282C142.659 44.5282 144.723 46.3522 144.723 49.4002ZM151.101 52.4002C151.101 55.0402 152.421 56.0002 154.749 56.0002H156.717V54.1522H155.109C153.765 54.1522 153.285 53.6962 153.285 52.4002V44.6482H156.717V42.8482H153.285V39.5362H151.101V42.8482H149.397V44.6482H151.101V52.4002ZM171.844 49.4002C171.844 45.2482 168.94 42.6322 165.196 42.6322C161.476 42.6322 158.548 45.2482 158.548 49.4002C158.548 53.5762 161.38 56.2162 165.1 56.2162C168.844 56.2162 171.844 53.5762 171.844 49.4002ZM160.78 49.4002C160.78 46.0882 162.868 44.5282 165.172 44.5282C167.428 44.5282 169.612 46.0882 169.612 49.4002C169.612 52.7362 167.38 54.2962 165.1 54.2962C162.82 54.2962 160.78 52.7362 160.78 49.4002ZM184.171 52.4242C184.075 47.7202 176.443 49.4242 176.443 46.3042C176.443 45.2482 177.403 44.4802 179.011 44.4802C180.763 44.4802 181.771 45.4402 181.867 46.7602H184.051C183.907 44.1922 181.987 42.6322 179.083 42.6322C176.155 42.6322 174.259 44.2882 174.259 46.3042C174.259 51.2002 182.035 49.4962 182.035 52.4242C182.035 53.5042 181.075 54.3682 179.347 54.3682C177.499 54.3682 176.371 53.4082 176.251 52.1362H173.995C174.139 54.5362 176.299 56.2162 179.371 56.2162C182.275 56.2162 184.171 54.5842 184.171 52.4242ZM189.39 54.6562C189.39 53.8162 188.742 53.1682 187.95 53.1682C187.11 53.1682 186.462 53.8162 186.462 54.6562C186.462 55.4962 187.11 56.1442 187.95 56.1442C188.742 56.1442 189.39 55.4962 189.39 54.6562ZM192.773 52.4002C192.773 55.0402 194.093 56.0002 196.421 56.0002H198.389V54.1522H196.781C195.437 54.1522 194.957 53.6962 194.957 52.4002V44.6482H198.389V42.8482H194.957V39.5362H192.773V42.8482H191.069V44.6482H192.773V52.4002ZM206.628 44.4802C208.884 44.4802 210.804 45.8962 210.78 48.4642H202.476C202.715 45.8962 204.492 44.4802 206.628 44.4802ZM212.772 51.9442H210.42C209.94 53.3602 208.692 54.3682 206.724 54.3682C204.492 54.3682 202.62 52.9042 202.452 50.2402H212.964C213.012 49.7842 213.036 49.4002 213.036 48.9202C213.036 45.3202 210.54 42.6322 206.724 42.6322C202.884 42.6322 200.22 45.2482 200.22 49.4002C200.22 53.5762 202.98 56.2162 206.724 56.2162C209.988 56.2162 212.1 54.3442 212.772 51.9442ZM215.102 49.4002C215.102 53.5762 217.766 56.2162 221.51 56.2162C224.774 56.2162 226.91 54.3922 227.582 51.7762H225.23C224.75 53.4322 223.454 54.3682 221.51 54.3682C219.11 54.3682 217.334 52.6642 217.334 49.4002C217.334 46.1842 219.11 44.4802 221.51 44.4802C223.454 44.4802 224.774 45.4882 225.23 47.0722H227.582C226.91 44.3122 224.774 42.6322 221.51 42.6322C217.766 42.6322 215.102 45.2722 215.102 49.4002ZM230.496 56.0002H232.68V48.7282C232.68 45.8962 234.216 44.5042 236.448 44.5042C238.656 44.5042 240.12 45.8722 240.12 48.5602V56.0002H242.28V48.2482C242.28 44.4802 239.952 42.6082 237.024 42.6082C235.176 42.6082 233.544 43.3522 232.68 44.7442V38.2402H230.496V56.0002Z" fill="white"/>
<path d="M788.38 15.2714L783.532 31.9994H781.084L777.196 18.5354L773.164 31.9994L770.74 32.0234L766.06 15.2714H768.388L772.036 29.4554L776.068 15.2714H778.516L782.356 29.4074L786.028 15.2714H788.38ZM789.954 25.3754C789.954 24.0314 790.226 22.8554 790.77 21.8474C791.314 20.8234 792.058 20.0314 793.002 19.4714C793.962 18.9114 795.026 18.6314 796.194 18.6314C797.346 18.6314 798.346 18.8794 799.194 19.3754C800.042 19.8714 800.674 20.4954 801.09 21.2474V18.8474H803.298V31.9994H801.09V29.5514C800.658 30.3194 800.01 30.9594 799.146 31.4714C798.298 31.9674 797.306 32.2154 796.17 32.2154C795.002 32.2154 793.946 31.9274 793.002 31.3514C792.058 30.7754 791.314 29.9674 790.77 28.9274C790.226 27.8874 789.954 26.7034 789.954 25.3754ZM801.09 25.3994C801.09 24.4074 800.89 23.5434 800.49 22.8074C800.09 22.0714 799.546 21.5114 798.858 21.1274C798.186 20.7274 797.442 20.5274 796.626 20.5274C795.81 20.5274 795.066 20.7194 794.394 21.1034C793.722 21.4874 793.186 22.0474 792.786 22.7834C792.386 23.5194 792.186 24.3834 792.186 25.3754C792.186 26.3834 792.386 27.2634 792.786 28.0154C793.186 28.7514 793.722 29.3194 794.394 29.7194C795.066 30.1034 795.81 30.2954 796.626 30.2954C797.442 30.2954 798.186 30.1034 798.858 29.7194C799.546 29.3194 800.09 28.7514 800.49 28.0154C800.89 27.2634 801.09 26.3914 801.09 25.3994ZM813.397 18.6074C814.997 18.6074 816.293 19.0954 817.285 20.0714C818.277 21.0314 818.773 22.4234 818.773 24.2474V31.9994H816.613V24.5594C816.613 23.2474 816.285 22.2474 815.629 21.5594C814.973 20.8554 814.077 20.5034 812.941 20.5034C811.789 20.5034 810.869 20.8634 810.181 21.5834C809.509 22.3034 809.173 23.3514 809.173 24.7274V31.9994H806.989V18.8474H809.173V20.7194C809.605 20.0474 810.189 19.5274 810.925 19.1594C811.677 18.7914 812.501 18.6074 813.397 18.6074ZM825.004 20.6474V28.3994C825.004 29.0394 825.14 29.4954 825.412 29.7674C825.684 30.0234 826.156 30.1514 826.828 30.1514H828.436V31.9994H826.468C825.252 31.9994 824.34 31.7194 823.732 31.1594C823.124 30.5994 822.82 29.6794 822.82 28.3994V20.6474H821.116V18.8474H822.82V15.5354H825.004V18.8474H828.436V20.6474H825.004ZM840.145 20.6474V28.3994C840.145 29.0394 840.281 29.4954 840.553 29.7674C840.825 30.0234 841.297 30.1514 841.969 30.1514H843.577V31.9994H841.609C840.393 31.9994 839.481 31.7194 838.873 31.1594C838.265 30.5994 837.961 29.6794 837.961 28.3994V20.6474H836.257V18.8474H837.961V15.5354H840.145V18.8474H843.577V20.6474H840.145ZM851.959 32.2154C850.727 32.2154 849.607 31.9354 848.599 31.3754C847.607 30.8154 846.823 30.0234 846.247 28.9994C845.687 27.9594 845.407 26.7594 845.407 25.3994C845.407 24.0554 845.695 22.8714 846.271 21.8474C846.863 20.8074 847.663 20.0154 848.671 19.4714C849.679 18.9114 850.807 18.6314 852.055 18.6314C853.303 18.6314 854.431 18.9114 855.439 19.4714C856.447 20.0154 857.239 20.7994 857.815 21.8234C858.407 22.8474 858.703 24.0394 858.703 25.3994C858.703 26.7594 858.399 27.9594 857.791 28.9994C857.199 30.0234 856.391 30.8154 855.367 31.3754C854.343 31.9354 853.207 32.2154 851.959 32.2154ZM851.959 30.2954C852.743 30.2954 853.479 30.1114 854.167 29.7434C854.855 29.3754 855.407 28.8234 855.823 28.0874C856.255 27.3514 856.471 26.4554 856.471 25.3994C856.471 24.3434 856.263 23.4474 855.847 22.7114C855.431 21.9754 854.887 21.4314 854.215 21.0794C853.543 20.7114 852.815 20.5274 852.031 20.5274C851.231 20.5274 850.495 20.7114 849.823 21.0794C849.167 21.4314 848.639 21.9754 848.239 22.7114C847.839 23.4474 847.639 24.3434 847.639 25.3994C847.639 26.4714 847.831 27.3754 848.215 28.1114C848.615 28.8474 849.143 29.3994 849.799 29.7674C850.455 30.1194 851.175 30.2954 851.959 30.2954ZM871.717 20.5034C872.101 19.8794 872.653 19.3754 873.373 18.9914C874.093 18.6074 874.917 18.4154 875.845 18.4154C876.949 18.4154 877.949 18.6954 878.845 19.2554C879.741 19.8154 880.445 20.6154 880.957 21.6554C881.485 22.6954 881.749 23.9034 881.749 25.2794C881.749 26.6554 881.485 27.8714 880.957 28.9274C880.445 29.9674 879.741 30.7754 878.845 31.3514C877.949 31.9114 876.949 32.1914 875.845 32.1914C874.901 32.1914 874.077 32.0074 873.373 31.6394C872.669 31.2554 872.117 30.7514 871.717 30.1274V31.9994H867.613V14.2394H871.717V20.5034ZM877.573 25.2794C877.573 24.2554 877.285 23.4554 876.709 22.8794C876.149 22.2874 875.453 21.9914 874.621 21.9914C873.805 21.9914 873.109 22.2874 872.533 22.8794C871.973 23.4714 871.693 24.2794 871.693 25.3034C871.693 26.3274 871.973 27.1354 872.533 27.7274C873.109 28.3194 873.805 28.6154 874.621 28.6154C875.437 28.6154 876.133 28.3194 876.709 27.7274C877.285 27.1194 877.573 26.3034 877.573 25.2794ZM897.126 18.6074V31.9994H893.022V30.1754C892.606 30.7674 892.038 31.2474 891.318 31.6154C890.614 31.9674 889.83 32.1434 888.966 32.1434C887.942 32.1434 887.038 31.9194 886.254 31.4714C885.47 31.0074 884.862 30.3434 884.43 29.4794C883.998 28.6154 883.782 27.5994 883.782 26.4314V18.6074H887.862V25.8794C887.862 26.7754 888.094 27.4714 888.558 27.9674C889.022 28.4634 889.646 28.7114 890.43 28.7114C891.23 28.7114 891.862 28.4634 892.326 27.9674C892.79 27.4714 893.022 26.7754 893.022 25.8794V18.6074H897.126ZM902.138 17.2154C901.418 17.2154 900.826 17.0074 900.362 16.5914C899.914 16.1594 899.69 15.6314 899.69 15.0074C899.69 14.3674 899.914 13.8394 900.362 13.4234C900.826 12.9914 901.418 12.7754 902.138 12.7754C902.842 12.7754 903.418 12.9914 903.866 13.4234C904.33 13.8394 904.562 14.3674 904.562 15.0074C904.562 15.6314 904.33 16.1594 903.866 16.5914C903.418 17.0074 902.842 17.2154 902.138 17.2154ZM904.178 18.6074V31.9994H900.074V18.6074H904.178ZM911.256 14.2394V31.9994H907.152V14.2394H911.256ZM913.414 25.2794C913.414 23.9034 913.67 22.6954 914.182 21.6554C914.71 20.6154 915.422 19.8154 916.318 19.2554C917.214 18.6954 918.214 18.4154 919.318 18.4154C920.198 18.4154 920.998 18.5994 921.718 18.9674C922.454 19.3354 923.03 19.8314 923.446 20.4554V14.2394H927.55V31.9994H923.446V30.0794C923.062 30.7194 922.51 31.2314 921.79 31.6154C921.086 31.9994 920.262 32.1914 919.318 32.1914C918.214 32.1914 917.214 31.9114 916.318 31.3514C915.422 30.7754 914.71 29.9674 914.182 28.9274C913.67 27.8714 913.414 26.6554 913.414 25.2794ZM923.446 25.3034C923.446 24.2794 923.158 23.4714 922.582 22.8794C922.022 22.2874 921.334 21.9914 920.518 21.9914C919.702 21.9914 919.006 22.2874 918.43 22.8794C917.87 23.4554 917.59 24.2554 917.59 25.2794C917.59 26.3034 917.87 27.1194 918.43 27.7274C919.006 28.3194 919.702 28.6154 920.518 28.6154C921.334 28.6154 922.022 28.3194 922.582 27.7274C923.158 27.1354 923.446 26.3274 923.446 25.3034ZM949.285 18.6074L940.885 38.3594H936.469L939.541 31.5434L934.093 18.6074H938.677L941.773 26.9834L944.845 18.6074H949.285ZM956.865 32.1914C955.553 32.1914 954.369 31.9114 953.313 31.3514C952.273 30.7914 951.449 29.9914 950.841 28.9514C950.249 27.9114 949.953 26.6954 949.953 25.3034C949.953 23.9274 950.257 22.7194 950.865 21.6794C951.473 20.6234 952.305 19.8154 953.361 19.2554C954.417 18.6954 955.601 18.4154 956.913 18.4154C958.225 18.4154 959.409 18.6954 960.465 19.2554C961.521 19.8154 962.353 20.6234 962.961 21.6794C963.569 22.7194 963.873 23.9274 963.873 25.3034C963.873 26.6794 963.561 27.8954 962.937 28.9514C962.329 29.9914 961.489 30.7914 960.417 31.3514C959.361 31.9114 958.177 32.1914 956.865 32.1914ZM956.865 28.6394C957.649 28.6394 958.313 28.3514 958.857 27.7754C959.417 27.1994 959.697 26.3754 959.697 25.3034C959.697 24.2314 959.425 23.4074 958.881 22.8314C958.353 22.2554 957.697 21.9674 956.913 21.9674C956.113 21.9674 955.449 22.2554 954.921 22.8314C954.393 23.3914 954.129 24.2154 954.129 25.3034C954.129 26.3754 954.385 27.1994 954.897 27.7754C955.425 28.3514 956.081 28.6394 956.865 28.6394ZM979.275 18.6074V31.9994H975.171V30.1754C974.755 30.7674 974.187 31.2474 973.467 31.6154C972.763 31.9674 971.979 32.1434 971.115 32.1434C970.091 32.1434 969.187 31.9194 968.403 31.4714C967.619 31.0074 967.011 30.3434 966.579 29.4794C966.147 28.6154 965.931 27.5994 965.931 26.4314V18.6074H970.011V25.8794C970.011 26.7754 970.243 27.4714 970.707 27.9674C971.171 28.4634 971.795 28.7114 972.579 28.7114C973.379 28.7114 974.011 28.4634 974.475 27.9674C974.939 27.4714 975.171 26.7754 975.171 25.8794V18.6074H979.275ZM986.326 20.8394C986.806 20.1034 987.406 19.5274 988.126 19.1114C988.846 18.6794 989.646 18.4634 990.526 18.4634V22.8074H989.398C988.374 22.8074 987.606 23.0314 987.094 23.4794C986.582 23.9114 986.326 24.6794 986.326 25.7834V31.9994H982.222V18.6074H986.326V20.8394ZM798.311 49.5034C798.695 48.8794 799.247 48.3754 799.967 47.9914C800.687 47.6074 801.511 47.4154 802.439 47.4154C803.543 47.4154 804.543 47.6954 805.439 48.2554C806.335 48.8154 807.039 49.6154 807.551 50.6554C808.079 51.6954 808.343 52.9034 808.343 54.2794C808.343 55.6554 808.079 56.8714 807.551 57.9274C807.039 58.9674 806.335 59.7754 805.439 60.3514C804.543 60.9114 803.543 61.1914 802.439 61.1914C801.495 61.1914 800.671 61.0074 799.967 60.6394C799.263 60.2554 798.711 59.7514 798.311 59.1274V60.9994H794.207V43.2394H798.311V49.5034ZM804.167 54.2794C804.167 53.2554 803.879 52.4554 803.303 51.8794C802.743 51.2874 802.047 50.9914 801.215 50.9914C800.399 50.9914 799.703 51.2874 799.127 51.8794C798.567 52.4714 798.287 53.2794 798.287 54.3034C798.287 55.3274 798.567 56.1354 799.127 56.7274C799.703 57.3194 800.399 57.6154 801.215 57.6154C802.031 57.6154 802.727 57.3194 803.303 56.7274C803.879 56.1194 804.167 55.3034 804.167 54.2794ZM814.6 49.8394C815.08 49.1034 815.68 48.5274 816.4 48.1114C817.12 47.6794 817.92 47.4634 818.8 47.4634V51.8074H817.672C816.648 51.8074 815.88 52.0314 815.368 52.4794C814.856 52.9114 814.6 53.6794 814.6 54.7834V60.9994H810.496V47.6074H814.6V49.8394ZM819.945 54.2794C819.945 52.9034 820.201 51.6954 820.713 50.6554C821.241 49.6154 821.953 48.8154 822.849 48.2554C823.745 47.6954 824.745 47.4154 825.849 47.4154C826.793 47.4154 827.617 47.6074 828.321 47.9914C829.041 48.3754 829.593 48.8794 829.977 49.5034V47.6074H834.081V60.9994H829.977V59.1034C829.577 59.7274 829.017 60.2314 828.297 60.6154C827.593 60.9994 826.769 61.1914 825.825 61.1914C824.737 61.1914 823.745 60.9114 822.849 60.3514C821.953 59.7754 821.241 58.9674 820.713 57.9274C820.201 56.8714 819.945 55.6554 819.945 54.2794ZM829.977 54.3034C829.977 53.2794 829.689 52.4714 829.113 51.8794C828.553 51.2874 827.865 50.9914 827.049 50.9914C826.233 50.9914 825.537 51.2874 824.961 51.8794C824.401 52.4554 824.121 53.2554 824.121 54.2794C824.121 55.3034 824.401 56.1194 824.961 56.7274C825.537 57.3194 826.233 57.6154 827.049 57.6154C827.865 57.6154 828.553 57.3194 829.113 56.7274C829.689 56.1354 829.977 55.3274 829.977 54.3034ZM845.211 47.4634C846.779 47.4634 848.027 47.9754 848.955 48.9994C849.899 50.0074 850.371 51.3994 850.371 53.1754V60.9994H846.291V53.7274C846.291 52.8314 846.059 52.1354 845.595 51.6394C845.131 51.1434 844.507 50.8954 843.723 50.8954C842.939 50.8954 842.315 51.1434 841.851 51.6394C841.387 52.1354 841.155 52.8314 841.155 53.7274V60.9994H837.051V47.6074H841.155V49.3834C841.571 48.7914 842.131 48.3274 842.835 47.9914C843.539 47.6394 844.331 47.4634 845.211 47.4634ZM852.406 54.2794C852.406 52.9034 852.662 51.6954 853.174 50.6554C853.702 49.6154 854.414 48.8154 855.31 48.2554C856.206 47.6954 857.206 47.4154 858.31 47.4154C859.19 47.4154 859.99 47.5994 860.71 47.9674C861.446 48.3354 862.022 48.8314 862.438 49.4554V43.2394H866.542V60.9994H862.438V59.0794C862.054 59.7194 861.502 60.2314 860.782 60.6154C860.078 60.9994 859.254 61.1914 858.31 61.1914C857.206 61.1914 856.206 60.9114 855.31 60.3514C854.414 59.7754 853.702 58.9674 853.174 57.9274C852.662 56.8714 852.406 55.6554 852.406 54.2794ZM862.438 54.3034C862.438 53.2794 862.15 52.4714 861.574 51.8794C861.014 51.2874 860.326 50.9914 859.51 50.9914C858.694 50.9914 857.998 51.2874 857.422 51.8794C856.862 52.4554 856.582 53.2554 856.582 54.2794C856.582 55.3034 856.862 56.1194 857.422 56.7274C857.998 57.3194 858.694 57.6154 859.51 57.6154C860.326 57.6154 861.014 57.3194 861.574 56.7274C862.15 56.1354 862.438 55.3274 862.438 54.3034ZM874.431 43.2154C876.143 43.2154 877.511 43.6634 878.535 44.5594C879.575 45.4554 880.095 46.7194 880.095 48.3514C880.095 49.8554 879.599 51.0314 878.607 51.8794C877.631 52.7114 876.335 53.1354 874.719 53.1514L874.599 54.9514H870.999L870.879 50.4874H872.319C873.551 50.4874 874.487 50.3354 875.127 50.0314C875.783 49.7274 876.111 49.1754 876.111 48.3754C876.111 47.8154 875.959 47.3754 875.655 47.0554C875.351 46.7354 874.927 46.5754 874.383 46.5754C873.807 46.5754 873.359 46.7434 873.039 47.0794C872.719 47.3994 872.559 47.8394 872.559 48.3994H868.695C868.663 47.4234 868.863 46.5434 869.295 45.7594C869.743 44.9754 870.399 44.3594 871.263 43.9114C872.143 43.4474 873.199 43.2154 874.431 43.2154ZM872.847 61.1914C872.127 61.1914 871.535 60.9834 871.071 60.5674C870.623 60.1354 870.399 59.6074 870.399 58.9834C870.399 58.3434 870.623 57.8074 871.071 57.3754C871.535 56.9434 872.127 56.7274 872.847 56.7274C873.551 56.7274 874.127 56.9434 874.575 57.3754C875.039 57.8074 875.271 58.3434 875.271 58.9834C875.271 59.6074 875.039 60.1354 874.575 60.5674C874.127 60.9834 873.551 61.1914 872.847 61.1914ZM886.815 52.5514C886.815 50.8874 887.175 49.4074 887.895 48.1114C888.615 46.7994 889.615 45.7834 890.895 45.0634C892.191 44.3274 893.655 43.9594 895.287 43.9594C897.287 43.9594 898.999 44.4874 900.423 45.5434C901.847 46.5994 902.799 48.0394 903.279 49.8634H898.767C898.431 49.1594 897.951 48.6234 897.327 48.2554C896.719 47.8874 896.023 47.7034 895.239 47.7034C893.975 47.7034 892.951 48.1434 892.167 49.0234C891.383 49.9034 890.991 51.0794 890.991 52.5514C890.991 54.0234 891.383 55.1994 892.167 56.0794C892.951 56.9594 893.975 57.3994 895.239 57.3994C896.023 57.3994 896.719 57.2154 897.327 56.8474C897.951 56.4794 898.431 55.9434 898.767 55.2394H903.279C902.799 57.0634 901.847 58.5034 900.423 59.5594C898.999 60.5994 897.287 61.1194 895.287 61.1194C893.655 61.1194 892.191 60.7594 890.895 60.0394C889.615 59.3034 888.615 58.2874 887.895 56.9914C887.175 55.6954 886.815 54.2154 886.815 52.5514ZM911.889 61.1914C910.577 61.1914 909.393 60.9114 908.337 60.3514C907.297 59.7914 906.473 58.9914 905.865 57.9514C905.273 56.9114 904.977 55.6954 904.977 54.3034C904.977 52.9274 905.281 51.7194 905.889 50.6794C906.497 49.6234 907.329 48.8154 908.385 48.2554C909.441 47.6954 910.625 47.4154 911.937 47.4154C913.249 47.4154 914.433 47.6954 915.489 48.2554C916.545 48.8154 917.377 49.6234 917.985 50.6794C918.593 51.7194 918.897 52.9274 918.897 54.3034C918.897 55.6794 918.585 56.8954 917.961 57.9514C917.353 58.9914 916.513 59.7914 915.441 60.3514C914.385 60.9114 913.201 61.1914 911.889 61.1914ZM911.889 57.6394C912.673 57.6394 913.337 57.3514 913.881 56.7754C914.441 56.1994 914.721 55.3754 914.721 54.3034C914.721 53.2314 914.449 52.4074 913.905 51.8314C913.377 51.2554 912.721 50.9674 911.937 50.9674C911.137 50.9674 910.473 51.2554 909.945 51.8314C909.417 52.3914 909.153 53.2154 909.153 54.3034C909.153 55.3754 909.409 56.1994 909.921 56.7754C910.449 57.3514 911.105 57.6394 911.889 57.6394ZM929.234 47.4634C930.802 47.4634 932.05 47.9754 932.978 48.9994C933.922 50.0074 934.394 51.3994 934.394 53.1754V60.9994H930.314V53.7274C930.314 52.8314 930.082 52.1354 929.618 51.6394C929.154 51.1434 928.53 50.8954 927.746 50.8954C926.962 50.8954 926.338 51.1434 925.874 51.6394C925.41 52.1354 925.178 52.8314 925.178 53.7274V60.9994H921.074V47.6074H925.178V49.3834C925.594 48.7914 926.154 48.3274 926.858 47.9914C927.562 47.6394 928.354 47.4634 929.234 47.4634ZM945.406 47.4634C946.974 47.4634 948.222 47.9754 949.15 48.9994C950.094 50.0074 950.566 51.3994 950.566 53.1754V60.9994H946.486V53.7274C946.486 52.8314 946.254 52.1354 945.79 51.6394C945.326 51.1434 944.702 50.8954 943.918 50.8954C943.134 50.8954 942.51 51.1434 942.046 51.6394C941.582 52.1354 941.35 52.8314 941.35 53.7274V60.9994H937.246V47.6074H941.35V49.3834C941.766 48.7914 942.326 48.3274 943.03 47.9914C943.734 47.6394 944.526 47.4634 945.406 47.4634ZM966.042 54.0874C966.042 54.4714 966.018 54.8714 965.97 55.2874H956.682C956.746 56.1194 957.01 56.7594 957.474 57.2074C957.954 57.6394 958.538 57.8554 959.226 57.8554C960.25 57.8554 960.962 57.4234 961.362 56.5594H965.73C965.506 57.4394 965.098 58.2314 964.506 58.9354C963.93 59.6394 963.202 60.1914 962.322 60.5914C961.442 60.9914 960.458 61.1914 959.37 61.1914C958.058 61.1914 956.89 60.9114 955.866 60.3514C954.842 59.7914 954.042 58.9914 953.466 57.9514C952.89 56.9114 952.602 55.6954 952.602 54.3034C952.602 52.9114 952.882 51.6954 953.442 50.6554C954.018 49.6154 954.818 48.8154 955.842 48.2554C956.866 47.6954 958.042 47.4154 959.37 47.4154C960.666 47.4154 961.818 47.6874 962.826 48.2314C963.834 48.7754 964.618 49.5514 965.178 50.5594C965.754 51.5674 966.042 52.7434 966.042 54.0874ZM961.842 53.0074C961.842 52.3034 961.602 51.7434 961.122 51.3274C960.642 50.9114 960.042 50.7034 959.322 50.7034C958.634 50.7034 958.05 50.9034 957.57 51.3034C957.106 51.7034 956.818 52.2714 956.706 53.0074H961.842ZM967.391 54.3034C967.391 52.9114 967.671 51.6954 968.231 50.6554C968.807 49.6154 969.599 48.8154 970.607 48.2554C971.631 47.6954 972.799 47.4154 974.111 47.4154C975.791 47.4154 977.191 47.8554 978.311 48.7354C979.447 49.6154 980.191 50.8554 980.543 52.4554H976.175C975.807 51.4314 975.095 50.9194 974.039 50.9194C973.287 50.9194 972.687 51.2154 972.239 51.8074C971.791 52.3834 971.567 53.2154 971.567 54.3034C971.567 55.3914 971.791 56.2314 972.239 56.8234C972.687 57.3994 973.287 57.6874 974.039 57.6874C975.095 57.6874 975.807 57.1754 976.175 56.1514H980.543C980.191 57.7194 979.447 58.9514 978.311 59.8474C977.175 60.7434 975.775 61.1914 974.111 61.1914C972.799 61.1914 971.631 60.9114 970.607 60.3514C969.599 59.7914 968.807 58.9914 968.231 57.9514C967.671 56.9114 967.391 55.6954 967.391 54.3034ZM990.202 57.5194V60.9994H988.114C986.626 60.9994 985.466 60.6394 984.634 59.9194C983.802 59.1834 983.386 57.9914 983.386 56.3434V51.0154H981.754V47.6074H983.386V44.3434H987.49V47.6074H990.178V51.0154H987.49V56.3914C987.49 56.7914 987.586 57.0794 987.778 57.2554C987.97 57.4314 988.29 57.5194 988.738 57.5194H990.202ZM919.243 76.8474L915.139 89.9994H912.883L909.715 79.5594L906.547 89.9994H904.291L900.163 76.8474H902.395L905.419 87.8874L908.683 76.8474H910.915L914.107 87.9114L917.083 76.8474H919.243ZM922.539 74.7114C922.123 74.7114 921.771 74.5674 921.483 74.2794C921.195 73.9914 921.051 73.6394 921.051 73.2234C921.051 72.8074 921.195 72.4554 921.483 72.1674C921.771 71.8794 922.123 71.7354 922.539 71.7354C922.939 71.7354 923.275 71.8794 923.547 72.1674C923.835 72.4554 923.979 72.8074 923.979 73.2234C923.979 73.6394 923.835 73.9914 923.547 74.2794C923.275 74.5674 922.939 74.7114 922.539 74.7114ZM923.595 76.8474V89.9994H921.411V76.8474H923.595ZM929.981 78.6474V86.3994C929.981 87.0394 930.117 87.4954 930.389 87.7674C930.661 88.0234 931.133 88.1514 931.805 88.1514H933.413V89.9994H931.445C930.229 89.9994 929.317 89.7194 928.709 89.1594C928.101 88.5994 927.797 87.6794 927.797 86.3994V78.6474H926.093V76.8474H927.797V73.5354H929.981V76.8474H933.413V78.6474H929.981ZM942.587 76.6074C943.579 76.6074 944.475 76.8234 945.275 77.2554C946.075 77.6714 946.699 78.3034 947.147 79.1514C947.611 79.9994 947.843 81.0314 947.843 82.2474V89.9994H945.683V82.5594C945.683 81.2474 945.355 80.2474 944.699 79.5594C944.043 78.8554 943.147 78.5034 942.011 78.5034C940.859 78.5034 939.939 78.8634 939.251 79.5834C938.579 80.3034 938.243 81.3514 938.243 82.7274V89.9994H936.059V72.2394H938.243V78.7194C938.675 78.0474 939.267 77.5274 940.019 77.1594C940.787 76.7914 941.643 76.6074 942.587 76.6074ZM969.473 76.8474V89.9994H967.289V88.0554C966.873 88.7274 966.289 89.2554 965.537 89.6394C964.801 90.0074 963.985 90.1914 963.089 90.1914C962.065 90.1914 961.145 89.9834 960.329 89.5674C959.513 89.1354 958.865 88.4954 958.385 87.6474C957.921 86.7994 957.689 85.7674 957.689 84.5514V76.8474H959.849V84.2634C959.849 85.5594 960.177 86.5594 960.833 87.2634C961.489 87.9514 962.385 88.2954 963.521 88.2954C964.689 88.2954 965.609 87.9354 966.281 87.2154C966.953 86.4954 967.289 85.4474 967.289 84.0714V76.8474H969.473ZM977.817 90.2154C976.809 90.2154 975.905 90.0474 975.105 89.7114C974.305 89.3594 973.673 88.8794 973.209 88.2714C972.745 87.6474 972.489 86.9354 972.441 86.1354H974.697C974.761 86.7914 975.065 87.3274 975.609 87.7434C976.169 88.1594 976.897 88.3674 977.793 88.3674C978.625 88.3674 979.281 88.1834 979.761 87.8154C980.241 87.4474 980.481 86.9834 980.481 86.4234C980.481 85.8474 980.225 85.4234 979.713 85.1514C979.201 84.8634 978.409 84.5834 977.337 84.3114C976.361 84.0554 975.561 83.7994 974.937 83.5434C974.329 83.2714 973.801 82.8794 973.353 82.3674C972.921 81.8394 972.705 81.1514 972.705 80.3034C972.705 79.6314 972.905 79.0154 973.305 78.4554C973.705 77.8954 974.273 77.4554 975.009 77.1354C975.745 76.7994 976.585 76.6314 977.529 76.6314C978.985 76.6314 980.161 76.9994 981.057 77.7354C981.953 78.4714 982.433 79.4794 982.497 80.7594H980.313C980.265 80.0714 979.985 79.5194 979.473 79.1034C978.977 78.6874 978.305 78.4794 977.457 78.4794C976.673 78.4794 976.049 78.6474 975.585 78.9834C975.121 79.3194 974.889 79.7594 974.889 80.3034C974.889 80.7354 975.025 81.0954 975.297 81.3834C975.585 81.6554 975.937 81.8794 976.353 82.0554C976.785 82.2154 977.377 82.3994 978.129 82.6074C979.073 82.8634 979.841 83.1194 980.433 83.3754C981.025 83.6154 981.529 83.9834 981.945 84.4794C982.377 84.9754 982.601 85.6234 982.617 86.4234C982.617 87.1434 982.417 87.7914 982.017 88.3674C981.617 88.9434 981.049 89.3994 980.313 89.7354C979.593 90.0554 978.761 90.2154 977.817 90.2154ZM988.532 73.2714L988.268 85.2714H986.444L986.18 73.2714H988.532ZM987.452 90.1434C987.036 90.1434 986.684 89.9994 986.396 89.7114C986.108 89.4234 985.964 89.0714 985.964 88.6554C985.964 88.2394 986.108 87.8874 986.396 87.5994C986.684 87.3114 987.036 87.1674 987.452 87.1674C987.852 87.1674 988.188 87.3114 988.46 87.5994C988.748 87.8874 988.892 88.2394 988.892 88.6554C988.892 89.0714 988.748 89.4234 988.46 89.7114C988.188 89.9994 987.852 90.1434 987.452 90.1434Z" fill="white"/>
<path d="M430.135 35.0201H425.171V28.6984H417.853V35.0201H414.245V40.5172H417.853V54.2601C417.818 59.4309 421.34 61.9905 426.648 61.7672C428.538 61.6985 429.878 61.3206 430.616 61.0801L429.465 55.6344C429.105 55.7031 428.331 55.8749 427.644 55.8749C426.184 55.8749 425.171 55.3252 425.171 53.2981V40.5172H430.135V35.0201ZM446.644 61.9218C453.172 61.9218 457.569 58.7438 458.6 53.8479L451.832 53.4012C451.093 55.4111 449.204 56.459 446.764 56.459C443.105 56.459 440.786 54.0368 440.786 50.1029V50.0857H458.755V48.0758C458.755 39.1086 453.326 34.6765 446.352 34.6765C438.587 34.6765 433.554 40.1909 433.554 48.3335C433.554 56.6995 438.518 61.9218 446.644 61.9218ZM440.786 45.5506C440.941 42.5443 443.225 40.1393 446.472 40.1393C449.65 40.1393 451.849 42.4069 451.866 45.5506H440.786ZM475.452 61.9218C482.478 61.9218 486.893 57.7989 487.237 51.7349H480.331C479.902 54.5522 478.046 56.1326 475.538 56.1326C472.12 56.1326 469.904 53.2638 469.904 48.2133C469.904 43.2315 472.137 40.3798 475.538 40.3798C478.218 40.3798 479.936 42.1492 480.331 44.7775H487.237C486.928 38.6791 482.307 34.6765 475.418 34.6765C467.413 34.6765 462.465 40.2252 462.465 48.3163C462.465 56.3388 467.327 61.9218 475.452 61.9218ZM499.241 46.1518C499.258 42.7505 501.336 40.7577 504.325 40.7577C507.297 40.7577 509.05 42.6646 509.032 45.9113V61.4064H516.35V44.6058C516.368 38.4215 512.726 34.6765 507.229 34.6765C503.226 34.6765 500.546 36.5662 499.344 39.6755H499.034V26.2246H491.922V61.4064H499.241V46.1518Z" fill="white"/>
<path d="M523.21 57.1301C522.811 52.2171 522.349 47.3355 521.824 42.4854C521.32 37.6353 520.575 32.7957 519.588 27.9666C519.546 27.7987 519.525 27.6517 519.525 27.5257C519.525 27.3787 519.525 27.2423 519.525 27.1163C519.525 26.6334 519.62 26.2135 519.809 25.8565C520.019 25.4996 520.292 25.2055 520.627 24.9746C520.963 24.7226 521.341 24.5338 521.761 24.4078C522.202 24.2818 522.664 24.2188 523.147 24.2188C524.428 24.2188 525.31 24.8172 525.792 26.014C526.002 26.6229 526.212 27.4942 526.422 28.628C526.653 29.7618 526.884 31.0741 527.115 32.5648C527.367 34.0555 527.609 35.6932 527.84 37.4779C528.071 39.2415 528.291 41.0577 528.501 42.9263C528.564 43.4512 528.732 43.7136 529.005 43.7136C529.236 43.7136 529.477 43.5561 529.729 43.2412C532.795 39.2099 536.427 37.1944 540.626 37.1944C542.201 37.1944 543.671 37.5408 545.035 38.2337C546.4 38.9266 547.586 39.8713 548.594 41.0681C549.602 42.2649 550.389 43.6822 550.956 45.3199C551.544 46.9576 551.838 48.7213 551.838 50.6109C551.838 52.3746 551.555 54.0122 550.988 55.5239C550.442 57.0356 549.676 58.3374 548.689 59.4292C547.702 60.521 546.526 61.3818 545.161 62.0117C543.818 62.6206 542.348 62.925 540.752 62.925C538.779 62.925 536.847 62.5471 534.957 61.7912C533.068 61.0144 531.283 59.9752 529.603 58.6734C529.414 58.5054 529.215 58.4215 529.005 58.4215C528.732 58.4215 528.48 58.5684 528.249 58.8624C527.913 59.2403 527.556 59.4922 527.178 59.6181C526.8 59.7231 526.338 59.7757 525.792 59.7757C524.134 59.7757 523.273 58.8938 523.21 57.1301ZM539.524 43.0522C538.684 43.0522 537.844 43.2518 537.004 43.6507C536.186 44.0286 535.409 44.5744 534.674 45.2883C533.939 46.0022 533.257 46.863 532.627 47.8708C532.018 48.8576 531.503 49.9599 531.083 51.1777C531.042 51.2407 531.01 51.3353 530.989 51.4613C530.968 51.5872 530.958 51.6921 530.958 51.7761C530.958 52.133 531.083 52.4061 531.335 52.595C532.091 53.2459 532.868 53.8547 533.666 54.4216C534.485 54.9885 535.293 55.482 536.091 55.9019C536.889 56.3219 537.676 56.6577 538.453 56.9096C539.23 57.1406 539.954 57.2561 540.626 57.2561C542.138 57.2561 543.282 56.8152 544.059 55.9333C544.857 55.0515 545.256 53.7707 545.256 52.091C545.256 50.7893 545.109 49.5926 544.815 48.5008C544.521 47.388 544.122 46.4327 543.618 45.6348C543.114 44.816 542.505 44.1861 541.792 43.7452C541.099 43.2833 540.343 43.0522 539.524 43.0522ZM575.805 36.8795C576.96 36.8795 578.073 37.0578 579.144 37.4148C580.214 37.7717 581.159 38.2652 581.978 38.8951C582.797 39.525 583.448 40.2808 583.931 41.1627C584.435 42.0445 584.687 43.0207 584.687 44.0915C584.687 44.5324 584.582 44.963 584.372 45.3829C584.183 45.7818 583.92 46.1387 583.584 46.4537C583.248 46.7476 582.86 46.9891 582.419 47.1781C581.999 47.346 581.558 47.43 581.096 47.43C581.054 47.43 581.012 47.4404 580.97 47.4614C580.949 47.4614 580.918 47.4614 580.876 47.4614C580.834 47.4824 580.792 47.493 580.75 47.493L580.876 50.0125C580.96 53.015 581.38 55.209 582.135 56.5947C582.912 57.9804 583.92 58.6734 585.159 58.6734C585.6 58.6734 585.988 58.6314 586.324 58.5474C586.681 58.4635 587.007 58.369 587.301 58.264C587.615 58.138 587.909 58.033 588.182 57.9491C588.455 57.8651 588.728 57.8231 589.001 57.8231C589.484 57.8231 589.904 58.0329 590.261 58.4529C590.639 58.8728 590.828 59.3767 590.828 59.9646C590.828 60.5525 590.597 61.1404 590.135 61.7282C589.694 62.3161 589.106 62.8515 588.371 63.3344C587.636 63.7964 586.807 64.1744 585.883 64.4683C584.959 64.7623 584.025 64.9093 583.08 64.9093C581.443 64.9093 580.004 64.2374 578.766 62.8936C577.527 61.5289 576.645 59.5342 576.12 56.9096C575.994 56.4897 575.826 56.2799 575.616 56.2799C575.364 56.2799 575.144 56.4057 574.955 56.6577C572.876 59.2822 570.661 61.2559 568.31 62.5787C565.958 63.8804 563.638 64.5313 561.349 64.5313C560.279 64.5313 559.313 64.3738 558.452 64.0588C557.591 63.7439 556.856 63.303 556.247 62.7361C555.659 62.1482 555.198 61.4448 554.862 60.626C554.547 59.7861 554.389 58.8519 554.389 57.8231C554.389 56.3743 554.704 54.8521 555.334 53.2564C555.985 51.6607 556.856 50.0859 557.948 48.5322C559.04 46.9785 560.3 45.4983 561.727 44.0915C563.176 42.6848 564.688 41.4461 566.262 40.3753C567.858 39.3045 569.475 38.4541 571.113 37.8242C572.75 37.1943 574.314 36.8795 575.805 36.8795ZM574.766 47.7764C575.144 47.0626 575.49 46.5482 575.805 46.2332C576.12 45.8973 576.572 45.6767 577.159 45.5718C577.621 45.5088 577.852 45.3619 577.852 45.1309C577.852 44.963 577.789 44.7845 577.663 44.5955C577.264 44.0496 576.844 43.5771 576.404 43.1782C575.963 42.7583 575.375 42.5484 574.64 42.5484C573.842 42.5484 572.95 42.7793 571.963 43.2412C570.976 43.7031 569.968 44.3225 568.939 45.0993C567.932 45.8553 566.934 46.7266 565.948 47.7135C564.982 48.6793 564.121 49.6765 563.365 50.7053C562.609 51.7341 562 52.7525 561.538 53.7603C561.076 54.7681 560.845 55.6709 560.845 56.4688C560.845 57.1827 561.034 57.7391 561.412 58.138C561.811 58.5369 562.347 58.7364 563.019 58.7364C564.74 58.7364 566.619 57.823 568.656 55.9963C570.693 54.1697 572.729 51.4298 574.766 47.7764ZM590.167 28.5335C590.167 27.4417 590.481 26.6648 591.111 26.2029C591.741 25.7409 592.781 25.51 594.229 25.51C594.733 25.51 595.174 25.5626 595.552 25.6676C595.93 25.7725 596.245 25.9509 596.497 26.2029C596.749 26.4338 596.948 26.7594 597.095 27.1793C597.263 27.5782 597.4 28.0926 597.505 28.7225C597.778 30.5911 598.051 32.5543 598.323 34.6119C598.617 36.6485 598.89 38.685 599.142 40.7217C599.415 42.7373 599.667 44.711 599.898 46.6427C600.129 48.5533 600.329 50.338 600.497 51.9967C600.686 53.6344 600.822 55.0935 600.906 56.3742C601.011 57.634 601.063 58.6313 601.063 59.3662C601.063 60.122 600.99 60.7624 600.843 61.2873C600.717 61.8122 600.486 62.2322 600.15 62.5471C599.835 62.862 599.415 63.0931 598.89 63.2401C598.386 63.366 597.757 63.429 597.001 63.429C596.266 63.429 595.678 63.24 595.237 62.862C594.817 62.4841 594.607 61.9068 594.607 61.13C594.607 60.3321 594.544 59.2718 594.418 57.9491C594.292 56.6053 594.124 55.1145 593.914 53.4768C593.704 51.8391 593.463 50.0965 593.19 48.2489C592.938 46.4012 592.665 44.5744 592.371 42.7688C592.098 40.9631 591.825 39.231 591.552 37.5723C591.3 35.8927 591.069 34.4123 590.859 33.1316C590.649 31.8298 590.481 30.7696 590.355 29.9508C590.229 29.1109 590.167 28.6385 590.167 28.5335ZM604.402 28.5335C604.402 27.4417 604.717 26.6648 605.347 26.2029C605.977 25.7409 607.016 25.51 608.465 25.51C608.969 25.51 609.409 25.5626 609.787 25.6676C610.165 25.7725 610.48 25.9509 610.732 26.2029C610.984 26.4338 611.184 26.7594 611.331 27.1793C611.499 27.5782 611.635 28.0926 611.74 28.7225C612.013 30.5911 612.286 32.5543 612.559 34.6119C612.853 36.6485 613.126 38.685 613.378 40.7217C613.651 42.7373 613.903 44.711 614.134 46.6427C614.365 48.5533 614.564 50.338 614.732 51.9967C614.921 53.6344 615.057 55.0935 615.141 56.3742C615.246 57.634 615.299 58.6313 615.299 59.3662C615.299 60.122 615.225 60.7624 615.078 61.2873C614.952 61.8122 614.721 62.2322 614.385 62.5471C614.071 62.862 613.651 63.0931 613.126 63.2401C612.622 63.366 611.992 63.429 611.236 63.429C610.501 63.429 609.913 63.24 609.472 62.862C609.052 62.4841 608.843 61.9068 608.843 61.13C608.843 60.3321 608.78 59.2718 608.654 57.9491C608.528 56.6053 608.36 55.1145 608.15 53.4768C607.94 51.8391 607.698 50.0965 607.425 48.2489C607.173 46.4012 606.9 44.5744 606.606 42.7688C606.333 40.9631 606.061 39.231 605.788 37.5723C605.536 35.8927 605.305 34.4123 605.095 33.1316C604.885 31.8298 604.717 30.7696 604.591 29.9508C604.465 29.1109 604.402 28.6385 604.402 28.5335ZM620.747 53.9492C620.747 53.5923 620.789 53.1933 620.873 52.7524C620.957 52.3115 620.999 51.8286 620.999 51.3037C620.999 50.9468 620.842 50.6739 620.527 50.4849C620.233 50.296 619.897 50.0859 619.519 49.855C619.141 49.624 618.795 49.3301 618.48 48.9731C618.186 48.6162 618.039 48.1019 618.039 47.43C618.039 46.9471 618.165 46.4642 618.417 45.9813C618.69 45.4984 619.078 45.0574 619.582 44.6585C620.821 43.7347 622.102 42.9052 623.424 42.1704C624.768 41.4355 626.101 40.8162 627.424 40.3123C628.768 39.8084 630.091 39.4199 631.392 39.1469C632.694 38.874 633.943 38.7375 635.14 38.7375C637.156 38.7375 639.045 39.1155 640.809 39.8713C642.594 40.6062 644.137 41.6246 645.439 42.9263C646.761 44.2071 647.801 45.7187 648.557 47.4614C649.333 49.1831 649.722 51.0308 649.722 53.0045C649.722 54.9361 649.312 56.7733 648.494 58.5159C647.696 60.2376 646.615 61.7492 645.25 63.051C643.885 64.3528 642.279 65.3816 640.431 66.1374C638.604 66.9143 636.673 67.3028 634.636 67.3028C632.642 67.3028 630.794 66.9668 629.093 66.2949C627.393 65.623 625.923 64.6992 624.684 63.5234C623.445 62.3266 622.479 60.9199 621.787 59.3032C621.094 57.6655 620.747 55.8808 620.747 53.9492ZM635.329 61.6339C636.211 61.6339 637.124 61.4553 638.069 61.0984C639.014 60.7414 639.875 60.227 640.652 59.5552C641.449 58.8623 642.1 58.0224 642.604 57.0356C643.129 56.0488 643.392 54.9361 643.392 53.6973C643.392 52.4376 643.161 51.2617 642.699 50.1699C642.237 49.0781 641.596 48.1333 640.778 47.3354C639.98 46.5166 639.024 45.8762 637.912 45.4143C636.82 44.9524 635.634 44.7215 634.353 44.7215C632.022 44.7215 630.238 45.3303 628.999 46.5481C627.76 47.7448 627.141 49.5925 627.141 52.091C627.141 53.4558 627.34 54.7262 627.739 55.9019C628.159 57.0567 628.736 58.0645 629.471 58.9254C630.206 59.7652 631.067 60.4266 632.054 60.9095C633.062 61.3924 634.153 61.6339 635.329 61.6339ZM656.777 28.0296C656.777 26.9168 657.092 26.14 657.721 25.6991C658.351 25.2371 659.391 25.0061 660.839 25.0061C661.364 25.0061 661.805 25.0587 662.162 25.1637C662.54 25.2476 662.855 25.4156 663.107 25.6676C663.38 25.9195 663.59 26.2554 663.737 26.6754C663.905 27.0743 664.041 27.5886 664.146 28.2185C664.398 30.1711 664.671 32.1867 664.965 34.2654C665.28 36.344 665.605 38.4331 665.941 40.5327C666.067 41.4775 666.561 41.95 667.422 41.95C667.653 41.95 668.031 41.929 668.555 41.887C669.101 41.8241 669.742 41.7611 670.477 41.6981C671.211 41.6141 671.999 41.53 672.839 41.446C673.699 41.362 674.55 41.2887 675.39 41.2257C676.25 41.1417 677.059 41.0787 677.815 41.0367C678.592 40.9737 679.274 40.9422 679.862 40.9422C680.324 40.9422 680.691 41.0367 680.964 41.2257C681.237 41.3936 681.447 41.6245 681.594 41.9184C681.762 42.1914 681.867 42.5063 681.909 42.8633C681.972 43.1992 682.003 43.5456 682.003 43.9026C682.003 44.2175 681.94 44.543 681.814 44.879C681.709 45.2149 681.552 45.5194 681.342 45.7923C681.153 46.0443 680.912 46.2541 680.618 46.4221C680.324 46.5901 679.988 46.674 679.61 46.674C677.783 46.674 675.936 46.737 674.067 46.863C672.219 46.968 670.372 47.1151 668.524 47.304C667.579 47.43 667.107 47.9023 667.107 48.7212C667.107 48.7842 667.117 48.8681 667.138 48.9731C667.159 49.0571 667.17 49.1306 667.17 49.1936C667.422 51.0202 667.653 52.7314 667.863 54.3271C668.094 55.9228 668.282 57.3507 668.429 58.6104C668.597 59.8492 668.723 60.8884 668.807 61.7282C668.912 62.5471 668.965 63.0931 668.965 63.366C668.965 64.1219 668.891 64.7517 668.744 65.2556C668.597 65.7805 668.356 66.2005 668.02 66.5155C667.684 66.8514 667.233 67.0823 666.666 67.2082C666.12 67.3552 665.427 67.4288 664.587 67.4288C663.789 67.4288 663.201 67.2398 662.823 66.8619C662.446 66.484 662.236 65.9066 662.194 65.1297C662.068 62.6522 661.868 60.1641 661.595 57.6656C661.322 55.1461 661.007 52.637 660.65 50.1385C660.461 49.2357 659.989 48.7842 659.233 48.7842C659.17 48.7842 659.097 48.7948 659.013 48.8158C658.929 48.8367 658.855 48.8471 658.792 48.8471C657.49 49.1411 656.262 49.435 655.107 49.729C653.953 50.0229 652.871 50.338 651.864 50.6739C651.297 50.8629 650.793 50.9993 650.352 51.0833C649.911 51.1463 649.512 51.1777 649.155 51.1777C648.672 51.1777 648.315 50.9679 648.084 50.5479C647.853 50.107 647.738 49.561 647.738 48.9101C647.738 48.6792 647.759 48.4167 647.801 48.1228C647.843 47.8078 647.927 47.5034 648.053 47.2094C648.158 46.8945 648.326 46.6111 648.557 46.3591C648.767 46.0862 649.061 45.8658 649.438 45.6978C650.32 45.3409 651.496 44.9735 652.966 44.5955C654.436 44.1966 656.094 43.8291 657.942 43.4931C658.362 43.3882 658.687 43.2203 658.918 42.9893C659.17 42.7374 659.296 42.3699 659.296 41.887C659.296 41.7821 659.296 41.6771 659.296 41.5721C659.296 41.4461 659.275 41.32 659.233 41.1941C658.897 39.2624 658.572 37.5094 658.257 35.9346C657.963 34.3389 657.7 32.9741 657.469 31.8403C657.26 30.7065 657.092 29.8143 656.966 29.1634C656.84 28.5125 656.777 28.1346 656.777 28.0296Z" fill="#F7CA31"/>
<path d="M418.184 23.1958V8.79094H413.18V5.45508H426.827V8.79094H421.823V23.1958H418.184Z" fill="white"/>
<path d="M425.708 23.1958L432.683 5.45508H436.626L443.601 23.1958H439.81L438.294 19.2534H430.712L429.196 23.1958H425.708ZM431.925 16.2208H437.232L434.503 9.0942L431.925 16.2208Z" fill="white"/>
<path d="M448.358 23.1958V8.79094H443.354V5.45508H457.001V8.79094H451.997V23.1958H448.358Z" fill="white"/>
<path d="M467.312 23.6505C466.251 23.6505 465.341 23.4989 464.279 23.1956C463.218 22.8923 462.46 22.4375 461.702 21.9826C460.944 21.376 460.336 20.7695 459.73 20.0114C459.123 19.2532 458.821 18.3434 458.518 17.4337C458.214 16.5239 458.062 15.4625 458.062 14.4011C458.062 13.3397 458.214 12.2782 458.518 11.3685C458.821 10.4587 459.275 9.5489 459.73 8.79075C460.336 8.0326 460.944 7.42608 461.702 6.81956C462.46 6.21304 463.37 5.75815 464.279 5.45489C465.189 5.15163 466.251 5 467.312 5C468.373 5 469.283 5.15163 470.345 5.45489C471.254 5.75815 472.164 6.21304 472.922 6.66793C473.681 7.27445 474.287 7.88097 474.894 8.63912C475.5 9.39727 475.803 10.3071 476.107 11.2168C476.41 12.1266 476.561 13.188 476.561 14.2494C476.561 15.3108 476.41 16.3723 476.107 17.282C475.803 18.1918 475.348 19.1016 474.894 19.8597C474.287 20.6179 473.681 21.2244 472.922 21.8309C472.164 22.4375 471.254 22.8923 470.345 23.1956C469.435 23.4989 468.373 23.6505 467.312 23.6505ZM467.464 20.3146C468.222 20.3146 468.98 20.163 469.587 19.8597C470.193 19.5565 470.8 19.1016 471.254 18.6467C471.709 18.0402 472.164 17.4337 472.316 16.8271C472.619 16.069 472.771 15.3108 472.771 14.4011C472.771 13.4913 472.619 12.7331 472.316 11.975C472.013 11.2168 471.709 10.6103 471.254 10.1554C470.8 9.5489 470.193 9.24564 469.587 8.94238C468.98 8.63912 468.222 8.48749 467.464 8.48749C466.706 8.48749 465.947 8.63912 465.341 8.94238C464.734 9.24564 464.128 9.70053 463.673 10.1554C463.218 10.7619 462.763 11.3685 462.612 11.975C462.308 12.7331 462.157 13.4913 462.157 14.4011C462.157 15.3108 462.308 16.069 462.612 16.8271C462.915 17.5853 463.218 18.1918 463.673 18.6467C464.128 19.2532 464.734 19.5565 465.341 19.8597C465.947 20.163 466.554 20.3146 467.464 20.3146Z" fill="white"/>
<path d="M484.749 23.4989C483.688 23.4989 482.778 23.3472 481.868 22.8924C480.958 22.5891 480.2 21.9826 479.594 21.2244C478.987 20.4663 478.532 19.7081 478.381 18.7983L481.868 18.0402C482.02 18.7983 482.475 19.2532 482.93 19.7081C483.536 20.163 484.143 20.3146 484.901 20.3146C485.507 20.3146 485.962 20.163 486.265 20.0114C486.569 19.8598 487.024 19.5565 487.175 19.2532C487.327 18.95 487.478 18.4951 487.478 18.0402C487.478 17.4337 487.327 16.9788 486.872 16.6755C486.417 16.3723 485.81 16.069 484.901 15.7657L484.143 15.6141C482.323 15.1592 480.958 14.5527 480.049 13.6429C479.139 12.7331 478.684 11.6717 478.684 10.4587C478.684 9.70053 478.836 8.94238 479.139 8.33586C479.442 7.72934 479.897 7.12282 480.503 6.66793C481.11 6.21304 481.716 5.75815 482.475 5.45489C483.233 5.15163 483.991 5 484.901 5C485.81 5 486.872 5.15163 487.63 5.60652C488.54 5.90978 489.146 6.5163 489.753 7.12282C490.359 7.88097 490.663 8.63912 490.966 9.5489L487.478 10.3071C487.327 9.70053 486.872 9.09401 486.417 8.79075C485.962 8.48749 485.356 8.18423 484.749 8.18423C484.294 8.18423 483.839 8.33586 483.536 8.48749C483.233 8.63912 482.93 8.94238 482.626 9.24564C482.475 9.5489 482.323 9.85216 482.323 10.3071C482.323 10.9136 482.475 11.3685 482.93 11.6717C483.384 11.975 483.991 12.2782 484.901 12.4299L485.659 12.5815C487.478 13.0364 488.843 13.6429 489.753 14.5527C490.663 15.4625 491.118 16.5239 491.118 17.8886C491.118 18.7983 490.966 19.5565 490.663 20.163C490.359 20.9212 489.905 21.5277 489.298 21.9826C488.691 22.4375 488.085 22.8924 487.327 23.1956C486.417 23.3472 485.659 23.4989 484.749 23.4989Z" fill="white"/>
<path d="M397.06 31.5712L394.75 42.3512H403.64V51.1012H392.86L390.34 63.0012H381.03L383.55 51.1012H370.81L368.29 63.0012H359.05L361.57 51.1012H351V42.3512H363.46L365.77 31.5712H355.27V22.8212H367.66L370.11 11.2012H379.35L376.9 22.8212H389.64L392.09 11.2012H401.4L398.95 22.8212H407.91V31.5712H397.06ZM387.75 31.5712H375.01L372.7 42.3512H385.44L387.75 31.5712Z" fill="white"/>
</svg>
