<svg width="1128" height="65" viewBox="0 0 1128 65" fill="none" xmlns="http://www.w3.org/2000/svg">
<path d="M1009.8 17.2412L1006.98 26.9992H1005.55L1003.28 19.1452L1000.93 26.9992L999.515 27.0132L996.785 17.2412H998.143L1000.27 25.5152L1002.62 17.2412H1004.05L1006.29 25.4872L1008.43 17.2412H1009.8ZM1010.72 23.1352C1010.72 22.3512 1010.88 21.6652 1011.2 21.0772C1011.52 20.4799 1011.95 20.0179 1012.5 19.6912C1013.06 19.3645 1013.68 19.2012 1014.36 19.2012C1015.04 19.2012 1015.62 19.3459 1016.11 19.6352C1016.61 19.9245 1016.98 20.2885 1017.22 20.7272V19.3272H1018.51V26.9992H1017.22V25.5712C1016.97 26.0192 1016.59 26.3925 1016.09 26.6912C1015.59 26.9805 1015.01 27.1252 1014.35 27.1252C1013.67 27.1252 1013.05 26.9572 1012.5 26.6212C1011.95 26.2852 1011.52 25.8139 1011.2 25.2072C1010.88 24.6005 1010.72 23.9099 1010.72 23.1352ZM1017.22 23.1492C1017.22 22.5705 1017.1 22.0665 1016.87 21.6372C1016.64 21.2079 1016.32 20.8812 1015.92 20.6572C1015.53 20.4239 1015.09 20.3072 1014.62 20.3072C1014.14 20.3072 1013.71 20.4192 1013.31 20.6432C1012.92 20.8672 1012.61 21.1939 1012.38 21.6232C1012.14 22.0525 1012.03 22.5565 1012.03 23.1352C1012.03 23.7232 1012.14 24.2365 1012.38 24.6752C1012.61 25.1045 1012.92 25.4359 1013.31 25.6692C1013.71 25.8932 1014.14 26.0052 1014.62 26.0052C1015.09 26.0052 1015.53 25.8932 1015.92 25.6692C1016.32 25.4359 1016.64 25.1045 1016.87 24.6752C1017.1 24.2365 1017.22 23.7279 1017.22 23.1492ZM1024.4 19.1872C1025.33 19.1872 1026.09 19.4719 1026.67 20.0412C1027.24 20.6012 1027.53 21.4132 1027.53 22.4772V26.9992H1026.27V22.6592C1026.27 21.8939 1026.08 21.3105 1025.7 20.9092C1025.32 20.4985 1024.79 20.2932 1024.13 20.2932C1023.46 20.2932 1022.92 20.5032 1022.52 20.9232C1022.13 21.3432 1021.93 21.9545 1021.93 22.7572V26.9992H1020.66V19.3272H1021.93V20.4192C1022.19 20.0272 1022.53 19.7239 1022.96 19.5092C1023.39 19.2945 1023.88 19.1872 1024.4 19.1872ZM1031.17 20.3772V24.8992C1031.17 25.2725 1031.25 25.5385 1031.41 25.6972C1031.57 25.8465 1031.84 25.9212 1032.23 25.9212H1033.17V26.9992H1032.02C1031.31 26.9992 1030.78 26.8359 1030.43 26.5092C1030.07 26.1825 1029.9 25.6459 1029.9 24.8992V20.3772H1028.9V19.3272H1029.9V17.3952H1031.17V19.3272H1033.17V20.3772H1031.17ZM1040 20.3772V24.8992C1040 25.2725 1040.08 25.5385 1040.24 25.6972C1040.4 25.8465 1040.67 25.9212 1041.07 25.9212H1042V26.9992H1040.86C1040.15 26.9992 1039.61 26.8359 1039.26 26.5092C1038.9 26.1825 1038.73 25.6459 1038.73 24.8992V20.3772H1037.73V19.3272H1038.73V17.3952H1040V19.3272H1042V20.3772H1040ZM1046.89 27.1252C1046.17 27.1252 1045.52 26.9619 1044.93 26.6352C1044.35 26.3085 1043.9 25.8465 1043.56 25.2492C1043.23 24.6425 1043.07 23.9425 1043.07 23.1492C1043.07 22.3652 1043.24 21.6745 1043.57 21.0772C1043.92 20.4705 1044.39 20.0085 1044.97 19.6912C1045.56 19.3645 1046.22 19.2012 1046.95 19.2012C1047.68 19.2012 1048.33 19.3645 1048.92 19.6912C1049.51 20.0085 1049.97 20.4659 1050.31 21.0632C1050.65 21.6605 1050.83 22.3559 1050.83 23.1492C1050.83 23.9425 1050.65 24.6425 1050.29 25.2492C1049.95 25.8465 1049.48 26.3085 1048.88 26.6352C1048.28 26.9619 1047.62 27.1252 1046.89 27.1252ZM1046.89 26.0052C1047.35 26.0052 1047.78 25.8979 1048.18 25.6832C1048.58 25.4685 1048.9 25.1465 1049.15 24.7172C1049.4 24.2879 1049.52 23.7652 1049.52 23.1492C1049.52 22.5332 1049.4 22.0105 1049.16 21.5812C1048.92 21.1519 1048.6 20.8345 1048.21 20.6292C1047.82 20.4145 1047.39 20.3072 1046.93 20.3072C1046.47 20.3072 1046.04 20.4145 1045.65 20.6292C1045.26 20.8345 1044.96 21.1519 1044.72 21.5812C1044.49 22.0105 1044.37 22.5332 1044.37 23.1492C1044.37 23.7745 1044.48 24.3019 1044.71 24.7312C1044.94 25.1605 1045.25 25.4825 1045.63 25.6972C1046.02 25.9025 1046.44 26.0052 1046.89 26.0052ZM1058.42 20.2932C1058.64 19.9292 1058.96 19.6352 1059.38 19.4112C1059.8 19.1872 1060.28 19.0752 1060.83 19.0752C1061.47 19.0752 1062.05 19.2385 1062.58 19.5652C1063.1 19.8919 1063.51 20.3585 1063.81 20.9652C1064.12 21.5719 1064.27 22.2765 1064.27 23.0792C1064.27 23.8819 1064.12 24.5912 1063.81 25.2072C1063.51 25.8139 1063.1 26.2852 1062.58 26.6212C1062.05 26.9479 1061.47 27.1112 1060.83 27.1112C1060.28 27.1112 1059.79 27.0039 1059.38 26.7892C1058.97 26.5652 1058.65 26.2712 1058.42 25.9072V26.9992H1056.02V16.6392H1058.42V20.2932ZM1061.83 23.0792C1061.83 22.4819 1061.67 22.0152 1061.33 21.6792C1061 21.3339 1060.6 21.1612 1060.11 21.1612C1059.64 21.1612 1059.23 21.3339 1058.89 21.6792C1058.57 22.0245 1058.4 22.4959 1058.4 23.0932C1058.4 23.6905 1058.57 24.1619 1058.89 24.5072C1059.23 24.8525 1059.64 25.0252 1060.11 25.0252C1060.59 25.0252 1060.99 24.8525 1061.33 24.5072C1061.67 24.1525 1061.83 23.6765 1061.83 23.0792ZM1073.24 19.1872V26.9992H1070.85V25.9352C1070.6 26.2805 1070.27 26.5605 1069.85 26.7752C1069.44 26.9805 1068.98 27.0832 1068.48 27.0832C1067.88 27.0832 1067.36 26.9525 1066.9 26.6912C1066.44 26.4205 1066.09 26.0332 1065.83 25.5292C1065.58 25.0252 1065.46 24.4325 1065.46 23.7512V19.1872H1067.84V23.4292C1067.84 23.9519 1067.97 24.3579 1068.24 24.6472C1068.51 24.9365 1068.88 25.0812 1069.33 25.0812C1069.8 25.0812 1070.17 24.9365 1070.44 24.6472C1070.71 24.3579 1070.85 23.9519 1070.85 23.4292V19.1872H1073.24ZM1076.16 18.3752C1075.74 18.3752 1075.4 18.2539 1075.13 18.0112C1074.87 17.7592 1074.74 17.4512 1074.74 17.0872C1074.74 16.7139 1074.87 16.4059 1075.13 16.1632C1075.4 15.9112 1075.74 15.7852 1076.16 15.7852C1076.57 15.7852 1076.91 15.9112 1077.17 16.1632C1077.44 16.4059 1077.58 16.7139 1077.58 17.0872C1077.58 17.4512 1077.44 17.7592 1077.17 18.0112C1076.91 18.2539 1076.57 18.3752 1076.16 18.3752ZM1077.35 19.1872V26.9992H1074.96V19.1872H1077.35ZM1081.48 16.6392V26.9992H1079.09V16.6392H1081.48ZM1082.74 23.0792C1082.74 22.2765 1082.89 21.5719 1083.19 20.9652C1083.5 20.3585 1083.91 19.8919 1084.44 19.5652C1084.96 19.2385 1085.54 19.0752 1086.19 19.0752C1086.7 19.0752 1087.17 19.1825 1087.59 19.3972C1088.01 19.6119 1088.35 19.9012 1088.59 20.2652V16.6392H1090.99V26.9992H1088.59V25.8792C1088.37 26.2525 1088.05 26.5512 1087.63 26.7752C1087.22 26.9992 1086.74 27.1112 1086.19 27.1112C1085.54 27.1112 1084.96 26.9479 1084.44 26.6212C1083.91 26.2852 1083.5 25.8139 1083.19 25.2072C1082.89 24.5912 1082.74 23.8819 1082.74 23.0792ZM1088.59 23.0932C1088.59 22.4959 1088.43 22.0245 1088.09 21.6792C1087.76 21.3339 1087.36 21.1612 1086.89 21.1612C1086.41 21.1612 1086 21.3339 1085.67 21.6792C1085.34 22.0152 1085.18 22.4819 1085.18 23.0792C1085.18 23.6765 1085.34 24.1525 1085.67 24.5072C1086 24.8525 1086.41 25.0252 1086.89 25.0252C1087.36 25.0252 1087.76 24.8525 1088.09 24.5072C1088.43 24.1619 1088.59 23.6905 1088.59 23.0932ZM1103.67 19.1872L1098.77 30.7092H1096.19L1097.98 26.7332L1094.8 19.1872H1097.48L1099.28 24.0732L1101.08 19.1872H1103.67ZM1108.09 27.1112C1107.32 27.1112 1106.63 26.9479 1106.02 26.6212C1105.41 26.2945 1104.93 25.8279 1104.57 25.2212C1104.23 24.6145 1104.06 23.9052 1104.06 23.0932C1104.06 22.2905 1104.23 21.5859 1104.59 20.9792C1104.94 20.3632 1105.43 19.8919 1106.04 19.5652C1106.66 19.2385 1107.35 19.0752 1108.12 19.0752C1108.88 19.0752 1109.57 19.2385 1110.19 19.5652C1110.8 19.8919 1111.29 20.3632 1111.64 20.9792C1112 21.5859 1112.18 22.2905 1112.18 23.0932C1112.18 23.8959 1111.99 24.6052 1111.63 25.2212C1111.28 25.8279 1110.79 26.2945 1110.16 26.6212C1109.54 26.9479 1108.85 27.1112 1108.09 27.1112ZM1108.09 25.0392C1108.55 25.0392 1108.93 24.8712 1109.25 24.5352C1109.58 24.1992 1109.74 23.7185 1109.74 23.0932C1109.74 22.4679 1109.58 21.9872 1109.26 21.6512C1108.96 21.3152 1108.57 21.1472 1108.12 21.1472C1107.65 21.1472 1107.26 21.3152 1106.95 21.6512C1106.65 21.9779 1106.49 22.4585 1106.49 23.0932C1106.49 23.7185 1106.64 24.1992 1106.94 24.5352C1107.25 24.8712 1107.63 25.0392 1108.09 25.0392ZM1121.16 19.1872V26.9992H1118.77V25.9352C1118.52 26.2805 1118.19 26.5605 1117.77 26.7752C1117.36 26.9805 1116.9 27.0832 1116.4 27.0832C1115.8 27.0832 1115.28 26.9525 1114.82 26.6912C1114.36 26.4205 1114.01 26.0332 1113.75 25.5292C1113.5 25.0252 1113.38 24.4325 1113.38 23.7512V19.1872H1115.76V23.4292C1115.76 23.9519 1115.89 24.3579 1116.16 24.6472C1116.43 24.9365 1116.8 25.0812 1117.25 25.0812C1117.72 25.0812 1118.09 24.9365 1118.36 24.6472C1118.63 24.3579 1118.77 23.9519 1118.77 23.4292V19.1872H1121.16ZM1125.27 20.4892C1125.55 20.0599 1125.9 19.7239 1126.32 19.4812C1126.74 19.2292 1127.21 19.1032 1127.72 19.1032V21.6372H1127.07C1126.47 21.6372 1126.02 21.7679 1125.72 22.0292C1125.42 22.2812 1125.27 22.7292 1125.27 23.3732V26.9992H1122.88V19.1872H1125.27V20.4892ZM1015.6 37.2932C1015.82 36.9292 1016.14 36.6352 1016.56 36.4112C1016.98 36.1872 1017.46 36.0752 1018.01 36.0752C1018.65 36.0752 1019.23 36.2385 1019.76 36.5652C1020.28 36.8919 1020.69 37.3585 1020.99 37.9652C1021.3 38.5719 1021.45 39.2765 1021.45 40.0792C1021.45 40.8819 1021.3 41.5912 1020.99 42.2072C1020.69 42.8139 1020.28 43.2852 1019.76 43.6212C1019.23 43.9479 1018.65 44.1112 1018.01 44.1112C1017.46 44.1112 1016.97 44.0039 1016.56 43.7892C1016.15 43.5652 1015.83 43.2712 1015.6 42.9072V43.9992H1013.2V33.6392H1015.6V37.2932ZM1019.01 40.0792C1019.01 39.4819 1018.85 39.0152 1018.51 38.6792C1018.18 38.3339 1017.78 38.1612 1017.29 38.1612C1016.82 38.1612 1016.41 38.3339 1016.07 38.6792C1015.75 39.0245 1015.58 39.4959 1015.58 40.0932C1015.58 40.6905 1015.75 41.1619 1016.07 41.5072C1016.41 41.8525 1016.82 42.0252 1017.29 42.0252C1017.77 42.0252 1018.17 41.8525 1018.51 41.5072C1018.85 41.1525 1019.01 40.6765 1019.01 40.0792ZM1025.1 37.4892C1025.38 37.0599 1025.73 36.7239 1026.15 36.4812C1026.57 36.2292 1027.04 36.1032 1027.55 36.1032V38.6372H1026.89C1026.29 38.6372 1025.85 38.7679 1025.55 39.0292C1025.25 39.2812 1025.1 39.7292 1025.1 40.3732V43.9992H1022.71V36.1872H1025.1V37.4892ZM1028.22 40.0792C1028.22 39.2765 1028.37 38.5719 1028.67 37.9652C1028.97 37.3585 1029.39 36.8919 1029.91 36.5652C1030.43 36.2385 1031.02 36.0752 1031.66 36.0752C1032.21 36.0752 1032.69 36.1872 1033.1 36.4112C1033.52 36.6352 1033.85 36.9292 1034.07 37.2932V36.1872H1036.46V43.9992H1034.07V42.8932C1033.84 43.2572 1033.51 43.5512 1033.09 43.7752C1032.68 43.9992 1032.2 44.1112 1031.65 44.1112C1031.01 44.1112 1030.43 43.9479 1029.91 43.6212C1029.39 43.2852 1028.97 42.8139 1028.67 42.2072C1028.37 41.5912 1028.22 40.8819 1028.22 40.0792ZM1034.07 40.0932C1034.07 39.4959 1033.9 39.0245 1033.57 38.6792C1033.24 38.3339 1032.84 38.1612 1032.36 38.1612C1031.89 38.1612 1031.48 38.3339 1031.14 38.6792C1030.82 39.0152 1030.65 39.4819 1030.65 40.0792C1030.65 40.6765 1030.82 41.1525 1031.14 41.5072C1031.48 41.8525 1031.89 42.0252 1032.36 42.0252C1032.84 42.0252 1033.24 41.8525 1033.57 41.5072C1033.9 41.1619 1034.07 40.6905 1034.07 40.0932ZM1042.96 36.1032C1043.87 36.1032 1044.6 36.4019 1045.14 36.9992C1045.69 37.5872 1045.97 38.3992 1045.97 39.4352V43.9992H1043.59V39.7572C1043.59 39.2345 1043.45 38.8285 1043.18 38.5392C1042.91 38.2499 1042.55 38.1052 1042.09 38.1052C1041.63 38.1052 1041.27 38.2499 1041 38.5392C1040.73 38.8285 1040.59 39.2345 1040.59 39.7572V43.9992H1038.2V36.1872H1040.59V37.2232C1040.83 36.8779 1041.16 36.6072 1041.57 36.4112C1041.98 36.2059 1042.44 36.1032 1042.96 36.1032ZM1047.15 40.0792C1047.15 39.2765 1047.3 38.5719 1047.6 37.9652C1047.91 37.3585 1048.33 36.8919 1048.85 36.5652C1049.37 36.2385 1049.95 36.0752 1050.6 36.0752C1051.11 36.0752 1051.58 36.1825 1052 36.3972C1052.43 36.6119 1052.76 36.9012 1053.01 37.2652V33.6392H1055.4V43.9992H1053.01V42.8792C1052.78 43.2525 1052.46 43.5512 1052.04 43.7752C1051.63 43.9992 1051.15 44.1112 1050.6 44.1112C1049.95 44.1112 1049.37 43.9479 1048.85 43.6212C1048.33 43.2852 1047.91 42.8139 1047.6 42.2072C1047.3 41.5912 1047.15 40.8819 1047.15 40.0792ZM1053.01 40.0932C1053.01 39.4959 1052.84 39.0245 1052.5 38.6792C1052.18 38.3339 1051.77 38.1612 1051.3 38.1612C1050.82 38.1612 1050.42 38.3339 1050.08 38.6792C1049.75 39.0152 1049.59 39.4819 1049.59 40.0792C1049.59 40.6765 1049.75 41.1525 1050.08 41.5072C1050.42 41.8525 1050.82 42.0252 1051.3 42.0252C1051.77 42.0252 1052.18 41.8525 1052.5 41.5072C1052.84 41.1619 1053.01 40.6905 1053.01 40.0932ZM1060 33.6252C1061 33.6252 1061.8 33.8865 1062.4 34.4092C1063 34.9319 1063.31 35.6692 1063.31 36.6212C1063.31 37.4985 1063.02 38.1845 1062.44 38.6792C1061.87 39.1645 1061.11 39.4119 1060.17 39.4212L1060.1 40.4712H1058L1057.93 37.8672H1058.77C1059.49 37.8672 1060.03 37.7785 1060.41 37.6012C1060.79 37.4239 1060.98 37.1019 1060.98 36.6352C1060.98 36.3085 1060.89 36.0519 1060.72 35.8652C1060.54 35.6785 1060.29 35.5852 1059.97 35.5852C1059.64 35.5852 1059.38 35.6832 1059.19 35.8792C1059 36.0659 1058.91 36.3225 1058.91 36.6492H1056.66C1056.64 36.0799 1056.75 35.5665 1057.01 35.1092C1057.27 34.6519 1057.65 34.2925 1058.15 34.0312C1058.67 33.7605 1059.28 33.6252 1060 33.6252ZM1059.08 44.1112C1058.66 44.1112 1058.31 43.9899 1058.04 43.7472C1057.78 43.4952 1057.65 43.1872 1057.65 42.8232C1057.65 42.4499 1057.78 42.1372 1058.04 41.8852C1058.31 41.6332 1058.66 41.5072 1059.08 41.5072C1059.49 41.5072 1059.82 41.6332 1060.09 41.8852C1060.36 42.1372 1060.49 42.4499 1060.49 42.8232C1060.49 43.1872 1060.36 43.4952 1060.09 43.7472C1059.82 43.9899 1059.49 44.1112 1059.08 44.1112ZM1067.23 39.0712C1067.23 38.1005 1067.44 37.2372 1067.86 36.4812C1068.28 35.7159 1068.86 35.1232 1069.61 34.7032C1070.36 34.2739 1071.22 34.0592 1072.17 34.0592C1073.33 34.0592 1074.33 34.3672 1075.16 34.9832C1075.99 35.5992 1076.55 36.4392 1076.83 37.5032H1074.2C1074 37.0925 1073.72 36.7799 1073.36 36.5652C1073 36.3505 1072.6 36.2432 1072.14 36.2432C1071.4 36.2432 1070.81 36.4999 1070.35 37.0132C1069.89 37.5265 1069.66 38.2125 1069.66 39.0712C1069.66 39.9299 1069.89 40.6159 1070.35 41.1292C1070.81 41.6425 1071.4 41.8992 1072.14 41.8992C1072.6 41.8992 1073 41.7919 1073.36 41.5772C1073.72 41.3625 1074 41.0499 1074.2 40.6392H1076.83C1076.55 41.7032 1075.99 42.5432 1075.16 43.1592C1074.33 43.7659 1073.33 44.0692 1072.17 44.0692C1071.22 44.0692 1070.36 43.8592 1069.61 43.4392C1068.86 43.0099 1068.28 42.4172 1067.86 41.6612C1067.44 40.9052 1067.23 40.0419 1067.23 39.0712ZM1081.85 44.1112C1081.09 44.1112 1080.4 43.9479 1079.78 43.6212C1079.17 43.2945 1078.69 42.8279 1078.34 42.2212C1077.99 41.6145 1077.82 40.9052 1077.82 40.0932C1077.82 39.2905 1078 38.5859 1078.35 37.9792C1078.71 37.3632 1079.19 36.8919 1079.81 36.5652C1080.42 36.2385 1081.11 36.0752 1081.88 36.0752C1082.65 36.0752 1083.34 36.2385 1083.95 36.5652C1084.57 36.8919 1085.05 37.3632 1085.41 37.9792C1085.76 38.5859 1085.94 39.2905 1085.94 40.0932C1085.94 40.8959 1085.76 41.6052 1085.39 42.2212C1085.04 42.8279 1084.55 43.2945 1083.92 43.6212C1083.31 43.9479 1082.62 44.1112 1081.85 44.1112ZM1081.85 42.0392C1082.31 42.0392 1082.7 41.8712 1083.01 41.5352C1083.34 41.1992 1083.5 40.7185 1083.5 40.0932C1083.5 39.4679 1083.35 38.9872 1083.03 38.6512C1082.72 38.3152 1082.34 38.1472 1081.88 38.1472C1081.41 38.1472 1081.03 38.3152 1080.72 38.6512C1080.41 38.9779 1080.26 39.4585 1080.26 40.0932C1080.26 40.7185 1080.41 41.1992 1080.7 41.5352C1081.01 41.8712 1081.39 42.0392 1081.85 42.0392ZM1091.97 36.1032C1092.88 36.1032 1093.61 36.4019 1094.15 36.9992C1094.7 37.5872 1094.98 38.3992 1094.98 39.4352V43.9992H1092.6V39.7572C1092.6 39.2345 1092.46 38.8285 1092.19 38.5392C1091.92 38.2499 1091.56 38.1052 1091.1 38.1052C1090.64 38.1052 1090.28 38.2499 1090.01 38.5392C1089.74 38.8285 1089.6 39.2345 1089.6 39.7572V43.9992H1087.21V36.1872H1089.6V37.2232C1089.85 36.8779 1090.17 36.6072 1090.58 36.4112C1090.99 36.2059 1091.46 36.1032 1091.97 36.1032ZM1101.4 36.1032C1102.32 36.1032 1103.05 36.4019 1103.59 36.9992C1104.14 37.5872 1104.41 38.3992 1104.41 39.4352V43.9992H1102.03V39.7572C1102.03 39.2345 1101.9 38.8285 1101.63 38.5392C1101.36 38.2499 1100.99 38.1052 1100.54 38.1052C1100.08 38.1052 1099.71 38.2499 1099.44 38.5392C1099.17 38.8285 1099.04 39.2345 1099.04 39.7572V43.9992H1096.64V36.1872H1099.04V37.2232C1099.28 36.8779 1099.61 36.6072 1100.02 36.4112C1100.43 36.2059 1100.89 36.1032 1101.4 36.1032ZM1113.44 39.9672C1113.44 40.1912 1113.43 40.4245 1113.4 40.6672H1107.98C1108.02 41.1525 1108.17 41.5259 1108.44 41.7872C1108.72 42.0392 1109.06 42.1652 1109.46 42.1652C1110.06 42.1652 1110.48 41.9132 1110.71 41.4092H1113.26C1113.13 41.9225 1112.89 42.3845 1112.54 42.7952C1112.21 43.2059 1111.78 43.5279 1111.27 43.7612C1110.76 43.9945 1110.18 44.1112 1109.55 44.1112C1108.78 44.1112 1108.1 43.9479 1107.5 43.6212C1106.91 43.2945 1106.44 42.8279 1106.1 42.2212C1105.77 41.6145 1105.6 40.9052 1105.6 40.0932C1105.6 39.2812 1105.76 38.5719 1106.09 37.9652C1106.43 37.3585 1106.89 36.8919 1107.49 36.5652C1108.09 36.2385 1108.77 36.0752 1109.55 36.0752C1110.3 36.0752 1110.98 36.2339 1111.56 36.5512C1112.15 36.8685 1112.61 37.3212 1112.94 37.9092C1113.27 38.4972 1113.44 39.1832 1113.44 39.9672ZM1110.99 39.3372C1110.99 38.9265 1110.85 38.5999 1110.57 38.3572C1110.29 38.1145 1109.94 37.9932 1109.52 37.9932C1109.12 37.9932 1108.78 38.1099 1108.5 38.3432C1108.23 38.5765 1108.06 38.9079 1107.99 39.3372H1110.99ZM1114.23 40.0932C1114.23 39.2812 1114.39 38.5719 1114.72 37.9652C1115.05 37.3585 1115.52 36.8919 1116.1 36.5652C1116.7 36.2385 1117.38 36.0752 1118.15 36.0752C1119.13 36.0752 1119.94 36.3319 1120.6 36.8452C1121.26 37.3585 1121.69 38.0819 1121.9 39.0152H1119.35C1119.14 38.4179 1118.72 38.1192 1118.11 38.1192C1117.67 38.1192 1117.32 38.2919 1117.06 38.6372C1116.79 38.9732 1116.66 39.4585 1116.66 40.0932C1116.66 40.7279 1116.79 41.2179 1117.06 41.5632C1117.32 41.8992 1117.67 42.0672 1118.11 42.0672C1118.72 42.0672 1119.14 41.7685 1119.35 41.1712H1121.9C1121.69 42.0859 1121.26 42.8045 1120.6 43.3272C1119.94 43.8499 1119.12 44.1112 1118.15 44.1112C1117.38 44.1112 1116.7 43.9479 1116.1 43.6212C1115.52 43.2945 1115.05 42.8279 1114.72 42.2212C1114.39 41.6145 1114.23 40.9052 1114.23 40.0932ZM1127.53 41.9692V43.9992H1126.32C1125.45 43.9992 1124.77 43.7892 1124.29 43.3692C1123.8 42.9399 1123.56 42.2445 1123.56 41.2832V38.1752H1122.61V36.1872H1123.56V34.2832H1125.95V36.1872H1127.52V38.1752H1125.95V41.3112C1125.95 41.5445 1126.01 41.7125 1126.12 41.8152C1126.23 41.9179 1126.42 41.9692 1126.68 41.9692H1127.53ZM1086.14 53.3272L1083.75 60.9992H1082.43L1080.58 54.9092L1078.74 60.9992H1077.42L1075.01 53.3272H1076.31L1078.08 59.7672L1079.98 53.3272H1081.28L1083.15 59.7812L1084.88 53.3272H1086.14ZM1088.06 52.0812C1087.82 52.0812 1087.62 51.9972 1087.45 51.8292C1087.28 51.6612 1087.2 51.4559 1087.2 51.2132C1087.2 50.9705 1087.28 50.7652 1087.45 50.5972C1087.62 50.4292 1087.82 50.3452 1088.06 50.3452C1088.3 50.3452 1088.49 50.4292 1088.65 50.5972C1088.82 50.7652 1088.9 50.9705 1088.9 51.2132C1088.9 51.4559 1088.82 51.6612 1088.65 51.8292C1088.49 51.9972 1088.3 52.0812 1088.06 52.0812ZM1088.68 53.3272V60.9992H1087.41V53.3272H1088.68ZM1092.41 54.3772V58.8992C1092.41 59.2725 1092.48 59.5385 1092.64 59.6972C1092.8 59.8465 1093.08 59.9212 1093.47 59.9212H1094.41V60.9992H1093.26C1092.55 60.9992 1092.02 60.8359 1091.66 60.5092C1091.31 60.1825 1091.13 59.6459 1091.13 58.8992V54.3772H1090.14V53.3272H1091.13V51.3952H1092.41V53.3272H1094.41V54.3772H1092.41ZM1099.76 53.1872C1100.34 53.1872 1100.86 53.3132 1101.33 53.5652C1101.79 53.8079 1102.16 54.1765 1102.42 54.6712C1102.69 55.1659 1102.83 55.7679 1102.83 56.4772V60.9992H1101.57V56.6592C1101.57 55.8939 1101.37 55.3105 1100.99 54.9092C1100.61 54.4985 1100.09 54.2932 1099.42 54.2932C1098.75 54.2932 1098.21 54.5032 1097.81 54.9232C1097.42 55.3432 1097.23 55.9545 1097.23 56.7572V60.9992H1095.95V50.6392H1097.23V54.4192C1097.48 54.0272 1097.82 53.7239 1098.26 53.5092C1098.71 53.2945 1099.21 53.1872 1099.76 53.1872ZM1115.44 53.3272V60.9992H1114.17V59.8652C1113.93 60.2572 1113.59 60.5652 1113.15 60.7892C1112.72 61.0039 1112.24 61.1112 1111.72 61.1112C1111.12 61.1112 1110.58 60.9899 1110.11 60.7472C1109.63 60.4952 1109.25 60.1219 1108.97 59.6272C1108.7 59.1325 1108.57 58.5305 1108.57 57.8212V53.3272H1109.83V57.6532C1109.83 58.4092 1110.02 58.9925 1110.4 59.4032C1110.79 59.8045 1111.31 60.0052 1111.97 60.0052C1112.65 60.0052 1113.19 59.7952 1113.58 59.3752C1113.97 58.9552 1114.17 58.3439 1114.17 57.5412V53.3272H1115.44ZM1120.31 61.1252C1119.72 61.1252 1119.19 61.0272 1118.73 60.8312C1118.26 60.6259 1117.89 60.3459 1117.62 59.9912C1117.35 59.6272 1117.2 59.2119 1117.17 58.7452H1118.49C1118.53 59.1279 1118.7 59.4405 1119.02 59.6832C1119.35 59.9259 1119.77 60.0472 1120.3 60.0472C1120.78 60.0472 1121.16 59.9399 1121.44 59.7252C1121.72 59.5105 1121.86 59.2399 1121.86 58.9132C1121.86 58.5772 1121.71 58.3299 1121.42 58.1712C1121.12 58.0032 1120.65 57.8399 1120.03 57.6812C1119.46 57.5319 1118.99 57.3825 1118.63 57.2332C1118.27 57.0745 1117.97 56.8459 1117.71 56.5472C1117.45 56.2392 1117.33 55.8379 1117.33 55.3432C1117.33 54.9512 1117.44 54.5919 1117.68 54.2652C1117.91 53.9385 1118.24 53.6819 1118.67 53.4952C1119.1 53.2992 1119.59 53.2012 1120.14 53.2012C1120.99 53.2012 1121.68 53.4159 1122.2 53.8452C1122.72 54.2745 1123 54.8625 1123.04 55.6092H1121.77C1121.74 55.2079 1121.57 54.8859 1121.28 54.6432C1120.99 54.4005 1120.59 54.2792 1120.1 54.2792C1119.64 54.2792 1119.28 54.3772 1119.01 54.5732C1118.74 54.7692 1118.6 55.0259 1118.6 55.3432C1118.6 55.5952 1118.68 55.8052 1118.84 55.9732C1119.01 56.1319 1119.21 56.2625 1119.46 56.3652C1119.71 56.4585 1120.05 56.5659 1120.49 56.6872C1121.04 56.8365 1121.49 56.9859 1121.84 57.1352C1122.18 57.2752 1122.47 57.4899 1122.72 57.7792C1122.97 58.0685 1123.1 58.4465 1123.11 58.9132C1123.11 59.3332 1122.99 59.7112 1122.76 60.0472C1122.53 60.3832 1122.19 60.6492 1121.77 60.8452C1121.35 61.0319 1120.86 61.1252 1120.31 61.1252ZM1126.56 51.2412L1126.41 58.2412H1125.34L1125.19 51.2412H1126.56ZM1125.93 61.0832C1125.69 61.0832 1125.48 60.9992 1125.31 60.8312C1125.15 60.6632 1125.06 60.4579 1125.06 60.2152C1125.06 59.9725 1125.15 59.7672 1125.31 59.5992C1125.48 59.4312 1125.69 59.3472 1125.93 59.3472C1126.16 59.3472 1126.36 59.4312 1126.52 59.5992C1126.69 59.7672 1126.77 59.9725 1126.77 60.2152C1126.77 60.4579 1126.69 60.6632 1126.52 60.8312C1126.36 60.9992 1126.16 61.0832 1125.93 61.0832Z" fill="black"/>
<path d="M31 62C13.9114 62 0 48.1745 0 31C0 13.9114 13.9114 0 31 0C48.0886 0 62 13.9114 62 31C62 48.1745 48.1745 62 31 62Z" fill="black"/>
<path d="M11.1639 35.2091V27.0513H8.33008V25.1621H16.0586V27.0513H13.2248V35.2091H11.1639Z" fill="white"/>
<path d="M14.4268 35.2091L18.3769 25.1621H20.6096L24.5598 35.2091H22.4129L21.5542 32.9765H17.2606L16.4019 35.2091H14.4268ZM17.9476 31.259H20.9531L19.4074 27.223L17.9476 31.259Z" fill="white"/>
<path d="M28.2518 35.2091V27.0513H25.418V25.1621H33.1466V27.0513H30.3128V35.2091H28.2518Z" fill="white"/>
<path d="M38.9863 35.4646C38.3852 35.4646 37.8699 35.3788 37.2688 35.207C36.6677 35.0353 36.2383 34.7776 35.809 34.52C35.3796 34.1765 35.0361 33.833 34.6926 33.4037C34.3491 32.9743 34.1774 32.4591 34.0057 31.9438C33.8339 31.4286 33.748 30.8275 33.748 30.2264C33.748 29.6253 33.8339 29.0242 34.0057 28.5089C34.1774 27.9937 34.435 27.4785 34.6926 27.0491C35.0361 26.6197 35.3796 26.2763 35.809 25.9328C36.2383 25.5893 36.7536 25.3317 37.2688 25.1599C37.7841 24.9882 38.3852 24.9023 38.9863 24.9023C39.5874 24.9023 40.1026 24.9882 40.7037 25.1599C41.219 25.3317 41.7342 25.5893 42.1636 25.8469C42.5929 26.1904 42.9364 26.5339 43.2799 26.9632C43.6234 27.3926 43.7951 27.9078 43.9669 28.4231C44.1386 28.9383 44.2245 29.5394 44.2245 30.1405C44.2245 30.7416 44.1386 31.3427 43.9669 31.858C43.7951 32.3732 43.5375 32.8884 43.2799 33.3178C42.9364 33.7472 42.5929 34.0907 42.1636 34.4342C41.7342 34.7776 41.219 35.0353 40.7037 35.207C40.1885 35.3788 39.5874 35.4646 38.9863 35.4646ZM39.0721 33.5754C39.5015 33.5754 39.9309 33.4896 40.2744 33.3178C40.6178 33.1461 40.9613 32.8884 41.219 32.6308C41.4766 32.2873 41.7342 31.9438 41.8201 31.6004C41.9918 31.171 42.0777 30.7416 42.0777 30.2264C42.0777 29.7112 41.9918 29.2818 41.8201 28.8524C41.6483 28.4231 41.4766 28.0796 41.219 27.822C40.9613 27.4785 40.6178 27.3067 40.2744 27.135C39.9309 26.9632 39.5015 26.8774 39.0721 26.8774C38.6428 26.8774 38.2134 26.9632 37.8699 27.135C37.5264 27.3067 37.1829 27.5643 36.9253 27.822C36.6677 28.1655 36.4101 28.5089 36.3242 28.8524C36.1525 29.2818 36.0666 29.7112 36.0666 30.2264C36.0666 30.7416 36.1525 31.171 36.3242 31.6004C36.496 32.0297 36.6677 32.3732 36.9253 32.6308C37.1829 32.9743 37.5264 33.1461 37.8699 33.3178C38.2134 33.4896 38.5569 33.5754 39.0721 33.5754Z" fill="white"/>
<path d="M48.8616 35.3788C48.2604 35.3788 47.7452 35.2929 47.23 35.0353C46.7147 34.8635 46.2854 34.52 45.9419 34.0907C45.5984 33.6613 45.3408 33.2319 45.2549 32.7167L47.23 32.2873C47.3158 32.7167 47.5735 32.9743 47.8311 33.2319C48.1746 33.4896 48.5181 33.5754 48.9474 33.5754C49.2909 33.5754 49.5485 33.4896 49.7203 33.4037C49.892 33.3178 50.1496 33.1461 50.2355 32.9743C50.3214 32.8026 50.4073 32.545 50.4073 32.2873C50.4073 31.9438 50.3214 31.6862 50.0638 31.5145C49.8062 31.3427 49.4627 31.171 48.9474 30.9993L48.5181 30.9134C47.4876 30.6558 46.7147 30.3123 46.1995 29.797C45.6843 29.2818 45.4267 28.6807 45.4267 27.9937C45.4267 27.5643 45.5125 27.135 45.6843 26.7915C45.856 26.448 46.1136 26.1045 46.4571 25.8469C46.8006 25.5893 47.1441 25.3317 47.5735 25.1599C48.0028 24.9882 48.4322 24.9023 48.9474 24.9023C49.4627 24.9023 50.0638 24.9882 50.4931 25.2458C51.0084 25.4175 51.3519 25.761 51.6954 26.1045C52.0388 26.5339 52.2106 26.9632 52.3823 27.4785L50.4073 27.9078C50.3214 27.5643 50.0638 27.2209 49.8062 27.0491C49.5485 26.8774 49.205 26.7056 48.8616 26.7056C48.6039 26.7056 48.3463 26.7915 48.1746 26.8774C48.0028 26.9632 47.8311 27.135 47.6593 27.3067C47.5735 27.4785 47.4876 27.6502 47.4876 27.9078C47.4876 28.2513 47.5735 28.5089 47.8311 28.6807C48.0887 28.8524 48.4322 29.0242 48.9474 29.1101L49.3768 29.1959C50.4073 29.4535 51.1801 29.797 51.6954 30.3123C52.2106 30.8275 52.4682 31.4286 52.4682 32.2015C52.4682 32.7167 52.3823 33.1461 52.2106 33.4896C52.0388 33.9189 51.7812 34.2624 51.4377 34.52C51.0942 34.7776 50.7507 35.0353 50.3214 35.207C49.8062 35.2929 49.3768 35.3788 48.8616 35.3788Z" fill="white"/>
<path d="M52.4683 36.3242H9.27441V40.0167H52.4683V36.3242Z" fill="#FFF200"/>
<path d="M15.5426 38.9012V37.699H15.1133V37.4414H16.3155V37.699H15.8861V38.9012H15.5426Z" fill="#2B2B2B"/>
<path d="M16.5732 38.8992V37.3535H16.9166V37.9546H17.6036V37.3535H17.9471V38.8992H17.6036V38.2981H16.9166V38.8992H16.5732Z" fill="#2B2B2B"/>
<path d="M18.1191 38.8992V37.3535H19.0637V37.6111H18.4626V37.9546H19.0637V38.2122H18.4626V38.6416H19.1496V38.8992H18.1191Z" fill="#2B2B2B"/>
<path d="M19.6641 38.8992L20.2652 37.3535H20.6087L21.2098 38.8992H20.8663L20.7805 38.5557H20.0935L20.0076 38.8992H19.6641ZM20.1794 38.2981H20.6087L20.3511 37.697L20.1794 38.2981Z" fill="#2B2B2B"/>
<path d="M21.3818 38.8992V37.3535H21.7253V38.6416H22.3264V38.8992H21.3818Z" fill="#2B2B2B"/>
<path d="M22.499 38.8992V37.3535H23.0143C23.1002 37.3535 23.2719 37.3535 23.3578 37.4393C23.4436 37.5252 23.5295 37.5252 23.5295 37.6111C23.6154 37.697 23.6154 37.7828 23.6154 37.8687C23.6154 37.9546 23.6154 38.0404 23.6154 38.0404C23.6154 38.1263 23.5295 38.1263 23.5295 38.2122C23.4436 38.2981 23.4436 38.2981 23.3578 38.2981C23.2719 38.2981 23.186 38.2981 23.1002 38.2981C23.0143 38.2981 23.0143 38.2981 22.9284 38.2981V38.8133H22.499V38.8992ZM22.8425 37.6111V38.0404C22.9284 38.0404 22.9284 38.0404 23.0143 38.0404C23.1002 38.0404 23.186 38.0404 23.186 37.9546C23.2719 37.9546 23.2719 37.8687 23.2719 37.7828C23.2719 37.697 23.2719 37.6111 23.186 37.6111C23.1002 37.6111 23.1002 37.5252 23.0143 37.5252H22.8425V37.6111Z" fill="#2B2B2B"/>
<path d="M23.7861 38.8992V37.3535H24.1296V37.9546H24.8165V37.3535H25.16V38.8992H24.8165V38.2981H24.1296V38.8992H23.7861Z" fill="#2B2B2B"/>
<path d="M25.2461 38.8992L25.8472 37.3535H26.1907L26.7918 38.8992H26.4483L26.3625 38.5557H25.6755L25.5896 38.8992H25.2461ZM25.7614 38.2981H26.1907L25.9331 37.697L25.7614 38.2981Z" fill="#2B2B2B"/>
<path d="M27.3076 38.8992L27.9087 37.3535H28.2522L28.8533 38.8992H28.5099L28.424 38.5557H27.737L27.6511 38.8992H27.3076ZM27.8229 38.2981H28.2522L27.9946 37.697L27.8229 38.2981Z" fill="#2B2B2B"/>
<path d="M29.0254 38.8992V37.3535H29.283L29.97 38.3839V37.3535H30.3135V38.8992H30.0559L29.3689 37.8687V38.8992H29.0254Z" fill="#2B2B2B"/>
<path d="M30.5703 38.8992V37.3535H31.1714C31.2573 37.3535 31.4291 37.3535 31.5149 37.4393C31.6008 37.5252 31.6867 37.5252 31.7725 37.6111C31.8584 37.697 31.8584 37.7828 31.9443 37.8687C31.9443 37.9546 32.0302 38.0404 32.0302 38.2122C32.0302 38.3839 32.0302 38.3839 31.9443 38.5557C31.9443 38.6416 31.8584 38.7274 31.7725 38.8133C31.6867 38.8992 31.6008 38.8992 31.5149 38.985C31.4291 39.0709 31.3432 39.0709 31.1714 39.0709H30.5703V38.8992ZM30.9138 38.6416H31.1714C31.2573 38.6416 31.3432 38.6416 31.4291 38.5557C31.5149 38.5557 31.6008 38.4698 31.6008 38.3839C31.6008 38.2981 31.6867 38.2122 31.6867 38.1263C31.6867 38.0404 31.6867 37.9546 31.6008 37.8687C31.6008 37.7828 31.5149 37.7828 31.4291 37.697C31.3432 37.697 31.2573 37.6111 31.1714 37.6111H30.9138V38.6416Z" fill="#2B2B2B"/>
<path d="M32.9753 38.9012V37.699H32.5459V37.4414H33.7481V37.699H33.3188V38.9012H32.9753Z" fill="#2B2B2B"/>
<path d="M33.9199 38.8992V37.3535H34.2634V37.9546H34.9503V37.3535H35.208V38.8992H34.8645V38.2981H34.1775V38.8992H33.9199Z" fill="#2B2B2B"/>
<path d="M35.5508 38.8992V37.3535H36.4954V37.6111H35.8943V37.9546H36.4954V38.2122H35.8943V38.6416H36.5812V38.8992H35.5508Z" fill="#2B2B2B"/>
<path d="M37.8696 38.8992C37.7837 38.8992 37.6978 38.8992 37.612 38.8992C37.5261 38.8992 37.4402 38.8133 37.3543 38.8133C37.2685 38.7274 37.2685 38.7274 37.1826 38.6416C37.0967 38.5557 37.0967 38.4698 37.0967 38.3839C37.0967 38.2981 37.0967 38.2122 37.0967 38.1263C37.0967 38.0404 37.0967 37.9546 37.0967 37.8687C37.0967 37.7828 37.1826 37.697 37.1826 37.6111C37.2685 37.5252 37.2685 37.5252 37.3543 37.4393C37.4402 37.3535 37.5261 37.3535 37.612 37.3535C37.6978 37.3535 37.7837 37.3535 37.8696 37.3535C37.9555 37.3535 38.0413 37.3535 38.1272 37.3535C38.2131 37.3535 38.2989 37.4393 38.3848 37.4393C38.4707 37.5252 38.4707 37.5252 38.5566 37.6111C38.6424 37.697 38.6424 37.7828 38.6424 37.8687C38.6424 37.9546 38.6424 38.0404 38.6424 38.1263C38.6424 38.2122 38.6424 38.2981 38.6424 38.3839C38.6424 38.4698 38.5566 38.5557 38.5566 38.6416C38.4707 38.7274 38.4707 38.7274 38.3848 38.8133C38.2989 38.8992 38.2131 38.8992 38.1272 38.8992C38.0413 38.8992 37.9555 38.8992 37.8696 38.8992ZM37.8696 38.6416C37.9555 38.6416 37.9555 38.6416 38.0413 38.6416C38.1272 38.6416 38.1272 38.5557 38.2131 38.5557C38.2989 38.5557 38.2989 38.4698 38.2989 38.3839C38.2989 38.2981 38.2989 38.2122 38.2989 38.2122C38.2989 38.1263 38.2989 38.0404 38.2989 38.0404C38.2989 38.0404 38.2989 37.7828 38.2131 37.7828C38.2131 37.697 38.1272 37.697 38.0413 37.697C37.9555 37.697 37.9555 37.697 37.8696 37.697C37.7837 37.697 37.7837 37.697 37.6978 37.697C37.612 37.697 37.612 37.7828 37.5261 37.7828C37.5261 37.8687 37.4402 37.8687 37.4402 37.9546C37.4402 38.0404 37.4402 38.1263 37.4402 38.1263C37.4402 38.2122 37.4402 38.2981 37.4402 38.2981C37.4402 38.3839 37.5261 38.3839 37.5261 38.4698C37.5261 38.5557 37.612 38.5557 37.6978 38.5557C37.7837 38.6416 37.8696 38.6416 37.8696 38.6416Z" fill="#2B2B2B"/>
<path d="M38.9004 38.8992V37.3535H39.158L39.6732 38.2122L40.1885 37.3535H40.4461V38.8992H40.1026V37.9546L39.7591 38.5557H39.5015L39.158 37.9546V38.8992H38.9004Z" fill="#2B2B2B"/>
<path d="M40.7031 38.8992V37.3535H41.6477V37.6111H41.0465V37.9546H41.6477V38.2122H41.0465V38.6416H41.7335V38.8992H40.7031Z" fill="#2B2B2B"/>
<path d="M42.5932 38.8992C42.5074 38.8992 42.4214 38.8992 42.3355 38.8992C42.2497 38.8992 42.1638 38.8133 42.1638 38.8133C42.0779 38.7274 42.078 38.6416 41.9921 38.6416C41.9063 38.5557 41.9062 38.4698 41.9062 38.3839C41.9062 38.2981 41.9062 38.2122 41.9062 38.1263C41.9062 38.0404 41.9062 37.9546 41.9062 37.8687C41.9062 37.7828 41.9921 37.697 41.9921 37.6111C42.078 37.5252 42.0779 37.5252 42.1638 37.4393C42.2497 37.3535 42.3356 37.3535 42.4215 37.3535C42.5074 37.3535 42.5932 37.3535 42.6791 37.3535C42.765 37.3535 42.8508 37.3535 42.9366 37.4393C43.0225 37.4393 43.1085 37.5252 43.1944 37.6111C43.2802 37.697 43.2802 37.7828 43.3661 37.8687L43.0225 37.9546C43.0225 37.8687 42.9366 37.8687 42.8508 37.7828C42.7649 37.7828 42.6791 37.697 42.6791 37.697C42.5932 37.697 42.5932 37.697 42.5074 37.697C42.4215 37.697 42.4214 37.7828 42.3355 37.7828C42.3355 37.8687 42.2497 37.8687 42.2497 37.9546C42.2497 38.0404 42.2497 38.0404 42.2497 38.1263C42.2497 38.2122 42.2497 38.2981 42.2497 38.2981C42.2497 38.2981 42.3355 38.3839 42.3355 38.4698C42.3355 38.5557 42.4215 38.5557 42.5074 38.5557C42.5932 38.5557 42.5932 38.5557 42.6791 38.5557C42.765 38.5557 42.8508 38.5557 42.8508 38.5557C42.9366 38.5557 42.9366 38.4698 43.0225 38.4698C43.0225 38.3839 43.1085 38.3839 43.1085 38.2981H42.7649V38.0404H43.452V38.2122C43.452 38.2981 43.452 38.3839 43.3661 38.4698C43.3661 38.5557 43.2802 38.6416 43.1944 38.7274C43.1085 38.8133 43.0225 38.8133 42.9366 38.8992C42.8508 38.8992 42.765 38.8992 42.5932 38.8992Z" fill="#2B2B2B"/>
<path d="M43.4512 38.8992L44.0524 37.3535H44.3958L44.997 38.8992H44.6535L44.5676 38.5557H43.8806L43.7947 38.8992H43.4512ZM43.9665 38.2981H44.3958L44.1382 37.697L43.9665 38.2981Z" fill="#2B2B2B"/>
<path d="M45.0828 37.3535H45.1687L45.2545 37.4393C45.2545 37.4393 45.2545 37.5252 45.2545 37.6111C45.2545 37.697 45.2545 37.697 45.2545 37.7828C45.2545 37.8687 45.1687 37.8687 45.1687 37.9546C45.0828 37.9546 45.0828 38.0404 44.9969 38.0404L44.911 37.8687C44.911 37.8687 44.9969 37.8687 44.9969 37.7828L45.0828 37.697V37.6111C45.0828 37.6111 45.0828 37.6111 44.9969 37.6111H44.911C44.911 37.6111 44.911 37.6111 44.8252 37.5252V37.4393V37.3535C44.9969 37.4393 44.9969 37.4393 45.0828 37.3535C44.9969 37.3535 45.0828 37.3535 45.0828 37.3535Z" fill="#2B2B2B"/>
<path d="M46.0279 38.8992C45.942 38.8992 45.8561 38.8992 45.7703 38.8133C45.6844 38.7274 45.5985 38.7274 45.5985 38.6416C45.5126 38.6416 45.5126 38.6416 45.4268 38.5557L45.6844 38.4698C45.6844 38.5557 45.7703 38.5557 45.7703 38.6416C45.8561 38.6416 45.8561 38.7274 45.942 38.7274C46.0279 38.7274 46.0279 38.7274 46.0279 38.7274C46.0279 38.7274 46.1138 38.7274 46.1138 38.6416V38.5557C46.1138 38.4698 46.1138 38.4698 46.0279 38.4698C46.0279 38.4698 45.942 38.3839 45.8561 38.3839H45.7703C45.5985 38.3839 45.5126 38.2981 45.4268 38.2122C45.5126 38.0404 45.5126 37.9546 45.5126 37.7828C45.5126 37.697 45.5126 37.6111 45.5126 37.6111C45.5126 37.5252 45.5985 37.5252 45.5985 37.4393C45.6844 37.4393 45.6844 37.3535 45.7703 37.3535C45.8561 37.3535 45.942 37.3535 45.942 37.3535C46.0279 37.3535 46.1138 37.3535 46.1996 37.4393C46.2855 37.4393 46.3714 37.5252 46.3714 37.6111C46.4572 37.697 46.4572 37.697 46.4572 37.7828H46.2855C46.2855 37.697 46.1996 37.697 46.1996 37.6111C46.1996 37.6111 46.1138 37.5252 46.0279 37.5252H45.942C45.942 37.5252 45.8561 37.5252 45.8561 37.6111V37.697C45.8561 37.7828 45.8561 37.7828 45.942 37.7828C45.942 37.7828 46.0279 37.8687 46.1138 37.8687H46.1996C46.3714 37.8687 46.4572 37.9546 46.5431 38.0404C46.629 38.1263 46.629 38.2122 46.629 38.2981C46.629 38.3839 46.629 38.4698 46.629 38.4698C46.629 38.4698 46.5431 38.5557 46.5431 38.6416C46.5431 38.7274 46.4572 38.7274 46.3714 38.7274C46.2855 38.7274 46.1138 38.8992 46.0279 38.8992Z" fill="#2B2B2B"/>
<path d="M81.8962 15.9266V17.3956H79.4782V25.0006H77.6582V17.3956H75.2402V15.9266H81.8962ZM88.7882 23.2716H85.1742L84.5762 25.0006H82.6652L85.9282 15.9136H88.0472L91.3102 25.0006H89.3862L88.7882 23.2716ZM88.2942 21.8156L86.9812 18.0196L85.6682 21.8156H88.2942ZM98.7048 15.9266V17.3956H96.2868V25.0006H94.4668V17.3956H92.0488V15.9266H98.7048ZM104.245 25.0916C103.396 25.0916 102.616 24.8923 101.905 24.4936C101.194 24.0949 100.631 23.5446 100.215 22.8426C99.7988 22.1319 99.5908 21.3303 99.5908 20.4376C99.5908 19.5536 99.7988 18.7606 100.215 18.0586C100.631 17.3479 101.194 16.7933 101.905 16.3946C102.616 15.9959 103.396 15.7966 104.245 15.7966C105.103 15.7966 105.883 15.9959 106.585 16.3946C107.296 16.7933 107.855 17.3479 108.262 18.0586C108.678 18.7606 108.886 19.5536 108.886 20.4376C108.886 21.3303 108.678 22.1319 108.262 22.8426C107.855 23.5446 107.296 24.0949 106.585 24.4936C105.874 24.8923 105.094 25.0916 104.245 25.0916ZM104.245 23.4666C104.791 23.4666 105.272 23.3453 105.688 23.1026C106.104 22.8513 106.429 22.4959 106.663 22.0366C106.897 21.5773 107.014 21.0443 107.014 20.4376C107.014 19.8309 106.897 19.3023 106.663 18.8516C106.429 18.3923 106.104 18.0413 105.688 17.7986C105.272 17.5559 104.791 17.4346 104.245 17.4346C103.699 17.4346 103.214 17.5559 102.789 17.7986C102.373 18.0413 102.048 18.3923 101.814 18.8516C101.58 19.3023 101.463 19.8309 101.463 20.4376C101.463 21.0443 101.58 21.5773 101.814 22.0366C102.048 22.4959 102.373 22.8513 102.789 23.1026C103.214 23.3453 103.699 23.4666 104.245 23.4666ZM113.373 25.0916C112.74 25.0916 112.168 24.9833 111.657 24.7666C111.154 24.5499 110.756 24.2379 110.461 23.8306C110.166 23.4233 110.015 22.9423 110.006 22.3876H111.956C111.982 22.7603 112.112 23.0549 112.346 23.2716C112.589 23.4883 112.918 23.5966 113.334 23.5966C113.759 23.5966 114.092 23.4969 114.335 23.2976C114.578 23.0896 114.699 22.8209 114.699 22.4916C114.699 22.2229 114.617 22.0019 114.452 21.8286C114.287 21.6553 114.079 21.5209 113.828 21.4256C113.585 21.3216 113.247 21.2089 112.814 21.0876C112.225 20.9143 111.744 20.7453 111.371 20.5806C111.007 20.4073 110.691 20.1516 110.422 19.8136C110.162 19.4669 110.032 19.0076 110.032 18.4356C110.032 17.8983 110.166 17.4303 110.435 17.0316C110.704 16.6329 111.081 16.3296 111.566 16.1216C112.051 15.9049 112.606 15.7966 113.23 15.7966C114.166 15.7966 114.924 16.0263 115.505 16.4856C116.094 16.9363 116.419 17.5689 116.48 18.3836H114.478C114.461 18.0716 114.326 17.8159 114.075 17.6166C113.832 17.4086 113.507 17.3046 113.1 17.3046C112.745 17.3046 112.459 17.3956 112.242 17.5776C112.034 17.7596 111.93 18.0239 111.93 18.3706C111.93 18.6133 112.008 18.8169 112.164 18.9816C112.329 19.1376 112.528 19.2676 112.762 19.3716C113.005 19.4669 113.343 19.5796 113.776 19.7096C114.365 19.8829 114.846 20.0563 115.219 20.2296C115.592 20.4029 115.912 20.6629 116.181 21.0096C116.45 21.3563 116.584 21.8113 116.584 22.3746C116.584 22.8599 116.458 23.3106 116.207 23.7266C115.956 24.1426 115.587 24.4763 115.102 24.7276C114.617 24.9703 114.04 25.0916 113.373 25.0916ZM127.435 15.9266V17.3956H125.017V25.0006H123.197V17.3956H120.779V15.9266H127.435ZM135.457 21.2436C135.457 21.5036 135.44 21.7376 135.405 21.9456H130.14C130.184 22.4656 130.366 22.8729 130.686 23.1676C131.007 23.4623 131.401 23.6096 131.869 23.6096C132.545 23.6096 133.026 23.3193 133.312 22.7386H135.275C135.067 23.4319 134.669 24.0039 134.079 24.4546C133.49 24.8966 132.766 25.1176 131.908 25.1176C131.215 25.1176 130.591 24.9659 130.036 24.6626C129.49 24.3506 129.061 23.9129 128.749 23.3496C128.446 22.7863 128.294 22.1363 128.294 21.3996C128.294 20.6543 128.446 19.9999 128.749 19.4366C129.053 18.8733 129.477 18.4399 130.023 18.1366C130.569 17.8333 131.198 17.6816 131.908 17.6816C132.593 17.6816 133.204 17.8289 133.741 18.1236C134.287 18.4183 134.708 18.8386 135.002 19.3846C135.306 19.9219 135.457 20.5416 135.457 21.2436ZM133.572 20.7236C133.564 20.2556 133.395 19.8829 133.065 19.6056C132.736 19.3196 132.333 19.1766 131.856 19.1766C131.406 19.1766 131.024 19.3153 130.712 19.5926C130.409 19.8613 130.223 20.2383 130.153 20.7236H133.572ZM136.318 21.3996C136.318 20.6543 136.47 20.0043 136.773 19.4496C137.076 18.8863 137.497 18.4529 138.034 18.1496C138.571 17.8376 139.187 17.6816 139.88 17.6816C140.773 17.6816 141.509 17.9069 142.09 18.3576C142.679 18.7996 143.074 19.4236 143.273 20.2296H141.31C141.206 19.9176 141.028 19.6749 140.777 19.5016C140.534 19.3196 140.231 19.2286 139.867 19.2286C139.347 19.2286 138.935 19.4193 138.632 19.8006C138.329 20.1733 138.177 20.7063 138.177 21.3996C138.177 22.0843 138.329 22.6173 138.632 22.9986C138.935 23.3713 139.347 23.5576 139.867 23.5576C140.604 23.5576 141.085 23.2283 141.31 22.5696H143.273C143.074 23.3496 142.679 23.9693 142.09 24.4286C141.501 24.8879 140.764 25.1176 139.88 25.1176C139.187 25.1176 138.571 24.9659 138.034 24.6626C137.497 24.3506 137.076 23.9173 136.773 23.3626C136.47 22.7993 136.318 22.1449 136.318 21.3996ZM148.662 17.6946C149.208 17.6946 149.694 17.8159 150.118 18.0586C150.543 18.2926 150.872 18.6436 151.106 19.1116C151.349 19.5709 151.47 20.1256 151.47 20.7756V25.0006H149.65V21.0226C149.65 20.4506 149.507 20.0129 149.221 19.7096C148.935 19.3976 148.545 19.2416 148.051 19.2416C147.549 19.2416 147.15 19.3976 146.855 19.7096C146.569 20.0129 146.426 20.4506 146.426 21.0226V25.0006H144.606V15.3806H146.426V18.6956C146.66 18.3836 146.972 18.1409 147.362 17.9676C147.752 17.7856 148.186 17.6946 148.662 17.6946ZM157.192 17.6946C158.05 17.6946 158.743 17.9676 159.272 18.5136C159.801 19.0509 160.065 19.8049 160.065 20.7756V25.0006H158.245V21.0226C158.245 20.4506 158.102 20.0129 157.816 19.7096C157.53 19.3976 157.14 19.2416 156.646 19.2416C156.143 19.2416 155.745 19.3976 155.45 19.7096C155.164 20.0129 155.021 20.4506 155.021 21.0226V25.0006H153.201V17.7986H155.021V18.6956C155.264 18.3836 155.571 18.1409 155.944 17.9676C156.325 17.7856 156.741 17.6946 157.192 17.6946ZM164.994 25.1176C164.3 25.1176 163.676 24.9659 163.122 24.6626C162.567 24.3506 162.129 23.9129 161.809 23.3496C161.497 22.7863 161.341 22.1363 161.341 21.3996C161.341 20.6629 161.501 20.0129 161.822 19.4496C162.151 18.8863 162.597 18.4529 163.161 18.1496C163.724 17.8376 164.352 17.6816 165.046 17.6816C165.739 17.6816 166.367 17.8376 166.931 18.1496C167.494 18.4529 167.936 18.8863 168.257 19.4496C168.586 20.0129 168.751 20.6629 168.751 21.3996C168.751 22.1363 168.582 22.7863 168.244 23.3496C167.914 23.9129 167.464 24.3506 166.892 24.6626C166.328 24.9659 165.696 25.1176 164.994 25.1176ZM164.994 23.5316C165.323 23.5316 165.631 23.4536 165.917 23.2976C166.211 23.1329 166.445 22.8903 166.619 22.5696C166.792 22.2489 166.879 21.8589 166.879 21.3996C166.879 20.7149 166.697 20.1906 166.333 19.8266C165.977 19.4539 165.54 19.2676 165.02 19.2676C164.5 19.2676 164.062 19.4539 163.707 19.8266C163.36 20.1906 163.187 20.7149 163.187 21.3996C163.187 22.0843 163.356 22.6129 163.694 22.9856C164.04 23.3496 164.474 23.5316 164.994 23.5316ZM171.906 15.3806V25.0006H170.086V15.3806H171.906ZM176.902 25.1176C176.209 25.1176 175.585 24.9659 175.03 24.6626C174.475 24.3506 174.038 23.9129 173.717 23.3496C173.405 22.7863 173.249 22.1363 173.249 21.3996C173.249 20.6629 173.409 20.0129 173.73 19.4496C174.059 18.8863 174.506 18.4529 175.069 18.1496C175.632 17.8376 176.261 17.6816 176.954 17.6816C177.647 17.6816 178.276 17.8376 178.839 18.1496C179.402 18.4529 179.844 18.8863 180.165 19.4496C180.494 20.0129 180.659 20.6629 180.659 21.3996C180.659 22.1363 180.49 22.7863 180.152 23.3496C179.823 23.9129 179.372 24.3506 178.8 24.6626C178.237 24.9659 177.604 25.1176 176.902 25.1176ZM176.902 23.5316C177.231 23.5316 177.539 23.4536 177.825 23.2976C178.12 23.1329 178.354 22.8903 178.527 22.5696C178.7 22.2489 178.787 21.8589 178.787 21.3996C178.787 20.7149 178.605 20.1906 178.241 19.8266C177.886 19.4539 177.448 19.2676 176.928 19.2676C176.408 19.2676 175.97 19.4539 175.615 19.8266C175.268 20.1906 175.095 20.7149 175.095 21.3996C175.095 22.0843 175.264 22.6129 175.602 22.9856C175.949 23.3496 176.382 23.5316 176.902 23.5316ZM184.815 17.6816C185.352 17.6816 185.825 17.7899 186.232 18.0066C186.639 18.2146 186.96 18.4876 187.194 18.8256V17.7986H189.027V25.0526C189.027 25.7199 188.893 26.3136 188.624 26.8336C188.355 27.3623 187.952 27.7783 187.415 28.0816C186.878 28.3936 186.228 28.5496 185.465 28.5496C184.442 28.5496 183.602 28.3113 182.943 27.8346C182.293 27.3579 181.925 26.7079 181.838 25.8846H183.645C183.74 26.2139 183.944 26.4739 184.256 26.6646C184.577 26.8639 184.962 26.9636 185.413 26.9636C185.942 26.9636 186.371 26.8033 186.7 26.4826C187.029 26.1706 187.194 25.6939 187.194 25.0526V23.9346C186.96 24.2726 186.635 24.5543 186.219 24.7796C185.812 25.0049 185.344 25.1176 184.815 25.1176C184.208 25.1176 183.654 24.9616 183.151 24.6496C182.648 24.3376 182.25 23.8999 181.955 23.3366C181.669 22.7646 181.526 22.1103 181.526 21.3736C181.526 20.6456 181.669 19.9999 181.955 19.4366C182.25 18.8733 182.644 18.4399 183.138 18.1366C183.641 17.8333 184.2 17.6816 184.815 17.6816ZM187.194 21.3996C187.194 20.9576 187.107 20.5806 186.934 20.2686C186.761 19.9479 186.527 19.7053 186.232 19.5406C185.937 19.3673 185.621 19.2806 185.283 19.2806C184.945 19.2806 184.633 19.3629 184.347 19.5276C184.061 19.6923 183.827 19.9349 183.645 20.2556C183.472 20.5676 183.385 20.9403 183.385 21.3736C183.385 21.8069 183.472 22.1883 183.645 22.5176C183.827 22.8383 184.061 23.0853 184.347 23.2586C184.642 23.4319 184.954 23.5186 185.283 23.5186C185.621 23.5186 185.937 23.4363 186.232 23.2716C186.527 23.0983 186.761 22.8556 186.934 22.5436C187.107 22.2229 187.194 21.8416 187.194 21.3996ZM191.727 16.9406C191.407 16.9406 191.138 16.8409 190.921 16.6416C190.713 16.4336 190.609 16.1779 190.609 15.8746C190.609 15.5713 190.713 15.3199 190.921 15.1206C191.138 14.9126 191.407 14.8086 191.727 14.8086C192.048 14.8086 192.312 14.9126 192.52 15.1206C192.737 15.3199 192.845 15.5713 192.845 15.8746C192.845 16.1779 192.737 16.4336 192.52 16.6416C192.312 16.8409 192.048 16.9406 191.727 16.9406ZM192.624 17.7986V25.0006H190.804V17.7986H192.624ZM201.118 21.2436C201.118 21.5036 201.1 21.7376 201.066 21.9456H195.801C195.844 22.4656 196.026 22.8729 196.347 23.1676C196.667 23.4623 197.062 23.6096 197.53 23.6096C198.206 23.6096 198.687 23.3193 198.973 22.7386H200.936C200.728 23.4319 200.329 24.0039 199.74 24.4546C199.15 24.8966 198.427 25.1176 197.569 25.1176C196.875 25.1176 196.251 24.9659 195.697 24.6626C195.151 24.3506 194.722 23.9129 194.41 23.3496C194.106 22.7863 193.955 22.1363 193.955 21.3996C193.955 20.6543 194.106 19.9999 194.41 19.4366C194.713 18.8733 195.138 18.4399 195.684 18.1366C196.23 17.8333 196.858 17.6816 197.569 17.6816C198.253 17.6816 198.864 17.8289 199.402 18.1236C199.948 18.4183 200.368 18.8386 200.663 19.3846C200.966 19.9219 201.118 20.5416 201.118 21.2436ZM199.233 20.7236C199.224 20.2556 199.055 19.8829 198.726 19.6056C198.396 19.3196 197.993 19.1766 197.517 19.1766C197.066 19.1766 196.685 19.3153 196.373 19.5926C196.069 19.8613 195.883 20.2383 195.814 20.7236H199.233ZM205.202 25.1176C204.613 25.1176 204.084 25.0136 203.616 24.8056C203.148 24.5889 202.775 24.2986 202.498 23.9346C202.229 23.5706 202.082 23.1676 202.056 22.7256H203.889C203.924 23.0029 204.058 23.2326 204.292 23.4146C204.535 23.5966 204.834 23.6876 205.189 23.6876C205.536 23.6876 205.804 23.6183 205.995 23.4796C206.194 23.3409 206.294 23.1633 206.294 22.9466C206.294 22.7126 206.173 22.5393 205.93 22.4266C205.696 22.3053 205.319 22.1753 204.799 22.0366C204.262 21.9066 203.82 21.7723 203.473 21.6336C203.135 21.4949 202.84 21.2826 202.589 20.9966C202.346 20.7106 202.225 20.3249 202.225 19.8396C202.225 19.4409 202.338 19.0769 202.563 18.7476C202.797 18.4183 203.126 18.1583 203.551 17.9676C203.984 17.7769 204.491 17.6816 205.072 17.6816C205.93 17.6816 206.615 17.8983 207.126 18.3316C207.637 18.7563 207.919 19.3326 207.971 20.0606H206.229C206.203 19.7746 206.082 19.5493 205.865 19.3846C205.657 19.2113 205.375 19.1246 205.02 19.1246C204.691 19.1246 204.435 19.1853 204.253 19.3066C204.08 19.4279 203.993 19.5969 203.993 19.8136C203.993 20.0563 204.114 20.2426 204.357 20.3726C204.6 20.4939 204.977 20.6196 205.488 20.7496C206.008 20.8796 206.437 21.0139 206.775 21.1526C207.113 21.2913 207.403 21.5079 207.646 21.8026C207.897 22.0886 208.027 22.4699 208.036 22.9466C208.036 23.3626 207.919 23.7353 207.685 24.0646C207.46 24.3939 207.13 24.6539 206.697 24.8446C206.272 25.0266 205.774 25.1176 205.202 25.1176Z" fill="black"/>
<path d="M84.6496 33.4617C85.9816 33.4617 87.1396 33.7137 88.1236 34.2177C89.1076 34.7217 89.8636 35.4297 90.3916 36.3417C90.9196 37.2417 91.1836 38.2857 91.1836 39.4737C91.1836 40.4217 91.0276 41.3337 90.7156 42.2097C90.4036 43.0737 89.9476 43.7757 89.3476 44.3157C88.7596 44.8557 88.0696 45.1257 87.2776 45.1257C86.6776 45.1257 86.2156 44.9757 85.8916 44.6757C85.5676 44.3757 85.3816 43.9677 85.3336 43.4517C84.9616 43.9677 84.4876 44.3757 83.9116 44.6757C83.3476 44.9757 82.7476 45.1257 82.1116 45.1257C81.1996 45.1257 80.4796 44.8497 79.9516 44.2977C79.4356 43.7337 79.1776 42.9777 79.1776 42.0297C79.1776 41.1297 79.3636 40.2897 79.7356 39.5097C80.1196 38.7297 80.6476 38.1057 81.3196 37.6377C81.9916 37.1577 82.7536 36.9177 83.6056 36.9177C84.7456 36.9177 85.5136 37.3497 85.9096 38.2137L86.1076 37.0977H87.5296L86.6296 42.2997C86.5936 42.5277 86.5756 42.7377 86.5756 42.9297C86.5756 43.6497 86.8936 44.0097 87.5296 44.0097C88.0096 44.0097 88.4236 43.7817 88.7716 43.3257C89.1316 42.8697 89.4016 42.2997 89.5816 41.6157C89.7616 40.9197 89.8516 40.2357 89.8516 39.5637C89.8516 37.9917 89.3776 36.7737 88.4296 35.9097C87.4936 35.0457 86.1676 34.6137 84.4516 34.6137C83.0236 34.6137 81.7336 34.9617 80.5816 35.6577C79.4416 36.3417 78.5476 37.2837 77.8996 38.4837C77.2516 39.6837 76.9276 41.0097 76.9276 42.4617C76.9156 44.0457 77.3896 45.2637 78.3496 46.1157C79.3096 46.9797 80.6416 47.4117 82.3456 47.4117C83.4736 47.4117 84.4696 47.2077 85.3336 46.7997L85.5496 47.9157C84.4816 48.3597 83.3056 48.5817 82.0216 48.5817C80.7376 48.5817 79.6036 48.3357 78.6196 47.8437C77.6476 47.3637 76.8916 46.6677 76.3516 45.7557C75.8236 44.8557 75.5596 43.8057 75.5596 42.6057C75.5596 40.9137 75.9496 39.3717 76.7296 37.9797C77.5096 36.5757 78.5896 35.4717 79.9696 34.6677C81.3616 33.8637 82.9216 33.4617 84.6496 33.4617ZM82.5976 43.8477C83.1376 43.8477 83.6356 43.6917 84.0916 43.3797C84.5476 43.0557 84.9076 42.6237 85.1716 42.0837C85.4356 41.5317 85.5676 40.9317 85.5676 40.2837C85.5676 39.6597 85.3936 39.1557 85.0456 38.7717C84.7096 38.3757 84.2296 38.1777 83.6056 38.1777C83.0296 38.1777 82.5196 38.3517 82.0756 38.6997C81.6436 39.0357 81.3076 39.4857 81.0676 40.0497C80.8276 40.6017 80.7076 41.1777 80.7076 41.7777C80.7076 42.4137 80.8696 42.9177 81.1936 43.2897C81.5176 43.6617 81.9856 43.8477 82.5976 43.8477ZM95.8761 36.4857V42.2997C95.8761 42.7797 95.9781 43.1217 96.1821 43.3257C96.3861 43.5177 96.7401 43.6137 97.2441 43.6137H98.4501V44.9997H96.9741C96.0621 44.9997 95.3781 44.7897 94.9221 44.3697C94.4661 43.9497 94.2381 43.2597 94.2381 42.2997V36.4857H92.9601V35.1357H94.2381V32.6517H95.8761V35.1357H98.4501V36.4857H95.8761ZM99.8227 40.0317C99.8227 39.0237 100.027 38.1417 100.435 37.3857C100.843 36.6177 101.401 36.0237 102.109 35.6037C102.829 35.1837 103.627 34.9737 104.503 34.9737C105.367 34.9737 106.117 35.1597 106.753 35.5317C107.389 35.9037 107.863 36.3717 108.175 36.9357V35.1357H109.831V44.9997H108.175V43.1637C107.851 43.7397 107.365 44.2197 106.717 44.6037C106.081 44.9757 105.337 45.1617 104.485 45.1617C103.609 45.1617 102.817 44.9457 102.109 44.5137C101.401 44.0817 100.843 43.4757 100.435 42.6957C100.027 41.9157 99.8227 41.0277 99.8227 40.0317ZM108.175 40.0497C108.175 39.3057 108.025 38.6577 107.725 38.1057C107.425 37.5537 107.017 37.1337 106.501 36.8457C105.997 36.5457 105.439 36.3957 104.827 36.3957C104.215 36.3957 103.657 36.5397 103.153 36.8277C102.649 37.1157 102.247 37.5357 101.947 38.0877C101.647 38.6397 101.497 39.2877 101.497 40.0317C101.497 40.7877 101.647 41.4477 101.947 42.0117C102.247 42.5637 102.649 42.9897 103.153 43.2897C103.657 43.5777 104.215 43.7217 104.827 43.7217C105.439 43.7217 105.997 43.5777 106.501 43.2897C107.017 42.9897 107.425 42.5637 107.725 42.0117C108.025 41.4477 108.175 40.7937 108.175 40.0497ZM114.597 36.4857V42.2997C114.597 42.7797 114.699 43.1217 114.903 43.3257C115.107 43.5177 115.461 43.6137 115.965 43.6137H117.171V44.9997H115.695C114.783 44.9997 114.099 44.7897 113.643 44.3697C113.187 43.9497 112.959 43.2597 112.959 42.2997V36.4857H111.681V35.1357H112.959V32.6517H114.597V35.1357H117.171V36.4857H114.597ZM123.458 45.1617C122.534 45.1617 121.694 44.9517 120.938 44.5317C120.194 44.1117 119.606 43.5177 119.174 42.7497C118.754 41.9697 118.544 41.0697 118.544 40.0497C118.544 39.0417 118.76 38.1537 119.192 37.3857C119.636 36.6057 120.236 36.0117 120.992 35.6037C121.748 35.1837 122.594 34.9737 123.53 34.9737C124.466 34.9737 125.312 35.1837 126.068 35.6037C126.824 36.0117 127.418 36.5997 127.85 37.3677C128.294 38.1357 128.516 39.0297 128.516 40.0497C128.516 41.0697 128.288 41.9697 127.832 42.7497C127.388 43.5177 126.782 44.1117 126.014 44.5317C125.246 44.9517 124.394 45.1617 123.458 45.1617ZM123.458 43.7217C124.046 43.7217 124.598 43.5837 125.114 43.3077C125.63 43.0317 126.044 42.6177 126.356 42.0657C126.68 41.5137 126.842 40.8417 126.842 40.0497C126.842 39.2577 126.686 38.5857 126.374 38.0337C126.062 37.4817 125.654 37.0737 125.15 36.8097C124.646 36.5337 124.1 36.3957 123.512 36.3957C122.912 36.3957 122.36 36.5337 121.856 36.8097C121.364 37.0737 120.968 37.4817 120.668 38.0337C120.368 38.5857 120.218 39.2577 120.218 40.0497C120.218 40.8537 120.362 41.5317 120.65 42.0837C120.95 42.6357 121.346 43.0497 121.838 43.3257C122.33 43.5897 122.87 43.7217 123.458 43.7217ZM134.161 45.1617C133.405 45.1617 132.727 45.0357 132.127 44.7837C131.527 44.5197 131.053 44.1597 130.705 43.7037C130.357 43.2357 130.165 42.7017 130.129 42.1017H131.821C131.869 42.5937 132.097 42.9957 132.505 43.3077C132.925 43.6197 133.471 43.7757 134.143 43.7757C134.767 43.7757 135.259 43.6377 135.619 43.3617C135.979 43.0857 136.159 42.7377 136.159 42.3177C136.159 41.8857 135.967 41.5677 135.583 41.3637C135.199 41.1477 134.605 40.9377 133.801 40.7337C133.069 40.5417 132.469 40.3497 132.001 40.1577C131.545 39.9537 131.149 39.6597 130.813 39.2757C130.489 38.8797 130.327 38.3637 130.327 37.7277C130.327 37.2237 130.477 36.7617 130.777 36.3417C131.077 35.9217 131.503 35.5917 132.055 35.3517C132.607 35.0997 133.237 34.9737 133.945 34.9737C135.037 34.9737 135.919 35.2497 136.591 35.8017C137.263 36.3537 137.623 37.1097 137.671 38.0697H136.033C135.997 37.5537 135.787 37.1397 135.403 36.8277C135.031 36.5157 134.527 36.3597 133.891 36.3597C133.303 36.3597 132.835 36.4857 132.487 36.7377C132.139 36.9897 131.965 37.3197 131.965 37.7277C131.965 38.0517 132.067 38.3217 132.271 38.5377C132.487 38.7417 132.751 38.9097 133.063 39.0417C133.387 39.1617 133.831 39.2997 134.395 39.4557C135.103 39.6477 135.679 39.8397 136.123 40.0317C136.567 40.2117 136.945 40.4877 137.257 40.8597C137.581 41.2317 137.749 41.7177 137.761 42.3177C137.761 42.8577 137.611 43.3437 137.311 43.7757C137.011 44.2077 136.585 44.5497 136.033 44.8017C135.493 45.0417 134.869 45.1617 134.161 45.1617ZM140.596 45.1077C140.284 45.1077 140.02 44.9997 139.804 44.7837C139.588 44.5677 139.48 44.3037 139.48 43.9917C139.48 43.6797 139.588 43.4157 139.804 43.1997C140.02 42.9837 140.284 42.8757 140.596 42.8757C140.896 42.8757 141.148 42.9837 141.352 43.1997C141.568 43.4157 141.676 43.6797 141.676 43.9917C141.676 44.3037 141.568 44.5677 141.352 44.7837C141.148 44.9997 140.896 45.1077 140.596 45.1077ZM145.851 36.4857V42.2997C145.851 42.7797 145.953 43.1217 146.157 43.3257C146.361 43.5177 146.715 43.6137 147.219 43.6137H148.425V44.9997H146.949C146.037 44.9997 145.353 44.7897 144.897 44.3697C144.441 43.9497 144.213 43.2597 144.213 42.2997V36.4857H142.935V35.1357H144.213V32.6517H145.851V35.1357H148.425V36.4857H145.851ZM159.41 39.6897C159.41 40.0017 159.392 40.3317 159.356 40.6797H151.472C151.532 41.6517 151.862 42.4137 152.462 42.9657C153.074 43.5057 153.812 43.7757 154.676 43.7757C155.384 43.7757 155.972 43.6137 156.44 43.2897C156.92 42.9537 157.256 42.5097 157.448 41.9577H159.212C158.948 42.9057 158.42 43.6797 157.628 44.2797C156.836 44.8677 155.852 45.1617 154.676 45.1617C153.74 45.1617 152.9 44.9517 152.156 44.5317C151.424 44.1117 150.848 43.5177 150.428 42.7497C150.008 41.9697 149.798 41.0697 149.798 40.0497C149.798 39.0297 150.002 38.1357 150.41 37.3677C150.818 36.5997 151.388 36.0117 152.12 35.6037C152.864 35.1837 153.716 34.9737 154.676 34.9737C155.612 34.9737 156.44 35.1777 157.16 35.5857C157.88 35.9937 158.432 36.5577 158.816 37.2777C159.212 37.9857 159.41 38.7897 159.41 39.6897ZM157.718 39.3477C157.718 38.7237 157.58 38.1897 157.304 37.7457C157.028 37.2897 156.65 36.9477 156.17 36.7197C155.702 36.4797 155.18 36.3597 154.604 36.3597C153.776 36.3597 153.068 36.6237 152.48 37.1517C151.904 37.6797 151.574 38.4117 151.49 39.3477H157.718ZM160.96 40.0497C160.96 39.0297 161.164 38.1417 161.572 37.3857C161.98 36.6177 162.544 36.0237 163.264 35.6037C163.996 35.1837 164.83 34.9737 165.766 34.9737C166.978 34.9737 167.974 35.2677 168.754 35.8557C169.546 36.4437 170.068 37.2597 170.32 38.3037H168.556C168.388 37.7037 168.058 37.2297 167.566 36.8817C167.086 36.5337 166.486 36.3597 165.766 36.3597C164.83 36.3597 164.074 36.6837 163.498 37.3317C162.922 37.9677 162.634 38.8737 162.634 40.0497C162.634 41.2377 162.922 42.1557 163.498 42.8037C164.074 43.4517 164.83 43.7757 165.766 43.7757C166.486 43.7757 167.086 43.6077 167.566 43.2717C168.046 42.9357 168.376 42.4557 168.556 41.8317H170.32C170.056 42.8397 169.528 43.6497 168.736 44.2617C167.944 44.8617 166.954 45.1617 165.766 45.1617C164.83 45.1617 163.996 44.9517 163.264 44.5317C162.544 44.1117 161.98 43.5177 161.572 42.7497C161.164 41.9817 160.96 41.0817 160.96 40.0497ZM177.401 34.9557C178.145 34.9557 178.817 35.1177 179.417 35.4417C180.017 35.7537 180.485 36.2277 180.821 36.8637C181.169 37.4997 181.343 38.2737 181.343 39.1857V44.9997H179.723V39.4197C179.723 38.4357 179.477 37.6857 178.985 37.1697C178.493 36.6417 177.821 36.3777 176.969 36.3777C176.105 36.3777 175.415 36.6477 174.899 37.1877C174.395 37.7277 174.143 38.5137 174.143 39.5457V44.9997H172.505V31.6797H174.143V36.5397C174.467 36.0357 174.911 35.6457 175.475 35.3697C176.051 35.0937 176.693 34.9557 177.401 34.9557Z" fill="black"/>
<path d="M519.027 30.3385H516.202V26.7415H512.038V30.3385H509.985V33.4663H512.038V41.2858C512.018 44.2278 514.022 45.6842 517.042 45.5572C518.118 45.5181 518.88 45.303 519.3 45.1662L518.645 42.0677C518.44 42.1068 518 42.2045 517.609 42.2045C516.779 42.2045 516.202 41.8918 516.202 40.7384V33.4663H519.027V30.3385ZM528.42 45.6451C532.134 45.6451 534.636 43.8369 535.223 41.0512L531.372 40.797C530.951 41.9406 529.876 42.5369 528.488 42.5369C526.406 42.5369 525.087 41.1587 525.087 38.9204V38.9106H535.311V37.767C535.311 32.6648 532.222 30.143 528.254 30.143C523.836 30.143 520.972 33.2806 520.972 37.9136C520.972 42.6737 523.797 45.6451 528.42 45.6451ZM525.087 36.3302C525.175 34.6196 526.475 33.2512 528.322 33.2512C530.13 33.2512 531.381 34.5415 531.391 36.3302H525.087ZM544.811 45.6451C548.809 45.6451 551.321 43.2993 551.517 39.8489H547.587C547.343 41.4519 546.287 42.3512 544.86 42.3512C542.915 42.3512 541.654 40.7188 541.654 37.8452C541.654 35.0106 542.925 33.3881 544.86 33.3881C546.385 33.3881 547.363 34.3948 547.587 35.8903H551.517C551.341 32.4204 548.711 30.143 544.792 30.143C540.237 30.143 537.422 33.3001 537.422 37.9038C537.422 42.4685 540.188 45.6451 544.811 45.6451ZM558.346 36.6723C558.356 34.7369 559.539 33.6031 561.24 33.6031C562.931 33.6031 563.928 34.6881 563.918 36.5354V45.3519H568.082V35.7926C568.092 32.2738 566.019 30.143 562.892 30.143C560.614 30.143 559.089 31.2182 558.405 32.9873H558.229V25.334H554.183V45.3519H558.346V36.6723Z" fill="#2B2B2B"/>
<path d="M571.985 42.2124C571.758 39.4169 571.495 36.6393 571.196 33.8797C570.909 31.1201 570.485 28.3664 569.924 25.6188C569.9 25.5232 569.888 25.4396 569.888 25.3679C569.888 25.2843 569.888 25.2066 569.888 25.1349C569.888 24.8602 569.942 24.6212 570.049 24.4181C570.169 24.215 570.324 24.0478 570.515 23.9164C570.706 23.773 570.921 23.6655 571.16 23.5938C571.411 23.5222 571.674 23.4863 571.949 23.4863C572.678 23.4863 573.179 23.8268 573.454 24.5077C573.574 24.8542 573.693 25.35 573.812 25.9951C573.944 26.6402 574.075 27.3868 574.207 28.235C574.35 29.0832 574.487 30.015 574.619 31.0305C574.75 32.034 574.876 33.0674 574.995 34.1306C575.031 34.4292 575.127 34.5786 575.282 34.5786C575.413 34.5786 575.551 34.489 575.694 34.3098C577.438 32.0161 579.505 30.8692 581.894 30.8692C582.79 30.8692 583.626 31.0663 584.403 31.4606C585.179 31.8548 585.854 32.3924 586.428 33.0733C587.001 33.7543 587.449 34.5607 587.772 35.4925C588.106 36.4243 588.274 37.4278 588.274 38.503C588.274 39.5065 588.112 40.4383 587.79 41.2984C587.479 42.1586 587.043 42.8993 586.482 43.5205C585.92 44.1417 585.251 44.6315 584.475 44.9899C583.71 45.3363 582.874 45.5096 581.966 45.5096C580.843 45.5096 579.744 45.2945 578.669 44.8645C577.593 44.4224 576.578 43.8311 575.622 43.0904C575.515 42.9948 575.401 42.9471 575.282 42.9471C575.127 42.9471 574.983 43.0307 574.852 43.1979C574.661 43.413 574.458 43.5563 574.243 43.628C574.027 43.6877 573.765 43.7176 573.454 43.7176C572.51 43.7176 572.02 43.2159 571.985 42.2124ZM581.267 34.2023C580.789 34.2023 580.311 34.3158 579.833 34.5427C579.368 34.7578 578.926 35.0684 578.507 35.4746C578.089 35.8807 577.701 36.3705 577.343 36.944C576.996 37.5055 576.703 38.1326 576.465 38.8255C576.441 38.8614 576.423 38.9151 576.411 38.9868C576.399 39.0585 576.393 39.1182 576.393 39.166C576.393 39.3691 576.465 39.5244 576.608 39.6319C577.038 40.0023 577.48 40.3487 577.934 40.6713C578.4 40.9938 578.86 41.2746 579.314 41.5135C579.768 41.7524 580.216 41.9436 580.658 42.0869C581.1 42.2183 581.512 42.284 581.894 42.284C582.754 42.284 583.405 42.0332 583.847 41.5314C584.301 41.0297 584.528 40.3009 584.528 39.3452C584.528 38.6045 584.445 37.9236 584.278 37.3024C584.11 36.6692 583.883 36.1256 583.597 35.6717C583.31 35.2058 582.963 34.8474 582.557 34.5965C582.163 34.3337 581.733 34.2023 581.267 34.2023ZM601.91 30.69C602.568 30.69 603.201 30.7916 603.81 30.9946C604.419 31.1977 604.957 31.4785 605.423 31.8369C605.889 32.1953 606.259 32.6253 606.534 33.1271C606.82 33.6288 606.964 34.1843 606.964 34.7936C606.964 35.0445 606.904 35.2894 606.785 35.5283C606.677 35.7553 606.528 35.9584 606.337 36.1376C606.145 36.3048 605.924 36.4422 605.674 36.5497C605.435 36.6453 605.184 36.6931 604.921 36.6931C604.897 36.6931 604.873 36.6991 604.849 36.711C604.837 36.711 604.819 36.711 604.796 36.711C604.772 36.723 604.748 36.7289 604.724 36.7289L604.796 38.1625C604.843 39.8708 605.082 41.1193 605.512 41.9077C605.954 42.6962 606.528 43.0904 607.233 43.0904C607.483 43.0904 607.704 43.0665 607.896 43.0187C608.099 42.9709 608.284 42.9172 608.451 42.8575C608.63 42.7858 608.798 42.726 608.953 42.6783C609.108 42.6305 609.263 42.6066 609.419 42.6066C609.694 42.6066 609.932 42.726 610.136 42.965C610.351 43.2039 610.458 43.4906 610.458 43.8251C610.458 44.1596 610.327 44.4941 610.064 44.8286C609.813 45.1631 609.479 45.4678 609.06 45.7425C608.642 46.0053 608.17 46.2204 607.645 46.3876C607.119 46.5549 606.587 46.6385 606.05 46.6385C605.118 46.6385 604.3 46.2562 603.595 45.4916C602.89 44.7151 602.388 43.5802 602.09 42.0869C602.018 41.848 601.922 41.7285 601.803 41.7285C601.66 41.7285 601.534 41.8002 601.427 41.9436C600.244 43.4369 598.984 44.5598 597.646 45.3124C596.308 46.0531 594.987 46.4235 593.685 46.4235C593.076 46.4235 592.527 46.3339 592.037 46.1547C591.547 45.9755 591.129 45.7246 590.782 45.402C590.448 45.0675 590.185 44.6673 589.994 44.2014C589.815 43.7236 589.725 43.192 589.725 42.6066C589.725 41.7823 589.904 40.9162 590.263 40.0082C590.633 39.1003 591.129 38.2043 591.75 37.3203C592.371 36.4362 593.088 35.594 593.9 34.7936C594.725 33.9932 595.585 33.2884 596.481 32.6791C597.389 32.0698 598.309 31.586 599.24 31.2276C600.172 30.8692 601.062 30.69 601.91 30.69ZM601.319 36.8902C601.534 36.484 601.731 36.1913 601.91 36.0122C602.09 35.821 602.346 35.6956 602.681 35.6358C602.944 35.6 603.075 35.5164 603.075 35.385C603.075 35.2894 603.039 35.1878 602.968 35.0803C602.741 34.7697 602.502 34.5009 602.251 34.2739C602 34.035 601.666 33.9156 601.247 33.9156C600.793 33.9156 600.286 34.047 599.724 34.3098C599.163 34.5726 598.589 34.925 598.004 35.367C597.431 35.7971 596.863 36.2929 596.302 36.8544C595.752 37.4039 595.262 37.9714 594.832 38.5567C594.402 39.1421 594.056 39.7215 593.793 40.2949C593.53 40.8684 593.399 41.3821 593.399 41.836C593.399 42.2422 593.506 42.5588 593.721 42.7858C593.948 43.0128 594.253 43.1263 594.635 43.1263C595.615 43.1263 596.684 42.6066 597.843 41.5672C599.001 40.5279 600.16 38.9689 601.319 36.8902ZM610.082 25.9413C610.082 25.3201 610.261 24.8781 610.619 24.6153C610.978 24.3524 611.569 24.221 612.393 24.221C612.68 24.221 612.931 24.2509 613.146 24.3106C613.361 24.3703 613.54 24.4719 613.684 24.6153C613.827 24.7467 613.941 24.9318 614.024 25.1708C614.12 25.3977 614.197 25.6904 614.257 26.0488C614.412 27.1121 614.568 28.229 614.723 29.3998C614.89 30.5586 615.046 31.7174 615.189 32.8762C615.344 34.0231 615.488 35.146 615.619 36.2451C615.75 37.3322 615.864 38.3477 615.959 39.2914C616.067 40.2233 616.145 41.0535 616.192 41.7823C616.252 42.4991 616.282 43.0665 616.282 43.4846C616.282 43.9147 616.24 44.2791 616.157 44.5777C616.085 44.8764 615.953 45.1153 615.762 45.2945C615.583 45.4737 615.344 45.6051 615.046 45.6888C614.759 45.7604 614.4 45.7963 613.97 45.7963C613.552 45.7963 613.218 45.6888 612.967 45.4737C612.728 45.2587 612.608 44.9302 612.608 44.4881C612.608 44.0342 612.573 43.4309 612.501 42.6783C612.429 41.9137 612.334 41.0655 612.214 40.1337C612.095 39.2018 611.957 38.2103 611.802 37.159C611.659 36.1077 611.503 35.0684 611.336 34.041C611.181 33.0136 611.026 32.028 610.87 31.0842C610.727 30.1285 610.596 29.2863 610.476 28.5576C610.357 27.8169 610.261 27.2136 610.189 26.7477C610.118 26.2698 610.082 26.001 610.082 25.9413ZM618.181 25.9413C618.181 25.3201 618.361 24.8781 618.719 24.6153C619.077 24.3524 619.669 24.221 620.493 24.221C620.78 24.221 621.031 24.2509 621.246 24.3106C621.461 24.3703 621.64 24.4719 621.783 24.6153C621.927 24.7467 622.04 24.9318 622.124 25.1708C622.219 25.3977 622.297 25.6904 622.357 26.0488C622.512 27.1121 622.667 28.229 622.823 29.3998C622.99 30.5586 623.145 31.7174 623.289 32.8762C623.444 34.0231 623.587 35.146 623.719 36.2451C623.85 37.3322 623.964 38.3477 624.059 39.2914C624.167 40.2233 624.244 41.0535 624.292 41.7823C624.352 42.4991 624.382 43.0665 624.382 43.4846C624.382 43.9147 624.34 44.2791 624.256 44.5777C624.185 44.8764 624.053 45.1153 623.862 45.2945C623.683 45.4737 623.444 45.6051 623.145 45.6888C622.859 45.7604 622.5 45.7963 622.07 45.7963C621.652 45.7963 621.317 45.6888 621.067 45.4737C620.828 45.2587 620.708 44.9302 620.708 44.4881C620.708 44.0342 620.672 43.4309 620.601 42.6783C620.529 41.9137 620.433 41.0655 620.314 40.1337C620.194 39.2018 620.057 38.2103 619.902 37.159C619.758 36.1077 619.603 35.0684 619.436 34.041C619.281 33.0136 619.125 32.028 618.97 31.0842C618.827 30.1285 618.695 29.2863 618.576 28.5576C618.456 27.8169 618.361 27.2136 618.289 26.7477C618.217 26.2698 618.181 26.001 618.181 25.9413ZM627.482 40.4025C627.482 40.1994 627.506 39.9724 627.553 39.7215C627.601 39.4706 627.625 39.1959 627.625 38.8972C627.625 38.6941 627.536 38.5388 627.356 38.4313C627.189 38.3238 626.998 38.2043 626.783 38.0729C626.568 37.9415 626.371 37.7742 626.192 37.5712C626.024 37.3681 625.941 37.0754 625.941 36.6931C625.941 36.4183 626.012 36.1436 626.156 35.8688C626.311 35.594 626.532 35.3432 626.819 35.1162C627.524 34.5905 628.252 34.1186 629.005 33.7005C629.77 33.2824 630.528 32.93 631.281 32.6433C632.045 32.3565 632.798 32.1355 633.539 31.9802C634.279 31.8249 634.99 31.7473 635.671 31.7473C636.818 31.7473 637.893 31.9623 638.897 32.3924C639.912 32.8105 640.79 33.3899 641.531 34.1306C642.283 34.8593 642.875 35.7195 643.305 36.711C643.747 37.6906 643.968 38.7419 643.968 39.8649C643.968 40.9639 643.735 42.0093 643.269 43.0008C642.815 43.9804 642.2 44.8406 641.423 45.5812C640.647 46.3219 639.733 46.9073 638.682 47.3374C637.642 47.7794 636.543 48.0004 635.384 48.0004C634.249 48.0004 633.198 47.8093 632.231 47.427C631.263 47.0447 630.427 46.519 629.722 45.85C629.017 45.1691 628.467 44.3687 628.073 43.4488C627.679 42.517 627.482 41.5015 627.482 40.4025ZM635.779 44.7749C636.28 44.7749 636.8 44.6733 637.338 44.4702C637.875 44.2671 638.365 43.9744 638.807 43.5922C639.261 43.1979 639.631 42.7201 639.918 42.1586C640.217 41.5971 640.366 40.9639 640.366 40.2591C640.366 39.5423 640.235 38.8733 639.972 38.2521C639.709 37.6309 639.345 37.0933 638.879 36.6393C638.425 36.1734 637.881 35.8091 637.248 35.5462C636.627 35.2834 635.952 35.152 635.223 35.152C633.897 35.152 632.882 35.4985 632.177 36.1913C631.472 36.8723 631.119 37.9236 631.119 39.3452C631.119 40.1217 631.233 40.8445 631.46 41.5135C631.699 42.1705 632.027 42.744 632.446 43.2338C632.864 43.7116 633.353 44.0879 633.915 44.3627C634.488 44.6375 635.11 44.7749 635.779 44.7749ZM647.982 25.6546C647.982 25.0214 648.161 24.5794 648.519 24.3285C648.878 24.0657 649.469 23.9343 650.294 23.9343C650.592 23.9343 650.843 23.9642 651.046 24.0239C651.261 24.0717 651.44 24.1673 651.584 24.3106C651.739 24.454 651.858 24.6451 651.942 24.884C652.038 25.111 652.115 25.4037 652.175 25.7621C652.318 26.8731 652.474 28.02 652.641 29.2027C652.82 30.3854 653.005 31.574 653.196 32.7687C653.268 33.3063 653.549 33.5751 654.039 33.5751C654.17 33.5751 654.385 33.5631 654.684 33.5392C654.994 33.5034 655.359 33.4676 655.777 33.4317C656.195 33.3839 656.643 33.3361 657.121 33.2884C657.611 33.2406 658.095 33.1988 658.572 33.1629C659.062 33.1151 659.522 33.0793 659.952 33.0554C660.394 33.0196 660.782 33.0016 661.117 33.0016C661.38 33.0016 661.589 33.0554 661.744 33.1629C661.899 33.2585 662.019 33.3899 662.103 33.5572C662.198 33.7125 662.258 33.8917 662.282 34.0947C662.318 34.2859 662.336 34.483 662.336 34.6861C662.336 34.8653 662.3 35.0505 662.228 35.2416C662.168 35.4327 662.079 35.606 661.959 35.7613C661.852 35.9046 661.714 36.0241 661.547 36.1197C661.38 36.2152 661.189 36.263 660.974 36.263C659.934 36.263 658.883 36.2989 657.82 36.3705C656.768 36.4303 655.717 36.5139 654.666 36.6214C654.128 36.6931 653.86 36.9619 653.86 37.4278C653.86 37.4636 653.865 37.5114 653.877 37.5712C653.889 37.6189 653.895 37.6608 653.895 37.6966C654.039 38.7359 654.17 39.7096 654.29 40.6175C654.421 41.5254 654.529 42.3378 654.612 43.0546C654.708 43.7594 654.779 44.3508 654.827 44.8286C654.887 45.2945 654.917 45.6051 654.917 45.7604C654.917 46.1905 654.875 46.5489 654.791 46.8356C654.708 47.1343 654.57 47.3732 654.379 47.5524C654.188 47.7435 653.931 47.875 653.609 47.9466C653.298 48.0303 652.904 48.0721 652.426 48.0721C651.972 48.0721 651.637 47.9646 651.422 47.7495C651.207 47.5345 651.088 47.206 651.064 46.7639C650.992 45.3543 650.879 43.9386 650.724 42.517C650.568 41.0834 650.389 39.6558 650.186 38.2342C650.078 37.7205 649.81 37.4636 649.38 37.4636C649.344 37.4636 649.302 37.4696 649.254 37.4816C649.206 37.4935 649.165 37.4995 649.129 37.4995C648.388 37.6667 647.689 37.834 647.032 38.0012C646.375 38.1685 645.76 38.3477 645.186 38.5388C644.864 38.6463 644.577 38.724 644.326 38.7718C644.075 38.8076 643.848 38.8255 643.645 38.8255C643.371 38.8255 643.167 38.7061 643.036 38.4671C642.905 38.2163 642.839 37.9057 642.839 37.5353C642.839 37.4039 642.851 37.2546 642.875 37.0873C642.899 36.9081 642.946 36.7349 643.018 36.5677C643.078 36.3885 643.173 36.2272 643.305 36.0838C643.424 35.9285 643.592 35.8031 643.807 35.7075C644.308 35.5044 644.977 35.2954 645.814 35.0803C646.65 34.8533 647.594 34.6443 648.645 34.4531C648.884 34.3934 649.069 34.2978 649.2 34.1664C649.344 34.0231 649.415 33.814 649.415 33.5392C649.415 33.4795 649.415 33.4198 649.415 33.36C649.415 33.2884 649.404 33.2167 649.38 33.145C649.188 32.0459 649.003 31.0484 648.824 30.1524C648.657 29.2445 648.508 28.468 648.376 27.8229C648.257 27.1778 648.161 26.67 648.089 26.2997C648.018 25.9294 647.982 25.7143 647.982 25.6546Z" fill="white"/>
<path d="M512.226 23.354V15.1578H509.379V13.2598H517.144V15.1578H514.297V23.354H512.226Z" fill="#2B2B2B"/>
<path d="M516.508 23.354L520.476 13.2598H522.72L526.688 23.354H524.531L523.669 21.1108H519.355L518.492 23.354H516.508ZM520.045 19.3853H523.065L521.512 15.3304L520.045 19.3853Z" fill="#2B2B2B"/>
<path d="M529.395 23.354V15.1578H526.548V13.2598H534.313V15.1578H531.466V23.354H529.395Z" fill="#2B2B2B"/>
<path d="M540.18 23.6118C539.576 23.6118 539.058 23.5256 538.454 23.353C537.85 23.1805 537.419 22.9216 536.987 22.6628C536.556 22.3177 536.211 21.9726 535.866 21.5412C535.521 21.1099 535.348 20.5922 535.176 20.0746C535.003 19.5569 534.917 18.953 534.917 18.3491C534.917 17.7451 535.003 17.1412 535.176 16.6236C535.348 16.1059 535.607 15.5883 535.866 15.1569C536.211 14.7255 536.556 14.3804 536.987 14.0353C537.419 13.6902 537.936 13.4314 538.454 13.2588C538.972 13.0863 539.576 13 540.18 13C540.784 13 541.301 13.0863 541.905 13.2588C542.423 13.4314 542.94 13.6902 543.372 13.949C543.803 14.2941 544.148 14.6392 544.493 15.0706C544.839 15.502 545.011 16.0196 545.184 16.5373C545.356 17.0549 545.442 17.6589 545.442 18.2628C545.442 18.8667 545.356 19.4706 545.184 19.9883C545.011 20.5059 544.752 21.0236 544.493 21.455C544.148 21.8863 543.803 22.2314 543.372 22.5765C542.94 22.9216 542.423 23.1805 541.905 23.353C541.388 23.5256 540.784 23.6118 540.18 23.6118ZM540.266 21.7138C540.697 21.7138 541.129 21.6275 541.474 21.455C541.819 21.2824 542.164 21.0236 542.423 20.7648C542.682 20.4197 542.94 20.0746 543.027 19.7295C543.199 19.2981 543.286 18.8667 543.286 18.3491C543.286 17.8314 543.199 17.4 543.027 16.9687C542.854 16.5373 542.682 16.1922 542.423 15.9334C542.164 15.5883 541.819 15.4157 541.474 15.2432C541.129 15.0706 540.697 14.9843 540.266 14.9843C539.835 14.9843 539.403 15.0706 539.058 15.2432C538.713 15.4157 538.368 15.6745 538.109 15.9334C537.85 16.2785 537.591 16.6236 537.505 16.9687C537.333 17.4 537.246 17.8314 537.246 18.3491C537.246 18.8667 537.333 19.2981 537.505 19.7295C537.678 20.1608 537.85 20.5059 538.109 20.7648C538.368 21.1099 538.713 21.2824 539.058 21.455C539.403 21.6275 539.748 21.7138 540.266 21.7138Z" fill="#2B2B2B"/>
<path d="M550.101 23.5256C549.497 23.5256 548.979 23.4393 548.462 23.1805C547.944 23.0079 547.513 22.6628 547.168 22.2314C546.823 21.8001 546.564 21.3687 546.477 20.851L548.462 20.4197C548.548 20.851 548.807 21.1099 549.066 21.3687C549.411 21.6275 549.756 21.7138 550.187 21.7138C550.532 21.7138 550.791 21.6275 550.964 21.5412C551.136 21.455 551.395 21.2824 551.481 21.1099C551.568 20.9373 551.654 20.6785 551.654 20.4197C551.654 20.0746 551.568 19.8157 551.309 19.6432C551.05 19.4706 550.705 19.2981 550.187 19.1255L549.756 19.0393C548.721 18.7804 547.944 18.4353 547.427 17.9177C546.909 17.4 546.65 16.7961 546.65 16.1059C546.65 15.6745 546.736 15.2432 546.909 14.8981C547.081 14.553 547.34 14.2079 547.685 13.949C548.03 13.6902 548.376 13.4314 548.807 13.2588C549.238 13.0863 549.67 13 550.187 13C550.705 13 551.309 13.0863 551.74 13.3451C552.258 13.5177 552.603 13.8628 552.948 14.2079C553.293 14.6392 553.466 15.0706 553.638 15.5883L551.654 16.0196C551.568 15.6745 551.309 15.3294 551.05 15.1569C550.791 14.9843 550.446 14.8118 550.101 14.8118C549.842 14.8118 549.583 14.8981 549.411 14.9843C549.238 15.0706 549.066 15.2432 548.893 15.4157C548.807 15.5883 548.721 15.7608 548.721 16.0196C548.721 16.3647 548.807 16.6236 549.066 16.7961C549.325 16.9687 549.67 17.1412 550.187 17.2275L550.619 17.3138C551.654 17.5726 552.43 17.9177 552.948 18.4353C553.466 18.953 553.725 19.5569 553.725 20.3334C553.725 20.851 553.638 21.2824 553.466 21.6275C553.293 22.0589 553.034 22.404 552.689 22.6628C552.344 22.9216 551.999 23.1805 551.568 23.353C551.05 23.4393 550.619 23.5256 550.101 23.5256Z" fill="#2B2B2B"/>
<path d="M500.207 28.1175L498.893 34.2512H503.951V39.2298H497.818L496.384 46.0007H491.087L492.52 39.2298H485.272L483.838 46.0007H478.58L480.014 39.2298H474V34.2512H481.09L482.404 28.1175H476.43V23.1389H483.479L484.873 16.5273H490.131L488.737 23.1389H495.986L497.38 16.5273H502.677L501.283 23.1389H506.381V28.1175H500.207ZM494.91 28.1175H487.661L486.347 34.2512H493.596L494.91 28.1175Z" fill="#2B2B2B"/>
</svg>
