<svg width="1115" height="87" viewBox="0 0 1115 87" fill="none" xmlns="http://www.w3.org/2000/svg">
<path d="M912.38 6.272L907.532 23H905.084L901.196 9.536L897.164 23L894.74 23.024L890.06 6.272H892.388L896.036 20.456L900.068 6.272H902.516L906.356 20.408L910.028 6.272H912.38ZM913.954 16.376C913.954 15.032 914.226 13.856 914.77 12.848C915.314 11.824 916.058 11.032 917.002 10.472C917.962 9.912 919.026 9.632 920.194 9.632C921.346 9.632 922.346 9.88 923.194 10.376C924.042 10.872 924.674 11.496 925.09 12.248V9.848H927.298V23H925.09V20.552C924.658 21.32 924.01 21.96 923.146 22.472C922.298 22.968 921.306 23.216 920.17 23.216C919.002 23.216 917.946 22.928 917.002 22.352C916.058 21.776 915.314 20.968 914.77 19.928C914.226 18.888 913.954 17.704 913.954 16.376ZM925.09 16.4C925.09 15.408 924.89 14.544 924.49 13.808C924.09 13.072 923.546 12.512 922.858 12.128C922.186 11.728 921.442 11.528 920.626 11.528C919.81 11.528 919.066 11.72 918.394 12.104C917.722 12.488 917.186 13.048 916.786 13.784C916.386 14.52 916.186 15.384 916.186 16.376C916.186 17.384 916.386 18.264 916.786 19.016C917.186 19.752 917.722 20.32 918.394 20.72C919.066 21.104 919.81 21.296 920.626 21.296C921.442 21.296 922.186 21.104 922.858 20.72C923.546 20.32 924.09 19.752 924.49 19.016C924.89 18.264 925.09 17.392 925.09 16.4ZM937.397 9.608C938.997 9.608 940.293 10.096 941.285 11.072C942.277 12.032 942.773 13.424 942.773 15.248V23H940.613V15.56C940.613 14.248 940.285 13.248 939.629 12.56C938.973 11.856 938.077 11.504 936.941 11.504C935.789 11.504 934.869 11.864 934.181 12.584C933.509 13.304 933.173 14.352 933.173 15.728V23H930.989V9.848H933.173V11.72C933.605 11.048 934.189 10.528 934.925 10.16C935.677 9.792 936.501 9.608 937.397 9.608ZM949.004 11.648V19.4C949.004 20.04 949.14 20.496 949.412 20.768C949.684 21.024 950.156 21.152 950.828 21.152H952.436V23H950.468C949.252 23 948.34 22.72 947.732 22.16C947.124 21.6 946.82 20.68 946.82 19.4V11.648H945.116V9.848H946.82V6.536H949.004V9.848H952.436V11.648H949.004ZM964.145 11.648V19.4C964.145 20.04 964.281 20.496 964.553 20.768C964.825 21.024 965.297 21.152 965.969 21.152H967.577V23H965.609C964.393 23 963.481 22.72 962.873 22.16C962.265 21.6 961.961 20.68 961.961 19.4V11.648H960.257V9.848H961.961V6.536H964.145V9.848H967.577V11.648H964.145ZM975.959 23.216C974.727 23.216 973.607 22.936 972.599 22.376C971.607 21.816 970.823 21.024 970.247 20C969.687 18.96 969.407 17.76 969.407 16.4C969.407 15.056 969.695 13.872 970.271 12.848C970.863 11.808 971.663 11.016 972.671 10.472C973.679 9.912 974.807 9.632 976.055 9.632C977.303 9.632 978.431 9.912 979.439 10.472C980.447 11.016 981.239 11.8 981.815 12.824C982.407 13.848 982.703 15.04 982.703 16.4C982.703 17.76 982.399 18.96 981.791 20C981.199 21.024 980.391 21.816 979.367 22.376C978.343 22.936 977.207 23.216 975.959 23.216ZM975.959 21.296C976.743 21.296 977.479 21.112 978.167 20.744C978.855 20.376 979.407 19.824 979.823 19.088C980.255 18.352 980.471 17.456 980.471 16.4C980.471 15.344 980.263 14.448 979.847 13.712C979.431 12.976 978.887 12.432 978.215 12.08C977.543 11.712 976.815 11.528 976.031 11.528C975.231 11.528 974.495 11.712 973.823 12.08C973.167 12.432 972.639 12.976 972.239 13.712C971.839 14.448 971.639 15.344 971.639 16.4C971.639 17.472 971.831 18.376 972.215 19.112C972.615 19.848 973.143 20.4 973.799 20.768C974.455 21.12 975.175 21.296 975.959 21.296ZM995.717 11.504C996.101 10.88 996.653 10.376 997.373 9.992C998.093 9.608 998.917 9.416 999.845 9.416C1000.95 9.416 1001.95 9.696 1002.85 10.256C1003.74 10.816 1004.45 11.616 1004.96 12.656C1005.49 13.696 1005.75 14.904 1005.75 16.28C1005.75 17.656 1005.49 18.872 1004.96 19.928C1004.45 20.968 1003.74 21.776 1002.85 22.352C1001.95 22.912 1000.95 23.192 999.845 23.192C998.901 23.192 998.077 23.008 997.373 22.64C996.669 22.256 996.117 21.752 995.717 21.128V23H991.613V5.24H995.717V11.504ZM1001.57 16.28C1001.57 15.256 1001.29 14.456 1000.71 13.88C1000.15 13.288 999.453 12.992 998.621 12.992C997.805 12.992 997.109 13.288 996.533 13.88C995.973 14.472 995.693 15.28 995.693 16.304C995.693 17.328 995.973 18.136 996.533 18.728C997.109 19.32 997.805 19.616 998.621 19.616C999.437 19.616 1000.13 19.32 1000.71 18.728C1001.29 18.12 1001.57 17.304 1001.57 16.28ZM1021.13 9.608V23H1017.02V21.176C1016.61 21.768 1016.04 22.248 1015.32 22.616C1014.61 22.968 1013.83 23.144 1012.97 23.144C1011.94 23.144 1011.04 22.92 1010.25 22.472C1009.47 22.008 1008.86 21.344 1008.43 20.48C1008 19.616 1007.78 18.6 1007.78 17.432V9.608H1011.86V16.88C1011.86 17.776 1012.09 18.472 1012.56 18.968C1013.02 19.464 1013.65 19.712 1014.43 19.712C1015.23 19.712 1015.86 19.464 1016.33 18.968C1016.79 18.472 1017.02 17.776 1017.02 16.88V9.608H1021.13ZM1026.14 8.216C1025.42 8.216 1024.83 8.008 1024.36 7.592C1023.91 7.16 1023.69 6.632 1023.69 6.008C1023.69 5.368 1023.91 4.84 1024.36 4.424C1024.83 3.992 1025.42 3.776 1026.14 3.776C1026.84 3.776 1027.42 3.992 1027.87 4.424C1028.33 4.84 1028.56 5.368 1028.56 6.008C1028.56 6.632 1028.33 7.16 1027.87 7.592C1027.42 8.008 1026.84 8.216 1026.14 8.216ZM1028.18 9.608V23H1024.07V9.608H1028.18ZM1035.26 5.24V23H1031.15V5.24H1035.26ZM1037.41 16.28C1037.41 14.904 1037.67 13.696 1038.18 12.656C1038.71 11.616 1039.42 10.816 1040.32 10.256C1041.21 9.696 1042.21 9.416 1043.32 9.416C1044.2 9.416 1045 9.6 1045.72 9.968C1046.45 10.336 1047.03 10.832 1047.45 11.456V5.24H1051.55V23H1047.45V21.08C1047.06 21.72 1046.51 22.232 1045.79 22.616C1045.09 23 1044.26 23.192 1043.32 23.192C1042.21 23.192 1041.21 22.912 1040.32 22.352C1039.42 21.776 1038.71 20.968 1038.18 19.928C1037.67 18.872 1037.41 17.656 1037.41 16.28ZM1047.45 16.304C1047.45 15.28 1047.16 14.472 1046.58 13.88C1046.02 13.288 1045.33 12.992 1044.52 12.992C1043.7 12.992 1043.01 13.288 1042.43 13.88C1041.87 14.456 1041.59 15.256 1041.59 16.28C1041.59 17.304 1041.87 18.12 1042.43 18.728C1043.01 19.32 1043.7 19.616 1044.52 19.616C1045.33 19.616 1046.02 19.32 1046.58 18.728C1047.16 18.136 1047.45 17.328 1047.45 16.304ZM1073.29 9.608L1064.89 29.36H1060.47L1063.54 22.544L1058.09 9.608H1062.68L1065.77 17.984L1068.85 9.608H1073.29ZM1080.87 23.192C1079.55 23.192 1078.37 22.912 1077.31 22.352C1076.27 21.792 1075.45 20.992 1074.84 19.952C1074.25 18.912 1073.95 17.696 1073.95 16.304C1073.95 14.928 1074.26 13.72 1074.87 12.68C1075.47 11.624 1076.31 10.816 1077.36 10.256C1078.42 9.696 1079.6 9.416 1080.91 9.416C1082.23 9.416 1083.41 9.696 1084.47 10.256C1085.52 10.816 1086.35 11.624 1086.96 12.68C1087.57 13.72 1087.87 14.928 1087.87 16.304C1087.87 17.68 1087.56 18.896 1086.94 19.952C1086.33 20.992 1085.49 21.792 1084.42 22.352C1083.36 22.912 1082.18 23.192 1080.87 23.192ZM1080.87 19.64C1081.65 19.64 1082.31 19.352 1082.86 18.776C1083.42 18.2 1083.7 17.376 1083.7 16.304C1083.7 15.232 1083.43 14.408 1082.88 13.832C1082.35 13.256 1081.7 12.968 1080.91 12.968C1080.11 12.968 1079.45 13.256 1078.92 13.832C1078.39 14.392 1078.13 15.216 1078.13 16.304C1078.13 17.376 1078.39 18.2 1078.9 18.776C1079.43 19.352 1080.08 19.64 1080.87 19.64ZM1103.27 9.608V23H1099.17V21.176C1098.75 21.768 1098.19 22.248 1097.47 22.616C1096.76 22.968 1095.98 23.144 1095.11 23.144C1094.09 23.144 1093.19 22.92 1092.4 22.472C1091.62 22.008 1091.01 21.344 1090.58 20.48C1090.15 19.616 1089.93 18.6 1089.93 17.432V9.608H1094.01V16.88C1094.01 17.776 1094.24 18.472 1094.71 18.968C1095.17 19.464 1095.79 19.712 1096.58 19.712C1097.38 19.712 1098.01 19.464 1098.47 18.968C1098.94 18.472 1099.17 17.776 1099.17 16.88V9.608H1103.27ZM1110.33 11.84C1110.81 11.104 1111.41 10.528 1112.13 10.112C1112.85 9.68 1113.65 9.464 1114.53 9.464V13.808H1113.4C1112.37 13.808 1111.61 14.032 1111.09 14.48C1110.58 14.912 1110.33 15.68 1110.33 16.784V23H1106.22V9.608H1110.33V11.84ZM922.311 40.504C922.695 39.88 923.247 39.376 923.967 38.992C924.687 38.608 925.511 38.416 926.439 38.416C927.543 38.416 928.543 38.696 929.439 39.256C930.335 39.816 931.039 40.616 931.551 41.656C932.079 42.696 932.343 43.904 932.343 45.28C932.343 46.656 932.079 47.872 931.551 48.928C931.039 49.968 930.335 50.776 929.439 51.352C928.543 51.912 927.543 52.192 926.439 52.192C925.495 52.192 924.671 52.008 923.967 51.64C923.263 51.256 922.711 50.752 922.311 50.128V52H918.207V34.24H922.311V40.504ZM928.167 45.28C928.167 44.256 927.879 43.456 927.303 42.88C926.743 42.288 926.047 41.992 925.215 41.992C924.399 41.992 923.703 42.288 923.127 42.88C922.567 43.472 922.287 44.28 922.287 45.304C922.287 46.328 922.567 47.136 923.127 47.728C923.703 48.32 924.399 48.616 925.215 48.616C926.031 48.616 926.727 48.32 927.303 47.728C927.879 47.12 928.167 46.304 928.167 45.28ZM938.6 40.84C939.08 40.104 939.68 39.528 940.4 39.112C941.12 38.68 941.92 38.464 942.8 38.464V42.808H941.672C940.648 42.808 939.88 43.032 939.368 43.48C938.856 43.912 938.6 44.68 938.6 45.784V52H934.496V38.608H938.6V40.84ZM943.945 45.28C943.945 43.904 944.201 42.696 944.713 41.656C945.241 40.616 945.953 39.816 946.849 39.256C947.745 38.696 948.745 38.416 949.849 38.416C950.793 38.416 951.617 38.608 952.321 38.992C953.041 39.376 953.593 39.88 953.977 40.504V38.608H958.081V52H953.977V50.104C953.577 50.728 953.017 51.232 952.297 51.616C951.593 52 950.769 52.192 949.825 52.192C948.737 52.192 947.745 51.912 946.849 51.352C945.953 50.776 945.241 49.968 944.713 48.928C944.201 47.872 943.945 46.656 943.945 45.28ZM953.977 45.304C953.977 44.28 953.689 43.472 953.113 42.88C952.553 42.288 951.865 41.992 951.049 41.992C950.233 41.992 949.537 42.288 948.961 42.88C948.401 43.456 948.121 44.256 948.121 45.28C948.121 46.304 948.401 47.12 948.961 47.728C949.537 48.32 950.233 48.616 951.049 48.616C951.865 48.616 952.553 48.32 953.113 47.728C953.689 47.136 953.977 46.328 953.977 45.304ZM969.211 38.464C970.779 38.464 972.027 38.976 972.955 40C973.899 41.008 974.371 42.4 974.371 44.176V52H970.291V44.728C970.291 43.832 970.059 43.136 969.595 42.64C969.131 42.144 968.507 41.896 967.723 41.896C966.939 41.896 966.315 42.144 965.851 42.64C965.387 43.136 965.155 43.832 965.155 44.728V52H961.051V38.608H965.155V40.384C965.571 39.792 966.131 39.328 966.835 38.992C967.539 38.64 968.331 38.464 969.211 38.464ZM976.406 45.28C976.406 43.904 976.662 42.696 977.174 41.656C977.702 40.616 978.414 39.816 979.31 39.256C980.206 38.696 981.206 38.416 982.31 38.416C983.19 38.416 983.99 38.6 984.71 38.968C985.446 39.336 986.022 39.832 986.438 40.456V34.24H990.542V52H986.438V50.08C986.054 50.72 985.502 51.232 984.782 51.616C984.078 52 983.254 52.192 982.31 52.192C981.206 52.192 980.206 51.912 979.31 51.352C978.414 50.776 977.702 49.968 977.174 48.928C976.662 47.872 976.406 46.656 976.406 45.28ZM986.438 45.304C986.438 44.28 986.15 43.472 985.574 42.88C985.014 42.288 984.326 41.992 983.51 41.992C982.694 41.992 981.998 42.288 981.422 42.88C980.862 43.456 980.582 44.256 980.582 45.28C980.582 46.304 980.862 47.12 981.422 47.728C981.998 48.32 982.694 48.616 983.51 48.616C984.326 48.616 985.014 48.32 985.574 47.728C986.15 47.136 986.438 46.328 986.438 45.304ZM998.431 34.216C1000.14 34.216 1001.51 34.664 1002.54 35.56C1003.58 36.456 1004.1 37.72 1004.1 39.352C1004.1 40.856 1003.6 42.032 1002.61 42.88C1001.63 43.712 1000.34 44.136 998.719 44.152L998.599 45.952H994.999L994.879 41.488H996.319C997.551 41.488 998.487 41.336 999.127 41.032C999.783 40.728 1000.11 40.176 1000.11 39.376C1000.11 38.816 999.959 38.376 999.655 38.056C999.351 37.736 998.927 37.576 998.383 37.576C997.807 37.576 997.359 37.744 997.039 38.08C996.719 38.4 996.559 38.84 996.559 39.4H992.695C992.663 38.424 992.863 37.544 993.295 36.76C993.743 35.976 994.399 35.36 995.263 34.912C996.143 34.448 997.199 34.216 998.431 34.216ZM996.847 52.192C996.127 52.192 995.535 51.984 995.071 51.568C994.623 51.136 994.399 50.608 994.399 49.984C994.399 49.344 994.623 48.808 995.071 48.376C995.535 47.944 996.127 47.728 996.847 47.728C997.551 47.728 998.127 47.944 998.575 48.376C999.039 48.808 999.271 49.344 999.271 49.984C999.271 50.608 999.039 51.136 998.575 51.568C998.127 51.984 997.551 52.192 996.847 52.192ZM1010.82 43.552C1010.82 41.888 1011.18 40.408 1011.9 39.112C1012.62 37.8 1013.62 36.784 1014.9 36.064C1016.19 35.328 1017.66 34.96 1019.29 34.96C1021.29 34.96 1023 35.488 1024.42 36.544C1025.85 37.6 1026.8 39.04 1027.28 40.864H1022.77C1022.43 40.16 1021.95 39.624 1021.33 39.256C1020.72 38.888 1020.02 38.704 1019.24 38.704C1017.98 38.704 1016.95 39.144 1016.17 40.024C1015.38 40.904 1014.99 42.08 1014.99 43.552C1014.99 45.024 1015.38 46.2 1016.17 47.08C1016.95 47.96 1017.98 48.4 1019.24 48.4C1020.02 48.4 1020.72 48.216 1021.33 47.848C1021.95 47.48 1022.43 46.944 1022.77 46.24H1027.28C1026.8 48.064 1025.85 49.504 1024.42 50.56C1023 51.6 1021.29 52.12 1019.29 52.12C1017.66 52.12 1016.19 51.76 1014.9 51.04C1013.62 50.304 1012.62 49.288 1011.9 47.992C1011.18 46.696 1010.82 45.216 1010.82 43.552ZM1035.89 52.192C1034.58 52.192 1033.39 51.912 1032.34 51.352C1031.3 50.792 1030.47 49.992 1029.86 48.952C1029.27 47.912 1028.98 46.696 1028.98 45.304C1028.98 43.928 1029.28 42.72 1029.89 41.68C1030.5 40.624 1031.33 39.816 1032.38 39.256C1033.44 38.696 1034.62 38.416 1035.94 38.416C1037.25 38.416 1038.43 38.696 1039.49 39.256C1040.54 39.816 1041.38 40.624 1041.98 41.68C1042.59 42.72 1042.9 43.928 1042.9 45.304C1042.9 46.68 1042.58 47.896 1041.96 48.952C1041.35 49.992 1040.51 50.792 1039.44 51.352C1038.38 51.912 1037.2 52.192 1035.89 52.192ZM1035.89 48.64C1036.67 48.64 1037.34 48.352 1037.88 47.776C1038.44 47.2 1038.72 46.376 1038.72 45.304C1038.72 44.232 1038.45 43.408 1037.9 42.832C1037.38 42.256 1036.72 41.968 1035.94 41.968C1035.14 41.968 1034.47 42.256 1033.94 42.832C1033.42 43.392 1033.15 44.216 1033.15 45.304C1033.15 46.376 1033.41 47.2 1033.92 47.776C1034.45 48.352 1035.1 48.64 1035.89 48.64ZM1053.23 38.464C1054.8 38.464 1056.05 38.976 1056.98 40C1057.92 41.008 1058.39 42.4 1058.39 44.176V52H1054.31V44.728C1054.31 43.832 1054.08 43.136 1053.62 42.64C1053.15 42.144 1052.53 41.896 1051.75 41.896C1050.96 41.896 1050.34 42.144 1049.87 42.64C1049.41 43.136 1049.18 43.832 1049.18 44.728V52H1045.07V38.608H1049.18V40.384C1049.59 39.792 1050.15 39.328 1050.86 38.992C1051.56 38.64 1052.35 38.464 1053.23 38.464ZM1069.41 38.464C1070.97 38.464 1072.22 38.976 1073.15 40C1074.09 41.008 1074.57 42.4 1074.57 44.176V52H1070.49V44.728C1070.49 43.832 1070.25 43.136 1069.79 42.64C1069.33 42.144 1068.7 41.896 1067.92 41.896C1067.13 41.896 1066.51 42.144 1066.05 42.64C1065.58 43.136 1065.35 43.832 1065.35 44.728V52H1061.25V38.608H1065.35V40.384C1065.77 39.792 1066.33 39.328 1067.03 38.992C1067.73 38.64 1068.53 38.464 1069.41 38.464ZM1090.04 45.088C1090.04 45.472 1090.02 45.872 1089.97 46.288H1080.68C1080.75 47.12 1081.01 47.76 1081.47 48.208C1081.95 48.64 1082.54 48.856 1083.23 48.856C1084.25 48.856 1084.96 48.424 1085.36 47.56H1089.73C1089.51 48.44 1089.1 49.232 1088.51 49.936C1087.93 50.64 1087.2 51.192 1086.32 51.592C1085.44 51.992 1084.46 52.192 1083.37 52.192C1082.06 52.192 1080.89 51.912 1079.87 51.352C1078.84 50.792 1078.04 49.992 1077.47 48.952C1076.89 47.912 1076.6 46.696 1076.6 45.304C1076.6 43.912 1076.88 42.696 1077.44 41.656C1078.02 40.616 1078.82 39.816 1079.84 39.256C1080.87 38.696 1082.04 38.416 1083.37 38.416C1084.67 38.416 1085.82 38.688 1086.83 39.232C1087.83 39.776 1088.62 40.552 1089.18 41.56C1089.75 42.568 1090.04 43.744 1090.04 45.088ZM1085.84 44.008C1085.84 43.304 1085.6 42.744 1085.12 42.328C1084.64 41.912 1084.04 41.704 1083.32 41.704C1082.63 41.704 1082.05 41.904 1081.57 42.304C1081.11 42.704 1080.82 43.272 1080.71 44.008H1085.84ZM1091.39 45.304C1091.39 43.912 1091.67 42.696 1092.23 41.656C1092.81 40.616 1093.6 39.816 1094.61 39.256C1095.63 38.696 1096.8 38.416 1098.11 38.416C1099.79 38.416 1101.19 38.856 1102.31 39.736C1103.45 40.616 1104.19 41.856 1104.54 43.456H1100.17C1099.81 42.432 1099.09 41.92 1098.04 41.92C1097.29 41.92 1096.69 42.216 1096.24 42.808C1095.79 43.384 1095.57 44.216 1095.57 45.304C1095.57 46.392 1095.79 47.232 1096.24 47.824C1096.69 48.4 1097.29 48.688 1098.04 48.688C1099.09 48.688 1099.81 48.176 1100.17 47.152H1104.54C1104.19 48.72 1103.45 49.952 1102.31 50.848C1101.17 51.744 1099.77 52.192 1098.11 52.192C1096.8 52.192 1095.63 51.912 1094.61 51.352C1093.6 50.792 1092.81 49.992 1092.23 48.952C1091.67 47.912 1091.39 46.696 1091.39 45.304ZM1114.2 48.52V52H1112.11C1110.63 52 1109.47 51.64 1108.63 50.92C1107.8 50.184 1107.39 48.992 1107.39 47.344V42.016H1105.75V38.608H1107.39V35.344H1111.49V38.608H1114.18V42.016H1111.49V47.392C1111.49 47.792 1111.59 48.08 1111.78 48.256C1111.97 48.432 1112.29 48.52 1112.74 48.52H1114.2ZM1043.24 67.848L1039.14 81H1036.88L1033.72 70.56L1030.55 81H1028.29L1024.16 67.848H1026.4L1029.42 78.888L1032.68 67.848H1034.92L1038.11 78.912L1041.08 67.848H1043.24ZM1046.54 65.712C1046.12 65.712 1045.77 65.568 1045.48 65.28C1045.19 64.992 1045.05 64.64 1045.05 64.224C1045.05 63.808 1045.19 63.456 1045.48 63.168C1045.77 62.88 1046.12 62.736 1046.54 62.736C1046.94 62.736 1047.27 62.88 1047.55 63.168C1047.83 63.456 1047.98 63.808 1047.98 64.224C1047.98 64.64 1047.83 64.992 1047.55 65.28C1047.27 65.568 1046.94 65.712 1046.54 65.712ZM1047.59 67.848V81H1045.41V67.848H1047.59ZM1053.98 69.648V77.4C1053.98 78.04 1054.12 78.496 1054.39 78.768C1054.66 79.024 1055.13 79.152 1055.8 79.152H1057.41V81H1055.44C1054.23 81 1053.32 80.72 1052.71 80.16C1052.1 79.6 1051.8 78.68 1051.8 77.4V69.648H1050.09V67.848H1051.8V64.536H1053.98V67.848H1057.41V69.648H1053.98ZM1066.59 67.608C1067.58 67.608 1068.47 67.824 1069.27 68.256C1070.07 68.672 1070.7 69.304 1071.15 70.152C1071.61 71 1071.84 72.032 1071.84 73.248V81H1069.68V73.56C1069.68 72.248 1069.35 71.248 1068.7 70.56C1068.04 69.856 1067.15 69.504 1066.01 69.504C1064.86 69.504 1063.94 69.864 1063.25 70.584C1062.58 71.304 1062.24 72.352 1062.24 73.728V81H1060.06V63.24H1062.24V69.72C1062.67 69.048 1063.27 68.528 1064.02 68.16C1064.79 67.792 1065.64 67.608 1066.59 67.608ZM1093.47 67.848V81H1091.29V79.056C1090.87 79.728 1090.29 80.256 1089.54 80.64C1088.8 81.008 1087.98 81.192 1087.09 81.192C1086.06 81.192 1085.14 80.984 1084.33 80.568C1083.51 80.136 1082.86 79.496 1082.38 78.648C1081.92 77.8 1081.69 76.768 1081.69 75.552V67.848H1083.85V75.264C1083.85 76.56 1084.18 77.56 1084.83 78.264C1085.49 78.952 1086.38 79.296 1087.52 79.296C1088.69 79.296 1089.61 78.936 1090.28 78.216C1090.95 77.496 1091.29 76.448 1091.29 75.072V67.848H1093.47ZM1101.82 81.216C1100.81 81.216 1099.9 81.048 1099.1 80.712C1098.3 80.36 1097.67 79.88 1097.21 79.272C1096.74 78.648 1096.49 77.936 1096.44 77.136H1098.7C1098.76 77.792 1099.06 78.328 1099.61 78.744C1100.17 79.16 1100.9 79.368 1101.79 79.368C1102.62 79.368 1103.28 79.184 1103.76 78.816C1104.24 78.448 1104.48 77.984 1104.48 77.424C1104.48 76.848 1104.22 76.424 1103.71 76.152C1103.2 75.864 1102.41 75.584 1101.34 75.312C1100.36 75.056 1099.56 74.8 1098.94 74.544C1098.33 74.272 1097.8 73.88 1097.35 73.368C1096.92 72.84 1096.7 72.152 1096.7 71.304C1096.7 70.632 1096.9 70.016 1097.3 69.456C1097.7 68.896 1098.27 68.456 1099.01 68.136C1099.74 67.8 1100.58 67.632 1101.53 67.632C1102.98 67.632 1104.16 68 1105.06 68.736C1105.95 69.472 1106.43 70.48 1106.5 71.76H1104.31C1104.26 71.072 1103.98 70.52 1103.47 70.104C1102.98 69.688 1102.3 69.48 1101.46 69.48C1100.67 69.48 1100.05 69.648 1099.58 69.984C1099.12 70.32 1098.89 70.76 1098.89 71.304C1098.89 71.736 1099.02 72.096 1099.3 72.384C1099.58 72.656 1099.94 72.88 1100.35 73.056C1100.78 73.216 1101.38 73.4 1102.13 73.608C1103.07 73.864 1103.84 74.12 1104.43 74.376C1105.02 74.616 1105.53 74.984 1105.94 75.48C1106.38 75.976 1106.6 76.624 1106.62 77.424C1106.62 78.144 1106.42 78.792 1106.02 79.368C1105.62 79.944 1105.05 80.4 1104.31 80.736C1103.59 81.056 1102.76 81.216 1101.82 81.216ZM1112.53 64.272L1112.27 76.272H1110.44L1110.18 64.272H1112.53ZM1111.45 81.144C1111.04 81.144 1110.68 81 1110.4 80.712C1110.11 80.424 1109.96 80.072 1109.96 79.656C1109.96 79.24 1110.11 78.888 1110.4 78.6C1110.68 78.312 1111.04 78.168 1111.45 78.168C1111.85 78.168 1112.19 78.312 1112.46 78.6C1112.75 78.888 1112.89 79.24 1112.89 79.656C1112.89 80.072 1112.75 80.424 1112.46 80.712C1112.19 81 1111.85 81.144 1111.45 81.144Z" fill="#393E38"/>
<path d="M36.1 83.2C16.2 83.2 0 67.1 0 47.1C0 27.2 16.2 11 36.1 11C56 11 72.2 27.2 72.2 47.1C72.2 67.1 56.1 83.2 36.1 83.2Z" fill="black"/>
<path d="M13 52V42.5H9.69995V40.3H18.7V42.5H15.4V52H13Z" fill="white"/>
<path d="M16.8 52L21.4 40.3H24L28.6 52H26.1L25.1 49.4001H20.1L19.1 52H16.8ZM20.9 47.4001H24.4L22.6 42.7001L20.9 47.4001Z" fill="white"/>
<path d="M32.8999 52V42.5H29.5999V40.3H38.5999V42.5H35.2999V52H32.8999Z" fill="white"/>
<path d="M45.4001 52.3C44.7001 52.3 44.1001 52.2 43.4001 52C42.7001 51.8 42.2001 51.5 41.7001 51.2C41.2001 50.8 40.8001 50.4 40.4001 49.9C40.0001 49.4 39.8 48.8 39.6 48.2C39.4 47.6 39.3 46.9 39.3 46.2C39.3 45.5 39.4 44.8 39.6 44.2C39.8 43.6 40.1001 43 40.4001 42.5C40.8001 42 41.2001 41.6 41.7001 41.2C42.2001 40.8 42.8001 40.5 43.4001 40.3C44.0001 40.1 44.7001 40 45.4001 40C46.1001 40 46.7001 40.1 47.4001 40.3C48.0001 40.5 48.6 40.8 49.1 41.1C49.6 41.5 50.0001 41.9 50.4001 42.4C50.8001 42.9 51.0001 43.5 51.2001 44.1C51.4001 44.7 51.5 45.4 51.5 46.1C51.5 46.8 51.4001 47.5 51.2001 48.1C51.0001 48.7 50.7001 49.3 50.4001 49.8C50.0001 50.3 49.6 50.7 49.1 51.1C48.6 51.5 48.0001 51.8 47.4001 52C46.8001 52.2 46.1001 52.3 45.4001 52.3ZM45.5 50.1C46 50.1 46.5001 50 46.9001 49.8C47.3001 49.6 47.7 49.3 48 49C48.3 48.6 48.6 48.2 48.7001 47.8C48.9001 47.3 49 46.8 49 46.2C49 45.6 48.9001 45.1 48.7001 44.6C48.5001 44.1 48.3 43.7 48 43.4C47.7 43 47.3001 42.8 46.9001 42.6C46.5001 42.4 46 42.3 45.5 42.3C45 42.3 44.5 42.4 44.1 42.6C43.7 42.8 43.3 43.1 43 43.4C42.7 43.8 42.4 44.2 42.3 44.6C42.1 45.1 42 45.6 42 46.2C42 46.8 42.1 47.3 42.3 47.8C42.5 48.3 42.7 48.7 43 49C43.3 49.4 43.7 49.6 44.1 49.8C44.5 50 44.9 50.1 45.5 50.1Z" fill="white"/>
<path d="M56.9 52.2C56.2 52.2 55.6 52.1 55 51.8C54.4 51.6 53.9 51.2 53.5 50.7C53.1 50.2 52.8 49.7 52.7 49.1L55 48.6C55.1 49.1 55.4 49.4 55.7 49.7C56.1 50 56.5 50.1 57 50.1C57.4 50.1 57.7 50 57.9 49.9C58.1 49.8 58.4 49.6 58.5 49.4C58.6 49.2 58.7 48.9 58.7 48.6C58.7 48.2 58.5999 47.9 58.2999 47.7C57.9999 47.5 57.6 47.3 57 47.1L56.5 47C55.3 46.7 54.3999 46.3 53.7999 45.7C53.1999 45.1 52.9 44.4 52.9 43.6C52.9 43.1 53 42.6 53.2 42.2C53.4 41.8 53.6999 41.4 54.0999 41.1C54.4999 40.8 54.9 40.5 55.4 40.3C55.9 40.1 56.4 40 57 40C57.6 40 58.2999 40.1 58.7999 40.4C59.3999 40.6 59.8 41 60.2 41.4C60.6 41.9 60.8 42.4 61 43L58.7 43.5C58.6 43.1 58.3 42.7 58 42.5C57.7 42.3 57.3 42.1 56.9 42.1C56.6 42.1 56.2999 42.2 56.0999 42.3C55.8999 42.4 55.7 42.6 55.5 42.8C55.4 43 55.2999 43.2 55.2999 43.5C55.2999 43.9 55.4 44.2 55.7 44.4C56 44.6 56.4 44.8 57 44.9L57.5 45C58.7 45.3 59.6 45.7 60.2 46.3C60.8 46.9 61.0999 47.6 61.0999 48.5C61.0999 49.1 60.9999 49.6 60.7999 50C60.5999 50.5 60.3 50.9 59.9 51.2C59.5 51.5 59.0999 51.8 58.5999 52C57.9999 52.1 57.5 52.2 56.9 52.2Z" fill="white"/>
<path d="M61.1 53.3H10.8V57.6H61.1V53.3Z" fill="#FFF200"/>
<path d="M18.0999 56.3001V54.9001H17.5999V54.6001H18.9999V54.9001H18.4999V56.3001H18.0999Z" fill="#2B2B2B"/>
<path d="M19.2998 56.3V54.5H19.6998V55.2H20.4998V54.5H20.8998V56.3H20.4998V55.6H19.6998V56.3H19.2998Z" fill="#2B2B2B"/>
<path d="M21.0999 56.3V54.5H22.1999V54.8H21.4999V55.2H22.1999V55.5H21.4999V56H22.2999V56.3H21.0999Z" fill="#2B2B2B"/>
<path d="M22.8999 56.3L23.5999 54.5H23.9999L24.6999 56.3H24.2999L24.1999 55.9H23.3999L23.2999 56.3H22.8999ZM23.4999 55.6H23.9999L23.6999 54.9L23.4999 55.6Z" fill="#2B2B2B"/>
<path d="M24.8999 56.3V54.5H25.2999V56H25.9999V56.3H24.8999Z" fill="#2B2B2B"/>
<path d="M26.2 56.3V54.5H26.7999C26.8999 54.5 27.1 54.5 27.2 54.6C27.3 54.7 27.4 54.7 27.4 54.8C27.5 54.9 27.5 55 27.5 55.1C27.5 55.2 27.5 55.3 27.5 55.3C27.5 55.4 27.4 55.4 27.4 55.5C27.3 55.6 27.3 55.6 27.2 55.6C27.1 55.6 27 55.6 26.9 55.6C26.8 55.6 26.8 55.6 26.7 55.6V56.2H26.2V56.3ZM26.6 54.8V55.3C26.7 55.3 26.6999 55.3 26.7999 55.3C26.8999 55.3 27 55.3 27 55.2C27.1 55.2 27.1 55.1 27.1 55C27.1 54.9 27.1 54.8 27 54.8C26.9 54.8 26.8999 54.7 26.7999 54.7H26.6V54.8Z" fill="#2B2B2B"/>
<path d="M27.7 56.3V54.5H28.1V55.2H28.9V54.5H29.2999V56.3H28.9V55.6H28.1V56.3H27.7Z" fill="#2B2B2B"/>
<path d="M29.3999 56.3L30.0999 54.5H30.4999L31.1999 56.3H30.7999L30.6999 55.9H29.8999L29.7999 56.3H29.3999ZM29.9999 55.6H30.4999L30.1999 54.9L29.9999 55.6Z" fill="#2B2B2B"/>
<path d="M31.7998 56.3L32.4998 54.5H32.8998L33.5998 56.3H33.1998L33.0998 55.9H32.2998L32.1998 56.3H31.7998ZM32.3998 55.6H32.8998L32.5998 54.9L32.3998 55.6Z" fill="#2B2B2B"/>
<path d="M33.7998 56.3V54.5H34.0998L34.8998 55.7V54.5H35.2998V56.3H34.9998L34.1998 55.1V56.3H33.7998Z" fill="#2B2B2B"/>
<path d="M35.5999 56.3V54.5H36.2999C36.3999 54.5 36.5999 54.5 36.6999 54.6C36.7999 54.7 36.8999 54.7 36.9999 54.8C37.0999 54.9 37.0999 55 37.1999 55.1C37.1999 55.2 37.2999 55.3 37.2999 55.5C37.2999 55.7 37.2999 55.7 37.1999 55.9C37.1999 56 37.0999 56.1 36.9999 56.2C36.8999 56.3 36.7999 56.3 36.6999 56.4C36.5999 56.5 36.4999 56.5 36.2999 56.5H35.5999V56.3ZM35.9999 56H36.2999C36.3999 56 36.4999 56 36.5999 55.9C36.6999 55.9 36.7999 55.8 36.7999 55.7C36.7999 55.6 36.8999 55.5 36.8999 55.4C36.8999 55.3 36.8999 55.2 36.7999 55.1C36.7999 55 36.6999 55 36.5999 54.9C36.4999 54.9 36.3999 54.8 36.2999 54.8H35.9999V56Z" fill="#2B2B2B"/>
<path d="M38.3999 56.3001V54.9001H37.8999V54.6001H39.2999V54.9001H38.7999V56.3001H38.3999Z" fill="#2B2B2B"/>
<path d="M39.4998 56.3V54.5H39.8998V55.2H40.6998V54.5H40.9998V56.3H40.5998V55.6H39.7998V56.3H39.4998Z" fill="#2B2B2B"/>
<path d="M41.3999 56.3V54.5H42.4999V54.8H41.7999V55.2H42.4999V55.5H41.7999V56H42.5999V56.3H41.3999Z" fill="#2B2B2B"/>
<path d="M44.0999 56.3C43.9999 56.3 43.8999 56.3 43.7999 56.3C43.6999 56.3 43.6 56.2 43.5 56.2C43.4 56.1 43.3999 56.1 43.2999 56C43.1999 55.9 43.2 55.8 43.2 55.7C43.2 55.6 43.2 55.5 43.2 55.4C43.2 55.3 43.2 55.2 43.2 55.1C43.2 55 43.2999 54.9 43.2999 54.8C43.3999 54.7 43.4 54.7 43.5 54.6C43.6 54.5 43.6999 54.5 43.7999 54.5C43.8999 54.5 43.9999 54.5 44.0999 54.5C44.1999 54.5 44.3 54.5 44.4 54.5C44.5 54.5 44.6 54.6 44.7 54.6C44.8 54.7 44.8 54.7 44.9 54.8C45 54.9 45 55 45 55.1C45 55.2 45 55.3 45 55.4C45 55.5 45 55.6 45 55.7C45 55.8 44.9 55.9 44.9 56C44.8 56.1 44.8 56.1 44.7 56.2C44.6 56.3 44.5 56.3 44.4 56.3C44.3 56.3 44.1999 56.3 44.0999 56.3ZM44.0999 56C44.1999 56 44.1999 56 44.2999 56C44.3999 56 44.4 55.9 44.5 55.9C44.6 55.9 44.5999 55.8 44.5999 55.7C44.5999 55.6 44.5999 55.5 44.5999 55.5C44.5999 55.4 44.5999 55.3 44.5999 55.3C44.5999 55.3 44.6 55 44.5 55C44.5 54.9 44.3999 54.9 44.2999 54.9C44.1999 54.9 44.1999 54.9 44.0999 54.9C43.9999 54.9 44 54.9 43.9 54.9C43.8 54.9 43.8 55 43.7 55C43.7 55.1 43.5999 55.1 43.5999 55.2C43.5999 55.3 43.5999 55.4 43.5999 55.4C43.5999 55.5 43.5999 55.6 43.5999 55.6C43.5999 55.7 43.7 55.7 43.7 55.8C43.7 55.9 43.8 55.9 43.9 55.9C44 56 44.0999 56 44.0999 56Z" fill="#2B2B2B"/>
<path d="M45.2998 56.3V54.5H45.5998L46.1998 55.5L46.7998 54.5H47.0998V56.3H46.6998V55.2L46.2998 55.9H45.9998L45.5998 55.2V56.3H45.2998Z" fill="#2B2B2B"/>
<path d="M47.3999 56.3V54.5H48.4999V54.8H47.7999V55.2H48.4999V55.5H47.7999V56H48.5999V56.3H47.3999Z" fill="#2B2B2B"/>
<path d="M49.5998 56.3C49.4998 56.3 49.3998 56.3 49.2998 56.3C49.1998 56.3 49.0998 56.2 49.0998 56.2C48.9998 56.1 48.9998 56 48.8998 56C48.7998 55.9 48.7998 55.8 48.7998 55.7C48.7998 55.6 48.7998 55.5 48.7998 55.4C48.7998 55.3 48.7998 55.2 48.7998 55.1C48.7998 55 48.8998 54.9 48.8998 54.8C48.9998 54.7 48.9998 54.7 49.0998 54.6C49.1998 54.5 49.2998 54.5 49.3998 54.5C49.4998 54.5 49.5998 54.5 49.6998 54.5C49.7998 54.5 49.8998 54.5 49.9998 54.6C50.0998 54.6 50.1998 54.7 50.2998 54.8C50.3998 54.9 50.3998 55 50.4998 55.1L50.0998 55.2C50.0998 55.1 49.9998 55.1 49.8998 55C49.7998 55 49.6998 54.9 49.6998 54.9C49.5998 54.9 49.5998 54.9 49.4998 54.9C49.3998 54.9 49.3998 55 49.2998 55C49.2998 55.1 49.1998 55.1 49.1998 55.2C49.1998 55.3 49.1998 55.3 49.1998 55.4C49.1998 55.5 49.1998 55.6 49.1998 55.6C49.1998 55.6 49.2998 55.7 49.2998 55.8C49.2998 55.9 49.3998 55.9 49.4998 55.9C49.5998 55.9 49.5998 55.9 49.6998 55.9C49.7998 55.9 49.8998 55.9 49.8998 55.9C49.9998 55.9 49.9998 55.8 50.0998 55.8C50.0998 55.7 50.1998 55.7 50.1998 55.6H49.7998V55.3H50.5998V55.5C50.5998 55.6 50.5998 55.7 50.4998 55.8C50.4998 55.9 50.3998 56 50.2998 56.1C50.1998 56.2 50.0998 56.2 49.9998 56.3C49.8998 56.3 49.7998 56.3 49.5998 56.3Z" fill="#2B2B2B"/>
<path d="M50.5999 56.3L51.2999 54.5H51.6999L52.3999 56.3H51.9999L51.8999 55.9H51.0999L50.9999 56.3H50.5999ZM51.1999 55.6H51.6999L51.3999 54.9L51.1999 55.6Z" fill="#2B2B2B"/>
<path d="M52.5 54.5H52.5999L52.7 54.6C52.7 54.6 52.7 54.7 52.7 54.8C52.7 54.9 52.7 54.9 52.7 55C52.7 55.1 52.5999 55.1 52.5999 55.2C52.4999 55.2 52.5 55.3 52.4 55.3L52.2999 55.1C52.2999 55.1 52.4 55.1 52.4 55L52.5 54.9V54.8C52.5 54.8 52.5 54.8 52.4 54.8H52.2999C52.2999 54.8 52.3 54.8 52.2 54.7V54.6V54.5C52.4 54.6 52.4 54.6 52.5 54.5C52.4 54.5 52.5 54.5 52.5 54.5Z" fill="#2B2B2B"/>
<path d="M53.5999 56.3C53.4999 56.3 53.3999 56.3 53.2999 56.2C53.1999 56.1 53.0999 56.1 53.0999 56C52.9999 56 52.9999 56 52.8999 55.9L53.1999 55.8C53.1999 55.9 53.2999 55.9 53.2999 56C53.3999 56 53.3999 56.1 53.4999 56.1C53.5999 56.1 53.5999 56.1 53.5999 56.1C53.5999 56.1 53.6999 56.1 53.6999 56V55.9C53.6999 55.8 53.6999 55.8 53.5999 55.8C53.5999 55.8 53.4999 55.7 53.3999 55.7H53.2999C53.0999 55.7 52.9999 55.6 52.8999 55.5C52.9999 55.3 52.9999 55.2 52.9999 55C52.9999 54.9 52.9999 54.8 52.9999 54.8C52.9999 54.7 53.0999 54.7 53.0999 54.6C53.1999 54.6 53.1999 54.5 53.2999 54.5C53.3999 54.5 53.4999 54.5 53.4999 54.5C53.5999 54.5 53.6999 54.5 53.7999 54.6C53.8999 54.6 53.9999 54.7 53.9999 54.8C54.0999 54.9 54.0999 54.9 54.0999 55H53.8999C53.8999 54.9 53.7999 54.9 53.7999 54.8C53.7999 54.8 53.6999 54.7 53.5999 54.7H53.4999C53.4999 54.7 53.3999 54.7 53.3999 54.8V54.9C53.3999 55 53.3999 55 53.4999 55C53.4999 55 53.5999 55.1 53.6999 55.1H53.7999C53.9999 55.1 54.0999 55.2 54.1999 55.3C54.2999 55.4 54.2999 55.5 54.2999 55.6C54.2999 55.7 54.2999 55.8 54.2999 55.8C54.2999 55.8 54.1999 55.9 54.1999 56C54.1999 56.1 54.0999 56.1 53.9999 56.1C53.8999 56.1 53.6999 56.3 53.5999 56.3Z" fill="#2B2B2B"/>
<path d="M92.5144 28.228V29.81H89.9104V38H87.9504V29.81H85.3464V28.228H92.5144ZM99.9365 36.138H96.0445L95.4005 38H93.3425L96.8565 28.214H99.1385L102.653 38H100.581L99.9365 36.138ZM99.4045 34.57L97.9905 30.482L96.5765 34.57H99.4045ZM110.616 28.228V29.81H108.012V38H106.052V29.81H103.448V28.228H110.616ZM116.582 38.098C115.667 38.098 114.827 37.8833 114.062 37.454C113.297 37.0247 112.69 36.432 112.242 35.676C111.794 34.9107 111.57 34.0473 111.57 33.086C111.57 32.134 111.794 31.28 112.242 30.524C112.69 29.7587 113.297 29.1613 114.062 28.732C114.827 28.3027 115.667 28.088 116.582 28.088C117.506 28.088 118.346 28.3027 119.102 28.732C119.867 29.1613 120.469 29.7587 120.908 30.524C121.356 31.28 121.58 32.134 121.58 33.086C121.58 34.0473 121.356 34.9107 120.908 35.676C120.469 36.432 119.867 37.0247 119.102 37.454C118.337 37.8833 117.497 38.098 116.582 38.098ZM116.582 36.348C117.17 36.348 117.688 36.2173 118.136 35.956C118.584 35.6853 118.934 35.3027 119.186 34.808C119.438 34.3133 119.564 33.7393 119.564 33.086C119.564 32.4327 119.438 31.8633 119.186 31.378C118.934 30.8833 118.584 30.5053 118.136 30.244C117.688 29.9827 117.17 29.852 116.582 29.852C115.994 29.852 115.471 29.9827 115.014 30.244C114.566 30.5053 114.216 30.8833 113.964 31.378C113.712 31.8633 113.586 32.4327 113.586 33.086C113.586 33.7393 113.712 34.3133 113.964 34.808C114.216 35.3027 114.566 35.6853 115.014 35.956C115.471 36.2173 115.994 36.348 116.582 36.348ZM126.412 38.098C125.731 38.098 125.115 37.9813 124.564 37.748C124.023 37.5147 123.594 37.1787 123.276 36.74C122.959 36.3013 122.796 35.7833 122.786 35.186H124.886C124.914 35.5873 125.054 35.9047 125.306 36.138C125.568 36.3713 125.922 36.488 126.37 36.488C126.828 36.488 127.187 36.3807 127.448 36.166C127.71 35.942 127.84 35.6527 127.84 35.298C127.84 35.0087 127.752 34.7707 127.574 34.584C127.397 34.3973 127.173 34.2527 126.902 34.15C126.641 34.038 126.277 33.9167 125.81 33.786C125.176 33.5993 124.658 33.4173 124.256 33.24C123.864 33.0533 123.524 32.778 123.234 32.414C122.954 32.0407 122.814 31.546 122.814 30.93C122.814 30.3513 122.959 29.8473 123.248 29.418C123.538 28.9887 123.944 28.662 124.466 28.438C124.989 28.2047 125.586 28.088 126.258 28.088C127.266 28.088 128.083 28.3353 128.708 28.83C129.343 29.3153 129.693 29.9967 129.758 30.874H127.602C127.584 30.538 127.439 30.2627 127.168 30.048C126.907 29.824 126.557 29.712 126.118 29.712C125.736 29.712 125.428 29.81 125.194 30.006C124.97 30.202 124.858 30.4867 124.858 30.86C124.858 31.1213 124.942 31.3407 125.11 31.518C125.288 31.686 125.502 31.826 125.754 31.938C126.016 32.0407 126.38 32.162 126.846 32.302C127.481 32.4887 127.999 32.6753 128.4 32.862C128.802 33.0487 129.147 33.3287 129.436 33.702C129.726 34.0753 129.87 34.5653 129.87 35.172C129.87 35.6947 129.735 36.18 129.464 36.628C129.194 37.076 128.797 37.4353 128.274 37.706C127.752 37.9673 127.131 38.098 126.412 38.098ZM141.555 28.228V29.81H138.951V38H136.991V29.81H134.387V28.228H141.555ZM150.196 33.954C150.196 34.234 150.177 34.486 150.14 34.71H144.47C144.516 35.27 144.712 35.7087 145.058 36.026C145.403 36.3433 145.828 36.502 146.332 36.502C147.06 36.502 147.578 36.1893 147.886 35.564H150C149.776 36.3107 149.346 36.9267 148.712 37.412C148.077 37.888 147.298 38.126 146.374 38.126C145.627 38.126 144.955 37.9627 144.358 37.636C143.77 37.3 143.308 36.8287 142.972 36.222C142.645 35.6153 142.482 34.9153 142.482 34.122C142.482 33.3193 142.645 32.6147 142.972 32.008C143.298 31.4013 143.756 30.9347 144.344 30.608C144.932 30.2813 145.608 30.118 146.374 30.118C147.111 30.118 147.769 30.2767 148.348 30.594C148.936 30.9113 149.388 31.364 149.706 31.952C150.032 32.5307 150.196 33.198 150.196 33.954ZM148.166 33.394C148.156 32.89 147.974 32.4887 147.62 32.19C147.265 31.882 146.831 31.728 146.318 31.728C145.832 31.728 145.422 31.8773 145.086 32.176C144.759 32.4653 144.558 32.8713 144.484 33.394H148.166ZM151.122 34.122C151.122 33.3193 151.285 32.6193 151.612 32.022C151.939 31.4153 152.391 30.9487 152.97 30.622C153.549 30.286 154.211 30.118 154.958 30.118C155.919 30.118 156.713 30.3607 157.338 30.846C157.973 31.322 158.397 31.994 158.612 32.862H156.498C156.386 32.526 156.195 32.2647 155.924 32.078C155.663 31.882 155.336 31.784 154.944 31.784C154.384 31.784 153.941 31.9893 153.614 32.4C153.287 32.8013 153.124 33.3753 153.124 34.122C153.124 34.8593 153.287 35.4333 153.614 35.844C153.941 36.2453 154.384 36.446 154.944 36.446C155.737 36.446 156.255 36.0913 156.498 35.382H158.612C158.397 36.222 157.973 36.8893 157.338 37.384C156.703 37.8787 155.91 38.126 154.958 38.126C154.211 38.126 153.549 37.9627 152.97 37.636C152.391 37.3 151.939 36.8333 151.612 36.236C151.285 35.6293 151.122 34.9247 151.122 34.122ZM164.416 30.132C165.004 30.132 165.527 30.2627 165.984 30.524C166.441 30.776 166.796 31.154 167.048 31.658C167.309 32.1527 167.44 32.75 167.44 33.45V38H165.48V33.716C165.48 33.1 165.326 32.6287 165.018 32.302C164.71 31.966 164.29 31.798 163.758 31.798C163.217 31.798 162.787 31.966 162.47 32.302C162.162 32.6287 162.008 33.1 162.008 33.716V38H160.048V27.64H162.008V31.21C162.26 30.874 162.596 30.6127 163.016 30.426C163.436 30.23 163.903 30.132 164.416 30.132ZM173.602 30.132C174.526 30.132 175.273 30.426 175.842 31.014C176.411 31.5927 176.696 32.4047 176.696 33.45V38H174.736V33.716C174.736 33.1 174.582 32.6287 174.274 32.302C173.966 31.966 173.546 31.798 173.014 31.798C172.473 31.798 172.043 31.966 171.726 32.302C171.418 32.6287 171.264 33.1 171.264 33.716V38H169.304V30.244H171.264V31.21C171.525 30.874 171.857 30.6127 172.258 30.426C172.669 30.23 173.117 30.132 173.602 30.132ZM182.004 38.126C181.257 38.126 180.585 37.9627 179.988 37.636C179.39 37.3 178.919 36.8287 178.574 36.222C178.238 35.6153 178.07 34.9153 178.07 34.122C178.07 33.3287 178.242 32.6287 178.588 32.022C178.942 31.4153 179.423 30.9487 180.03 30.622C180.636 30.286 181.313 30.118 182.06 30.118C182.806 30.118 183.483 30.286 184.09 30.622C184.696 30.9487 185.172 31.4153 185.518 32.022C185.872 32.6287 186.05 33.3287 186.05 34.122C186.05 34.9153 185.868 35.6153 185.504 36.222C185.149 36.8287 184.664 37.3 184.048 37.636C183.441 37.9627 182.76 38.126 182.004 38.126ZM182.004 36.418C182.358 36.418 182.69 36.334 182.998 36.166C183.315 35.9887 183.567 35.7273 183.754 35.382C183.94 35.0367 184.034 34.6167 184.034 34.122C184.034 33.3847 183.838 32.82 183.446 32.428C183.063 32.0267 182.592 31.826 182.032 31.826C181.472 31.826 181 32.0267 180.618 32.428C180.244 32.82 180.058 33.3847 180.058 34.122C180.058 34.8593 180.24 35.4287 180.604 35.83C180.977 36.222 181.444 36.418 182.004 36.418ZM189.447 27.64V38H187.487V27.64H189.447ZM194.828 38.126C194.081 38.126 193.409 37.9627 192.812 37.636C192.215 37.3 191.743 36.8287 191.398 36.222C191.062 35.6153 190.894 34.9153 190.894 34.122C190.894 33.3287 191.067 32.6287 191.412 32.022C191.767 31.4153 192.247 30.9487 192.854 30.622C193.461 30.286 194.137 30.118 194.884 30.118C195.631 30.118 196.307 30.286 196.914 30.622C197.521 30.9487 197.997 31.4153 198.342 32.022C198.697 32.6287 198.874 33.3287 198.874 34.122C198.874 34.9153 198.692 35.6153 198.328 36.222C197.973 36.8287 197.488 37.3 196.872 37.636C196.265 37.9627 195.584 38.126 194.828 38.126ZM194.828 36.418C195.183 36.418 195.514 36.334 195.822 36.166C196.139 35.9887 196.391 35.7273 196.578 35.382C196.765 35.0367 196.858 34.6167 196.858 34.122C196.858 33.3847 196.662 32.82 196.27 32.428C195.887 32.0267 195.416 31.826 194.856 31.826C194.296 31.826 193.825 32.0267 193.442 32.428C193.069 32.82 192.882 33.3847 192.882 34.122C192.882 34.8593 193.064 35.4287 193.428 35.83C193.801 36.222 194.268 36.418 194.828 36.418ZM203.35 30.118C203.928 30.118 204.437 30.2347 204.876 30.468C205.314 30.692 205.66 30.986 205.912 31.35V30.244H207.886V38.056C207.886 38.7747 207.741 39.414 207.452 39.974C207.162 40.5433 206.728 40.9913 206.15 41.318C205.571 41.654 204.871 41.822 204.05 41.822C202.948 41.822 202.043 41.5653 201.334 41.052C200.634 40.5387 200.237 39.8387 200.144 38.952H202.09C202.192 39.3067 202.412 39.5867 202.748 39.792C203.093 40.0067 203.508 40.114 203.994 40.114C204.563 40.114 205.025 39.9413 205.38 39.596C205.734 39.26 205.912 38.7467 205.912 38.056V36.852C205.66 37.216 205.31 37.5193 204.862 37.762C204.423 38.0047 203.919 38.126 203.35 38.126C202.696 38.126 202.099 37.958 201.558 37.622C201.016 37.286 200.587 36.8147 200.27 36.208C199.962 35.592 199.808 34.8873 199.808 34.094C199.808 33.31 199.962 32.6147 200.27 32.008C200.587 31.4013 201.012 30.9347 201.544 30.608C202.085 30.2813 202.687 30.118 203.35 30.118ZM205.912 34.122C205.912 33.646 205.818 33.24 205.632 32.904C205.445 32.5587 205.193 32.2973 204.876 32.12C204.558 31.9333 204.218 31.84 203.854 31.84C203.49 31.84 203.154 31.9287 202.846 32.106C202.538 32.2833 202.286 32.5447 202.09 32.89C201.903 33.226 201.81 33.6273 201.81 34.094C201.81 34.5607 201.903 34.9713 202.09 35.326C202.286 35.6713 202.538 35.9373 202.846 36.124C203.163 36.3107 203.499 36.404 203.854 36.404C204.218 36.404 204.558 36.3153 204.876 36.138C205.193 35.9513 205.445 35.69 205.632 35.354C205.818 35.0087 205.912 34.598 205.912 34.122ZM210.794 29.32C210.449 29.32 210.159 29.2127 209.926 28.998C209.702 28.774 209.59 28.4987 209.59 28.172C209.59 27.8453 209.702 27.5747 209.926 27.36C210.159 27.136 210.449 27.024 210.794 27.024C211.139 27.024 211.424 27.136 211.648 27.36C211.881 27.5747 211.998 27.8453 211.998 28.172C211.998 28.4987 211.881 28.774 211.648 28.998C211.424 29.2127 211.139 29.32 210.794 29.32ZM211.76 30.244V38H209.8V30.244H211.76ZM220.906 33.954C220.906 34.234 220.888 34.486 220.85 34.71H215.18C215.227 35.27 215.423 35.7087 215.768 36.026C216.114 36.3433 216.538 36.502 217.042 36.502C217.77 36.502 218.288 36.1893 218.596 35.564H220.71C220.486 36.3107 220.057 36.9267 219.422 37.412C218.788 37.888 218.008 38.126 217.084 38.126C216.338 38.126 215.666 37.9627 215.068 37.636C214.48 37.3 214.018 36.8287 213.682 36.222C213.356 35.6153 213.192 34.9153 213.192 34.122C213.192 33.3193 213.356 32.6147 213.682 32.008C214.009 31.4013 214.466 30.9347 215.054 30.608C215.642 30.2813 216.319 30.118 217.084 30.118C217.822 30.118 218.48 30.2767 219.058 30.594C219.646 30.9113 220.099 31.364 220.416 31.952C220.743 32.5307 220.906 33.198 220.906 33.954ZM218.876 33.394C218.867 32.89 218.685 32.4887 218.33 32.19C217.976 31.882 217.542 31.728 217.028 31.728C216.543 31.728 216.132 31.8773 215.796 32.176C215.47 32.4653 215.269 32.8713 215.194 33.394H218.876ZM225.305 38.126C224.67 38.126 224.101 38.014 223.597 37.79C223.093 37.5567 222.692 37.244 222.393 36.852C222.104 36.46 221.945 36.026 221.917 35.55H223.891C223.928 35.8487 224.073 36.096 224.325 36.292C224.586 36.488 224.908 36.586 225.291 36.586C225.664 36.586 225.954 36.5113 226.159 36.362C226.374 36.2127 226.481 36.0213 226.481 35.788C226.481 35.536 226.35 35.3493 226.089 35.228C225.837 35.0973 225.431 34.9573 224.871 34.808C224.292 34.668 223.816 34.5233 223.443 34.374C223.079 34.2247 222.762 33.996 222.491 33.688C222.23 33.38 222.099 32.9647 222.099 32.442C222.099 32.0127 222.22 31.6207 222.463 31.266C222.715 30.9113 223.07 30.6313 223.527 30.426C223.994 30.2207 224.54 30.118 225.165 30.118C226.089 30.118 226.826 30.3513 227.377 30.818C227.928 31.2753 228.231 31.896 228.287 32.68H226.411C226.383 32.372 226.252 32.1293 226.019 31.952C225.795 31.7653 225.492 31.672 225.109 31.672C224.754 31.672 224.479 31.7373 224.283 31.868C224.096 31.9987 224.003 32.1807 224.003 32.414C224.003 32.6753 224.134 32.876 224.395 33.016C224.656 33.1467 225.062 33.282 225.613 33.422C226.173 33.562 226.635 33.7067 226.999 33.856C227.363 34.0053 227.676 34.2387 227.937 34.556C228.208 34.864 228.348 35.2747 228.357 35.788C228.357 36.236 228.231 36.6373 227.979 36.992C227.736 37.3467 227.382 37.6267 226.915 37.832C226.458 38.028 225.921 38.126 225.305 38.126Z" fill="#393E38"/>
<path d="M98.3558 44.616C100.132 44.616 101.676 44.952 102.988 45.624C104.3 46.296 105.308 47.24 106.012 48.456C106.716 49.656 107.068 51.048 107.068 52.632C107.068 53.896 106.86 55.112 106.444 56.28C106.028 57.432 105.42 58.368 104.62 59.088C103.836 59.808 102.916 60.168 101.86 60.168C101.06 60.168 100.444 59.968 100.012 59.568C99.5798 59.168 99.3318 58.624 99.2678 57.936C98.7718 58.624 98.1398 59.168 97.3718 59.568C96.6198 59.968 95.8198 60.168 94.9718 60.168C93.7558 60.168 92.7958 59.8 92.0918 59.064C91.4038 58.312 91.0598 57.304 91.0598 56.04C91.0598 54.84 91.3078 53.72 91.8038 52.68C92.3158 51.64 93.0198 50.808 93.9158 50.184C94.8118 49.544 95.8278 49.224 96.9638 49.224C98.4838 49.224 99.5078 49.8 100.036 50.952L100.3 49.464H102.196L100.996 56.4C100.948 56.704 100.924 56.984 100.924 57.24C100.924 58.2 101.348 58.68 102.196 58.68C102.836 58.68 103.388 58.376 103.852 57.768C104.332 57.16 104.692 56.4 104.932 55.488C105.172 54.56 105.292 53.648 105.292 52.752C105.292 50.656 104.66 49.032 103.396 47.88C102.148 46.728 100.38 46.152 98.0918 46.152C96.1878 46.152 94.4678 46.616 92.9318 47.544C91.4118 48.456 90.2198 49.712 89.3558 51.312C88.4918 52.912 88.0598 54.68 88.0598 56.616C88.0438 58.728 88.6758 60.352 89.9558 61.488C91.2358 62.64 93.0118 63.216 95.2838 63.216C96.7878 63.216 98.1158 62.944 99.2678 62.4L99.5558 63.888C98.1318 64.48 96.5638 64.776 94.8518 64.776C93.1398 64.776 91.6278 64.448 90.3158 63.792C89.0198 63.152 88.0118 62.224 87.2918 61.008C86.5878 59.808 86.2358 58.408 86.2358 56.808C86.2358 54.552 86.7558 52.496 87.7958 50.64C88.8358 48.768 90.2758 47.296 92.1158 46.224C93.9718 45.152 96.0518 44.616 98.3558 44.616ZM95.6198 58.464C96.3398 58.464 97.0038 58.256 97.6118 57.84C98.2198 57.408 98.6998 56.832 99.0518 56.112C99.4038 55.376 99.5798 54.576 99.5798 53.712C99.5798 52.88 99.3478 52.208 98.8838 51.696C98.4358 51.168 97.7958 50.904 96.9638 50.904C96.1958 50.904 95.5158 51.136 94.9238 51.6C94.3478 52.048 93.8998 52.648 93.5798 53.4C93.2598 54.136 93.0998 54.904 93.0998 55.704C93.0998 56.552 93.3158 57.224 93.7478 57.72C94.1798 58.216 94.8038 58.464 95.6198 58.464ZM113.325 48.648V56.4C113.325 57.04 113.461 57.496 113.733 57.768C114.005 58.024 114.477 58.152 115.148 58.152H116.757V60H114.789C113.573 60 112.661 59.72 112.053 59.16C111.445 58.6 111.141 57.68 111.141 56.4V48.648H109.437V46.848H111.141V43.536H113.325V46.848H116.757V48.648H113.325ZM118.587 53.376C118.587 52.032 118.859 50.856 119.403 49.848C119.947 48.824 120.691 48.032 121.635 47.472C122.595 46.912 123.659 46.632 124.827 46.632C125.979 46.632 126.979 46.88 127.827 47.376C128.675 47.872 129.307 48.496 129.723 49.248V46.848H131.931V60H129.723V57.552C129.291 58.32 128.643 58.96 127.779 59.472C126.931 59.968 125.939 60.216 124.803 60.216C123.635 60.216 122.579 59.928 121.635 59.352C120.691 58.776 119.947 57.968 119.403 56.928C118.859 55.888 118.587 54.704 118.587 53.376ZM129.723 53.4C129.723 52.408 129.523 51.544 129.123 50.808C128.723 50.072 128.179 49.512 127.491 49.128C126.819 48.728 126.075 48.528 125.259 48.528C124.443 48.528 123.699 48.72 123.027 49.104C122.355 49.488 121.819 50.048 121.419 50.784C121.019 51.52 120.819 52.384 120.819 53.376C120.819 54.384 121.019 55.264 121.419 56.016C121.819 56.752 122.355 57.32 123.027 57.72C123.699 58.104 124.443 58.296 125.259 58.296C126.075 58.296 126.819 58.104 127.491 57.72C128.179 57.32 128.723 56.752 129.123 56.016C129.523 55.264 129.723 54.392 129.723 53.4ZM138.285 48.648V56.4C138.285 57.04 138.421 57.496 138.693 57.768C138.965 58.024 139.437 58.152 140.109 58.152H141.717V60H139.749C138.533 60 137.621 59.72 137.013 59.16C136.405 58.6 136.101 57.68 136.101 56.4V48.648H134.397V46.848H136.101V43.536H138.285V46.848H141.717V48.648H138.285ZM150.1 60.216C148.868 60.216 147.748 59.936 146.74 59.376C145.748 58.816 144.964 58.024 144.388 57C143.828 55.96 143.548 54.76 143.548 53.4C143.548 52.056 143.836 50.872 144.412 49.848C145.004 48.808 145.804 48.016 146.812 47.472C147.82 46.912 148.948 46.632 150.196 46.632C151.444 46.632 152.572 46.912 153.58 47.472C154.588 48.016 155.38 48.8 155.956 49.824C156.548 50.848 156.844 52.04 156.844 53.4C156.844 54.76 156.54 55.96 155.932 57C155.34 58.024 154.532 58.816 153.508 59.376C152.484 59.936 151.348 60.216 150.1 60.216ZM150.1 58.296C150.884 58.296 151.62 58.112 152.308 57.744C152.996 57.376 153.548 56.824 153.964 56.088C154.396 55.352 154.612 54.456 154.612 53.4C154.612 52.344 154.404 51.448 153.988 50.712C153.572 49.976 153.028 49.432 152.356 49.08C151.684 48.712 150.956 48.528 150.172 48.528C149.372 48.528 148.636 48.712 147.964 49.08C147.308 49.432 146.78 49.976 146.38 50.712C145.98 51.448 145.78 52.344 145.78 53.4C145.78 54.472 145.972 55.376 146.356 56.112C146.756 56.848 147.284 57.4 147.94 57.768C148.596 58.12 149.316 58.296 150.1 58.296ZM164.371 60.216C163.363 60.216 162.459 60.048 161.659 59.712C160.859 59.36 160.227 58.88 159.763 58.272C159.299 57.648 159.043 56.936 158.995 56.136H161.251C161.315 56.792 161.619 57.328 162.163 57.744C162.723 58.16 163.451 58.368 164.347 58.368C165.179 58.368 165.835 58.184 166.315 57.816C166.795 57.448 167.035 56.984 167.035 56.424C167.035 55.848 166.779 55.424 166.267 55.152C165.755 54.864 164.963 54.584 163.891 54.312C162.915 54.056 162.115 53.8 161.491 53.544C160.883 53.272 160.355 52.88 159.907 52.368C159.475 51.84 159.259 51.152 159.259 50.304C159.259 49.632 159.459 49.016 159.859 48.456C160.259 47.896 160.827 47.456 161.563 47.136C162.299 46.8 163.139 46.632 164.083 46.632C165.539 46.632 166.715 47 167.611 47.736C168.507 48.472 168.987 49.48 169.051 50.76H166.867C166.819 50.072 166.539 49.52 166.027 49.104C165.531 48.688 164.859 48.48 164.011 48.48C163.227 48.48 162.603 48.648 162.139 48.984C161.675 49.32 161.443 49.76 161.443 50.304C161.443 50.736 161.579 51.096 161.851 51.384C162.139 51.656 162.491 51.88 162.907 52.056C163.339 52.216 163.931 52.4 164.683 52.608C165.627 52.864 166.395 53.12 166.987 53.376C167.579 53.616 168.083 53.984 168.499 54.48C168.931 54.976 169.155 55.624 169.171 56.424C169.171 57.144 168.971 57.792 168.571 58.368C168.171 58.944 167.603 59.4 166.867 59.736C166.147 60.056 165.315 60.216 164.371 60.216ZM172.95 60.144C172.534 60.144 172.182 60 171.894 59.712C171.606 59.424 171.462 59.072 171.462 58.656C171.462 58.24 171.606 57.888 171.894 57.6C172.182 57.312 172.534 57.168 172.95 57.168C173.35 57.168 173.686 57.312 173.958 57.6C174.246 57.888 174.39 58.24 174.39 58.656C174.39 59.072 174.246 59.424 173.958 59.712C173.686 60 173.35 60.144 172.95 60.144ZM179.957 48.648V56.4C179.957 57.04 180.093 57.496 180.365 57.768C180.637 58.024 181.109 58.152 181.781 58.152H183.389V60H181.421C180.205 60 179.293 59.72 178.685 59.16C178.077 58.6 177.773 57.68 177.773 56.4V48.648H176.069V46.848H177.773V43.536H179.957V46.848H183.389V48.648H179.957ZM198.036 52.92C198.036 53.336 198.012 53.776 197.964 54.24H187.452C187.532 55.536 187.972 56.552 188.772 57.288C189.588 58.008 190.572 58.368 191.724 58.368C192.668 58.368 193.452 58.152 194.076 57.72C194.716 57.272 195.164 56.68 195.42 55.944H197.772C197.42 57.208 196.716 58.24 195.66 59.04C194.604 59.824 193.292 60.216 191.724 60.216C190.476 60.216 189.356 59.936 188.364 59.376C187.388 58.816 186.62 58.024 186.06 57C185.5 55.96 185.22 54.76 185.22 53.4C185.22 52.04 185.492 50.848 186.036 49.824C186.58 48.8 187.34 48.016 188.316 47.472C189.308 46.912 190.444 46.632 191.724 46.632C192.972 46.632 194.076 46.904 195.036 47.448C195.996 47.992 196.732 48.744 197.244 49.704C197.772 50.648 198.036 51.72 198.036 52.92ZM195.78 52.464C195.78 51.632 195.596 50.92 195.228 50.328C194.86 49.72 194.356 49.264 193.716 48.96C193.092 48.64 192.396 48.48 191.628 48.48C190.524 48.48 189.58 48.832 188.796 49.536C188.028 50.24 187.588 51.216 187.476 52.464H195.78ZM200.102 53.4C200.102 52.04 200.374 50.856 200.918 49.848C201.462 48.824 202.214 48.032 203.174 47.472C204.15 46.912 205.262 46.632 206.51 46.632C208.126 46.632 209.454 47.024 210.494 47.808C211.55 48.592 212.246 49.68 212.582 51.072H210.23C210.006 50.272 209.566 49.64 208.91 49.176C208.27 48.712 207.47 48.48 206.51 48.48C205.262 48.48 204.254 48.912 203.486 49.776C202.718 50.624 202.334 51.832 202.334 53.4C202.334 54.984 202.718 56.208 203.486 57.072C204.254 57.936 205.262 58.368 206.51 58.368C207.47 58.368 208.27 58.144 208.91 57.696C209.55 57.248 209.99 56.608 210.23 55.776H212.582C212.23 57.12 211.526 58.2 210.47 59.016C209.414 59.816 208.094 60.216 206.51 60.216C205.262 60.216 204.15 59.936 203.174 59.376C202.214 58.816 201.462 58.024 200.918 57C200.374 55.976 200.102 54.776 200.102 53.4ZM222.024 46.608C223.016 46.608 223.912 46.824 224.712 47.256C225.512 47.672 226.136 48.304 226.584 49.152C227.048 50 227.28 51.032 227.28 52.248V60H225.12V52.56C225.12 51.248 224.792 50.248 224.136 49.56C223.48 48.856 222.584 48.504 221.448 48.504C220.296 48.504 219.376 48.864 218.688 49.584C218.016 50.304 217.68 51.352 217.68 52.728V60H215.496V42.24H217.68V48.72C218.112 48.048 218.704 47.528 219.456 47.16C220.224 46.792 221.08 46.608 222.024 46.608Z" fill="#393E38"/>
<path d="M510.027 45.3386H507.202V41.7417H503.038V45.3386H500.985V48.4664H503.038V56.2859C503.018 59.228 505.022 60.6844 508.042 60.5573C509.118 60.5182 509.88 60.3032 510.3 60.1663L509.645 57.0679C509.44 57.107 509 57.2047 508.609 57.2047C507.779 57.2047 507.202 56.8919 507.202 55.7386V48.4664H510.027V45.3386ZM519.42 60.6453C523.134 60.6453 525.636 58.837 526.223 56.0513L522.372 55.7972C521.951 56.9408 520.876 57.537 519.488 57.537C517.406 57.537 516.087 56.1589 516.087 53.9205V53.9108H526.311V52.7672C526.311 47.6649 523.222 45.1432 519.254 45.1432C514.836 45.1432 511.972 48.2807 511.972 52.9138C511.972 57.6739 514.797 60.6453 519.42 60.6453ZM516.087 51.3303C516.175 49.6198 517.475 48.2514 519.322 48.2514C521.13 48.2514 522.381 49.5416 522.391 51.3303H516.087ZM535.811 60.6453C539.809 60.6453 542.321 58.2994 542.517 54.8491H538.587C538.343 56.4521 537.287 57.3513 535.86 57.3513C533.915 57.3513 532.654 55.719 532.654 52.8453C532.654 50.0108 533.925 48.3882 535.86 48.3882C537.385 48.3882 538.363 49.395 538.587 50.8905H542.517C542.341 47.4206 539.711 45.1432 535.792 45.1432C531.237 45.1432 528.422 48.3003 528.422 52.904C528.422 57.4686 531.188 60.6453 535.811 60.6453ZM549.346 51.6724C549.356 49.7371 550.539 48.6033 552.24 48.6033C553.931 48.6033 554.928 49.6882 554.918 51.5356V60.3521H559.082V50.7927C559.092 47.274 557.019 45.1432 553.892 45.1432C551.614 45.1432 550.089 46.2183 549.405 47.9875H549.229V40.3342H545.183V60.3521H549.346V51.6724Z" fill="#2B2B2B"/>
<path d="M562.985 57.2126C562.758 54.4171 562.495 51.6396 562.196 48.88C561.909 46.1203 561.485 43.3667 560.924 40.619C560.9 40.5234 560.888 40.4398 560.888 40.3681C560.888 40.2845 560.888 40.2069 560.888 40.1352C560.888 39.8604 560.942 39.6215 561.049 39.4184C561.169 39.2153 561.324 39.0481 561.515 38.9166C561.706 38.7733 561.921 38.6658 562.16 38.5941C562.411 38.5224 562.674 38.4866 562.949 38.4866C563.678 38.4866 564.179 38.827 564.454 39.508C564.574 39.8544 564.693 40.3502 564.812 40.9953C564.944 41.6404 565.075 42.3871 565.207 43.2353C565.35 44.0835 565.487 45.0153 565.619 46.0307C565.75 47.0342 565.876 48.0676 565.995 49.1308C566.031 49.4295 566.127 49.5788 566.282 49.5788C566.413 49.5788 566.551 49.4892 566.694 49.31C568.438 47.0163 570.505 45.8695 572.894 45.8695C573.79 45.8695 574.626 46.0666 575.403 46.4608C576.179 46.8551 576.854 47.3926 577.428 48.0736C578.001 48.7545 578.449 49.5609 578.772 50.4927C579.106 51.4246 579.274 52.4281 579.274 53.5032C579.274 54.5067 579.112 55.4386 578.79 56.2987C578.479 57.1589 578.043 57.8995 577.482 58.5207C576.92 59.142 576.251 59.6318 575.475 59.9902C574.71 60.3366 573.874 60.5098 572.966 60.5098C571.843 60.5098 570.744 60.2948 569.669 59.8647C568.593 59.4227 567.578 58.8314 566.622 58.0907C566.515 57.9951 566.401 57.9473 566.282 57.9473C566.127 57.9473 565.983 58.0309 565.852 58.1982C565.661 58.4132 565.458 58.5566 565.243 58.6283C565.027 58.688 564.765 58.7179 564.454 58.7179C563.51 58.7179 563.02 58.2161 562.985 57.2126ZM572.267 49.2025C571.789 49.2025 571.311 49.316 570.833 49.543C570.368 49.758 569.926 50.0686 569.507 50.4748C569.089 50.881 568.701 51.3708 568.343 51.9442C567.996 52.5057 567.703 53.1329 567.465 53.8258C567.441 53.8616 567.423 53.9154 567.411 53.9871C567.399 54.0588 567.393 54.1185 567.393 54.1663C567.393 54.3694 567.465 54.5247 567.608 54.6322C568.038 55.0025 568.48 55.349 568.934 55.6715C569.4 55.9941 569.86 56.2748 570.314 56.5137C570.768 56.7527 571.216 56.9438 571.658 57.0872C572.1 57.2186 572.512 57.2843 572.894 57.2843C573.754 57.2843 574.405 57.0334 574.847 56.5317C575.301 56.0299 575.528 55.3012 575.528 54.3455C575.528 53.6048 575.445 52.9238 575.278 52.3026C575.11 51.6695 574.883 51.1259 574.597 50.6719C574.31 50.206 573.963 49.8476 573.557 49.5968C573.163 49.3339 572.733 49.2025 572.267 49.2025ZM592.91 45.6903C593.568 45.6903 594.201 45.7918 594.81 45.9949C595.419 46.198 595.957 46.4787 596.423 46.8371C596.889 47.1955 597.259 47.6256 597.534 48.1273C597.82 48.6291 597.964 49.1846 597.964 49.7939C597.964 50.0448 597.904 50.2897 597.785 50.5286C597.677 50.7556 597.528 50.9587 597.337 51.1378C597.145 51.3051 596.924 51.4425 596.674 51.55C596.435 51.6456 596.184 51.6934 595.921 51.6934C595.897 51.6934 595.873 51.6993 595.849 51.7113C595.837 51.7113 595.819 51.7113 595.796 51.7113C595.772 51.7232 595.748 51.7292 595.724 51.7292L595.796 53.1628C595.843 54.8711 596.082 56.1195 596.512 56.908C596.954 57.6964 597.528 58.0907 598.233 58.0907C598.483 58.0907 598.704 58.0668 598.896 58.019C599.099 57.9712 599.284 57.9175 599.451 57.8577C599.63 57.786 599.798 57.7263 599.953 57.6785C600.108 57.6307 600.263 57.6068 600.419 57.6068C600.694 57.6068 600.932 57.7263 601.136 57.9652C601.351 58.2042 601.458 58.4909 601.458 58.8254C601.458 59.1599 601.327 59.4944 601.064 59.8289C600.813 60.1634 600.479 60.468 600.06 60.7428C599.642 61.0056 599.17 61.2206 598.645 61.3879C598.119 61.5551 597.587 61.6388 597.05 61.6388C596.118 61.6388 595.3 61.2565 594.595 60.4919C593.89 59.7154 593.388 58.5805 593.09 57.0872C593.018 56.8482 592.922 56.7288 592.803 56.7288C592.66 56.7288 592.534 56.8005 592.427 56.9438C591.244 58.4371 589.984 59.5601 588.646 60.3127C587.308 61.0534 585.987 61.4237 584.685 61.4237C584.076 61.4237 583.527 61.3341 583.037 61.1549C582.547 60.9757 582.129 60.7249 581.782 60.4023C581.448 60.0678 581.185 59.6676 580.994 59.2017C580.815 58.7238 580.725 58.1922 580.725 57.6068C580.725 56.7825 580.904 55.9164 581.263 55.0085C581.633 54.1006 582.129 53.2046 582.75 52.3205C583.371 51.4365 584.088 50.5943 584.9 49.7939C585.725 48.9935 586.585 48.2886 587.481 47.6794C588.389 47.0701 589.309 46.5863 590.24 46.2279C591.172 45.8695 592.062 45.6903 592.91 45.6903ZM592.319 51.8905C592.534 51.4843 592.731 51.1916 592.91 51.0124C593.09 50.8213 593.346 50.6958 593.681 50.6361C593.944 50.6003 594.075 50.5166 594.075 50.3852C594.075 50.2897 594.039 50.1881 593.968 50.0806C593.741 49.77 593.502 49.5012 593.251 49.2742C593 49.0353 592.666 48.9158 592.247 48.9158C591.793 48.9158 591.286 49.0472 590.724 49.31C590.163 49.5729 589.589 49.9253 589.004 50.3673C588.431 50.7974 587.863 51.2932 587.302 51.8546C586.752 52.4042 586.262 52.9716 585.832 53.557C585.402 54.1424 585.056 54.7218 584.793 55.2952C584.53 55.8686 584.399 56.3823 584.399 56.8363C584.399 57.2425 584.506 57.5591 584.721 57.786C584.948 58.013 585.253 58.1265 585.635 58.1265C586.615 58.1265 587.684 57.6068 588.843 56.5675C590.001 55.5282 591.16 53.9692 592.319 51.8905ZM601.082 40.9416C601.082 40.3204 601.261 39.8783 601.619 39.6155C601.978 39.3527 602.569 39.2213 603.393 39.2213C603.68 39.2213 603.931 39.2511 604.146 39.3109C604.361 39.3706 604.54 39.4722 604.684 39.6155C604.827 39.7469 604.941 39.9321 605.024 40.171C605.12 40.398 605.197 40.6907 605.257 41.0491C605.412 42.1123 605.568 43.2293 605.723 44.4001C605.89 45.5589 606.046 46.7177 606.189 47.8765C606.344 49.0233 606.488 50.1463 606.619 51.2454C606.75 52.3325 606.864 53.3479 606.959 54.2917C607.067 55.2235 607.145 56.0538 607.192 56.7825C607.252 57.4993 607.282 58.0668 607.282 58.4849C607.282 58.915 607.24 59.2793 607.157 59.578C607.085 59.8767 606.953 60.1156 606.762 60.2948C606.583 60.474 606.344 60.6054 606.046 60.689C605.759 60.7607 605.4 60.7965 604.97 60.7965C604.552 60.7965 604.218 60.689 603.967 60.474C603.728 60.259 603.608 59.9304 603.608 59.4884C603.608 59.0344 603.573 58.4311 603.501 57.6785C603.429 56.914 603.334 56.0658 603.214 55.1339C603.095 54.2021 602.957 53.2106 602.802 52.1593C602.659 51.108 602.503 50.0686 602.336 49.0412C602.181 48.0139 602.026 47.0283 601.87 46.0845C601.727 45.1288 601.596 44.2866 601.476 43.5578C601.357 42.8172 601.261 42.2139 601.189 41.748C601.118 41.2701 601.082 41.0013 601.082 40.9416ZM609.181 40.9416C609.181 40.3204 609.361 39.8783 609.719 39.6155C610.077 39.3527 610.669 39.2213 611.493 39.2213C611.78 39.2213 612.031 39.2511 612.246 39.3109C612.461 39.3706 612.64 39.4722 612.783 39.6155C612.927 39.7469 613.04 39.9321 613.124 40.171C613.219 40.398 613.297 40.6907 613.357 41.0491C613.512 42.1123 613.667 43.2293 613.823 44.4001C613.99 45.5589 614.145 46.7177 614.289 47.8765C614.444 49.0233 614.587 50.1463 614.719 51.2454C614.85 52.3325 614.964 53.3479 615.059 54.2917C615.167 55.2235 615.244 56.0538 615.292 56.7825C615.352 57.4993 615.382 58.0668 615.382 58.4849C615.382 58.915 615.34 59.2793 615.256 59.578C615.185 59.8767 615.053 60.1156 614.862 60.2948C614.683 60.474 614.444 60.6054 614.145 60.689C613.859 60.7607 613.5 60.7965 613.07 60.7965C612.652 60.7965 612.317 60.689 612.067 60.474C611.828 60.259 611.708 59.9304 611.708 59.4884C611.708 59.0344 611.672 58.4311 611.601 57.6785C611.529 56.914 611.433 56.0658 611.314 55.1339C611.194 54.2021 611.057 53.2106 610.902 52.1593C610.758 51.108 610.603 50.0686 610.436 49.0412C610.281 48.0139 610.125 47.0283 609.97 46.0845C609.827 45.1288 609.695 44.2866 609.576 43.5578C609.456 42.8172 609.361 42.2139 609.289 41.748C609.217 41.2701 609.181 41.0013 609.181 40.9416ZM618.482 55.4027C618.482 55.1996 618.506 54.9727 618.553 54.7218C618.601 54.4709 618.625 54.1961 618.625 53.8975C618.625 53.6944 618.536 53.5391 618.356 53.4316C618.189 53.324 617.998 53.2046 617.783 53.0732C617.568 52.9418 617.371 52.7745 617.192 52.5714C617.024 52.3683 616.941 52.0756 616.941 51.6934C616.941 51.4186 617.012 51.1438 617.156 50.8691C617.311 50.5943 617.532 50.3434 617.819 50.1164C618.524 49.5908 619.252 49.1189 620.005 48.7008C620.77 48.2827 621.528 47.9302 622.281 47.6435C623.045 47.3568 623.798 47.1358 624.539 46.9805C625.279 46.8252 625.99 46.7475 626.671 46.7475C627.818 46.7475 628.893 46.9626 629.897 47.3926C630.912 47.8108 631.79 48.3902 632.531 49.1308C633.283 49.8596 633.875 50.7197 634.305 51.7113C634.747 52.6909 634.968 53.7422 634.968 54.8651C634.968 55.9642 634.735 57.0095 634.269 58.0011C633.815 58.9807 633.2 59.8408 632.423 60.5815C631.647 61.3222 630.733 61.9076 629.682 62.3376C628.642 62.7796 627.543 63.0007 626.384 63.0007C625.249 63.0007 624.198 62.8095 623.231 62.4272C622.263 62.0449 621.427 61.5193 620.722 60.8503C620.017 60.1694 619.467 59.3689 619.073 58.4491C618.679 57.5172 618.482 56.5018 618.482 55.4027ZM626.779 59.7751C627.28 59.7751 627.8 59.6736 628.338 59.4705C628.875 59.2674 629.365 58.9747 629.807 58.5924C630.261 58.1982 630.631 57.7203 630.918 57.1589C631.217 56.5974 631.366 55.9642 631.366 55.2594C631.366 54.5426 631.235 53.8736 630.972 53.2524C630.709 52.6312 630.345 52.0936 629.879 51.6396C629.425 51.1737 628.881 50.8093 628.248 50.5465C627.627 50.2837 626.952 50.1523 626.223 50.1523C624.897 50.1523 623.882 50.4987 623.177 51.1916C622.472 51.8726 622.119 52.9238 622.119 54.3455C622.119 55.122 622.233 55.8447 622.46 56.5137C622.699 57.1708 623.027 57.7442 623.446 58.234C623.864 58.7119 624.353 59.0882 624.915 59.363C625.488 59.6377 626.11 59.7751 626.779 59.7751ZM638.982 40.6549C638.982 40.0217 639.161 39.5797 639.519 39.3288C639.878 39.066 640.469 38.9346 641.294 38.9346C641.592 38.9346 641.843 38.9644 642.046 39.0242C642.261 39.0719 642.44 39.1675 642.584 39.3109C642.739 39.4542 642.858 39.6454 642.942 39.8843C643.038 40.1113 643.115 40.404 643.175 40.7624C643.318 41.8734 643.474 43.0202 643.641 44.2029C643.82 45.3856 644.005 46.5743 644.196 47.769C644.268 48.3065 644.549 48.5753 645.039 48.5753C645.17 48.5753 645.385 48.5634 645.684 48.5395C645.994 48.5037 646.359 48.4678 646.777 48.432C647.195 48.3842 647.643 48.3364 648.121 48.2886C648.611 48.2408 649.095 48.199 649.572 48.1632C650.062 48.1154 650.522 48.0796 650.952 48.0557C651.394 48.0198 651.782 48.0019 652.117 48.0019C652.38 48.0019 652.589 48.0557 652.744 48.1632C652.899 48.2588 653.019 48.3902 653.103 48.5574C653.198 48.7127 653.258 48.8919 653.282 49.095C653.318 49.2862 653.336 49.4833 653.336 49.6864C653.336 49.8656 653.3 50.0507 653.228 50.2419C653.168 50.433 653.079 50.6062 652.959 50.7615C652.852 50.9049 652.714 51.0244 652.547 51.1199C652.38 51.2155 652.189 51.2633 651.974 51.2633C650.934 51.2633 649.883 51.2991 648.82 51.3708C647.768 51.4305 646.717 51.5142 645.666 51.6217C645.128 51.6934 644.86 51.9622 644.86 52.4281C644.86 52.4639 644.865 52.5117 644.877 52.5714C644.889 52.6192 644.895 52.661 644.895 52.6969C645.039 53.7362 645.17 54.7098 645.29 55.6178C645.421 56.5257 645.529 57.338 645.612 58.0548C645.708 58.7597 645.779 59.351 645.827 59.8289C645.887 60.2948 645.917 60.6054 645.917 60.7607C645.917 61.1908 645.875 61.5492 645.791 61.8359C645.708 62.1345 645.57 62.3735 645.379 62.5527C645.188 62.7438 644.931 62.8752 644.609 62.9469C644.298 63.0305 643.904 63.0723 643.426 63.0723C642.972 63.0723 642.637 62.9648 642.422 62.7498C642.207 62.5347 642.088 62.2062 642.064 61.7642C641.992 60.3545 641.879 58.9389 641.724 57.5172C641.568 56.0837 641.389 54.6561 641.186 53.2344C641.078 52.7208 640.81 52.4639 640.38 52.4639C640.344 52.4639 640.302 52.4699 640.254 52.4818C640.206 52.4938 640.165 52.4997 640.129 52.4997C639.388 52.667 638.689 52.8342 638.032 53.0015C637.375 53.1687 636.76 53.3479 636.186 53.5391C635.864 53.6466 635.577 53.7243 635.326 53.772C635.075 53.8079 634.848 53.8258 634.645 53.8258C634.371 53.8258 634.167 53.7063 634.036 53.4674C633.905 53.2165 633.839 52.9059 633.839 52.5356C633.839 52.4042 633.851 52.2548 633.875 52.0876C633.899 51.9084 633.946 51.7352 634.018 51.5679C634.078 51.3887 634.173 51.2274 634.305 51.0841C634.424 50.9288 634.592 50.8033 634.807 50.7078C635.308 50.5047 635.977 50.2956 636.814 50.0806C637.65 49.8536 638.594 49.6445 639.645 49.4534C639.884 49.3937 640.069 49.2981 640.2 49.1667C640.344 49.0233 640.415 48.8143 640.415 48.5395C640.415 48.4798 640.415 48.42 640.415 48.3603C640.415 48.2886 640.404 48.2169 640.38 48.1453C640.188 47.0462 640.003 46.0487 639.824 45.1527C639.657 44.2448 639.508 43.4682 639.376 42.8231C639.257 42.178 639.161 41.6703 639.089 41.3C639.018 40.9296 638.982 40.7146 638.982 40.6549Z" fill="#F7CA31"/>
<path d="M503.226 38.3535V30.1573H500.379V28.2593H508.144V30.1573H505.297V38.3535H503.226Z" fill="#2B2B2B"/>
<path d="M507.508 38.3535L511.476 28.2593H513.72L517.688 38.3535H515.531L514.669 36.1103H510.355L509.492 38.3535H507.508ZM511.045 34.3848H514.065L512.512 30.3299L511.045 34.3848Z" fill="#2B2B2B"/>
<path d="M520.395 38.3535V30.1573H517.548V28.2593H525.313V30.1573H522.466V38.3535H520.395Z" fill="#2B2B2B"/>
<path d="M531.18 38.6118C530.576 38.6118 530.058 38.5256 529.454 38.353C528.85 38.1805 528.419 37.9216 527.987 37.6628C527.556 37.3177 527.211 36.9726 526.866 36.5412C526.521 36.1099 526.348 35.5922 526.176 35.0746C526.003 34.5569 525.917 33.953 525.917 33.3491C525.917 32.7451 526.003 32.1412 526.176 31.6236C526.348 31.1059 526.607 30.5883 526.866 30.1569C527.211 29.7255 527.556 29.3804 527.987 29.0353C528.419 28.6902 528.936 28.4314 529.454 28.2588C529.972 28.0863 530.576 28 531.18 28C531.783 28 532.301 28.0863 532.905 28.2588C533.423 28.4314 533.94 28.6902 534.372 28.949C534.803 29.2941 535.148 29.6392 535.493 30.0706C535.838 30.502 536.011 31.0196 536.183 31.5373C536.356 32.0549 536.442 32.6589 536.442 33.2628C536.442 33.8667 536.356 34.4706 536.183 34.9883C536.011 35.5059 535.752 36.0236 535.493 36.455C535.148 36.8863 534.803 37.2314 534.372 37.5765C533.94 37.9216 533.423 38.1805 532.905 38.353C532.387 38.5256 531.783 38.6118 531.18 38.6118ZM531.266 36.7138C531.697 36.7138 532.129 36.6275 532.474 36.455C532.819 36.2824 533.164 36.0236 533.423 35.7648C533.682 35.4197 533.94 35.0746 534.027 34.7295C534.199 34.2981 534.285 33.8667 534.285 33.3491C534.285 32.8314 534.199 32.4 534.027 31.9687C533.854 31.5373 533.682 31.1922 533.423 30.9334C533.164 30.5883 532.819 30.4157 532.474 30.2432C532.129 30.0706 531.697 29.9843 531.266 29.9843C530.834 29.9843 530.403 30.0706 530.058 30.2432C529.713 30.4157 529.368 30.6745 529.109 30.9334C528.85 31.2785 528.591 31.6236 528.505 31.9687C528.332 32.4 528.246 32.8314 528.246 33.3491C528.246 33.8667 528.332 34.2981 528.505 34.7295C528.678 35.1608 528.85 35.5059 529.109 35.7648C529.368 36.1099 529.713 36.2824 530.058 36.455C530.403 36.6275 530.748 36.7138 531.266 36.7138Z" fill="#2B2B2B"/>
<path d="M541.101 38.5256C540.497 38.5256 539.98 38.4393 539.462 38.1805C538.944 38.0079 538.513 37.6628 538.168 37.2314C537.823 36.8001 537.564 36.3687 537.478 35.851L539.462 35.4197C539.548 35.851 539.807 36.1099 540.066 36.3687C540.411 36.6275 540.756 36.7138 541.187 36.7138C541.532 36.7138 541.791 36.6275 541.964 36.5412C542.136 36.455 542.395 36.2824 542.481 36.1099C542.568 35.9373 542.654 35.6785 542.654 35.4197C542.654 35.0746 542.568 34.8157 542.309 34.6432C542.05 34.4706 541.705 34.2981 541.187 34.1255L540.756 34.0393C539.721 33.7804 538.944 33.4353 538.427 32.9177C537.909 32.4 537.65 31.7961 537.65 31.1059C537.65 30.6745 537.736 30.2432 537.909 29.8981C538.081 29.553 538.34 29.2079 538.685 28.949C539.03 28.6902 539.376 28.4314 539.807 28.2588C540.238 28.0863 540.67 28 541.187 28C541.705 28 542.309 28.0863 542.74 28.3451C543.258 28.5177 543.603 28.8628 543.948 29.2079C544.293 29.6392 544.466 30.0706 544.638 30.5883L542.654 31.0196C542.568 30.6745 542.309 30.3294 542.05 30.1569C541.791 29.9843 541.446 29.8118 541.101 29.8118C540.842 29.8118 540.583 29.8981 540.411 29.9843C540.238 30.0706 540.066 30.2432 539.893 30.4157C539.807 30.5883 539.721 30.7608 539.721 31.0196C539.721 31.3647 539.807 31.6236 540.066 31.7961C540.325 31.9687 540.67 32.1412 541.187 32.2275L541.619 32.3138C542.654 32.5726 543.431 32.9177 543.948 33.4353C544.466 33.953 544.725 34.5569 544.725 35.3334C544.725 35.851 544.638 36.2824 544.466 36.6275C544.293 37.0589 544.034 37.404 543.689 37.6628C543.344 37.9216 542.999 38.1805 542.568 38.353C542.05 38.4393 541.619 38.5256 541.101 38.5256Z" fill="#2B2B2B"/>
<path d="M491.207 43.118L489.893 49.2517H494.951V54.2303H488.818L487.384 61.0012H482.087L483.52 54.2303H476.272L474.838 61.0012H469.58L471.014 54.2303H465V49.2517H472.09L473.404 43.118H467.43V38.1394H474.479L475.873 31.5278H481.131L479.737 38.1394H486.986L488.38 31.5278H493.677L492.283 38.1394H497.381V43.118H491.207ZM485.91 43.118H478.661L477.347 49.2517H484.596L485.91 43.118Z" fill="#2B2B2B"/>
</svg>
