<svg width="1115" height="87" viewBox="0 0 1115 87" fill="none" xmlns="http://www.w3.org/2000/svg">
<path d="M912.38 6.27139L907.532 22.9994H905.084L901.196 9.53539L897.164 22.9994L894.74 23.0234L890.06 6.27139H892.388L896.036 20.4554L900.068 6.27139H902.516L906.356 20.4074L910.028 6.27139H912.38ZM913.954 16.3754C913.954 15.0314 914.226 13.8554 914.77 12.8474C915.314 11.8234 916.058 11.0314 917.002 10.4714C917.962 9.91139 919.026 9.63139 920.194 9.63139C921.346 9.63139 922.346 9.87939 923.194 10.3754C924.042 10.8714 924.674 11.4954 925.09 12.2474V9.84739H927.298V22.9994H925.09V20.5514C924.658 21.3194 924.01 21.9594 923.146 22.4714C922.298 22.9674 921.306 23.2154 920.17 23.2154C919.002 23.2154 917.946 22.9274 917.002 22.3514C916.058 21.7754 915.314 20.9674 914.77 19.9274C914.226 18.8874 913.954 17.7034 913.954 16.3754ZM925.09 16.3994C925.09 15.4074 924.89 14.5434 924.49 13.8074C924.09 13.0714 923.546 12.5114 922.858 12.1274C922.186 11.7274 921.442 11.5274 920.626 11.5274C919.81 11.5274 919.066 11.7194 918.394 12.1034C917.722 12.4874 917.186 13.0474 916.786 13.7834C916.386 14.5194 916.186 15.3834 916.186 16.3754C916.186 17.3834 916.386 18.2634 916.786 19.0154C917.186 19.7514 917.722 20.3194 918.394 20.7194C919.066 21.1034 919.81 21.2954 920.626 21.2954C921.442 21.2954 922.186 21.1034 922.858 20.7194C923.546 20.3194 924.09 19.7514 924.49 19.0154C924.89 18.2634 925.09 17.3914 925.09 16.3994ZM937.397 9.60739C938.997 9.60739 940.293 10.0954 941.285 11.0714C942.277 12.0314 942.773 13.4234 942.773 15.2474V22.9994H940.613V15.5594C940.613 14.2474 940.285 13.2474 939.629 12.5594C938.973 11.8554 938.077 11.5034 936.941 11.5034C935.789 11.5034 934.869 11.8634 934.181 12.5834C933.509 13.3034 933.173 14.3514 933.173 15.7274V22.9994H930.989V9.84739H933.173V11.7194C933.605 11.0474 934.189 10.5274 934.925 10.1594C935.677 9.79139 936.501 9.60739 937.397 9.60739ZM949.004 11.6474V19.3994C949.004 20.0394 949.14 20.4954 949.412 20.7674C949.684 21.0234 950.156 21.1514 950.828 21.1514H952.436V22.9994H950.468C949.252 22.9994 948.34 22.7194 947.732 22.1594C947.124 21.5994 946.82 20.6794 946.82 19.3994V11.6474H945.116V9.84739H946.82V6.53539H949.004V9.84739H952.436V11.6474H949.004ZM964.145 11.6474V19.3994C964.145 20.0394 964.281 20.4954 964.553 20.7674C964.825 21.0234 965.297 21.1514 965.969 21.1514H967.577V22.9994H965.609C964.393 22.9994 963.481 22.7194 962.873 22.1594C962.265 21.5994 961.961 20.6794 961.961 19.3994V11.6474H960.257V9.84739H961.961V6.53539H964.145V9.84739H967.577V11.6474H964.145ZM975.959 23.2154C974.727 23.2154 973.607 22.9354 972.599 22.3754C971.607 21.8154 970.823 21.0234 970.247 19.9994C969.687 18.9594 969.407 17.7594 969.407 16.3994C969.407 15.0554 969.695 13.8714 970.271 12.8474C970.863 11.8074 971.663 11.0154 972.671 10.4714C973.679 9.91139 974.807 9.63139 976.055 9.63139C977.303 9.63139 978.431 9.91139 979.439 10.4714C980.447 11.0154 981.239 11.7994 981.815 12.8234C982.407 13.8474 982.703 15.0394 982.703 16.3994C982.703 17.7594 982.399 18.9594 981.791 19.9994C981.199 21.0234 980.391 21.8154 979.367 22.3754C978.343 22.9354 977.207 23.2154 975.959 23.2154ZM975.959 21.2954C976.743 21.2954 977.479 21.1114 978.167 20.7434C978.855 20.3754 979.407 19.8234 979.823 19.0874C980.255 18.3514 980.471 17.4554 980.471 16.3994C980.471 15.3434 980.263 14.4474 979.847 13.7114C979.431 12.9754 978.887 12.4314 978.215 12.0794C977.543 11.7114 976.815 11.5274 976.031 11.5274C975.231 11.5274 974.495 11.7114 973.823 12.0794C973.167 12.4314 972.639 12.9754 972.239 13.7114C971.839 14.4474 971.639 15.3434 971.639 16.3994C971.639 17.4714 971.831 18.3754 972.215 19.1114C972.615 19.8474 973.143 20.3994 973.799 20.7674C974.455 21.1194 975.175 21.2954 975.959 21.2954ZM995.717 11.5034C996.101 10.8794 996.653 10.3754 997.373 9.99139C998.093 9.60739 998.917 9.41539 999.845 9.41539C1000.95 9.41539 1001.95 9.69539 1002.85 10.2554C1003.74 10.8154 1004.45 11.6154 1004.96 12.6554C1005.49 13.6954 1005.75 14.9034 1005.75 16.2794C1005.75 17.6554 1005.49 18.8714 1004.96 19.9274C1004.45 20.9674 1003.74 21.7754 1002.85 22.3514C1001.95 22.9114 1000.95 23.1914 999.845 23.1914C998.901 23.1914 998.077 23.0074 997.373 22.6394C996.669 22.2554 996.117 21.7514 995.717 21.1274V22.9994H991.613V5.23939H995.717V11.5034ZM1001.57 16.2794C1001.57 15.2554 1001.29 14.4554 1000.71 13.8794C1000.15 13.2874 999.453 12.9914 998.621 12.9914C997.805 12.9914 997.109 13.2874 996.533 13.8794C995.973 14.4714 995.693 15.2794 995.693 16.3034C995.693 17.3274 995.973 18.1354 996.533 18.7274C997.109 19.3194 997.805 19.6154 998.621 19.6154C999.437 19.6154 1000.13 19.3194 1000.71 18.7274C1001.29 18.1194 1001.57 17.3034 1001.57 16.2794ZM1021.13 9.60739V22.9994H1017.02V21.1754C1016.61 21.7674 1016.04 22.2474 1015.32 22.6154C1014.61 22.9674 1013.83 23.1434 1012.97 23.1434C1011.94 23.1434 1011.04 22.9194 1010.25 22.4714C1009.47 22.0074 1008.86 21.3434 1008.43 20.4794C1008 19.6154 1007.78 18.5994 1007.78 17.4314V9.60739H1011.86V16.8794C1011.86 17.7754 1012.09 18.4714 1012.56 18.9674C1013.02 19.4634 1013.65 19.7114 1014.43 19.7114C1015.23 19.7114 1015.86 19.4634 1016.33 18.9674C1016.79 18.4714 1017.02 17.7754 1017.02 16.8794V9.60739H1021.13ZM1026.14 8.21539C1025.42 8.21539 1024.83 8.00739 1024.36 7.59139C1023.91 7.15939 1023.69 6.63139 1023.69 6.00739C1023.69 5.36739 1023.91 4.83939 1024.36 4.42339C1024.83 3.99139 1025.42 3.77539 1026.14 3.77539C1026.84 3.77539 1027.42 3.99139 1027.87 4.42339C1028.33 4.83939 1028.56 5.36739 1028.56 6.00739C1028.56 6.63139 1028.33 7.15939 1027.87 7.59139C1027.42 8.00739 1026.84 8.21539 1026.14 8.21539ZM1028.18 9.60739V22.9994H1024.07V9.60739H1028.18ZM1035.26 5.23939V22.9994H1031.15V5.23939H1035.26ZM1037.41 16.2794C1037.41 14.9034 1037.67 13.6954 1038.18 12.6554C1038.71 11.6154 1039.42 10.8154 1040.32 10.2554C1041.21 9.69539 1042.21 9.41539 1043.32 9.41539C1044.2 9.41539 1045 9.59939 1045.72 9.96739C1046.45 10.3354 1047.03 10.8314 1047.45 11.4554V5.23939H1051.55V22.9994H1047.45V21.0794C1047.06 21.7194 1046.51 22.2314 1045.79 22.6154C1045.09 22.9994 1044.26 23.1914 1043.32 23.1914C1042.21 23.1914 1041.21 22.9114 1040.32 22.3514C1039.42 21.7754 1038.71 20.9674 1038.18 19.9274C1037.67 18.8714 1037.41 17.6554 1037.41 16.2794ZM1047.45 16.3034C1047.45 15.2794 1047.16 14.4714 1046.58 13.8794C1046.02 13.2874 1045.33 12.9914 1044.52 12.9914C1043.7 12.9914 1043.01 13.2874 1042.43 13.8794C1041.87 14.4554 1041.59 15.2554 1041.59 16.2794C1041.59 17.3034 1041.87 18.1194 1042.43 18.7274C1043.01 19.3194 1043.7 19.6154 1044.52 19.6154C1045.33 19.6154 1046.02 19.3194 1046.58 18.7274C1047.16 18.1354 1047.45 17.3274 1047.45 16.3034ZM1073.29 9.60739L1064.89 29.3594H1060.47L1063.54 22.5434L1058.09 9.60739H1062.68L1065.77 17.9834L1068.85 9.60739H1073.29ZM1080.87 23.1914C1079.55 23.1914 1078.37 22.9114 1077.31 22.3514C1076.27 21.7914 1075.45 20.9914 1074.84 19.9514C1074.25 18.9114 1073.95 17.6954 1073.95 16.3034C1073.95 14.9274 1074.26 13.7194 1074.87 12.6794C1075.47 11.6234 1076.31 10.8154 1077.36 10.2554C1078.42 9.69539 1079.6 9.41539 1080.91 9.41539C1082.23 9.41539 1083.41 9.69539 1084.47 10.2554C1085.52 10.8154 1086.35 11.6234 1086.96 12.6794C1087.57 13.7194 1087.87 14.9274 1087.87 16.3034C1087.87 17.6794 1087.56 18.8954 1086.94 19.9514C1086.33 20.9914 1085.49 21.7914 1084.42 22.3514C1083.36 22.9114 1082.18 23.1914 1080.87 23.1914ZM1080.87 19.6394C1081.65 19.6394 1082.31 19.3514 1082.86 18.7754C1083.42 18.1994 1083.7 17.3754 1083.7 16.3034C1083.7 15.2314 1083.43 14.4074 1082.88 13.8314C1082.35 13.2554 1081.7 12.9674 1080.91 12.9674C1080.11 12.9674 1079.45 13.2554 1078.92 13.8314C1078.39 14.3914 1078.13 15.2154 1078.13 16.3034C1078.13 17.3754 1078.39 18.1994 1078.9 18.7754C1079.43 19.3514 1080.08 19.6394 1080.87 19.6394ZM1103.27 9.60739V22.9994H1099.17V21.1754C1098.75 21.7674 1098.19 22.2474 1097.47 22.6154C1096.76 22.9674 1095.98 23.1434 1095.11 23.1434C1094.09 23.1434 1093.19 22.9194 1092.4 22.4714C1091.62 22.0074 1091.01 21.3434 1090.58 20.4794C1090.15 19.6154 1089.93 18.5994 1089.93 17.4314V9.60739H1094.01V16.8794C1094.01 17.7754 1094.24 18.4714 1094.71 18.9674C1095.17 19.4634 1095.79 19.7114 1096.58 19.7114C1097.38 19.7114 1098.01 19.4634 1098.47 18.9674C1098.94 18.4714 1099.17 17.7754 1099.17 16.8794V9.60739H1103.27ZM1110.33 11.8394C1110.81 11.1034 1111.41 10.5274 1112.13 10.1114C1112.85 9.67939 1113.65 9.46339 1114.53 9.46339V13.8074H1113.4C1112.37 13.8074 1111.61 14.0314 1111.09 14.4794C1110.58 14.9114 1110.33 15.6794 1110.33 16.7834V22.9994H1106.22V9.60739H1110.33V11.8394ZM922.311 40.5034C922.695 39.8794 923.247 39.3754 923.967 38.9914C924.687 38.6074 925.511 38.4154 926.439 38.4154C927.543 38.4154 928.543 38.6954 929.439 39.2554C930.335 39.8154 931.039 40.6154 931.551 41.6554C932.079 42.6954 932.343 43.9034 932.343 45.2794C932.343 46.6554 932.079 47.8714 931.551 48.9274C931.039 49.9674 930.335 50.7754 929.439 51.3514C928.543 51.9114 927.543 52.1914 926.439 52.1914C925.495 52.1914 924.671 52.0074 923.967 51.6394C923.263 51.2554 922.711 50.7514 922.311 50.1274V51.9994H918.207V34.2394H922.311V40.5034ZM928.167 45.2794C928.167 44.2554 927.879 43.4554 927.303 42.8794C926.743 42.2874 926.047 41.9914 925.215 41.9914C924.399 41.9914 923.703 42.2874 923.127 42.8794C922.567 43.4714 922.287 44.2794 922.287 45.3034C922.287 46.3274 922.567 47.1354 923.127 47.7274C923.703 48.3194 924.399 48.6154 925.215 48.6154C926.031 48.6154 926.727 48.3194 927.303 47.7274C927.879 47.1194 928.167 46.3034 928.167 45.2794ZM938.6 40.8394C939.08 40.1034 939.68 39.5274 940.4 39.1114C941.12 38.6794 941.92 38.4634 942.8 38.4634V42.8074H941.672C940.648 42.8074 939.88 43.0314 939.368 43.4794C938.856 43.9114 938.6 44.6794 938.6 45.7834V51.9994H934.496V38.6074H938.6V40.8394ZM943.945 45.2794C943.945 43.9034 944.201 42.6954 944.713 41.6554C945.241 40.6154 945.953 39.8154 946.849 39.2554C947.745 38.6954 948.745 38.4154 949.849 38.4154C950.793 38.4154 951.617 38.6074 952.321 38.9914C953.041 39.3754 953.593 39.8794 953.977 40.5034V38.6074H958.081V51.9994H953.977V50.1034C953.577 50.7274 953.017 51.2314 952.297 51.6154C951.593 51.9994 950.769 52.1914 949.825 52.1914C948.737 52.1914 947.745 51.9114 946.849 51.3514C945.953 50.7754 945.241 49.9674 944.713 48.9274C944.201 47.8714 943.945 46.6554 943.945 45.2794ZM953.977 45.3034C953.977 44.2794 953.689 43.4714 953.113 42.8794C952.553 42.2874 951.865 41.9914 951.049 41.9914C950.233 41.9914 949.537 42.2874 948.961 42.8794C948.401 43.4554 948.121 44.2554 948.121 45.2794C948.121 46.3034 948.401 47.1194 948.961 47.7274C949.537 48.3194 950.233 48.6154 951.049 48.6154C951.865 48.6154 952.553 48.3194 953.113 47.7274C953.689 47.1354 953.977 46.3274 953.977 45.3034ZM969.211 38.4634C970.779 38.4634 972.027 38.9754 972.955 39.9994C973.899 41.0074 974.371 42.3994 974.371 44.1754V51.9994H970.291V44.7274C970.291 43.8314 970.059 43.1354 969.595 42.6394C969.131 42.1434 968.507 41.8954 967.723 41.8954C966.939 41.8954 966.315 42.1434 965.851 42.6394C965.387 43.1354 965.155 43.8314 965.155 44.7274V51.9994H961.051V38.6074H965.155V40.3834C965.571 39.7914 966.131 39.3274 966.835 38.9914C967.539 38.6394 968.331 38.4634 969.211 38.4634ZM976.406 45.2794C976.406 43.9034 976.662 42.6954 977.174 41.6554C977.702 40.6154 978.414 39.8154 979.31 39.2554C980.206 38.6954 981.206 38.4154 982.31 38.4154C983.19 38.4154 983.99 38.5994 984.71 38.9674C985.446 39.3354 986.022 39.8314 986.438 40.4554V34.2394H990.542V51.9994H986.438V50.0794C986.054 50.7194 985.502 51.2314 984.782 51.6154C984.078 51.9994 983.254 52.1914 982.31 52.1914C981.206 52.1914 980.206 51.9114 979.31 51.3514C978.414 50.7754 977.702 49.9674 977.174 48.9274C976.662 47.8714 976.406 46.6554 976.406 45.2794ZM986.438 45.3034C986.438 44.2794 986.15 43.4714 985.574 42.8794C985.014 42.2874 984.326 41.9914 983.51 41.9914C982.694 41.9914 981.998 42.2874 981.422 42.8794C980.862 43.4554 980.582 44.2554 980.582 45.2794C980.582 46.3034 980.862 47.1194 981.422 47.7274C981.998 48.3194 982.694 48.6154 983.51 48.6154C984.326 48.6154 985.014 48.3194 985.574 47.7274C986.15 47.1354 986.438 46.3274 986.438 45.3034ZM998.431 34.2154C1000.14 34.2154 1001.51 34.6634 1002.54 35.5594C1003.58 36.4554 1004.1 37.7194 1004.1 39.3514C1004.1 40.8554 1003.6 42.0314 1002.61 42.8794C1001.63 43.7114 1000.34 44.1354 998.719 44.1514L998.599 45.9514H994.999L994.879 41.4874H996.319C997.551 41.4874 998.487 41.3354 999.127 41.0314C999.783 40.7274 1000.11 40.1754 1000.11 39.3754C1000.11 38.8154 999.959 38.3754 999.655 38.0554C999.351 37.7354 998.927 37.5754 998.383 37.5754C997.807 37.5754 997.359 37.7434 997.039 38.0794C996.719 38.3994 996.559 38.8394 996.559 39.3994H992.695C992.663 38.4234 992.863 37.5434 993.295 36.7594C993.743 35.9754 994.399 35.3594 995.263 34.9114C996.143 34.4474 997.199 34.2154 998.431 34.2154ZM996.847 52.1914C996.127 52.1914 995.535 51.9834 995.071 51.5674C994.623 51.1354 994.399 50.6074 994.399 49.9834C994.399 49.3434 994.623 48.8074 995.071 48.3754C995.535 47.9434 996.127 47.7274 996.847 47.7274C997.551 47.7274 998.127 47.9434 998.575 48.3754C999.039 48.8074 999.271 49.3434 999.271 49.9834C999.271 50.6074 999.039 51.1354 998.575 51.5674C998.127 51.9834 997.551 52.1914 996.847 52.1914ZM1010.82 43.5514C1010.82 41.8874 1011.18 40.4074 1011.9 39.1114C1012.62 37.7994 1013.62 36.7834 1014.9 36.0634C1016.19 35.3274 1017.66 34.9594 1019.29 34.9594C1021.29 34.9594 1023 35.4874 1024.42 36.5434C1025.85 37.5994 1026.8 39.0394 1027.28 40.8634H1022.77C1022.43 40.1594 1021.95 39.6234 1021.33 39.2554C1020.72 38.8874 1020.02 38.7034 1019.24 38.7034C1017.98 38.7034 1016.95 39.1434 1016.17 40.0234C1015.38 40.9034 1014.99 42.0794 1014.99 43.5514C1014.99 45.0234 1015.38 46.1994 1016.17 47.0794C1016.95 47.9594 1017.98 48.3994 1019.24 48.3994C1020.02 48.3994 1020.72 48.2154 1021.33 47.8474C1021.95 47.4794 1022.43 46.9434 1022.77 46.2394H1027.28C1026.8 48.0634 1025.85 49.5034 1024.42 50.5594C1023 51.5994 1021.29 52.1194 1019.29 52.1194C1017.66 52.1194 1016.19 51.7594 1014.9 51.0394C1013.62 50.3034 1012.62 49.2874 1011.9 47.9914C1011.18 46.6954 1010.82 45.2154 1010.82 43.5514ZM1035.89 52.1914C1034.58 52.1914 1033.39 51.9114 1032.34 51.3514C1031.3 50.7914 1030.47 49.9914 1029.86 48.9514C1029.27 47.9114 1028.98 46.6954 1028.98 45.3034C1028.98 43.9274 1029.28 42.7194 1029.89 41.6794C1030.5 40.6234 1031.33 39.8154 1032.38 39.2554C1033.44 38.6954 1034.62 38.4154 1035.94 38.4154C1037.25 38.4154 1038.43 38.6954 1039.49 39.2554C1040.54 39.8154 1041.38 40.6234 1041.98 41.6794C1042.59 42.7194 1042.9 43.9274 1042.9 45.3034C1042.9 46.6794 1042.58 47.8954 1041.96 48.9514C1041.35 49.9914 1040.51 50.7914 1039.44 51.3514C1038.38 51.9114 1037.2 52.1914 1035.89 52.1914ZM1035.89 48.6394C1036.67 48.6394 1037.34 48.3514 1037.88 47.7754C1038.44 47.1994 1038.72 46.3754 1038.72 45.3034C1038.72 44.2314 1038.45 43.4074 1037.9 42.8314C1037.38 42.2554 1036.72 41.9674 1035.94 41.9674C1035.14 41.9674 1034.47 42.2554 1033.94 42.8314C1033.42 43.3914 1033.15 44.2154 1033.15 45.3034C1033.15 46.3754 1033.41 47.1994 1033.92 47.7754C1034.45 48.3514 1035.1 48.6394 1035.89 48.6394ZM1053.23 38.4634C1054.8 38.4634 1056.05 38.9754 1056.98 39.9994C1057.92 41.0074 1058.39 42.3994 1058.39 44.1754V51.9994H1054.31V44.7274C1054.31 43.8314 1054.08 43.1354 1053.62 42.6394C1053.15 42.1434 1052.53 41.8954 1051.75 41.8954C1050.96 41.8954 1050.34 42.1434 1049.87 42.6394C1049.41 43.1354 1049.18 43.8314 1049.18 44.7274V51.9994H1045.07V38.6074H1049.18V40.3834C1049.59 39.7914 1050.15 39.3274 1050.86 38.9914C1051.56 38.6394 1052.35 38.4634 1053.23 38.4634ZM1069.41 38.4634C1070.97 38.4634 1072.22 38.9754 1073.15 39.9994C1074.09 41.0074 1074.57 42.3994 1074.57 44.1754V51.9994H1070.49V44.7274C1070.49 43.8314 1070.25 43.1354 1069.79 42.6394C1069.33 42.1434 1068.7 41.8954 1067.92 41.8954C1067.13 41.8954 1066.51 42.1434 1066.05 42.6394C1065.58 43.1354 1065.35 43.8314 1065.35 44.7274V51.9994H1061.25V38.6074H1065.35V40.3834C1065.77 39.7914 1066.33 39.3274 1067.03 38.9914C1067.73 38.6394 1068.53 38.4634 1069.41 38.4634ZM1090.04 45.0874C1090.04 45.4714 1090.02 45.8714 1089.97 46.2874H1080.68C1080.75 47.1194 1081.01 47.7594 1081.47 48.2074C1081.95 48.6394 1082.54 48.8554 1083.23 48.8554C1084.25 48.8554 1084.96 48.4234 1085.36 47.5594H1089.73C1089.51 48.4394 1089.1 49.2314 1088.51 49.9354C1087.93 50.6394 1087.2 51.1914 1086.32 51.5914C1085.44 51.9914 1084.46 52.1914 1083.37 52.1914C1082.06 52.1914 1080.89 51.9114 1079.87 51.3514C1078.84 50.7914 1078.04 49.9914 1077.47 48.9514C1076.89 47.9114 1076.6 46.6954 1076.6 45.3034C1076.6 43.9114 1076.88 42.6954 1077.44 41.6554C1078.02 40.6154 1078.82 39.8154 1079.84 39.2554C1080.87 38.6954 1082.04 38.4154 1083.37 38.4154C1084.67 38.4154 1085.82 38.6874 1086.83 39.2314C1087.83 39.7754 1088.62 40.5514 1089.18 41.5594C1089.75 42.5674 1090.04 43.7434 1090.04 45.0874ZM1085.84 44.0074C1085.84 43.3034 1085.6 42.7434 1085.12 42.3274C1084.64 41.9114 1084.04 41.7034 1083.32 41.7034C1082.63 41.7034 1082.05 41.9034 1081.57 42.3034C1081.11 42.7034 1080.82 43.2714 1080.71 44.0074H1085.84ZM1091.39 45.3034C1091.39 43.9114 1091.67 42.6954 1092.23 41.6554C1092.81 40.6154 1093.6 39.8154 1094.61 39.2554C1095.63 38.6954 1096.8 38.4154 1098.11 38.4154C1099.79 38.4154 1101.19 38.8554 1102.31 39.7354C1103.45 40.6154 1104.19 41.8554 1104.54 43.4554H1100.17C1099.81 42.4314 1099.09 41.9194 1098.04 41.9194C1097.29 41.9194 1096.69 42.2154 1096.24 42.8074C1095.79 43.3834 1095.57 44.2154 1095.57 45.3034C1095.57 46.3914 1095.79 47.2314 1096.24 47.8234C1096.69 48.3994 1097.29 48.6874 1098.04 48.6874C1099.09 48.6874 1099.81 48.1754 1100.17 47.1514H1104.54C1104.19 48.7194 1103.45 49.9514 1102.31 50.8474C1101.17 51.7434 1099.77 52.1914 1098.11 52.1914C1096.8 52.1914 1095.63 51.9114 1094.61 51.3514C1093.6 50.7914 1092.81 49.9914 1092.23 48.9514C1091.67 47.9114 1091.39 46.6954 1091.39 45.3034ZM1114.2 48.5194V51.9994H1112.11C1110.63 51.9994 1109.47 51.6394 1108.63 50.9194C1107.8 50.1834 1107.39 48.9914 1107.39 47.3434V42.0154H1105.75V38.6074H1107.39V35.3434H1111.49V38.6074H1114.18V42.0154H1111.49V47.3914C1111.49 47.7914 1111.59 48.0794 1111.78 48.2554C1111.97 48.4314 1112.29 48.5194 1112.74 48.5194H1114.2ZM1043.24 67.8474L1039.14 80.9994H1036.88L1033.72 70.5594L1030.55 80.9994H1028.29L1024.16 67.8474H1026.4L1029.42 78.8874L1032.68 67.8474H1034.92L1038.11 78.9114L1041.08 67.8474H1043.24ZM1046.54 65.7114C1046.12 65.7114 1045.77 65.5674 1045.48 65.2794C1045.19 64.9914 1045.05 64.6394 1045.05 64.2234C1045.05 63.8074 1045.19 63.4554 1045.48 63.1674C1045.77 62.8794 1046.12 62.7354 1046.54 62.7354C1046.94 62.7354 1047.27 62.8794 1047.55 63.1674C1047.83 63.4554 1047.98 63.8074 1047.98 64.2234C1047.98 64.6394 1047.83 64.9914 1047.55 65.2794C1047.27 65.5674 1046.94 65.7114 1046.54 65.7114ZM1047.59 67.8474V80.9994H1045.41V67.8474H1047.59ZM1053.98 69.6474V77.3994C1053.98 78.0394 1054.12 78.4954 1054.39 78.7674C1054.66 79.0234 1055.13 79.1514 1055.8 79.1514H1057.41V80.9994H1055.44C1054.23 80.9994 1053.32 80.7194 1052.71 80.1594C1052.1 79.5994 1051.8 78.6794 1051.8 77.3994V69.6474H1050.09V67.8474H1051.8V64.5354H1053.98V67.8474H1057.41V69.6474H1053.98ZM1066.59 67.6074C1067.58 67.6074 1068.47 67.8234 1069.27 68.2554C1070.07 68.6714 1070.7 69.3034 1071.15 70.1514C1071.61 70.9994 1071.84 72.0314 1071.84 73.2474V80.9994H1069.68V73.5594C1069.68 72.2474 1069.35 71.2474 1068.7 70.5594C1068.04 69.8554 1067.15 69.5034 1066.01 69.5034C1064.86 69.5034 1063.94 69.8634 1063.25 70.5834C1062.58 71.3034 1062.24 72.3514 1062.24 73.7274V80.9994H1060.06V63.2394H1062.24V69.7194C1062.67 69.0474 1063.27 68.5274 1064.02 68.1594C1064.79 67.7914 1065.64 67.6074 1066.59 67.6074ZM1093.47 67.8474V80.9994H1091.29V79.0554C1090.87 79.7274 1090.29 80.2554 1089.54 80.6394C1088.8 81.0074 1087.98 81.1914 1087.09 81.1914C1086.06 81.1914 1085.14 80.9834 1084.33 80.5674C1083.51 80.1354 1082.86 79.4954 1082.38 78.6474C1081.92 77.7994 1081.69 76.7674 1081.69 75.5514V67.8474H1083.85V75.2634C1083.85 76.5594 1084.18 77.5594 1084.83 78.2634C1085.49 78.9514 1086.38 79.2954 1087.52 79.2954C1088.69 79.2954 1089.61 78.9354 1090.28 78.2154C1090.95 77.4954 1091.29 76.4474 1091.29 75.0714V67.8474H1093.47ZM1101.82 81.2154C1100.81 81.2154 1099.9 81.0474 1099.1 80.7114C1098.3 80.3594 1097.67 79.8794 1097.21 79.2714C1096.74 78.6474 1096.49 77.9354 1096.44 77.1354H1098.7C1098.76 77.7914 1099.06 78.3274 1099.61 78.7434C1100.17 79.1594 1100.9 79.3674 1101.79 79.3674C1102.62 79.3674 1103.28 79.1834 1103.76 78.8154C1104.24 78.4474 1104.48 77.9834 1104.48 77.4234C1104.48 76.8474 1104.22 76.4234 1103.71 76.1514C1103.2 75.8634 1102.41 75.5834 1101.34 75.3114C1100.36 75.0554 1099.56 74.7994 1098.94 74.5434C1098.33 74.2714 1097.8 73.8794 1097.35 73.3674C1096.92 72.8394 1096.7 72.1514 1096.7 71.3034C1096.7 70.6314 1096.9 70.0154 1097.3 69.4554C1097.7 68.8954 1098.27 68.4554 1099.01 68.1354C1099.74 67.7994 1100.58 67.6314 1101.53 67.6314C1102.98 67.6314 1104.16 67.9994 1105.06 68.7354C1105.95 69.4714 1106.43 70.4794 1106.5 71.7594H1104.31C1104.26 71.0714 1103.98 70.5194 1103.47 70.1034C1102.98 69.6874 1102.3 69.4794 1101.46 69.4794C1100.67 69.4794 1100.05 69.6474 1099.58 69.9834C1099.12 70.3194 1098.89 70.7594 1098.89 71.3034C1098.89 71.7354 1099.02 72.0954 1099.3 72.3834C1099.58 72.6554 1099.94 72.8794 1100.35 73.0554C1100.78 73.2154 1101.38 73.3994 1102.13 73.6074C1103.07 73.8634 1103.84 74.1194 1104.43 74.3754C1105.02 74.6154 1105.53 74.9834 1105.94 75.4794C1106.38 75.9754 1106.6 76.6234 1106.62 77.4234C1106.62 78.1434 1106.42 78.7914 1106.02 79.3674C1105.62 79.9434 1105.05 80.3994 1104.31 80.7354C1103.59 81.0554 1102.76 81.2154 1101.82 81.2154ZM1112.53 64.2714L1112.27 76.2714H1110.44L1110.18 64.2714H1112.53ZM1111.45 81.1434C1111.04 81.1434 1110.68 80.9994 1110.4 80.7114C1110.11 80.4234 1109.96 80.0714 1109.96 79.6554C1109.96 79.2394 1110.11 78.8874 1110.4 78.5994C1110.68 78.3114 1111.04 78.1674 1111.45 78.1674C1111.85 78.1674 1112.19 78.3114 1112.46 78.5994C1112.75 78.8874 1112.89 79.2394 1112.89 79.6554C1112.89 80.0714 1112.75 80.4234 1112.46 80.7114C1112.19 80.9994 1111.85 81.1434 1111.45 81.1434Z" fill="#393E38"/>
<path d="M36.1 83.2C16.2 83.2 0 67.1 0 47.1C0 27.2 16.2 11 36.1 11C56 11 72.2 27.2 72.2 47.1C72.2 67.1 56.1 83.2 36.1 83.2Z" fill="black"/>
<path d="M13.0002 52.0008V42.5008H9.7002V40.3008H18.7002V42.5008H15.4002V52.0008H13.0002Z" fill="white"/>
<path d="M16.7998 52.0008L21.3998 40.3008H23.9998L28.5998 52.0008H26.0998L25.0998 49.4009H20.0998L19.0998 52.0008H16.7998ZM20.8998 47.4009H24.3998L22.5998 42.7009L20.8998 47.4009Z" fill="white"/>
<path d="M32.8996 52.0008V42.5008H29.5996V40.3008H38.5996V42.5008H35.2996V52.0008H32.8996Z" fill="white"/>
<path d="M45.3999 52.3C44.6999 52.3 44.0999 52.2 43.3999 52C42.6999 51.8 42.1999 51.5 41.6999 51.2C41.1999 50.8 40.7999 50.4 40.3999 49.9C39.9999 49.4 39.7998 48.8 39.5998 48.2C39.3998 47.6 39.2998 46.9 39.2998 46.2C39.2998 45.5 39.3998 44.8 39.5998 44.2C39.7998 43.6 40.0999 43 40.3999 42.5C40.7999 42 41.1999 41.6 41.6999 41.2C42.1999 40.8 42.7999 40.5 43.3999 40.3C43.9999 40.1 44.6999 40 45.3999 40C46.0999 40 46.6999 40.1 47.3999 40.3C47.9999 40.5 48.5998 40.8 49.0998 41.1C49.5998 41.5 49.9999 41.9 50.3999 42.4C50.7999 42.9 50.9999 43.5 51.1999 44.1C51.3999 44.7 51.4998 45.4 51.4998 46.1C51.4998 46.8 51.3999 47.5 51.1999 48.1C50.9999 48.7 50.6999 49.3 50.3999 49.8C49.9999 50.3 49.5998 50.7 49.0998 51.1C48.5998 51.5 47.9999 51.8 47.3999 52C46.7999 52.2 46.0999 52.3 45.3999 52.3ZM45.4998 50.1C45.9998 50.1 46.4999 50 46.8999 49.8C47.2999 49.6 47.6998 49.3 47.9998 49C48.2998 48.6 48.5998 48.2 48.6999 47.8C48.8999 47.3 48.9998 46.8 48.9998 46.2C48.9998 45.6 48.8999 45.1 48.6999 44.6C48.4999 44.1 48.2998 43.7 47.9998 43.4C47.6998 43 47.2999 42.8 46.8999 42.6C46.4999 42.4 45.9998 42.3 45.4998 42.3C44.9998 42.3 44.4998 42.4 44.0998 42.6C43.6998 42.8 43.2998 43.1 42.9998 43.4C42.6998 43.8 42.3998 44.2 42.2998 44.6C42.0998 45.1 41.9998 45.6 41.9998 46.2C41.9998 46.8 42.0998 47.3 42.2998 47.8C42.4998 48.3 42.6998 48.7 42.9998 49C43.2998 49.4 43.6998 49.6 44.0998 49.8C44.4998 50 44.8998 50.1 45.4998 50.1Z" fill="white"/>
<path d="M56.9002 52.2C56.2002 52.2 55.6002 52.1 55.0002 51.8C54.4002 51.6 53.9002 51.2 53.5002 50.7C53.1002 50.2 52.8002 49.7 52.7002 49.1L55.0002 48.6C55.1002 49.1 55.4002 49.4 55.7002 49.7C56.1002 50 56.5002 50.1 57.0002 50.1C57.4002 50.1 57.7002 50 57.9002 49.9C58.1002 49.8 58.4002 49.6 58.5002 49.4C58.6002 49.2 58.7002 48.9 58.7002 48.6C58.7002 48.2 58.6001 47.9 58.3001 47.7C58.0001 47.5 57.6002 47.3 57.0002 47.1L56.5002 47C55.3002 46.7 54.4001 46.3 53.8001 45.7C53.2001 45.1 52.9002 44.4 52.9002 43.6C52.9002 43.1 53.0002 42.6 53.2002 42.2C53.4002 41.8 53.7001 41.4 54.1001 41.1C54.5001 40.8 54.9002 40.5 55.4002 40.3C55.9002 40.1 56.4002 40 57.0002 40C57.6002 40 58.3001 40.1 58.8001 40.4C59.4001 40.6 59.8002 41 60.2002 41.4C60.6002 41.9 60.8002 42.4 61.0002 43L58.7002 43.5C58.6002 43.1 58.3002 42.7 58.0002 42.5C57.7002 42.3 57.3002 42.1 56.9002 42.1C56.6002 42.1 56.3001 42.2 56.1001 42.3C55.9001 42.4 55.7002 42.6 55.5002 42.8C55.4002 43 55.3001 43.2 55.3001 43.5C55.3001 43.9 55.4002 44.2 55.7002 44.4C56.0002 44.6 56.4002 44.8 57.0002 44.9L57.5002 45C58.7002 45.3 59.6002 45.7 60.2002 46.3C60.8002 46.9 61.1001 47.6 61.1001 48.5C61.1001 49.1 61.0001 49.6 60.8001 50C60.6001 50.5 60.3002 50.9 59.9002 51.2C59.5002 51.5 59.1001 51.8 58.6001 52C58.0001 52.1 57.5002 52.2 56.9002 52.2Z" fill="white"/>
<path d="M61.0998 53.3008H10.7998V57.6008H61.0998V53.3008Z" fill="#FFF200"/>
<path d="M18.0996 56.2996V54.8996H17.5996V54.5996H18.9996V54.8996H18.4996V56.2996H18.0996Z" fill="#2B2B2B"/>
<path d="M19.2998 56.3V54.5H19.6998V55.2H20.4998V54.5H20.8998V56.3H20.4998V55.6H19.6998V56.3H19.2998Z" fill="#2B2B2B"/>
<path d="M21.0996 56.3V54.5H22.1996V54.8H21.4996V55.2H22.1996V55.5H21.4996V56H22.2996V56.3H21.0996Z" fill="#2B2B2B"/>
<path d="M22.8994 56.3L23.5994 54.5H23.9994L24.6994 56.3H24.2994L24.1994 55.9H23.3994L23.2994 56.3H22.8994ZM23.4994 55.6H23.9994L23.6994 54.9L23.4994 55.6Z" fill="#2B2B2B"/>
<path d="M24.8994 56.3V54.5H25.2994V56H25.9994V56.3H24.8994Z" fill="#2B2B2B"/>
<path d="M26.2002 56.3V54.5H26.8001C26.9001 54.5 27.1002 54.5 27.2002 54.6C27.3002 54.7 27.4002 54.7 27.4002 54.8C27.5002 54.9 27.5002 55 27.5002 55.1C27.5002 55.2 27.5002 55.3 27.5002 55.3C27.5002 55.4 27.4002 55.4 27.4002 55.5C27.3002 55.6 27.3002 55.6 27.2002 55.6C27.1002 55.6 27.0002 55.6 26.9002 55.6C26.8002 55.6 26.8002 55.6 26.7002 55.6V56.2H26.2002V56.3ZM26.6002 54.8V55.3C26.7002 55.3 26.7001 55.3 26.8001 55.3C26.9001 55.3 27.0002 55.3 27.0002 55.2C27.1002 55.2 27.1002 55.1 27.1002 55C27.1002 54.9 27.1002 54.8 27.0002 54.8C26.9002 54.8 26.9001 54.7 26.8001 54.7H26.6002V54.8Z" fill="#2B2B2B"/>
<path d="M27.7002 56.3V54.5H28.1002V55.2H28.9002V54.5H29.3001V56.3H28.9002V55.6H28.1002V56.3H27.7002Z" fill="#2B2B2B"/>
<path d="M29.3994 56.3L30.0994 54.5H30.4994L31.1994 56.3H30.7994L30.6994 55.9H29.8994L29.7994 56.3H29.3994ZM29.9994 55.6H30.4994L30.1994 54.9L29.9994 55.6Z" fill="#2B2B2B"/>
<path d="M31.7998 56.3L32.4998 54.5H32.8998L33.5998 56.3H33.1998L33.0998 55.9H32.2998L32.1998 56.3H31.7998ZM32.3998 55.6H32.8998L32.5998 54.9L32.3998 55.6Z" fill="#2B2B2B"/>
<path d="M33.7998 56.3V54.5H34.0998L34.8998 55.7V54.5H35.2998V56.3H34.9998L34.1998 55.1V56.3H33.7998Z" fill="#2B2B2B"/>
<path d="M35.5996 56.3V54.5H36.2996C36.3996 54.5 36.5996 54.5 36.6996 54.6C36.7996 54.7 36.8996 54.7 36.9996 54.8C37.0996 54.9 37.0996 55 37.1996 55.1C37.1996 55.2 37.2996 55.3 37.2996 55.5C37.2996 55.7 37.2996 55.7 37.1996 55.9C37.1996 56 37.0996 56.1 36.9996 56.2C36.8996 56.3 36.7996 56.3 36.6996 56.4C36.5996 56.5 36.4996 56.5 36.2996 56.5H35.5996V56.3ZM35.9996 56H36.2996C36.3996 56 36.4996 56 36.5996 55.9C36.6996 55.9 36.7996 55.8 36.7996 55.7C36.7996 55.6 36.8996 55.5 36.8996 55.4C36.8996 55.3 36.8996 55.2 36.7996 55.1C36.7996 55 36.6996 55 36.5996 54.9C36.4996 54.9 36.3996 54.8 36.2996 54.8H35.9996V56Z" fill="#2B2B2B"/>
<path d="M38.3994 56.2996V54.8996H37.8994V54.5996H39.2994V54.8996H38.7994V56.2996H38.3994Z" fill="#2B2B2B"/>
<path d="M39.5 56.3V54.5H39.9V55.2H40.7V54.5H41V56.3H40.6V55.6H39.8V56.3H39.5Z" fill="#2B2B2B"/>
<path d="M41.3994 56.3V54.5H42.4994V54.8H41.7994V55.2H42.4994V55.5H41.7994V56H42.5994V56.3H41.3994Z" fill="#2B2B2B"/>
<path d="M44.1001 56.3C44.0001 56.3 43.9001 56.3 43.8001 56.3C43.7001 56.3 43.6002 56.2 43.5002 56.2C43.4002 56.1 43.4001 56.1 43.3001 56C43.2001 55.9 43.2002 55.8 43.2002 55.7C43.2002 55.6 43.2002 55.5 43.2002 55.4C43.2002 55.3 43.2002 55.2 43.2002 55.1C43.2002 55 43.3001 54.9 43.3001 54.8C43.4001 54.7 43.4002 54.7 43.5002 54.6C43.6002 54.5 43.7001 54.5 43.8001 54.5C43.9001 54.5 44.0001 54.5 44.1001 54.5C44.2001 54.5 44.3002 54.5 44.4002 54.5C44.5002 54.5 44.6002 54.6 44.7002 54.6C44.8002 54.7 44.8002 54.7 44.9002 54.8C45.0002 54.9 45.0002 55 45.0002 55.1C45.0002 55.2 45.0002 55.3 45.0002 55.4C45.0002 55.5 45.0002 55.6 45.0002 55.7C45.0002 55.8 44.9002 55.9 44.9002 56C44.8002 56.1 44.8002 56.1 44.7002 56.2C44.6002 56.3 44.5002 56.3 44.4002 56.3C44.3002 56.3 44.2001 56.3 44.1001 56.3ZM44.1001 56C44.2001 56 44.2001 56 44.3001 56C44.4001 56 44.4002 55.9 44.5002 55.9C44.6002 55.9 44.6001 55.8 44.6001 55.7C44.6001 55.6 44.6001 55.5 44.6001 55.5C44.6001 55.4 44.6001 55.3 44.6001 55.3C44.6001 55.3 44.6002 55 44.5002 55C44.5002 54.9 44.4001 54.9 44.3001 54.9C44.2001 54.9 44.2001 54.9 44.1001 54.9C44.0001 54.9 44.0002 54.9 43.9002 54.9C43.8002 54.9 43.8002 55 43.7002 55C43.7002 55.1 43.6001 55.1 43.6001 55.2C43.6001 55.3 43.6001 55.4 43.6001 55.4C43.6001 55.5 43.6001 55.6 43.6001 55.6C43.6001 55.7 43.7002 55.7 43.7002 55.8C43.7002 55.9 43.8002 55.9 43.9002 55.9C44.0002 56 44.1001 56 44.1001 56Z" fill="#2B2B2B"/>
<path d="M45.2998 56.3V54.5H45.5998L46.1998 55.5L46.7998 54.5H47.0998V56.3H46.6998V55.2L46.2998 55.9H45.9998L45.5998 55.2V56.3H45.2998Z" fill="#2B2B2B"/>
<path d="M47.3994 56.3V54.5H48.4994V54.8H47.7994V55.2H48.4994V55.5H47.7994V56H48.5994V56.3H47.3994Z" fill="#2B2B2B"/>
<path d="M49.5998 56.3C49.4998 56.3 49.3998 56.3 49.2998 56.3C49.1998 56.3 49.0998 56.2 49.0998 56.2C48.9998 56.1 48.9998 56 48.8998 56C48.7998 55.9 48.7998 55.8 48.7998 55.7C48.7998 55.6 48.7998 55.5 48.7998 55.4C48.7998 55.3 48.7998 55.2 48.7998 55.1C48.7998 55 48.8998 54.9 48.8998 54.8C48.9998 54.7 48.9998 54.7 49.0998 54.6C49.1998 54.5 49.2998 54.5 49.3998 54.5C49.4998 54.5 49.5998 54.5 49.6998 54.5C49.7998 54.5 49.8998 54.5 49.9998 54.6C50.0998 54.6 50.1998 54.7 50.2998 54.8C50.3998 54.9 50.3998 55 50.4998 55.1L50.0998 55.2C50.0998 55.1 49.9998 55.1 49.8998 55C49.7998 55 49.6998 54.9 49.6998 54.9C49.5998 54.9 49.5998 54.9 49.4998 54.9C49.3998 54.9 49.3998 55 49.2998 55C49.2998 55.1 49.1998 55.1 49.1998 55.2C49.1998 55.3 49.1998 55.3 49.1998 55.4C49.1998 55.5 49.1998 55.6 49.1998 55.6C49.1998 55.6 49.2998 55.7 49.2998 55.8C49.2998 55.9 49.3998 55.9 49.4998 55.9C49.5998 55.9 49.5998 55.9 49.6998 55.9C49.7998 55.9 49.8998 55.9 49.8998 55.9C49.9998 55.9 49.9998 55.8 50.0998 55.8C50.0998 55.7 50.1998 55.7 50.1998 55.6H49.7998V55.3H50.5998V55.5C50.5998 55.6 50.5998 55.7 50.4998 55.8C50.4998 55.9 50.3998 56 50.2998 56.1C50.1998 56.2 50.0998 56.2 49.9998 56.3C49.8998 56.3 49.7998 56.3 49.5998 56.3Z" fill="#2B2B2B"/>
<path d="M50.5996 56.3L51.2996 54.5H51.6996L52.3996 56.3H51.9996L51.8996 55.9H51.0996L50.9996 56.3H50.5996ZM51.1996 55.6H51.6996L51.3996 54.9L51.1996 55.6Z" fill="#2B2B2B"/>
<path d="M52.5002 54.5H52.6001L52.7002 54.6C52.7002 54.6 52.7002 54.7 52.7002 54.8C52.7002 54.9 52.7002 54.9 52.7002 55C52.7002 55.1 52.6001 55.1 52.6001 55.2C52.5001 55.2 52.5002 55.3 52.4002 55.3L52.3001 55.1C52.3001 55.1 52.4002 55.1 52.4002 55L52.5002 54.9V54.8C52.5002 54.8 52.5002 54.8 52.4002 54.8H52.3001C52.3001 54.8 52.3002 54.8 52.2002 54.7V54.6V54.5C52.4002 54.6 52.4002 54.6 52.5002 54.5C52.5002 54.5 52.4002 54.5 52.5002 54.5Z" fill="#2B2B2B"/>
<path d="M53.5994 56.3C53.4994 56.3 53.3994 56.3 53.2994 56.2C53.1994 56.1 53.0994 56.1 53.0994 56C52.9994 56 52.9994 56 52.8994 55.9L53.1994 55.8C53.1994 55.9 53.2994 55.9 53.2994 56C53.3994 56 53.3994 56.1 53.4994 56.1C53.5994 56.1 53.5994 56.1 53.5994 56.1C53.5994 56.1 53.6994 56.1 53.6994 56V55.9C53.6994 55.8 53.6994 55.8 53.5994 55.8C53.5994 55.8 53.4994 55.7 53.3994 55.7H53.2994C53.0994 55.7 52.9994 55.6 52.8994 55.5C52.9994 55.3 52.9994 55.2 52.9994 55C52.9994 54.9 52.9994 54.8 52.9994 54.8C52.9994 54.7 53.0994 54.7 53.0994 54.6C53.1994 54.6 53.1994 54.5 53.2994 54.5C53.3994 54.5 53.4994 54.5 53.4994 54.5C53.5994 54.5 53.6994 54.5 53.7994 54.6C53.8994 54.6 53.9994 54.7 53.9994 54.8C54.0994 54.9 54.0994 54.9 54.0994 55H53.8994C53.8994 54.9 53.7994 54.9 53.7994 54.8C53.7994 54.8 53.6994 54.7 53.5994 54.7H53.4994C53.4994 54.7 53.3994 54.7 53.3994 54.8V54.9C53.3994 55 53.3994 55 53.4994 55C53.4994 55 53.5994 55.1 53.6994 55.1H53.7994C53.9994 55.1 54.0994 55.2 54.1994 55.3C54.2994 55.4 54.2994 55.5 54.2994 55.6C54.2994 55.7 54.2994 55.8 54.2994 55.8C54.2994 55.8 54.1994 55.9 54.1994 56C54.1994 56.1 54.0994 56.1 53.9994 56.1C53.8994 56.1 53.6994 56.3 53.5994 56.3Z" fill="#2B2B2B"/>
<path d="M92.5147 28.2274V29.8094H89.9107V37.9994H87.9507V29.8094H85.3467V28.2274H92.5147ZM99.9368 36.1374H96.0448L95.4008 37.9994H93.3428L96.8568 28.2134H99.1388L102.653 37.9994H100.581L99.9368 36.1374ZM99.4048 34.5694L97.9908 30.4814L96.5768 34.5694H99.4048ZM110.616 28.2274V29.8094H108.012V37.9994H106.052V29.8094H103.448V28.2274H110.616ZM116.582 38.0974C115.667 38.0974 114.827 37.8827 114.062 37.4534C113.297 37.0241 112.69 36.4314 112.242 35.6754C111.794 34.9101 111.57 34.0467 111.57 33.0854C111.57 32.1334 111.794 31.2794 112.242 30.5234C112.69 29.7581 113.297 29.1607 114.062 28.7314C114.827 28.3021 115.667 28.0874 116.582 28.0874C117.506 28.0874 118.346 28.3021 119.102 28.7314C119.867 29.1607 120.469 29.7581 120.908 30.5234C121.356 31.2794 121.58 32.1334 121.58 33.0854C121.58 34.0467 121.356 34.9101 120.908 35.6754C120.469 36.4314 119.867 37.0241 119.102 37.4534C118.337 37.8827 117.497 38.0974 116.582 38.0974ZM116.582 36.3474C117.17 36.3474 117.688 36.2167 118.136 35.9554C118.584 35.6847 118.934 35.3021 119.186 34.8074C119.438 34.3127 119.564 33.7387 119.564 33.0854C119.564 32.4321 119.438 31.8627 119.186 31.3774C118.934 30.8827 118.584 30.5047 118.136 30.2434C117.688 29.9821 117.17 29.8514 116.582 29.8514C115.994 29.8514 115.471 29.9821 115.014 30.2434C114.566 30.5047 114.216 30.8827 113.964 31.3774C113.712 31.8627 113.586 32.4321 113.586 33.0854C113.586 33.7387 113.712 34.3127 113.964 34.8074C114.216 35.3021 114.566 35.6847 115.014 35.9554C115.471 36.2167 115.994 36.3474 116.582 36.3474ZM126.412 38.0974C125.731 38.0974 125.115 37.9807 124.564 37.7474C124.023 37.5141 123.594 37.1781 123.276 36.7394C122.959 36.3007 122.796 35.7827 122.786 35.1854H124.886C124.914 35.5867 125.054 35.9041 125.306 36.1374C125.568 36.3707 125.922 36.4874 126.37 36.4874C126.828 36.4874 127.187 36.3801 127.448 36.1654C127.71 35.9414 127.84 35.6521 127.84 35.2974C127.84 35.0081 127.752 34.7701 127.574 34.5834C127.397 34.3967 127.173 34.2521 126.902 34.1494C126.641 34.0374 126.277 33.9161 125.81 33.7854C125.176 33.5987 124.658 33.4167 124.256 33.2394C123.864 33.0527 123.524 32.7774 123.234 32.4134C122.954 32.0401 122.814 31.5454 122.814 30.9294C122.814 30.3507 122.959 29.8467 123.248 29.4174C123.538 28.9881 123.944 28.6614 124.466 28.4374C124.989 28.2041 125.586 28.0874 126.258 28.0874C127.266 28.0874 128.083 28.3347 128.708 28.8294C129.343 29.3147 129.693 29.9961 129.758 30.8734H127.602C127.584 30.5374 127.439 30.2621 127.168 30.0474C126.907 29.8234 126.557 29.7114 126.118 29.7114C125.736 29.7114 125.428 29.8094 125.194 30.0054C124.97 30.2014 124.858 30.4861 124.858 30.8594C124.858 31.1207 124.942 31.3401 125.11 31.5174C125.288 31.6854 125.502 31.8254 125.754 31.9374C126.016 32.0401 126.38 32.1614 126.846 32.3014C127.481 32.4881 127.999 32.6747 128.4 32.8614C128.802 33.0481 129.147 33.3281 129.436 33.7014C129.726 34.0747 129.87 34.5647 129.87 35.1714C129.87 35.6941 129.735 36.1794 129.464 36.6274C129.194 37.0754 128.797 37.4347 128.274 37.7054C127.752 37.9667 127.131 38.0974 126.412 38.0974ZM141.555 28.2274V29.8094H138.951V37.9994H136.991V29.8094H134.387V28.2274H141.555ZM150.196 33.9534C150.196 34.2334 150.177 34.4854 150.14 34.7094H144.47C144.516 35.2694 144.712 35.7081 145.058 36.0254C145.403 36.3427 145.828 36.5014 146.332 36.5014C147.06 36.5014 147.578 36.1887 147.886 35.5634H150C149.776 36.3101 149.346 36.9261 148.712 37.4114C148.077 37.8874 147.298 38.1254 146.374 38.1254C145.627 38.1254 144.955 37.9621 144.358 37.6354C143.77 37.2994 143.308 36.8281 142.972 36.2214C142.645 35.6147 142.482 34.9147 142.482 34.1214C142.482 33.3187 142.645 32.6141 142.972 32.0074C143.298 31.4007 143.756 30.9341 144.344 30.6074C144.932 30.2807 145.608 30.1174 146.374 30.1174C147.111 30.1174 147.769 30.2761 148.348 30.5934C148.936 30.9107 149.388 31.3634 149.706 31.9514C150.032 32.5301 150.196 33.1974 150.196 33.9534ZM148.166 33.3934C148.156 32.8894 147.974 32.4881 147.62 32.1894C147.265 31.8814 146.831 31.7274 146.318 31.7274C145.832 31.7274 145.422 31.8767 145.086 32.1754C144.759 32.4647 144.558 32.8707 144.484 33.3934H148.166ZM151.122 34.1214C151.122 33.3187 151.285 32.6187 151.612 32.0214C151.939 31.4147 152.391 30.9481 152.97 30.6214C153.549 30.2854 154.211 30.1174 154.958 30.1174C155.919 30.1174 156.713 30.3601 157.338 30.8454C157.973 31.3214 158.397 31.9934 158.612 32.8614H156.498C156.386 32.5254 156.195 32.2641 155.924 32.0774C155.663 31.8814 155.336 31.7834 154.944 31.7834C154.384 31.7834 153.941 31.9887 153.614 32.3994C153.287 32.8007 153.124 33.3747 153.124 34.1214C153.124 34.8587 153.287 35.4327 153.614 35.8434C153.941 36.2447 154.384 36.4454 154.944 36.4454C155.737 36.4454 156.255 36.0907 156.498 35.3814H158.612C158.397 36.2214 157.973 36.8887 157.338 37.3834C156.703 37.8781 155.91 38.1254 154.958 38.1254C154.211 38.1254 153.549 37.9621 152.97 37.6354C152.391 37.2994 151.939 36.8327 151.612 36.2354C151.285 35.6287 151.122 34.9241 151.122 34.1214ZM164.416 30.1314C165.004 30.1314 165.527 30.2621 165.984 30.5234C166.441 30.7754 166.796 31.1534 167.048 31.6574C167.309 32.1521 167.44 32.7494 167.44 33.4494V37.9994H165.48V33.7154C165.48 33.0994 165.326 32.6281 165.018 32.3014C164.71 31.9654 164.29 31.7974 163.758 31.7974C163.217 31.7974 162.787 31.9654 162.47 32.3014C162.162 32.6281 162.008 33.0994 162.008 33.7154V37.9994H160.048V27.6394H162.008V31.2094C162.26 30.8734 162.596 30.6121 163.016 30.4254C163.436 30.2294 163.903 30.1314 164.416 30.1314ZM173.602 30.1314C174.526 30.1314 175.273 30.4254 175.842 31.0134C176.411 31.5921 176.696 32.4041 176.696 33.4494V37.9994H174.736V33.7154C174.736 33.0994 174.582 32.6281 174.274 32.3014C173.966 31.9654 173.546 31.7974 173.014 31.7974C172.473 31.7974 172.043 31.9654 171.726 32.3014C171.418 32.6281 171.264 33.0994 171.264 33.7154V37.9994H169.304V30.2434H171.264V31.2094C171.525 30.8734 171.857 30.6121 172.258 30.4254C172.669 30.2294 173.117 30.1314 173.602 30.1314ZM182.004 38.1254C181.257 38.1254 180.585 37.9621 179.988 37.6354C179.39 37.2994 178.919 36.8281 178.574 36.2214C178.238 35.6147 178.07 34.9147 178.07 34.1214C178.07 33.3281 178.242 32.6281 178.588 32.0214C178.942 31.4147 179.423 30.9481 180.03 30.6214C180.636 30.2854 181.313 30.1174 182.06 30.1174C182.806 30.1174 183.483 30.2854 184.09 30.6214C184.696 30.9481 185.172 31.4147 185.518 32.0214C185.872 32.6281 186.05 33.3281 186.05 34.1214C186.05 34.9147 185.868 35.6147 185.504 36.2214C185.149 36.8281 184.664 37.2994 184.048 37.6354C183.441 37.9621 182.76 38.1254 182.004 38.1254ZM182.004 36.4174C182.358 36.4174 182.69 36.3334 182.998 36.1654C183.315 35.9881 183.567 35.7267 183.754 35.3814C183.94 35.0361 184.034 34.6161 184.034 34.1214C184.034 33.3841 183.838 32.8194 183.446 32.4274C183.063 32.0261 182.592 31.8254 182.032 31.8254C181.472 31.8254 181 32.0261 180.618 32.4274C180.244 32.8194 180.058 33.3841 180.058 34.1214C180.058 34.8587 180.24 35.4281 180.604 35.8294C180.977 36.2214 181.444 36.4174 182.004 36.4174ZM189.447 27.6394V37.9994H187.487V27.6394H189.447ZM194.828 38.1254C194.081 38.1254 193.409 37.9621 192.812 37.6354C192.215 37.2994 191.743 36.8281 191.398 36.2214C191.062 35.6147 190.894 34.9147 190.894 34.1214C190.894 33.3281 191.067 32.6281 191.412 32.0214C191.767 31.4147 192.247 30.9481 192.854 30.6214C193.461 30.2854 194.137 30.1174 194.884 30.1174C195.631 30.1174 196.307 30.2854 196.914 30.6214C197.521 30.9481 197.997 31.4147 198.342 32.0214C198.697 32.6281 198.874 33.3281 198.874 34.1214C198.874 34.9147 198.692 35.6147 198.328 36.2214C197.973 36.8281 197.488 37.2994 196.872 37.6354C196.265 37.9621 195.584 38.1254 194.828 38.1254ZM194.828 36.4174C195.183 36.4174 195.514 36.3334 195.822 36.1654C196.139 35.9881 196.391 35.7267 196.578 35.3814C196.765 35.0361 196.858 34.6161 196.858 34.1214C196.858 33.3841 196.662 32.8194 196.27 32.4274C195.887 32.0261 195.416 31.8254 194.856 31.8254C194.296 31.8254 193.825 32.0261 193.442 32.4274C193.069 32.8194 192.882 33.3841 192.882 34.1214C192.882 34.8587 193.064 35.4281 193.428 35.8294C193.801 36.2214 194.268 36.4174 194.828 36.4174ZM203.35 30.1174C203.928 30.1174 204.437 30.2341 204.876 30.4674C205.314 30.6914 205.66 30.9854 205.912 31.3494V30.2434H207.886V38.0554C207.886 38.7741 207.741 39.4134 207.452 39.9734C207.162 40.5427 206.728 40.9907 206.15 41.3174C205.571 41.6534 204.871 41.8214 204.05 41.8214C202.948 41.8214 202.043 41.5647 201.334 41.0514C200.634 40.5381 200.237 39.8381 200.144 38.9514H202.09C202.192 39.3061 202.412 39.5861 202.748 39.7914C203.093 40.0061 203.508 40.1134 203.994 40.1134C204.563 40.1134 205.025 39.9407 205.38 39.5954C205.734 39.2594 205.912 38.7461 205.912 38.0554V36.8514C205.66 37.2154 205.31 37.5187 204.862 37.7614C204.423 38.0041 203.919 38.1254 203.35 38.1254C202.696 38.1254 202.099 37.9574 201.558 37.6214C201.016 37.2854 200.587 36.8141 200.27 36.2074C199.962 35.5914 199.808 34.8867 199.808 34.0934C199.808 33.3094 199.962 32.6141 200.27 32.0074C200.587 31.4007 201.012 30.9341 201.544 30.6074C202.085 30.2807 202.687 30.1174 203.35 30.1174ZM205.912 34.1214C205.912 33.6454 205.818 33.2394 205.632 32.9034C205.445 32.5581 205.193 32.2967 204.876 32.1194C204.558 31.9327 204.218 31.8394 203.854 31.8394C203.49 31.8394 203.154 31.9281 202.846 32.1054C202.538 32.2827 202.286 32.5441 202.09 32.8894C201.903 33.2254 201.81 33.6267 201.81 34.0934C201.81 34.5601 201.903 34.9707 202.09 35.3254C202.286 35.6707 202.538 35.9367 202.846 36.1234C203.163 36.3101 203.499 36.4034 203.854 36.4034C204.218 36.4034 204.558 36.3147 204.876 36.1374C205.193 35.9507 205.445 35.6894 205.632 35.3534C205.818 35.0081 205.912 34.5974 205.912 34.1214ZM210.794 29.3194C210.449 29.3194 210.159 29.2121 209.926 28.9974C209.702 28.7734 209.59 28.4981 209.59 28.1714C209.59 27.8447 209.702 27.5741 209.926 27.3594C210.159 27.1354 210.449 27.0234 210.794 27.0234C211.139 27.0234 211.424 27.1354 211.648 27.3594C211.881 27.5741 211.998 27.8447 211.998 28.1714C211.998 28.4981 211.881 28.7734 211.648 28.9974C211.424 29.2121 211.139 29.3194 210.794 29.3194ZM211.76 30.2434V37.9994H209.8V30.2434H211.76ZM220.906 33.9534C220.906 34.2334 220.888 34.4854 220.85 34.7094H215.18C215.227 35.2694 215.423 35.7081 215.768 36.0254C216.114 36.3427 216.538 36.5014 217.042 36.5014C217.77 36.5014 218.288 36.1887 218.596 35.5634H220.71C220.486 36.3101 220.057 36.9261 219.422 37.4114C218.788 37.8874 218.008 38.1254 217.084 38.1254C216.338 38.1254 215.666 37.9621 215.068 37.6354C214.48 37.2994 214.018 36.8281 213.682 36.2214C213.356 35.6147 213.192 34.9147 213.192 34.1214C213.192 33.3187 213.356 32.6141 213.682 32.0074C214.009 31.4007 214.466 30.9341 215.054 30.6074C215.642 30.2807 216.319 30.1174 217.084 30.1174C217.822 30.1174 218.48 30.2761 219.058 30.5934C219.646 30.9107 220.099 31.3634 220.416 31.9514C220.743 32.5301 220.906 33.1974 220.906 33.9534ZM218.876 33.3934C218.867 32.8894 218.685 32.4881 218.33 32.1894C217.976 31.8814 217.542 31.7274 217.028 31.7274C216.543 31.7274 216.132 31.8767 215.796 32.1754C215.47 32.4647 215.269 32.8707 215.194 33.3934H218.876ZM225.305 38.1254C224.67 38.1254 224.101 38.0134 223.597 37.7894C223.093 37.5561 222.692 37.2434 222.393 36.8514C222.104 36.4594 221.945 36.0254 221.917 35.5494H223.891C223.928 35.8481 224.073 36.0954 224.325 36.2914C224.586 36.4874 224.908 36.5854 225.291 36.5854C225.664 36.5854 225.954 36.5107 226.159 36.3614C226.374 36.2121 226.481 36.0207 226.481 35.7874C226.481 35.5354 226.35 35.3487 226.089 35.2274C225.837 35.0967 225.431 34.9567 224.871 34.8074C224.292 34.6674 223.816 34.5227 223.443 34.3734C223.079 34.2241 222.762 33.9954 222.491 33.6874C222.23 33.3794 222.099 32.9641 222.099 32.4414C222.099 32.0121 222.22 31.6201 222.463 31.2654C222.715 30.9107 223.07 30.6307 223.527 30.4254C223.994 30.2201 224.54 30.1174 225.165 30.1174C226.089 30.1174 226.826 30.3507 227.377 30.8174C227.928 31.2747 228.231 31.8954 228.287 32.6794H226.411C226.383 32.3714 226.252 32.1287 226.019 31.9514C225.795 31.7647 225.492 31.6714 225.109 31.6714C224.754 31.6714 224.479 31.7367 224.283 31.8674C224.096 31.9981 224.003 32.1801 224.003 32.4134C224.003 32.6747 224.134 32.8754 224.395 33.0154C224.656 33.1461 225.062 33.2814 225.613 33.4214C226.173 33.5614 226.635 33.7061 226.999 33.8554C227.363 34.0047 227.676 34.2381 227.937 34.5554C228.208 34.8634 228.348 35.2741 228.357 35.7874C228.357 36.2354 228.231 36.6367 227.979 36.9914C227.736 37.3461 227.382 37.6261 226.915 37.8314C226.458 38.0274 225.921 38.1254 225.305 38.1254Z" fill="#393E38"/>
<path d="M98.3553 44.6162C100.132 44.6162 101.676 44.9522 102.988 45.6242C104.3 46.2962 105.308 47.2402 106.012 48.4562C106.716 49.6562 107.068 51.0482 107.068 52.6322C107.068 53.8962 106.86 55.1122 106.444 56.2802C106.028 57.4322 105.42 58.3682 104.62 59.0882C103.836 59.8082 102.916 60.1682 101.86 60.1682C101.06 60.1682 100.444 59.9682 100.012 59.5682C99.5794 59.1682 99.3313 58.6242 99.2673 57.9362C98.7713 58.6242 98.1394 59.1682 97.3714 59.5682C96.6194 59.9682 95.8194 60.1682 94.9714 60.1682C93.7554 60.1682 92.7953 59.8002 92.0913 59.0642C91.4033 58.3122 91.0593 57.3042 91.0593 56.0402C91.0593 54.8402 91.3074 53.7202 91.8034 52.6802C92.3154 51.6402 93.0194 50.8082 93.9154 50.1842C94.8114 49.5442 95.8273 49.2242 96.9633 49.2242C98.4833 49.2242 99.5074 49.8002 100.036 50.9522L100.3 49.4642H102.196L100.996 56.4002C100.948 56.7042 100.924 56.9842 100.924 57.2402C100.924 58.2002 101.348 58.6802 102.196 58.6802C102.836 58.6802 103.388 58.3762 103.852 57.7682C104.332 57.1602 104.692 56.4002 104.932 55.4882C105.172 54.5602 105.292 53.6482 105.292 52.7522C105.292 50.6562 104.66 49.0322 103.396 47.8802C102.148 46.7282 100.38 46.1522 98.0913 46.1522C96.1873 46.1522 94.4674 46.6162 92.9314 47.5442C91.4114 48.4562 90.2193 49.7122 89.3553 51.3122C88.4913 52.9122 88.0593 54.6802 88.0593 56.6162C88.0433 58.7282 88.6754 60.3522 89.9554 61.4882C91.2354 62.6402 93.0113 63.2162 95.2833 63.2162C96.7873 63.2162 98.1153 62.9442 99.2673 62.4002L99.5554 63.8882C98.1314 64.4802 96.5633 64.7762 94.8513 64.7762C93.1393 64.7762 91.6274 64.4482 90.3154 63.7922C89.0194 63.1522 88.0114 62.2242 87.2914 61.0082C86.5874 59.8082 86.2354 58.4082 86.2354 56.8082C86.2354 54.5522 86.7553 52.4962 87.7953 50.6402C88.8353 48.7682 90.2753 47.2962 92.1153 46.2242C93.9713 45.1522 96.0513 44.6162 98.3553 44.6162ZM95.6193 58.4642C96.3393 58.4642 97.0034 58.2562 97.6114 57.8402C98.2194 57.4082 98.6994 56.8322 99.0514 56.1122C99.4034 55.3762 99.5794 54.5762 99.5794 53.7122C99.5794 52.8802 99.3473 52.2082 98.8833 51.6962C98.4353 51.1682 97.7953 50.9042 96.9633 50.9042C96.1953 50.9042 95.5153 51.1362 94.9233 51.6002C94.3473 52.0482 93.8994 52.6482 93.5794 53.4002C93.2594 54.1362 93.0993 54.9042 93.0993 55.7042C93.0993 56.5522 93.3154 57.2242 93.7474 57.7202C94.1794 58.2162 94.8033 58.4642 95.6193 58.4642ZM113.325 48.6482V56.4002C113.325 57.0402 113.461 57.4962 113.733 57.7682C114.005 58.0242 114.477 58.1522 115.148 58.1522H116.757V60.0002H114.789C113.573 60.0002 112.661 59.7202 112.053 59.1602C111.445 58.6002 111.141 57.6802 111.141 56.4002V48.6482H109.437V46.8482H111.141V43.5362H113.325V46.8482H116.757V48.6482H113.325ZM118.587 53.3762C118.587 52.0322 118.859 50.8562 119.403 49.8482C119.947 48.8242 120.691 48.0322 121.635 47.4722C122.595 46.9122 123.659 46.6322 124.827 46.6322C125.979 46.6322 126.979 46.8802 127.827 47.3762C128.675 47.8722 129.307 48.4962 129.723 49.2482V46.8482H131.931V60.0002H129.723V57.5522C129.291 58.3202 128.643 58.9602 127.779 59.4722C126.931 59.9682 125.939 60.2162 124.803 60.2162C123.635 60.2162 122.579 59.9282 121.635 59.3522C120.691 58.7762 119.947 57.9682 119.403 56.9282C118.859 55.8882 118.587 54.7042 118.587 53.3762ZM129.723 53.4002C129.723 52.4082 129.523 51.5442 129.123 50.8082C128.723 50.0722 128.179 49.5122 127.491 49.1282C126.819 48.7282 126.075 48.5282 125.259 48.5282C124.443 48.5282 123.699 48.7202 123.027 49.1042C122.355 49.4882 121.819 50.0482 121.419 50.7842C121.019 51.5202 120.819 52.3842 120.819 53.3762C120.819 54.3842 121.019 55.2642 121.419 56.0162C121.819 56.7522 122.355 57.3202 123.027 57.7202C123.699 58.1042 124.443 58.2962 125.259 58.2962C126.075 58.2962 126.819 58.1042 127.491 57.7202C128.179 57.3202 128.723 56.7522 129.123 56.0162C129.523 55.2642 129.723 54.3922 129.723 53.4002ZM138.285 48.6482V56.4002C138.285 57.0402 138.421 57.4962 138.693 57.7682C138.965 58.0242 139.437 58.1522 140.109 58.1522H141.717V60.0002H139.749C138.533 60.0002 137.621 59.7202 137.013 59.1602C136.405 58.6002 136.101 57.6802 136.101 56.4002V48.6482H134.397V46.8482H136.101V43.5362H138.285V46.8482H141.717V48.6482H138.285ZM150.1 60.2162C148.868 60.2162 147.748 59.9362 146.74 59.3762C145.748 58.8162 144.964 58.0242 144.388 57.0002C143.828 55.9602 143.548 54.7602 143.548 53.4002C143.548 52.0562 143.836 50.8722 144.412 49.8482C145.004 48.8082 145.804 48.0162 146.812 47.4722C147.82 46.9122 148.948 46.6322 150.196 46.6322C151.444 46.6322 152.572 46.9122 153.58 47.4722C154.588 48.0162 155.38 48.8002 155.956 49.8242C156.548 50.8482 156.844 52.0402 156.844 53.4002C156.844 54.7602 156.54 55.9602 155.932 57.0002C155.34 58.0242 154.532 58.8162 153.508 59.3762C152.484 59.9362 151.348 60.2162 150.1 60.2162ZM150.1 58.2962C150.884 58.2962 151.62 58.1122 152.308 57.7442C152.996 57.3762 153.548 56.8242 153.964 56.0882C154.396 55.3522 154.612 54.4562 154.612 53.4002C154.612 52.3442 154.404 51.4482 153.988 50.7122C153.572 49.9762 153.028 49.4322 152.356 49.0802C151.684 48.7122 150.956 48.5282 150.172 48.5282C149.372 48.5282 148.636 48.7122 147.964 49.0802C147.308 49.4322 146.78 49.9762 146.38 50.7122C145.98 51.4482 145.78 52.3442 145.78 53.4002C145.78 54.4722 145.972 55.3762 146.356 56.1122C146.756 56.8482 147.284 57.4002 147.94 57.7682C148.596 58.1202 149.316 58.2962 150.1 58.2962ZM164.371 60.2162C163.363 60.2162 162.459 60.0482 161.659 59.7122C160.859 59.3602 160.227 58.8802 159.763 58.2722C159.299 57.6482 159.043 56.9362 158.995 56.1362H161.251C161.315 56.7922 161.619 57.3282 162.163 57.7442C162.723 58.1602 163.451 58.3682 164.347 58.3682C165.179 58.3682 165.835 58.1842 166.315 57.8162C166.795 57.4482 167.035 56.9842 167.035 56.4242C167.035 55.8482 166.779 55.4242 166.267 55.1522C165.755 54.8642 164.963 54.5842 163.891 54.3122C162.915 54.0562 162.115 53.8002 161.491 53.5442C160.883 53.2722 160.355 52.8802 159.907 52.3682C159.475 51.8402 159.259 51.1522 159.259 50.3042C159.259 49.6322 159.459 49.0162 159.859 48.4562C160.259 47.8962 160.827 47.4562 161.563 47.1362C162.299 46.8002 163.139 46.6322 164.083 46.6322C165.539 46.6322 166.715 47.0002 167.611 47.7362C168.507 48.4722 168.987 49.4802 169.051 50.7602H166.867C166.819 50.0722 166.539 49.5202 166.027 49.1042C165.531 48.6882 164.859 48.4802 164.011 48.4802C163.227 48.4802 162.603 48.6482 162.139 48.9842C161.675 49.3202 161.443 49.7602 161.443 50.3042C161.443 50.7362 161.579 51.0962 161.851 51.3842C162.139 51.6562 162.491 51.8802 162.907 52.0562C163.339 52.2162 163.931 52.4002 164.683 52.6082C165.627 52.8642 166.395 53.1202 166.987 53.3762C167.579 53.6162 168.083 53.9842 168.499 54.4802C168.931 54.9762 169.155 55.6242 169.171 56.4242C169.171 57.1442 168.971 57.7922 168.571 58.3682C168.171 58.9442 167.603 59.4002 166.867 59.7362C166.147 60.0562 165.315 60.2162 164.371 60.2162ZM172.95 60.1442C172.534 60.1442 172.182 60.0002 171.894 59.7122C171.606 59.4242 171.462 59.0722 171.462 58.6562C171.462 58.2402 171.606 57.8882 171.894 57.6002C172.182 57.3122 172.534 57.1682 172.95 57.1682C173.35 57.1682 173.686 57.3122 173.958 57.6002C174.246 57.8882 174.39 58.2402 174.39 58.6562C174.39 59.0722 174.246 59.4242 173.958 59.7122C173.686 60.0002 173.35 60.1442 172.95 60.1442ZM179.957 48.6482V56.4002C179.957 57.0402 180.093 57.4962 180.365 57.7682C180.637 58.0242 181.109 58.1522 181.781 58.1522H183.389V60.0002H181.421C180.205 60.0002 179.293 59.7202 178.685 59.1602C178.077 58.6002 177.773 57.6802 177.773 56.4002V48.6482H176.069V46.8482H177.773V43.5362H179.957V46.8482H183.389V48.6482H179.957ZM198.036 52.9202C198.036 53.3362 198.012 53.7762 197.964 54.2402H187.452C187.532 55.5362 187.972 56.5522 188.772 57.2882C189.588 58.0082 190.572 58.3682 191.724 58.3682C192.668 58.3682 193.452 58.1522 194.076 57.7202C194.716 57.2722 195.164 56.6802 195.42 55.9442H197.772C197.42 57.2082 196.716 58.2402 195.66 59.0402C194.604 59.8242 193.292 60.2162 191.724 60.2162C190.476 60.2162 189.356 59.9362 188.364 59.3762C187.388 58.8162 186.62 58.0242 186.06 57.0002C185.5 55.9602 185.22 54.7602 185.22 53.4002C185.22 52.0402 185.492 50.8482 186.036 49.8242C186.58 48.8002 187.34 48.0162 188.316 47.4722C189.308 46.9122 190.444 46.6322 191.724 46.6322C192.972 46.6322 194.076 46.9042 195.036 47.4482C195.996 47.9922 196.732 48.7442 197.244 49.7042C197.772 50.6482 198.036 51.7202 198.036 52.9202ZM195.78 52.4642C195.78 51.6322 195.596 50.9202 195.228 50.3282C194.86 49.7202 194.356 49.2642 193.716 48.9602C193.092 48.6402 192.396 48.4802 191.628 48.4802C190.524 48.4802 189.58 48.8322 188.796 49.5362C188.028 50.2402 187.588 51.2162 187.476 52.4642H195.78ZM200.102 53.4002C200.102 52.0402 200.374 50.8562 200.918 49.8482C201.462 48.8242 202.214 48.0322 203.174 47.4722C204.15 46.9122 205.262 46.6322 206.51 46.6322C208.126 46.6322 209.454 47.0242 210.494 47.8082C211.55 48.5922 212.246 49.6802 212.582 51.0722H210.23C210.006 50.2722 209.566 49.6402 208.91 49.1762C208.27 48.7122 207.47 48.4802 206.51 48.4802C205.262 48.4802 204.254 48.9122 203.486 49.7762C202.718 50.6242 202.334 51.8322 202.334 53.4002C202.334 54.9842 202.718 56.2082 203.486 57.0722C204.254 57.9362 205.262 58.3682 206.51 58.3682C207.47 58.3682 208.27 58.1442 208.91 57.6962C209.55 57.2482 209.99 56.6082 210.23 55.7762H212.582C212.23 57.1202 211.526 58.2002 210.47 59.0162C209.414 59.8162 208.094 60.2162 206.51 60.2162C205.262 60.2162 204.15 59.9362 203.174 59.3762C202.214 58.8162 201.462 58.0242 200.918 57.0002C200.374 55.9762 200.102 54.7762 200.102 53.4002ZM222.024 46.6082C223.016 46.6082 223.912 46.8242 224.712 47.2562C225.512 47.6722 226.136 48.3042 226.584 49.1522C227.048 50.0002 227.28 51.0322 227.28 52.2482V60.0002H225.12V52.5602C225.12 51.2482 224.792 50.2482 224.136 49.5602C223.48 48.8562 222.584 48.5042 221.448 48.5042C220.296 48.5042 219.376 48.8642 218.688 49.5842C218.016 50.3042 217.68 51.3522 217.68 52.7282V60.0002H215.496V42.2402H217.68V48.7202C218.112 48.0482 218.704 47.5282 219.456 47.1602C220.224 46.7922 221.08 46.6082 222.024 46.6082Z" fill="#393E38"/>
<path d="M510.027 45.3384H507.202V41.7415H503.038V45.3384H500.985V48.4662H503.038V56.2857C503.018 59.2278 505.022 60.6842 508.042 60.5571C509.118 60.518 509.88 60.303 510.3 60.1661L509.645 57.0677C509.44 57.1068 509 57.2045 508.609 57.2045C507.779 57.2045 507.202 56.8917 507.202 55.7384V48.4662H510.027V45.3384ZM519.42 60.6451C523.134 60.6451 525.636 58.8368 526.223 56.0511L522.372 55.797C521.951 56.9406 520.876 57.5368 519.488 57.5368C517.406 57.5368 516.087 56.1587 516.087 53.9203V53.9106H526.311V52.767C526.311 47.6647 523.222 45.143 519.254 45.143C514.836 45.143 511.972 48.2805 511.972 52.9136C511.972 57.6737 514.797 60.6451 519.42 60.6451ZM516.087 51.3301C516.175 49.6196 517.475 48.2512 519.322 48.2512C521.13 48.2512 522.381 49.5414 522.391 51.3301H516.087ZM535.811 60.6451C539.809 60.6451 542.321 58.2992 542.517 54.8489H538.587C538.343 56.4519 537.287 57.3511 535.86 57.3511C533.915 57.3511 532.654 55.7188 532.654 52.8451C532.654 50.0106 533.925 48.388 535.86 48.388C537.385 48.388 538.363 49.3948 538.587 50.8903H542.517C542.341 47.4204 539.711 45.143 535.792 45.143C531.237 45.143 528.422 48.3001 528.422 52.9038C528.422 57.4684 531.188 60.6451 535.811 60.6451ZM549.346 51.6722C549.356 49.7369 550.539 48.6031 552.24 48.6031C553.931 48.6031 554.928 49.688 554.918 51.5354V60.3519H559.082V50.7925C559.092 47.2738 557.019 45.143 553.892 45.143C551.614 45.143 550.089 46.2181 549.405 47.9873H549.229V40.334H545.183V60.3519H549.346V51.6722Z" fill="#2B2B2B"/>
<path d="M562.985 57.2123C562.758 54.4168 562.495 51.6393 562.196 48.8797C561.909 46.12 561.485 43.3664 560.924 40.6187C560.9 40.5231 560.888 40.4395 560.888 40.3678C560.888 40.2842 560.888 40.2066 560.888 40.1349C560.888 39.8601 560.942 39.6212 561.049 39.4181C561.169 39.215 561.324 39.0478 561.515 38.9163C561.706 38.773 561.921 38.6655 562.16 38.5938C562.411 38.5221 562.674 38.4863 562.949 38.4863C563.678 38.4863 564.179 38.8267 564.454 39.5077C564.574 39.8541 564.693 40.3499 564.812 40.995C564.944 41.6401 565.075 42.3868 565.207 43.235C565.35 44.0832 565.487 45.015 565.619 46.0304C565.75 47.0339 565.876 48.0673 565.995 49.1305C566.031 49.4292 566.127 49.5785 566.282 49.5785C566.413 49.5785 566.551 49.4889 566.694 49.3097C568.438 47.016 570.505 45.8692 572.894 45.8692C573.79 45.8692 574.626 46.0663 575.403 46.4605C576.179 46.8548 576.854 47.3923 577.428 48.0733C578.001 48.7542 578.449 49.5606 578.772 50.4924C579.106 51.4243 579.274 52.4278 579.274 53.5029C579.274 54.5064 579.112 55.4383 578.79 56.2984C578.479 57.1586 578.043 57.8992 577.482 58.5204C576.92 59.1417 576.251 59.6315 575.475 59.9899C574.71 60.3363 573.874 60.5095 572.966 60.5095C571.843 60.5095 570.744 60.2945 569.669 59.8644C568.593 59.4224 567.578 58.8311 566.622 58.0904C566.515 57.9948 566.401 57.947 566.282 57.947C566.127 57.947 565.983 58.0306 565.852 58.1979C565.661 58.4129 565.458 58.5563 565.243 58.628C565.027 58.6877 564.765 58.7176 564.454 58.7176C563.51 58.7176 563.02 58.2158 562.985 57.2123ZM572.267 49.2022C571.789 49.2022 571.311 49.3157 570.833 49.5427C570.368 49.7577 569.926 50.0683 569.507 50.4745C569.089 50.8807 568.701 51.3705 568.343 51.9439C567.996 52.5054 567.703 53.1326 567.465 53.8255C567.441 53.8613 567.423 53.9151 567.411 53.9868C567.399 54.0585 567.393 54.1182 567.393 54.166C567.393 54.3691 567.465 54.5244 567.608 54.6319C568.038 55.0022 568.48 55.3487 568.934 55.6712C569.4 55.9938 569.86 56.2745 570.314 56.5134C570.768 56.7524 571.216 56.9435 571.658 57.0869C572.1 57.2183 572.512 57.284 572.894 57.284C573.754 57.284 574.405 57.0331 574.847 56.5314C575.301 56.0296 575.528 55.3009 575.528 54.3452C575.528 53.6045 575.445 52.9235 575.278 52.3023C575.11 51.6692 574.883 51.1256 574.597 50.6716C574.31 50.2057 573.963 49.8473 573.557 49.5965C573.163 49.3336 572.733 49.2022 572.267 49.2022ZM592.91 45.69C593.568 45.69 594.201 45.7915 594.81 45.9946C595.419 46.1977 595.957 46.4784 596.423 46.8368C596.889 47.1952 597.259 47.6253 597.534 48.127C597.82 48.6288 597.964 49.1843 597.964 49.7936C597.964 50.0445 597.904 50.2894 597.785 50.5283C597.677 50.7553 597.528 50.9584 597.337 51.1375C597.145 51.3048 596.924 51.4422 596.674 51.5497C596.435 51.6453 596.184 51.6931 595.921 51.6931C595.897 51.6931 595.873 51.699 595.849 51.711C595.837 51.711 595.819 51.711 595.796 51.711C595.772 51.7229 595.748 51.7289 595.724 51.7289L595.796 53.1625C595.843 54.8708 596.082 56.1192 596.512 56.9077C596.954 57.6961 597.528 58.0904 598.233 58.0904C598.483 58.0904 598.704 58.0665 598.896 58.0187C599.099 57.9709 599.284 57.9172 599.451 57.8574C599.63 57.7857 599.798 57.726 599.953 57.6782C600.108 57.6304 600.263 57.6065 600.419 57.6065C600.694 57.6065 600.932 57.726 601.136 57.9649C601.351 58.2039 601.458 58.4906 601.458 58.8251C601.458 59.1596 601.327 59.4941 601.064 59.8286C600.813 60.1631 600.479 60.4677 600.06 60.7425C599.642 61.0053 599.17 61.2203 598.645 61.3876C598.119 61.5548 597.587 61.6385 597.05 61.6385C596.118 61.6385 595.3 61.2562 594.595 60.4916C593.89 59.7151 593.388 58.5802 593.09 57.0869C593.018 56.8479 592.922 56.7285 592.803 56.7285C592.66 56.7285 592.534 56.8002 592.427 56.9435C591.244 58.4368 589.984 59.5598 588.646 60.3124C587.308 61.0531 585.987 61.4234 584.685 61.4234C584.076 61.4234 583.527 61.3338 583.037 61.1546C582.547 60.9754 582.129 60.7246 581.782 60.402C581.448 60.0675 581.185 59.6673 580.994 59.2014C580.815 58.7235 580.725 58.1919 580.725 57.6065C580.725 56.7822 580.904 55.9161 581.263 55.0082C581.633 54.1003 582.129 53.2043 582.75 52.3202C583.371 51.4362 584.088 50.594 584.9 49.7936C585.725 48.9932 586.585 48.2883 587.481 47.6791C588.389 47.0698 589.309 46.586 590.24 46.2276C591.172 45.8692 592.062 45.69 592.91 45.69ZM592.319 51.8902C592.534 51.484 592.731 51.1913 592.91 51.0121C593.09 50.821 593.346 50.6955 593.681 50.6358C593.944 50.6 594.075 50.5163 594.075 50.3849C594.075 50.2894 594.039 50.1878 593.968 50.0803C593.741 49.7697 593.502 49.5009 593.251 49.2739C593 49.035 592.666 48.9155 592.247 48.9155C591.793 48.9155 591.286 49.0469 590.724 49.3097C590.163 49.5726 589.589 49.925 589.004 50.367C588.431 50.7971 587.863 51.2929 587.302 51.8543C586.752 52.4039 586.262 52.9713 585.832 53.5567C585.402 54.1421 585.056 54.7215 584.793 55.2949C584.53 55.8683 584.399 56.382 584.399 56.836C584.399 57.2422 584.506 57.5588 584.721 57.7857C584.948 58.0127 585.253 58.1262 585.635 58.1262C586.615 58.1262 587.684 57.6065 588.843 56.5672C590.001 55.5279 591.16 53.9689 592.319 51.8902ZM601.082 40.9413C601.082 40.3201 601.261 39.878 601.619 39.6152C601.978 39.3524 602.569 39.221 603.393 39.221C603.68 39.221 603.931 39.2508 604.146 39.3106C604.361 39.3703 604.54 39.4719 604.684 39.6152C604.827 39.7466 604.941 39.9318 605.024 40.1707C605.12 40.3977 605.197 40.6904 605.257 41.0488C605.412 42.112 605.568 43.229 605.723 44.3998C605.89 45.5586 606.046 46.7174 606.189 47.8762C606.344 49.023 606.488 50.146 606.619 51.2451C606.75 52.3322 606.864 53.3476 606.959 54.2914C607.067 55.2232 607.145 56.0535 607.192 56.7822C607.252 57.499 607.282 58.0665 607.282 58.4846C607.282 58.9147 607.24 59.279 607.157 59.5777C607.085 59.8764 606.953 60.1153 606.762 60.2945C606.583 60.4737 606.344 60.6051 606.046 60.6887C605.759 60.7604 605.4 60.7962 604.97 60.7962C604.552 60.7962 604.218 60.6887 603.967 60.4737C603.728 60.2587 603.608 59.9301 603.608 59.4881C603.608 59.0341 603.573 58.4308 603.501 57.6782C603.429 56.9137 603.334 56.0655 603.214 55.1336C603.095 54.2018 602.957 53.2103 602.802 52.159C602.659 51.1077 602.503 50.0683 602.336 49.0409C602.181 48.0136 602.026 47.028 601.87 46.0842C601.727 45.1285 601.596 44.2863 601.476 43.5575C601.357 42.8169 601.261 42.2136 601.189 41.7477C601.118 41.2698 601.082 41.001 601.082 40.9413ZM609.181 40.9413C609.181 40.3201 609.361 39.878 609.719 39.6152C610.077 39.3524 610.669 39.221 611.493 39.221C611.78 39.221 612.031 39.2508 612.246 39.3106C612.461 39.3703 612.64 39.4719 612.783 39.6152C612.927 39.7466 613.04 39.9318 613.124 40.1707C613.219 40.3977 613.297 40.6904 613.357 41.0488C613.512 42.112 613.667 43.229 613.823 44.3998C613.99 45.5586 614.145 46.7174 614.289 47.8762C614.444 49.023 614.587 50.146 614.719 51.2451C614.85 52.3322 614.964 53.3476 615.059 54.2914C615.167 55.2232 615.244 56.0535 615.292 56.7822C615.352 57.499 615.382 58.0665 615.382 58.4846C615.382 58.9147 615.34 59.279 615.256 59.5777C615.185 59.8764 615.053 60.1153 614.862 60.2945C614.683 60.4737 614.444 60.6051 614.145 60.6887C613.859 60.7604 613.5 60.7962 613.07 60.7962C612.652 60.7962 612.317 60.6887 612.067 60.4737C611.828 60.2587 611.708 59.9301 611.708 59.4881C611.708 59.0341 611.672 58.4308 611.601 57.6782C611.529 56.9137 611.433 56.0655 611.314 55.1336C611.194 54.2018 611.057 53.2103 610.902 52.159C610.758 51.1077 610.603 50.0683 610.436 49.0409C610.281 48.0136 610.125 47.028 609.97 46.0842C609.827 45.1285 609.695 44.2863 609.576 43.5575C609.456 42.8169 609.361 42.2136 609.289 41.7477C609.217 41.2698 609.181 41.001 609.181 40.9413ZM618.482 55.4024C618.482 55.1993 618.506 54.9724 618.553 54.7215C618.601 54.4706 618.625 54.1958 618.625 53.8972C618.625 53.6941 618.536 53.5388 618.356 53.4313C618.189 53.3237 617.998 53.2043 617.783 53.0729C617.568 52.9415 617.371 52.7742 617.192 52.5711C617.024 52.368 616.941 52.0753 616.941 51.6931C616.941 51.4183 617.012 51.1435 617.156 50.8688C617.311 50.594 617.532 50.3431 617.819 50.1161C618.524 49.5905 619.252 49.1186 620.005 48.7005C620.77 48.2824 621.528 47.9299 622.281 47.6432C623.045 47.3565 623.798 47.1355 624.539 46.9802C625.279 46.8249 625.99 46.7472 626.671 46.7472C627.818 46.7472 628.893 46.9623 629.897 47.3923C630.912 47.8105 631.79 48.3899 632.531 49.1305C633.283 49.8593 633.875 50.7194 634.305 51.711C634.747 52.6906 634.968 53.7419 634.968 54.8648C634.968 55.9639 634.735 57.0092 634.269 58.0008C633.815 58.9804 633.2 59.8405 632.423 60.5812C631.647 61.3219 630.733 61.9073 629.682 62.3373C628.642 62.7793 627.543 63.0004 626.384 63.0004C625.249 63.0004 624.198 62.8092 623.231 62.4269C622.263 62.0446 621.427 61.519 620.722 60.85C620.017 60.1691 619.467 59.3686 619.073 58.4488C618.679 57.5169 618.482 56.5015 618.482 55.4024ZM626.779 59.7748C627.28 59.7748 627.8 59.6733 628.338 59.4702C628.875 59.2671 629.365 58.9744 629.807 58.5921C630.261 58.1979 630.631 57.72 630.918 57.1586C631.217 56.5971 631.366 55.9639 631.366 55.2591C631.366 54.5423 631.235 53.8733 630.972 53.2521C630.709 52.6309 630.345 52.0933 629.879 51.6393C629.425 51.1734 628.881 50.809 628.248 50.5462C627.627 50.2834 626.952 50.152 626.223 50.152C624.897 50.152 623.882 50.4984 623.177 51.1913C622.472 51.8723 622.119 52.9235 622.119 54.3452C622.119 55.1217 622.233 55.8444 622.46 56.5134C622.699 57.1705 623.027 57.7439 623.446 58.2337C623.864 58.7116 624.353 59.0879 624.915 59.3627C625.488 59.6374 626.11 59.7748 626.779 59.7748ZM638.982 40.6546C638.982 40.0214 639.161 39.5794 639.519 39.3285C639.878 39.0657 640.469 38.9343 641.294 38.9343C641.592 38.9343 641.843 38.9641 642.046 39.0239C642.261 39.0716 642.44 39.1672 642.584 39.3106C642.739 39.4539 642.858 39.6451 642.942 39.884C643.038 40.111 643.115 40.4037 643.175 40.7621C643.318 41.8731 643.474 43.0199 643.641 44.2026C643.82 45.3853 644.005 46.574 644.196 47.7687C644.268 48.3062 644.549 48.575 645.039 48.575C645.17 48.575 645.385 48.5631 645.684 48.5392C645.994 48.5034 646.359 48.4675 646.777 48.4317C647.195 48.3839 647.643 48.3361 648.121 48.2883C648.611 48.2405 649.095 48.1987 649.572 48.1629C650.062 48.1151 650.522 48.0793 650.952 48.0554C651.394 48.0195 651.782 48.0016 652.117 48.0016C652.38 48.0016 652.589 48.0554 652.744 48.1629C652.899 48.2585 653.019 48.3899 653.103 48.5571C653.198 48.7124 653.258 48.8916 653.282 49.0947C653.318 49.2859 653.336 49.483 653.336 49.6861C653.336 49.8653 653.3 50.0504 653.228 50.2416C653.168 50.4327 653.079 50.6059 652.959 50.7612C652.852 50.9046 652.714 51.0241 652.547 51.1196C652.38 51.2152 652.189 51.263 651.974 51.263C650.934 51.263 649.883 51.2988 648.82 51.3705C647.768 51.4302 646.717 51.5139 645.666 51.6214C645.128 51.6931 644.86 51.9619 644.86 52.4278C644.86 52.4636 644.865 52.5114 644.877 52.5711C644.889 52.6189 644.895 52.6607 644.895 52.6966C645.039 53.7359 645.17 54.7095 645.29 55.6175C645.421 56.5254 645.529 57.3377 645.612 58.0545C645.708 58.7594 645.779 59.3507 645.827 59.8286C645.887 60.2945 645.917 60.6051 645.917 60.7604C645.917 61.1905 645.875 61.5489 645.791 61.8356C645.708 62.1342 645.57 62.3732 645.379 62.5524C645.188 62.7435 644.931 62.8749 644.609 62.9466C644.298 63.0302 643.904 63.072 643.426 63.072C642.972 63.072 642.637 62.9645 642.422 62.7495C642.207 62.5344 642.088 62.2059 642.064 61.7639C641.992 60.3542 641.879 58.9386 641.724 57.5169C641.568 56.0834 641.389 54.6558 641.186 53.2341C641.078 52.7205 640.81 52.4636 640.38 52.4636C640.344 52.4636 640.302 52.4696 640.254 52.4815C640.206 52.4935 640.165 52.4994 640.129 52.4994C639.388 52.6667 638.689 52.8339 638.032 53.0012C637.375 53.1684 636.76 53.3476 636.186 53.5388C635.864 53.6463 635.577 53.724 635.326 53.7717C635.075 53.8076 634.848 53.8255 634.645 53.8255C634.371 53.8255 634.167 53.706 634.036 53.4671C633.905 53.2162 633.839 52.9056 633.839 52.5353C633.839 52.4039 633.851 52.2545 633.875 52.0873C633.899 51.9081 633.946 51.7349 634.018 51.5676C634.078 51.3884 634.173 51.2271 634.305 51.0838C634.424 50.9285 634.592 50.803 634.807 50.7075C635.308 50.5044 635.977 50.2953 636.814 50.0803C637.65 49.8533 638.594 49.6442 639.645 49.4531C639.884 49.3934 640.069 49.2978 640.2 49.1664C640.344 49.023 640.415 48.814 640.415 48.5392C640.415 48.4795 640.415 48.4197 640.415 48.36C640.415 48.2883 640.404 48.2166 640.38 48.145C640.188 47.0459 640.003 46.0484 639.824 45.1524C639.657 44.2445 639.508 43.4679 639.376 42.8228C639.257 42.1777 639.161 41.67 639.089 41.2997C639.018 40.9293 638.982 40.7143 638.982 40.6546Z" fill="white"/>
<path d="M503.226 38.354V30.1578H500.379V28.2598H508.144V30.1578H505.297V38.354H503.226Z" fill="#2B2B2B"/>
<path d="M507.508 38.354L511.476 28.2598H513.72L517.688 38.354H515.531L514.669 36.1108H510.355L509.492 38.354H507.508ZM511.045 34.3853H514.065L512.512 30.3304L511.045 34.3853Z" fill="#2B2B2B"/>
<path d="M520.395 38.354V30.1578H517.548V28.2598H525.313V30.1578H522.466V38.354H520.395Z" fill="#2B2B2B"/>
<path d="M531.18 38.6118C530.576 38.6118 530.058 38.5256 529.454 38.353C528.85 38.1805 528.419 37.9216 527.987 37.6628C527.556 37.3177 527.211 36.9726 526.866 36.5412C526.521 36.1099 526.348 35.5922 526.176 35.0746C526.003 34.5569 525.917 33.953 525.917 33.3491C525.917 32.7451 526.003 32.1412 526.176 31.6236C526.348 31.1059 526.607 30.5883 526.866 30.1569C527.211 29.7255 527.556 29.3804 527.987 29.0353C528.419 28.6902 528.936 28.4314 529.454 28.2588C529.972 28.0863 530.576 28 531.18 28C531.783 28 532.301 28.0863 532.905 28.2588C533.423 28.4314 533.94 28.6902 534.372 28.949C534.803 29.2941 535.148 29.6392 535.493 30.0706C535.838 30.502 536.011 31.0196 536.183 31.5373C536.356 32.0549 536.442 32.6589 536.442 33.2628C536.442 33.8667 536.356 34.4706 536.183 34.9883C536.011 35.5059 535.752 36.0236 535.493 36.455C535.148 36.8863 534.803 37.2314 534.372 37.5765C533.94 37.9216 533.423 38.1805 532.905 38.353C532.387 38.5256 531.783 38.6118 531.18 38.6118ZM531.266 36.7138C531.697 36.7138 532.129 36.6275 532.474 36.455C532.819 36.2824 533.164 36.0236 533.423 35.7648C533.682 35.4197 533.94 35.0746 534.027 34.7295C534.199 34.2981 534.285 33.8667 534.285 33.3491C534.285 32.8314 534.199 32.4 534.027 31.9687C533.854 31.5373 533.682 31.1922 533.423 30.9334C533.164 30.5883 532.819 30.4157 532.474 30.2432C532.129 30.0706 531.697 29.9843 531.266 29.9843C530.834 29.9843 530.403 30.0706 530.058 30.2432C529.713 30.4157 529.368 30.6745 529.109 30.9334C528.85 31.2785 528.591 31.6236 528.505 31.9687C528.332 32.4 528.246 32.8314 528.246 33.3491C528.246 33.8667 528.332 34.2981 528.505 34.7295C528.678 35.1608 528.85 35.5059 529.109 35.7648C529.368 36.1099 529.713 36.2824 530.058 36.455C530.403 36.6275 530.748 36.7138 531.266 36.7138Z" fill="#2B2B2B"/>
<path d="M541.102 38.5256C540.498 38.5256 539.98 38.4393 539.462 38.1805C538.944 38.0079 538.514 37.6628 538.169 37.2314C537.824 36.8001 537.565 36.3687 537.479 35.851L539.462 35.4197C539.548 35.851 539.807 36.1099 540.066 36.3687C540.411 36.6275 540.757 36.7138 541.188 36.7138C541.532 36.7138 541.791 36.6275 541.964 36.5412C542.136 36.455 542.396 36.2824 542.482 36.1099C542.569 35.9373 542.654 35.6785 542.654 35.4197C542.654 35.0746 542.569 34.8157 542.31 34.6432C542.051 34.4706 541.706 34.2981 541.188 34.1255L540.756 34.0393C539.721 33.7804 538.944 33.4353 538.427 32.9177C537.909 32.4 537.651 31.7961 537.651 31.1059C537.651 30.6745 537.736 30.2432 537.909 29.8981C538.081 29.553 538.34 29.2079 538.685 28.949C539.03 28.6902 539.376 28.4314 539.807 28.2588C540.238 28.0863 540.67 28 541.188 28C541.706 28 542.309 28.0863 542.74 28.3451C543.258 28.5177 543.603 28.8628 543.948 29.2079C544.293 29.6392 544.466 30.0706 544.638 30.5883L542.654 31.0196C542.568 30.6745 542.309 30.3294 542.05 30.1569C541.791 29.9843 541.447 29.8118 541.102 29.8118C540.843 29.8118 540.583 29.8981 540.411 29.9843C540.238 30.0706 540.066 30.2432 539.893 30.4157C539.807 30.5883 539.721 30.7608 539.721 31.0196C539.721 31.3647 539.807 31.6236 540.066 31.7961C540.325 31.9687 540.67 32.1412 541.188 32.2275L541.62 32.3138C542.655 32.5726 543.431 32.9177 543.948 33.4353C544.466 33.953 544.725 34.5569 544.725 35.3334C544.725 35.851 544.638 36.2824 544.466 36.6275C544.293 37.0589 544.035 37.404 543.69 37.6628C543.345 37.9216 542.999 38.1805 542.568 38.353C542.05 38.4393 541.62 38.5256 541.102 38.5256Z" fill="#2B2B2B"/>
<path d="M491.207 43.1175L489.893 49.2512H494.951V54.2298H488.818L487.384 61.0007H482.087L483.52 54.2298H476.272L474.838 61.0007H469.58L471.014 54.2298H465V49.2512H472.09L473.404 43.1175H467.43V38.1389H474.479L475.873 31.5273H481.131L479.737 38.1389H486.986L488.38 31.5273H493.677L492.283 38.1389H497.381V43.1175H491.207ZM485.91 43.1175H478.661L477.347 49.2512H484.596L485.91 43.1175Z" fill="#2B2B2B"/>
</svg>
