<svg width="1006" height="96" viewBox="0 0 1006 96" fill="none" xmlns="http://www.w3.org/2000/svg">
<path d="M51.1 79.2C31.2 79.2 15 63.1 15 43.1C15 23.2 31.2 7 51.1 7C71 7 87.2 23.2 87.2 43.1C87.2 63.1 71.1 79.2 51.1 79.2Z" fill="black"/>
<path d="M28 47.9998V38.4998H24.7V36.2998H33.7V38.4998H30.4V47.9998H28Z" fill="white"/>
<path d="M31.7999 47.9998L36.3999 36.2998H38.9999L43.5999 47.9998H41.0999L40.0999 45.3998H35.0999L34.0999 47.9998H31.7999ZM35.8999 43.3998H39.3999L37.5999 38.6998L35.8999 43.3998Z" fill="white"/>
<path d="M47.9 47.9998V38.4998H44.6V36.2998H53.6V38.4998H50.3V47.9998H47.9Z" fill="white"/>
<path d="M60.3999 48.3C59.6999 48.3 59.0999 48.2 58.3999 48C57.6999 47.8 57.1999 47.5 56.6999 47.2C56.1999 46.8 55.7999 46.4 55.3999 45.9C54.9999 45.4 54.7999 44.8 54.5999 44.2C54.3999 43.6 54.2999 42.9 54.2999 42.2C54.2999 41.5 54.3999 40.8 54.5999 40.2C54.7999 39.6 55.0999 39 55.3999 38.5C55.7999 38 56.1999 37.6 56.6999 37.2C57.1999 36.8 57.7999 36.5 58.3999 36.3C58.9999 36.1 59.6999 36 60.3999 36C61.0999 36 61.6999 36.1 62.3999 36.3C62.9999 36.5 63.5999 36.8 64.0999 37.1C64.5999 37.5 64.9999 37.9 65.3999 38.4C65.7999 38.9 65.9999 39.5 66.1999 40.1C66.3999 40.7 66.4999 41.4 66.4999 42.1C66.4999 42.8 66.3999 43.5 66.1999 44.1C65.9999 44.7 65.6999 45.3 65.3999 45.8C64.9999 46.3 64.5999 46.7 64.0999 47.1C63.5999 47.5 62.9999 47.8 62.3999 48C61.7999 48.2 61.0999 48.3 60.3999 48.3ZM60.4999 46.1C60.9999 46.1 61.4999 46 61.8999 45.8C62.2999 45.6 62.6999 45.3 62.9999 45C63.2999 44.6 63.5999 44.2 63.6999 43.8C63.8999 43.3 63.9999 42.8 63.9999 42.2C63.9999 41.6 63.8999 41.1 63.6999 40.6C63.4999 40.1 63.2999 39.7 62.9999 39.4C62.6999 39 62.2999 38.8 61.8999 38.6C61.4999 38.4 60.9999 38.3 60.4999 38.3C59.9999 38.3 59.4999 38.4 59.0999 38.6C58.6999 38.8 58.2999 39.1 57.9999 39.4C57.6999 39.8 57.3999 40.2 57.2999 40.6C57.0999 41.1 56.9999 41.6 56.9999 42.2C56.9999 42.8 57.0999 43.3 57.2999 43.8C57.4999 44.3 57.6999 44.7 57.9999 45C58.2999 45.4 58.6999 45.6 59.0999 45.8C59.4999 46 59.8999 46.1 60.4999 46.1Z" fill="white"/>
<path d="M71.9 48.2C71.2 48.2 70.6 48.1 70 47.8C69.4 47.6 68.9 47.2 68.5 46.7C68.1 46.2 67.8 45.7 67.7 45.1L70 44.6C70.1 45.1 70.4 45.4 70.7 45.7C71.1 46 71.5 46.1 72 46.1C72.4 46.1 72.7 46 72.9 45.9C73.1 45.8 73.4 45.6 73.5 45.4C73.6 45.2 73.7 44.9 73.7 44.6C73.7 44.2 73.5999 43.9 73.2999 43.7C72.9999 43.5 72.6 43.3 72 43.1L71.5 43C70.3 42.7 69.3999 42.3 68.7999 41.7C68.1999 41.1 67.9 40.4 67.9 39.6C67.9 39.1 68 38.6 68.2 38.2C68.4 37.8 68.6999 37.4 69.0999 37.1C69.4999 36.8 69.9 36.5 70.4 36.3C70.9 36.1 71.4 36 72 36C72.6 36 73.2999 36.1 73.7999 36.4C74.3999 36.6 74.8 37 75.2 37.4C75.6 37.9 75.8 38.4 76 39L73.7 39.5C73.6 39.1 73.3 38.7 73 38.5C72.7 38.3 72.3 38.1 71.9 38.1C71.6 38.1 71.2999 38.2 71.0999 38.3C70.8999 38.4 70.7 38.6 70.5 38.8C70.4 39 70.2999 39.2 70.2999 39.5C70.2999 39.9 70.4 40.2 70.7 40.4C71 40.6 71.4 40.8 72 40.9L72.5 41C73.7 41.3 74.6 41.7 75.2 42.3C75.8 42.9 76.0999 43.6 76.0999 44.5C76.0999 45.1 75.9999 45.6 75.7999 46C75.5999 46.5 75.3 46.9 74.9 47.2C74.5 47.5 74.0999 47.8 73.5999 48C72.9999 48.1 72.5 48.2 71.9 48.2Z" fill="white"/>
<path d="M76.0999 49.2998H25.7999V53.5998H76.0999V49.2998Z" fill="#FFF200"/>
<path d="M33.1 52.3001V50.9001H32.6V50.6001H34V50.9001H33.5V52.3001H33.1Z" fill="#2B2B2B"/>
<path d="M34.2999 52.3V50.5H34.6999V51.2H35.4999V50.5H35.8999V52.3H35.4999V51.6H34.6999V52.3H34.2999Z" fill="#2B2B2B"/>
<path d="M36.1 52.3V50.5H37.2V50.8H36.5V51.2H37.2V51.5H36.5V52H37.3V52.3H36.1Z" fill="#2B2B2B"/>
<path d="M37.9 52.3L38.6 50.5H39L39.7 52.3H39.3L39.2 51.9H38.4L38.3 52.3H37.9ZM38.5 51.6H39L38.7 50.9L38.5 51.6Z" fill="#2B2B2B"/>
<path d="M39.9 52.3V50.5H40.3V52H41V52.3H39.9Z" fill="#2B2B2B"/>
<path d="M41.2 52.3V50.5H41.7999C41.8999 50.5 42.1 50.5 42.2 50.6C42.3 50.7 42.4 50.7 42.4 50.8C42.5 50.9 42.5 51 42.5 51.1C42.5 51.2 42.5 51.3 42.5 51.3C42.5 51.4 42.4 51.4 42.4 51.5C42.3 51.6 42.3 51.6 42.2 51.6C42.1 51.6 42 51.6 41.9 51.6C41.8 51.6 41.8 51.6 41.7 51.6V52.2H41.2V52.3ZM41.6 50.8V51.3C41.7 51.3 41.6999 51.3 41.7999 51.3C41.8999 51.3 42 51.3 42 51.2C42.1 51.2 42.1 51.1 42.1 51C42.1 50.9 42.1 50.8 42 50.8C41.9 50.8 41.8999 50.7 41.7999 50.7H41.6V50.8Z" fill="#2B2B2B"/>
<path d="M42.7 52.3V50.5H43.1V51.2H43.9V50.5H44.2999V52.3H43.9V51.6H43.1V52.3H42.7Z" fill="#2B2B2B"/>
<path d="M44.4 52.3L45.1 50.5H45.5L46.2 52.3H45.8L45.7 51.9H44.9L44.8 52.3H44.4ZM45 51.6H45.5L45.2 50.9L45 51.6Z" fill="#2B2B2B"/>
<path d="M46.7999 52.3L47.4999 50.5H47.8999L48.5999 52.3H48.1999L48.0999 51.9H47.2999L47.1999 52.3H46.7999ZM47.3999 51.6H47.8999L47.5999 50.9L47.3999 51.6Z" fill="#2B2B2B"/>
<path d="M48.7999 52.3V50.5H49.0999L49.8999 51.7V50.5H50.2999V52.3H49.9999L49.1999 51.1V52.3H48.7999Z" fill="#2B2B2B"/>
<path d="M50.6 52.3V50.5H51.3C51.4 50.5 51.6 50.5 51.7 50.6C51.8 50.7 51.9 50.7 52 50.8C52.1 50.9 52.1 51 52.2 51.1C52.2 51.2 52.3 51.3 52.3 51.5C52.3 51.7 52.3 51.7 52.2 51.9C52.2 52 52.1 52.1 52 52.2C51.9 52.3 51.8 52.3 51.7 52.4C51.6 52.5 51.5 52.5 51.3 52.5H50.6V52.3ZM51 52H51.3C51.4 52 51.5 52 51.6 51.9C51.7 51.9 51.8 51.8 51.8 51.7C51.8 51.6 51.9 51.5 51.9 51.4C51.9 51.3 51.9 51.2 51.8 51.1C51.8 51 51.7 51 51.6 50.9C51.5 50.9 51.4 50.8 51.3 50.8H51V52Z" fill="#2B2B2B"/>
<path d="M53.4 52.3001V50.9001H52.9V50.6001H54.3V50.9001H53.8V52.3001H53.4Z" fill="#2B2B2B"/>
<path d="M54.5 52.3V50.5H54.9V51.2H55.7V50.5H56V52.3H55.6V51.6H54.8V52.3H54.5Z" fill="#2B2B2B"/>
<path d="M56.4 52.3V50.5H57.5V50.8H56.8V51.2H57.5V51.5H56.8V52H57.6V52.3H56.4Z" fill="#2B2B2B"/>
<path d="M59.0999 52.3C58.9999 52.3 58.8999 52.3 58.7999 52.3C58.6999 52.3 58.6 52.2 58.5 52.2C58.4 52.1 58.3999 52.1 58.2999 52C58.1999 51.9 58.2 51.8 58.2 51.7C58.2 51.6 58.2 51.5 58.2 51.4C58.2 51.3 58.2 51.2 58.2 51.1C58.2 51 58.2999 50.9 58.2999 50.8C58.3999 50.7 58.4 50.7 58.5 50.6C58.6 50.5 58.6999 50.5 58.7999 50.5C58.8999 50.5 58.9999 50.5 59.0999 50.5C59.1999 50.5 59.3 50.5 59.4 50.5C59.5 50.5 59.6 50.6 59.7 50.6C59.8 50.7 59.8 50.7 59.9 50.8C60 50.9 60 51 60 51.1C60 51.2 60 51.3 60 51.4C60 51.5 60 51.6 60 51.7C60 51.8 59.9 51.9 59.9 52C59.8 52.1 59.8 52.1 59.7 52.2C59.6 52.3 59.5 52.3 59.4 52.3C59.3 52.3 59.1999 52.3 59.0999 52.3ZM59.0999 52C59.1999 52 59.1999 52 59.2999 52C59.3999 52 59.4 51.9 59.5 51.9C59.6 51.9 59.5999 51.8 59.5999 51.7C59.5999 51.6 59.5999 51.5 59.5999 51.5C59.5999 51.4 59.5999 51.3 59.5999 51.3C59.5999 51.3 59.6 51 59.5 51C59.5 50.9 59.3999 50.9 59.2999 50.9C59.1999 50.9 59.1999 50.9 59.0999 50.9C58.9999 50.9 59 50.9 58.9 50.9C58.8 50.9 58.8 51 58.7 51C58.7 51.1 58.5999 51.1 58.5999 51.2C58.5999 51.3 58.5999 51.4 58.5999 51.4C58.5999 51.5 58.5999 51.6 58.5999 51.6C58.5999 51.7 58.7 51.7 58.7 51.8C58.7 51.9 58.8 51.9 58.9 51.9C59 52 59.0999 52 59.0999 52Z" fill="#2B2B2B"/>
<path d="M60.2999 52.3V50.5H60.5999L61.1999 51.5L61.7999 50.5H62.0999V52.3H61.6999V51.2L61.2999 51.9H60.9999L60.5999 51.2V52.3H60.2999Z" fill="#2B2B2B"/>
<path d="M62.4 52.3V50.5H63.5V50.8H62.8V51.2H63.5V51.5H62.8V52H63.6V52.3H62.4Z" fill="#2B2B2B"/>
<path d="M64.5999 52.3C64.4999 52.3 64.3999 52.3 64.2999 52.3C64.1999 52.3 64.0999 52.2 64.0999 52.2C63.9999 52.1 63.9999 52 63.8999 52C63.7999 51.9 63.7999 51.8 63.7999 51.7C63.7999 51.6 63.7999 51.5 63.7999 51.4C63.7999 51.3 63.7999 51.2 63.7999 51.1C63.7999 51 63.8999 50.9 63.8999 50.8C63.9999 50.7 63.9999 50.7 64.0999 50.6C64.1999 50.5 64.2999 50.5 64.3999 50.5C64.4999 50.5 64.5999 50.5 64.6999 50.5C64.7999 50.5 64.8999 50.5 64.9999 50.6C65.0999 50.6 65.1999 50.7 65.2999 50.8C65.3999 50.9 65.3999 51 65.4999 51.1L65.0999 51.2C65.0999 51.1 64.9999 51.1 64.8999 51C64.7999 51 64.6999 50.9 64.6999 50.9C64.5999 50.9 64.5999 50.9 64.4999 50.9C64.3999 50.9 64.3999 51 64.2999 51C64.2999 51.1 64.1999 51.1 64.1999 51.2C64.1999 51.3 64.1999 51.3 64.1999 51.4C64.1999 51.5 64.1999 51.6 64.1999 51.6C64.1999 51.6 64.2999 51.7 64.2999 51.8C64.2999 51.9 64.3999 51.9 64.4999 51.9C64.5999 51.9 64.5999 51.9 64.6999 51.9C64.7999 51.9 64.8999 51.9 64.8999 51.9C64.9999 51.9 64.9999 51.8 65.0999 51.8C65.0999 51.7 65.1999 51.7 65.1999 51.6H64.7999V51.3H65.5999V51.5C65.5999 51.6 65.5999 51.7 65.4999 51.8C65.4999 51.9 65.3999 52 65.2999 52.1C65.1999 52.2 65.0999 52.2 64.9999 52.3C64.8999 52.3 64.7999 52.3 64.5999 52.3Z" fill="#2B2B2B"/>
<path d="M65.6 52.3L66.3 50.5H66.7L67.4 52.3H67L66.9 51.9H66.1L66 52.3H65.6ZM66.2 51.6H66.7L66.4 50.9L66.2 51.6Z" fill="#2B2B2B"/>
<path d="M67.5 50.5H67.5999L67.7 50.6C67.7 50.6 67.7 50.7 67.7 50.8C67.7 50.9 67.7 50.9 67.7 51C67.7 51.1 67.5999 51.1 67.5999 51.2C67.4999 51.2 67.5 51.3 67.4 51.3L67.2999 51.1C67.2999 51.1 67.4 51.1 67.4 51L67.5 50.9V50.8C67.5 50.8 67.5 50.8 67.4 50.8H67.2999C67.2999 50.8 67.3 50.8 67.2 50.7V50.6V50.5C67.4 50.6 67.4 50.6 67.5 50.5C67.4 50.5 67.5 50.5 67.5 50.5Z" fill="#2B2B2B"/>
<path d="M68.6 52.3C68.5 52.3 68.4 52.3 68.3 52.2C68.2 52.1 68.1 52.1 68.1 52C68 52 68 52 67.9 51.9L68.2 51.8C68.2 51.9 68.3 51.9 68.3 52C68.4 52 68.4 52.1 68.5 52.1C68.6 52.1 68.6 52.1 68.6 52.1C68.6 52.1 68.7 52.1 68.7 52V51.9C68.7 51.8 68.7 51.8 68.6 51.8C68.6 51.8 68.5 51.7 68.4 51.7H68.3C68.1 51.7 68 51.6 67.9 51.5C68 51.3 68 51.2 68 51C68 50.9 68 50.8 68 50.8C68 50.7 68.1 50.7 68.1 50.6C68.2 50.6 68.2 50.5 68.3 50.5C68.4 50.5 68.5 50.5 68.5 50.5C68.6 50.5 68.7 50.5 68.8 50.6C68.9 50.6 69 50.7 69 50.8C69.1 50.9 69.1 50.9 69.1 51H68.9C68.9 50.9 68.8 50.9 68.8 50.8C68.8 50.8 68.7 50.7 68.6 50.7H68.5C68.5 50.7 68.4 50.7 68.4 50.8V50.9C68.4 51 68.4 51 68.5 51C68.5 51 68.6 51.1 68.7 51.1H68.8C69 51.1 69.1 51.2 69.2 51.3C69.3 51.4 69.3 51.5 69.3 51.6C69.3 51.7 69.3 51.8 69.3 51.8C69.3 51.8 69.2 51.9 69.2 52C69.2 52.1 69.1 52.1 69 52.1C68.9 52.1 68.7 52.3 68.6 52.3Z" fill="#2B2B2B"/>
<path d="M100.346 25.81H102.95V34H104.91V25.81H107.514V24.228H100.346V25.81ZM115.581 34H117.653L114.139 24.214H111.857L108.343 34H110.401L111.045 32.138H114.937L115.581 34ZM114.405 30.57H111.577L112.991 26.482L114.405 30.57ZM118.448 25.81H121.052V34H123.012V25.81H125.616V24.228H118.448V25.81ZM136.58 29.086C136.58 26.16 134.368 24.088 131.582 24.088C128.824 24.088 126.57 26.16 126.57 29.086C126.57 32.026 128.824 34.098 131.582 34.098C134.354 34.098 136.58 32.026 136.58 29.086ZM128.586 29.086C128.586 27.098 129.804 25.852 131.582 25.852C133.346 25.852 134.564 27.098 134.564 29.086C134.564 31.074 133.346 32.348 131.582 32.348C129.804 32.348 128.586 31.074 128.586 29.086ZM144.87 31.172C144.87 27.728 139.858 28.82 139.858 26.86C139.858 26.062 140.432 25.684 141.202 25.712C142.042 25.726 142.56 26.23 142.602 26.874H144.758C144.632 25.11 143.26 24.088 141.258 24.088C139.242 24.088 137.814 25.152 137.814 26.916C137.8 30.458 142.84 29.184 142.84 31.298C142.84 31.998 142.294 32.488 141.37 32.488C140.46 32.488 139.942 31.97 139.886 31.186H137.786C137.814 33.034 139.382 34.098 141.412 34.098C143.638 34.098 144.87 32.712 144.87 31.172ZM149.387 25.81H151.991V34H153.951V25.81H156.555V24.228H149.387V25.81ZM161.318 27.728C162.326 27.728 163.138 28.372 163.166 29.394H159.484C159.638 28.33 160.38 27.728 161.318 27.728ZM165 31.564H162.886C162.634 32.082 162.172 32.502 161.332 32.502C160.352 32.502 159.568 31.858 159.47 30.71H165.14C165.182 30.458 165.196 30.206 165.196 29.954C165.196 27.644 163.614 26.118 161.374 26.118C159.078 26.118 157.482 27.672 157.482 30.122C157.482 32.558 159.12 34.126 161.374 34.126C163.292 34.126 164.58 32.992 165 31.564ZM166.122 30.122C166.122 32.558 167.718 34.126 169.958 34.126C171.89 34.126 173.192 33.034 173.612 31.382H171.498C171.26 32.082 170.756 32.446 169.944 32.446C168.852 32.446 168.124 31.634 168.124 30.122C168.124 28.61 168.852 27.784 169.944 27.784C170.756 27.784 171.274 28.204 171.498 28.862H173.612C173.192 27.126 171.89 26.118 169.958 26.118C167.718 26.118 166.122 27.686 166.122 30.122ZM175.048 34H177.008V29.716C177.008 28.47 177.694 27.798 178.758 27.798C179.794 27.798 180.48 28.47 180.48 29.716V34H182.44V29.45C182.44 27.308 181.166 26.132 179.416 26.132C178.38 26.132 177.512 26.552 177.008 27.21V23.64H175.048V34ZM189.736 34H191.696V29.45C191.696 27.308 190.408 26.132 188.602 26.132C187.608 26.132 186.768 26.552 186.264 27.21V26.244H184.304V34H186.264V29.716C186.264 28.47 186.95 27.798 188.014 27.798C189.05 27.798 189.736 28.47 189.736 29.716V34ZM201.05 30.122C201.05 27.672 199.3 26.118 197.06 26.118C194.82 26.118 193.07 27.672 193.07 30.122C193.07 32.558 194.764 34.126 197.004 34.126C199.258 34.126 201.05 32.558 201.05 30.122ZM195.058 30.122C195.058 28.568 195.996 27.826 197.032 27.826C198.068 27.826 199.034 28.568 199.034 30.122C199.034 31.662 198.04 32.418 197.004 32.418C195.954 32.418 195.058 31.662 195.058 30.122ZM202.487 34H204.447V23.64H202.487V34ZM213.874 30.122C213.874 27.672 212.124 26.118 209.884 26.118C207.644 26.118 205.894 27.672 205.894 30.122C205.894 32.558 207.588 34.126 209.828 34.126C212.082 34.126 213.874 32.558 213.874 30.122ZM207.882 30.122C207.882 28.568 208.82 27.826 209.856 27.826C210.892 27.826 211.858 28.568 211.858 30.122C211.858 31.662 210.864 32.418 209.828 32.418C208.778 32.418 207.882 31.662 207.882 30.122ZM214.808 30.094C214.808 32.516 216.376 34.126 218.35 34.126C219.568 34.126 220.45 33.524 220.912 32.852V34.056C220.912 35.498 220.072 36.114 218.994 36.114C218.014 36.114 217.286 35.652 217.09 34.952H215.144C215.34 36.73 216.866 37.822 219.05 37.822C221.598 37.822 222.886 36.156 222.886 34.056V26.244H220.912V27.35C220.45 26.678 219.568 26.118 218.35 26.118C216.376 26.118 214.808 27.672 214.808 30.094ZM220.912 30.122C220.912 31.592 219.932 32.404 218.854 32.404C217.804 32.404 216.81 31.564 216.81 30.094C216.81 28.624 217.804 27.84 218.854 27.84C219.932 27.84 220.912 28.652 220.912 30.122ZM224.8 34H226.76V26.244H224.8V34ZM225.794 25.32C226.48 25.32 226.998 24.816 226.998 24.172C226.998 23.528 226.48 23.024 225.794 23.024C225.094 23.024 224.59 23.528 224.59 24.172C224.59 24.816 225.094 25.32 225.794 25.32ZM232.028 27.728C233.036 27.728 233.848 28.372 233.876 29.394H230.194C230.348 28.33 231.09 27.728 232.028 27.728ZM235.71 31.564H233.596C233.344 32.082 232.882 32.502 232.042 32.502C231.062 32.502 230.278 31.858 230.18 30.71H235.85C235.892 30.458 235.906 30.206 235.906 29.954C235.906 27.644 234.324 26.118 232.084 26.118C229.788 26.118 228.192 27.672 228.192 30.122C228.192 32.558 229.83 34.126 232.084 34.126C234.002 34.126 235.29 32.992 235.71 31.564ZM243.357 31.788C243.301 28.946 239.003 29.828 239.003 28.414C239.003 27.966 239.381 27.672 240.109 27.672C240.879 27.672 241.355 28.078 241.411 28.68H243.287C243.175 27.14 242.041 26.118 240.165 26.118C238.247 26.118 237.099 27.154 237.099 28.442C237.099 31.284 241.481 30.402 241.481 31.788C241.481 32.236 241.061 32.586 240.291 32.586C239.507 32.586 238.961 32.138 238.891 31.55H236.917C237.001 32.992 238.359 34.126 240.305 34.126C242.195 34.126 243.357 33.118 243.357 31.788Z" fill="black"/>
<path d="M116.86 56.168C120.196 56.168 122.068 52.328 122.068 48.632C122.068 43.88 118.78 40.616 113.356 40.616C106.3 40.616 101.236 45.968 101.236 52.808C101.236 57.68 104.668 60.776 109.852 60.776C111.508 60.776 113.116 60.488 114.556 59.888L114.268 58.4C113.044 58.976 111.604 59.216 110.284 59.216C105.772 59.216 103.036 56.888 103.06 52.616C103.06 46.736 107.284 42.152 113.092 42.152C117.676 42.152 120.292 44.576 120.292 48.752C120.292 51.272 119.26 54.68 117.196 54.68C115.972 54.68 115.78 53.768 115.996 52.4L117.196 45.464H115.3L115.036 46.952C114.508 45.8 113.476 45.224 111.964 45.224C108.46 45.224 106.06 48.464 106.06 52.04C106.06 54.536 107.5 56.168 109.972 56.168C111.652 56.168 113.284 55.328 114.268 53.936C114.388 55.28 115.228 56.168 116.86 56.168ZM114.556 50.072C114.412 52.544 112.732 54.464 110.62 54.464C108.94 54.464 108.1 53.336 108.1 51.704C108.1 49.328 109.564 46.904 111.964 46.904C113.836 46.904 114.7 48.32 114.556 50.072ZM126.141 52.4C126.141 55.04 127.461 56 129.789 56H131.757V54.152H130.148C128.805 54.152 128.325 53.696 128.325 52.4V44.648H131.757V42.848H128.325V39.536H126.141V42.848H124.437V44.648H126.141V52.4ZM133.587 49.376C133.587 53.456 136.299 56.216 139.803 56.216C142.227 56.216 143.931 54.968 144.723 53.552V56H146.931V42.848H144.723V45.248C143.955 43.88 142.275 42.632 139.827 42.632C136.299 42.632 133.587 45.272 133.587 49.376ZM144.723 49.4C144.723 52.496 142.659 54.296 140.259 54.296C137.859 54.296 135.819 52.472 135.819 49.376C135.819 46.28 137.859 44.528 140.259 44.528C142.659 44.528 144.723 46.352 144.723 49.4ZM151.101 52.4C151.101 55.04 152.421 56 154.749 56H156.717V54.152H155.109C153.765 54.152 153.285 53.696 153.285 52.4V44.648H156.717V42.848H153.285V39.536H151.101V42.848H149.397V44.648H151.101V52.4ZM171.844 49.4C171.844 45.248 168.94 42.632 165.196 42.632C161.476 42.632 158.548 45.248 158.548 49.4C158.548 53.576 161.38 56.216 165.1 56.216C168.844 56.216 171.844 53.576 171.844 49.4ZM160.78 49.4C160.78 46.088 162.868 44.528 165.172 44.528C167.428 44.528 169.612 46.088 169.612 49.4C169.612 52.736 167.38 54.296 165.1 54.296C162.82 54.296 160.78 52.736 160.78 49.4ZM184.171 52.424C184.075 47.72 176.443 49.424 176.443 46.304C176.443 45.248 177.403 44.48 179.011 44.48C180.763 44.48 181.771 45.44 181.867 46.76H184.051C183.907 44.192 181.987 42.632 179.083 42.632C176.155 42.632 174.259 44.288 174.259 46.304C174.259 51.2 182.035 49.496 182.035 52.424C182.035 53.504 181.075 54.368 179.347 54.368C177.499 54.368 176.371 53.408 176.251 52.136H173.995C174.139 54.536 176.299 56.216 179.371 56.216C182.275 56.216 184.171 54.584 184.171 52.424ZM189.39 54.656C189.39 53.816 188.742 53.168 187.95 53.168C187.11 53.168 186.462 53.816 186.462 54.656C186.462 55.496 187.11 56.144 187.95 56.144C188.742 56.144 189.39 55.496 189.39 54.656ZM192.773 52.4C192.773 55.04 194.093 56 196.421 56H198.389V54.152H196.781C195.437 54.152 194.957 53.696 194.957 52.4V44.648H198.389V42.848H194.957V39.536H192.773V42.848H191.069V44.648H192.773V52.4ZM206.628 44.48C208.884 44.48 210.804 45.896 210.78 48.464H202.476C202.715 45.896 204.492 44.48 206.628 44.48ZM212.772 51.944H210.42C209.94 53.36 208.692 54.368 206.724 54.368C204.492 54.368 202.62 52.904 202.452 50.24H212.964C213.012 49.784 213.036 49.4 213.036 48.92C213.036 45.32 210.54 42.632 206.724 42.632C202.884 42.632 200.22 45.248 200.22 49.4C200.22 53.576 202.98 56.216 206.724 56.216C209.988 56.216 212.1 54.344 212.772 51.944ZM215.102 49.4C215.102 53.576 217.766 56.216 221.51 56.216C224.774 56.216 226.91 54.392 227.582 51.776H225.23C224.75 53.432 223.454 54.368 221.51 54.368C219.11 54.368 217.334 52.664 217.334 49.4C217.334 46.184 219.11 44.48 221.51 44.48C223.454 44.48 224.774 45.488 225.23 47.072H227.582C226.91 44.312 224.774 42.632 221.51 42.632C217.766 42.632 215.102 45.272 215.102 49.4ZM230.496 56H232.68V48.728C232.68 45.896 234.216 44.504 236.448 44.504C238.656 44.504 240.12 45.872 240.12 48.56V56H242.28V48.248C242.28 44.48 239.952 42.608 237.024 42.608C235.176 42.608 233.544 43.352 232.68 44.744V38.24H230.496V56Z" fill="black"/>
<path d="M788.38 15.272L783.532 32H781.084L777.196 18.536L773.164 32L770.74 32.024L766.06 15.272H768.388L772.036 29.456L776.068 15.272H778.516L782.356 29.408L786.028 15.272H788.38ZM789.954 25.376C789.954 24.032 790.226 22.856 790.77 21.848C791.314 20.824 792.058 20.032 793.002 19.472C793.962 18.912 795.026 18.632 796.194 18.632C797.346 18.632 798.346 18.88 799.194 19.376C800.042 19.872 800.674 20.496 801.09 21.248V18.848H803.298V32H801.09V29.552C800.658 30.32 800.01 30.96 799.146 31.472C798.298 31.968 797.306 32.216 796.17 32.216C795.002 32.216 793.946 31.928 793.002 31.352C792.058 30.776 791.314 29.968 790.77 28.928C790.226 27.888 789.954 26.704 789.954 25.376ZM801.09 25.4C801.09 24.408 800.89 23.544 800.49 22.808C800.09 22.072 799.546 21.512 798.858 21.128C798.186 20.728 797.442 20.528 796.626 20.528C795.81 20.528 795.066 20.72 794.394 21.104C793.722 21.488 793.186 22.048 792.786 22.784C792.386 23.52 792.186 24.384 792.186 25.376C792.186 26.384 792.386 27.264 792.786 28.016C793.186 28.752 793.722 29.32 794.394 29.72C795.066 30.104 795.81 30.296 796.626 30.296C797.442 30.296 798.186 30.104 798.858 29.72C799.546 29.32 800.09 28.752 800.49 28.016C800.89 27.264 801.09 26.392 801.09 25.4ZM813.397 18.608C814.997 18.608 816.293 19.096 817.285 20.072C818.277 21.032 818.773 22.424 818.773 24.248V32H816.613V24.56C816.613 23.248 816.285 22.248 815.629 21.56C814.973 20.856 814.077 20.504 812.941 20.504C811.789 20.504 810.869 20.864 810.181 21.584C809.509 22.304 809.173 23.352 809.173 24.728V32H806.989V18.848H809.173V20.72C809.605 20.048 810.189 19.528 810.925 19.16C811.677 18.792 812.501 18.608 813.397 18.608ZM825.004 20.648V28.4C825.004 29.04 825.14 29.496 825.412 29.768C825.684 30.024 826.156 30.152 826.828 30.152H828.436V32H826.468C825.252 32 824.34 31.72 823.732 31.16C823.124 30.6 822.82 29.68 822.82 28.4V20.648H821.116V18.848H822.82V15.536H825.004V18.848H828.436V20.648H825.004ZM840.145 20.648V28.4C840.145 29.04 840.281 29.496 840.553 29.768C840.825 30.024 841.297 30.152 841.969 30.152H843.577V32H841.609C840.393 32 839.481 31.72 838.873 31.16C838.265 30.6 837.961 29.68 837.961 28.4V20.648H836.257V18.848H837.961V15.536H840.145V18.848H843.577V20.648H840.145ZM851.959 32.216C850.727 32.216 849.607 31.936 848.599 31.376C847.607 30.816 846.823 30.024 846.247 29C845.687 27.96 845.407 26.76 845.407 25.4C845.407 24.056 845.695 22.872 846.271 21.848C846.863 20.808 847.663 20.016 848.671 19.472C849.679 18.912 850.807 18.632 852.055 18.632C853.303 18.632 854.431 18.912 855.439 19.472C856.447 20.016 857.239 20.8 857.815 21.824C858.407 22.848 858.703 24.04 858.703 25.4C858.703 26.76 858.399 27.96 857.791 29C857.199 30.024 856.391 30.816 855.367 31.376C854.343 31.936 853.207 32.216 851.959 32.216ZM851.959 30.296C852.743 30.296 853.479 30.112 854.167 29.744C854.855 29.376 855.407 28.824 855.823 28.088C856.255 27.352 856.471 26.456 856.471 25.4C856.471 24.344 856.263 23.448 855.847 22.712C855.431 21.976 854.887 21.432 854.215 21.08C853.543 20.712 852.815 20.528 852.031 20.528C851.231 20.528 850.495 20.712 849.823 21.08C849.167 21.432 848.639 21.976 848.239 22.712C847.839 23.448 847.639 24.344 847.639 25.4C847.639 26.472 847.831 27.376 848.215 28.112C848.615 28.848 849.143 29.4 849.799 29.768C850.455 30.12 851.175 30.296 851.959 30.296ZM871.717 20.504C872.101 19.88 872.653 19.376 873.373 18.992C874.093 18.608 874.917 18.416 875.845 18.416C876.949 18.416 877.949 18.696 878.845 19.256C879.741 19.816 880.445 20.616 880.957 21.656C881.485 22.696 881.749 23.904 881.749 25.28C881.749 26.656 881.485 27.872 880.957 28.928C880.445 29.968 879.741 30.776 878.845 31.352C877.949 31.912 876.949 32.192 875.845 32.192C874.901 32.192 874.077 32.008 873.373 31.64C872.669 31.256 872.117 30.752 871.717 30.128V32H867.613V14.24H871.717V20.504ZM877.573 25.28C877.573 24.256 877.285 23.456 876.709 22.88C876.149 22.288 875.453 21.992 874.621 21.992C873.805 21.992 873.109 22.288 872.533 22.88C871.973 23.472 871.693 24.28 871.693 25.304C871.693 26.328 871.973 27.136 872.533 27.728C873.109 28.32 873.805 28.616 874.621 28.616C875.437 28.616 876.133 28.32 876.709 27.728C877.285 27.12 877.573 26.304 877.573 25.28ZM897.126 18.608V32H893.022V30.176C892.606 30.768 892.038 31.248 891.318 31.616C890.614 31.968 889.83 32.144 888.966 32.144C887.942 32.144 887.038 31.92 886.254 31.472C885.47 31.008 884.862 30.344 884.43 29.48C883.998 28.616 883.782 27.6 883.782 26.432V18.608H887.862V25.88C887.862 26.776 888.094 27.472 888.558 27.968C889.022 28.464 889.646 28.712 890.43 28.712C891.23 28.712 891.862 28.464 892.326 27.968C892.79 27.472 893.022 26.776 893.022 25.88V18.608H897.126ZM902.138 17.216C901.418 17.216 900.826 17.008 900.362 16.592C899.914 16.16 899.69 15.632 899.69 15.008C899.69 14.368 899.914 13.84 900.362 13.424C900.826 12.992 901.418 12.776 902.138 12.776C902.842 12.776 903.418 12.992 903.866 13.424C904.33 13.84 904.562 14.368 904.562 15.008C904.562 15.632 904.33 16.16 903.866 16.592C903.418 17.008 902.842 17.216 902.138 17.216ZM904.178 18.608V32H900.074V18.608H904.178ZM911.256 14.24V32H907.152V14.24H911.256ZM913.414 25.28C913.414 23.904 913.67 22.696 914.182 21.656C914.71 20.616 915.422 19.816 916.318 19.256C917.214 18.696 918.214 18.416 919.318 18.416C920.198 18.416 920.998 18.6 921.718 18.968C922.454 19.336 923.03 19.832 923.446 20.456V14.24H927.55V32H923.446V30.08C923.062 30.72 922.51 31.232 921.79 31.616C921.086 32 920.262 32.192 919.318 32.192C918.214 32.192 917.214 31.912 916.318 31.352C915.422 30.776 914.71 29.968 914.182 28.928C913.67 27.872 913.414 26.656 913.414 25.28ZM923.446 25.304C923.446 24.28 923.158 23.472 922.582 22.88C922.022 22.288 921.334 21.992 920.518 21.992C919.702 21.992 919.006 22.288 918.43 22.88C917.87 23.456 917.59 24.256 917.59 25.28C917.59 26.304 917.87 27.12 918.43 27.728C919.006 28.32 919.702 28.616 920.518 28.616C921.334 28.616 922.022 28.32 922.582 27.728C923.158 27.136 923.446 26.328 923.446 25.304ZM949.285 18.608L940.885 38.36H936.469L939.541 31.544L934.093 18.608H938.677L941.773 26.984L944.845 18.608H949.285ZM956.865 32.192C955.553 32.192 954.369 31.912 953.313 31.352C952.273 30.792 951.449 29.992 950.841 28.952C950.249 27.912 949.953 26.696 949.953 25.304C949.953 23.928 950.257 22.72 950.865 21.68C951.473 20.624 952.305 19.816 953.361 19.256C954.417 18.696 955.601 18.416 956.913 18.416C958.225 18.416 959.409 18.696 960.465 19.256C961.521 19.816 962.353 20.624 962.961 21.68C963.569 22.72 963.873 23.928 963.873 25.304C963.873 26.68 963.561 27.896 962.937 28.952C962.329 29.992 961.489 30.792 960.417 31.352C959.361 31.912 958.177 32.192 956.865 32.192ZM956.865 28.64C957.649 28.64 958.313 28.352 958.857 27.776C959.417 27.2 959.697 26.376 959.697 25.304C959.697 24.232 959.425 23.408 958.881 22.832C958.353 22.256 957.697 21.968 956.913 21.968C956.113 21.968 955.449 22.256 954.921 22.832C954.393 23.392 954.129 24.216 954.129 25.304C954.129 26.376 954.385 27.2 954.897 27.776C955.425 28.352 956.081 28.64 956.865 28.64ZM979.275 18.608V32H975.171V30.176C974.755 30.768 974.187 31.248 973.467 31.616C972.763 31.968 971.979 32.144 971.115 32.144C970.091 32.144 969.187 31.92 968.403 31.472C967.619 31.008 967.011 30.344 966.579 29.48C966.147 28.616 965.931 27.6 965.931 26.432V18.608H970.011V25.88C970.011 26.776 970.243 27.472 970.707 27.968C971.171 28.464 971.795 28.712 972.579 28.712C973.379 28.712 974.011 28.464 974.475 27.968C974.939 27.472 975.171 26.776 975.171 25.88V18.608H979.275ZM986.326 20.84C986.806 20.104 987.406 19.528 988.126 19.112C988.846 18.68 989.646 18.464 990.526 18.464V22.808H989.398C988.374 22.808 987.606 23.032 987.094 23.48C986.582 23.912 986.326 24.68 986.326 25.784V32H982.222V18.608H986.326V20.84ZM798.311 49.504C798.695 48.88 799.247 48.376 799.967 47.992C800.687 47.608 801.511 47.416 802.439 47.416C803.543 47.416 804.543 47.696 805.439 48.256C806.335 48.816 807.039 49.616 807.551 50.656C808.079 51.696 808.343 52.904 808.343 54.28C808.343 55.656 808.079 56.872 807.551 57.928C807.039 58.968 806.335 59.776 805.439 60.352C804.543 60.912 803.543 61.192 802.439 61.192C801.495 61.192 800.671 61.008 799.967 60.64C799.263 60.256 798.711 59.752 798.311 59.128V61H794.207V43.24H798.311V49.504ZM804.167 54.28C804.167 53.256 803.879 52.456 803.303 51.88C802.743 51.288 802.047 50.992 801.215 50.992C800.399 50.992 799.703 51.288 799.127 51.88C798.567 52.472 798.287 53.28 798.287 54.304C798.287 55.328 798.567 56.136 799.127 56.728C799.703 57.32 800.399 57.616 801.215 57.616C802.031 57.616 802.727 57.32 803.303 56.728C803.879 56.12 804.167 55.304 804.167 54.28ZM814.6 49.84C815.08 49.104 815.68 48.528 816.4 48.112C817.12 47.68 817.92 47.464 818.8 47.464V51.808H817.672C816.648 51.808 815.88 52.032 815.368 52.48C814.856 52.912 814.6 53.68 814.6 54.784V61H810.496V47.608H814.6V49.84ZM819.945 54.28C819.945 52.904 820.201 51.696 820.713 50.656C821.241 49.616 821.953 48.816 822.849 48.256C823.745 47.696 824.745 47.416 825.849 47.416C826.793 47.416 827.617 47.608 828.321 47.992C829.041 48.376 829.593 48.88 829.977 49.504V47.608H834.081V61H829.977V59.104C829.577 59.728 829.017 60.232 828.297 60.616C827.593 61 826.769 61.192 825.825 61.192C824.737 61.192 823.745 60.912 822.849 60.352C821.953 59.776 821.241 58.968 820.713 57.928C820.201 56.872 819.945 55.656 819.945 54.28ZM829.977 54.304C829.977 53.28 829.689 52.472 829.113 51.88C828.553 51.288 827.865 50.992 827.049 50.992C826.233 50.992 825.537 51.288 824.961 51.88C824.401 52.456 824.121 53.256 824.121 54.28C824.121 55.304 824.401 56.12 824.961 56.728C825.537 57.32 826.233 57.616 827.049 57.616C827.865 57.616 828.553 57.32 829.113 56.728C829.689 56.136 829.977 55.328 829.977 54.304ZM845.211 47.464C846.779 47.464 848.027 47.976 848.955 49C849.899 50.008 850.371 51.4 850.371 53.176V61H846.291V53.728C846.291 52.832 846.059 52.136 845.595 51.64C845.131 51.144 844.507 50.896 843.723 50.896C842.939 50.896 842.315 51.144 841.851 51.64C841.387 52.136 841.155 52.832 841.155 53.728V61H837.051V47.608H841.155V49.384C841.571 48.792 842.131 48.328 842.835 47.992C843.539 47.64 844.331 47.464 845.211 47.464ZM852.406 54.28C852.406 52.904 852.662 51.696 853.174 50.656C853.702 49.616 854.414 48.816 855.31 48.256C856.206 47.696 857.206 47.416 858.31 47.416C859.19 47.416 859.99 47.6 860.71 47.968C861.446 48.336 862.022 48.832 862.438 49.456V43.24H866.542V61H862.438V59.08C862.054 59.72 861.502 60.232 860.782 60.616C860.078 61 859.254 61.192 858.31 61.192C857.206 61.192 856.206 60.912 855.31 60.352C854.414 59.776 853.702 58.968 853.174 57.928C852.662 56.872 852.406 55.656 852.406 54.28ZM862.438 54.304C862.438 53.28 862.15 52.472 861.574 51.88C861.014 51.288 860.326 50.992 859.51 50.992C858.694 50.992 857.998 51.288 857.422 51.88C856.862 52.456 856.582 53.256 856.582 54.28C856.582 55.304 856.862 56.12 857.422 56.728C857.998 57.32 858.694 57.616 859.51 57.616C860.326 57.616 861.014 57.32 861.574 56.728C862.15 56.136 862.438 55.328 862.438 54.304ZM874.431 43.216C876.143 43.216 877.511 43.664 878.535 44.56C879.575 45.456 880.095 46.72 880.095 48.352C880.095 49.856 879.599 51.032 878.607 51.88C877.631 52.712 876.335 53.136 874.719 53.152L874.599 54.952H870.999L870.879 50.488H872.319C873.551 50.488 874.487 50.336 875.127 50.032C875.783 49.728 876.111 49.176 876.111 48.376C876.111 47.816 875.959 47.376 875.655 47.056C875.351 46.736 874.927 46.576 874.383 46.576C873.807 46.576 873.359 46.744 873.039 47.08C872.719 47.4 872.559 47.84 872.559 48.4H868.695C868.663 47.424 868.863 46.544 869.295 45.76C869.743 44.976 870.399 44.36 871.263 43.912C872.143 43.448 873.199 43.216 874.431 43.216ZM872.847 61.192C872.127 61.192 871.535 60.984 871.071 60.568C870.623 60.136 870.399 59.608 870.399 58.984C870.399 58.344 870.623 57.808 871.071 57.376C871.535 56.944 872.127 56.728 872.847 56.728C873.551 56.728 874.127 56.944 874.575 57.376C875.039 57.808 875.271 58.344 875.271 58.984C875.271 59.608 875.039 60.136 874.575 60.568C874.127 60.984 873.551 61.192 872.847 61.192ZM886.815 52.552C886.815 50.888 887.175 49.408 887.895 48.112C888.615 46.8 889.615 45.784 890.895 45.064C892.191 44.328 893.655 43.96 895.287 43.96C897.287 43.96 898.999 44.488 900.423 45.544C901.847 46.6 902.799 48.04 903.279 49.864H898.767C898.431 49.16 897.951 48.624 897.327 48.256C896.719 47.888 896.023 47.704 895.239 47.704C893.975 47.704 892.951 48.144 892.167 49.024C891.383 49.904 890.991 51.08 890.991 52.552C890.991 54.024 891.383 55.2 892.167 56.08C892.951 56.96 893.975 57.4 895.239 57.4C896.023 57.4 896.719 57.216 897.327 56.848C897.951 56.48 898.431 55.944 898.767 55.24H903.279C902.799 57.064 901.847 58.504 900.423 59.56C898.999 60.6 897.287 61.12 895.287 61.12C893.655 61.12 892.191 60.76 890.895 60.04C889.615 59.304 888.615 58.288 887.895 56.992C887.175 55.696 886.815 54.216 886.815 52.552ZM911.889 61.192C910.577 61.192 909.393 60.912 908.337 60.352C907.297 59.792 906.473 58.992 905.865 57.952C905.273 56.912 904.977 55.696 904.977 54.304C904.977 52.928 905.281 51.72 905.889 50.68C906.497 49.624 907.329 48.816 908.385 48.256C909.441 47.696 910.625 47.416 911.937 47.416C913.249 47.416 914.433 47.696 915.489 48.256C916.545 48.816 917.377 49.624 917.985 50.68C918.593 51.72 918.897 52.928 918.897 54.304C918.897 55.68 918.585 56.896 917.961 57.952C917.353 58.992 916.513 59.792 915.441 60.352C914.385 60.912 913.201 61.192 911.889 61.192ZM911.889 57.64C912.673 57.64 913.337 57.352 913.881 56.776C914.441 56.2 914.721 55.376 914.721 54.304C914.721 53.232 914.449 52.408 913.905 51.832C913.377 51.256 912.721 50.968 911.937 50.968C911.137 50.968 910.473 51.256 909.945 51.832C909.417 52.392 909.153 53.216 909.153 54.304C909.153 55.376 909.409 56.2 909.921 56.776C910.449 57.352 911.105 57.64 911.889 57.64ZM929.234 47.464C930.802 47.464 932.05 47.976 932.978 49C933.922 50.008 934.394 51.4 934.394 53.176V61H930.314V53.728C930.314 52.832 930.082 52.136 929.618 51.64C929.154 51.144 928.53 50.896 927.746 50.896C926.962 50.896 926.338 51.144 925.874 51.64C925.41 52.136 925.178 52.832 925.178 53.728V61H921.074V47.608H925.178V49.384C925.594 48.792 926.154 48.328 926.858 47.992C927.562 47.64 928.354 47.464 929.234 47.464ZM945.406 47.464C946.974 47.464 948.222 47.976 949.15 49C950.094 50.008 950.566 51.4 950.566 53.176V61H946.486V53.728C946.486 52.832 946.254 52.136 945.79 51.64C945.326 51.144 944.702 50.896 943.918 50.896C943.134 50.896 942.51 51.144 942.046 51.64C941.582 52.136 941.35 52.832 941.35 53.728V61H937.246V47.608H941.35V49.384C941.766 48.792 942.326 48.328 943.03 47.992C943.734 47.64 944.526 47.464 945.406 47.464ZM966.042 54.088C966.042 54.472 966.018 54.872 965.97 55.288H956.682C956.746 56.12 957.01 56.76 957.474 57.208C957.954 57.64 958.538 57.856 959.226 57.856C960.25 57.856 960.962 57.424 961.362 56.56H965.73C965.506 57.44 965.098 58.232 964.506 58.936C963.93 59.64 963.202 60.192 962.322 60.592C961.442 60.992 960.458 61.192 959.37 61.192C958.058 61.192 956.89 60.912 955.866 60.352C954.842 59.792 954.042 58.992 953.466 57.952C952.89 56.912 952.602 55.696 952.602 54.304C952.602 52.912 952.882 51.696 953.442 50.656C954.018 49.616 954.818 48.816 955.842 48.256C956.866 47.696 958.042 47.416 959.37 47.416C960.666 47.416 961.818 47.688 962.826 48.232C963.834 48.776 964.618 49.552 965.178 50.56C965.754 51.568 966.042 52.744 966.042 54.088ZM961.842 53.008C961.842 52.304 961.602 51.744 961.122 51.328C960.642 50.912 960.042 50.704 959.322 50.704C958.634 50.704 958.05 50.904 957.57 51.304C957.106 51.704 956.818 52.272 956.706 53.008H961.842ZM967.391 54.304C967.391 52.912 967.671 51.696 968.231 50.656C968.807 49.616 969.599 48.816 970.607 48.256C971.631 47.696 972.799 47.416 974.111 47.416C975.791 47.416 977.191 47.856 978.311 48.736C979.447 49.616 980.191 50.856 980.543 52.456H976.175C975.807 51.432 975.095 50.92 974.039 50.92C973.287 50.92 972.687 51.216 972.239 51.808C971.791 52.384 971.567 53.216 971.567 54.304C971.567 55.392 971.791 56.232 972.239 56.824C972.687 57.4 973.287 57.688 974.039 57.688C975.095 57.688 975.807 57.176 976.175 56.152H980.543C980.191 57.72 979.447 58.952 978.311 59.848C977.175 60.744 975.775 61.192 974.111 61.192C972.799 61.192 971.631 60.912 970.607 60.352C969.599 59.792 968.807 58.992 968.231 57.952C967.671 56.912 967.391 55.696 967.391 54.304ZM990.202 57.52V61H988.114C986.626 61 985.466 60.64 984.634 59.92C983.802 59.184 983.386 57.992 983.386 56.344V51.016H981.754V47.608H983.386V44.344H987.49V47.608H990.178V51.016H987.49V56.392C987.49 56.792 987.586 57.08 987.778 57.256C987.97 57.432 988.29 57.52 988.738 57.52H990.202ZM919.243 76.848L915.139 90H912.883L909.715 79.56L906.547 90H904.291L900.163 76.848H902.395L905.419 87.888L908.683 76.848H910.915L914.107 87.912L917.083 76.848H919.243ZM922.539 74.712C922.123 74.712 921.771 74.568 921.483 74.28C921.195 73.992 921.051 73.64 921.051 73.224C921.051 72.808 921.195 72.456 921.483 72.168C921.771 71.88 922.123 71.736 922.539 71.736C922.939 71.736 923.275 71.88 923.547 72.168C923.835 72.456 923.979 72.808 923.979 73.224C923.979 73.64 923.835 73.992 923.547 74.28C923.275 74.568 922.939 74.712 922.539 74.712ZM923.595 76.848V90H921.411V76.848H923.595ZM929.981 78.648V86.4C929.981 87.04 930.117 87.496 930.389 87.768C930.661 88.024 931.133 88.152 931.805 88.152H933.413V90H931.445C930.229 90 929.317 89.72 928.709 89.16C928.101 88.6 927.797 87.68 927.797 86.4V78.648H926.093V76.848H927.797V73.536H929.981V76.848H933.413V78.648H929.981ZM942.587 76.608C943.579 76.608 944.475 76.824 945.275 77.256C946.075 77.672 946.699 78.304 947.147 79.152C947.611 80 947.843 81.032 947.843 82.248V90H945.683V82.56C945.683 81.248 945.355 80.248 944.699 79.56C944.043 78.856 943.147 78.504 942.011 78.504C940.859 78.504 939.939 78.864 939.251 79.584C938.579 80.304 938.243 81.352 938.243 82.728V90H936.059V72.24H938.243V78.72C938.675 78.048 939.267 77.528 940.019 77.16C940.787 76.792 941.643 76.608 942.587 76.608ZM969.473 76.848V90H967.289V88.056C966.873 88.728 966.289 89.256 965.537 89.64C964.801 90.008 963.985 90.192 963.089 90.192C962.065 90.192 961.145 89.984 960.329 89.568C959.513 89.136 958.865 88.496 958.385 87.648C957.921 86.8 957.689 85.768 957.689 84.552V76.848H959.849V84.264C959.849 85.56 960.177 86.56 960.833 87.264C961.489 87.952 962.385 88.296 963.521 88.296C964.689 88.296 965.609 87.936 966.281 87.216C966.953 86.496 967.289 85.448 967.289 84.072V76.848H969.473ZM977.817 90.216C976.809 90.216 975.905 90.048 975.105 89.712C974.305 89.36 973.673 88.88 973.209 88.272C972.745 87.648 972.489 86.936 972.441 86.136H974.697C974.761 86.792 975.065 87.328 975.609 87.744C976.169 88.16 976.897 88.368 977.793 88.368C978.625 88.368 979.281 88.184 979.761 87.816C980.241 87.448 980.481 86.984 980.481 86.424C980.481 85.848 980.225 85.424 979.713 85.152C979.201 84.864 978.409 84.584 977.337 84.312C976.361 84.056 975.561 83.8 974.937 83.544C974.329 83.272 973.801 82.88 973.353 82.368C972.921 81.84 972.705 81.152 972.705 80.304C972.705 79.632 972.905 79.016 973.305 78.456C973.705 77.896 974.273 77.456 975.009 77.136C975.745 76.8 976.585 76.632 977.529 76.632C978.985 76.632 980.161 77 981.057 77.736C981.953 78.472 982.433 79.48 982.497 80.76H980.313C980.265 80.072 979.985 79.52 979.473 79.104C978.977 78.688 978.305 78.48 977.457 78.48C976.673 78.48 976.049 78.648 975.585 78.984C975.121 79.32 974.889 79.76 974.889 80.304C974.889 80.736 975.025 81.096 975.297 81.384C975.585 81.656 975.937 81.88 976.353 82.056C976.785 82.216 977.377 82.4 978.129 82.608C979.073 82.864 979.841 83.12 980.433 83.376C981.025 83.616 981.529 83.984 981.945 84.48C982.377 84.976 982.601 85.624 982.617 86.424C982.617 87.144 982.417 87.792 982.017 88.368C981.617 88.944 981.049 89.4 980.313 89.736C979.593 90.056 978.761 90.216 977.817 90.216ZM988.532 73.272L988.268 85.272H986.444L986.18 73.272H988.532ZM987.452 90.144C987.036 90.144 986.684 90 986.396 89.712C986.108 89.424 985.964 89.072 985.964 88.656C985.964 88.24 986.108 87.888 986.396 87.6C986.684 87.312 987.036 87.168 987.452 87.168C987.852 87.168 988.188 87.312 988.46 87.6C988.748 87.888 988.892 88.24 988.892 88.656C988.892 89.072 988.748 89.424 988.46 89.712C988.188 90 987.852 90.144 987.452 90.144Z" fill="black"/>
<path d="M430.135 35.0199H425.171V28.6982H417.853V35.0199H414.245V40.517H417.853V54.2599C417.818 59.4307 421.34 61.9903 426.648 61.767C428.538 61.6983 429.878 61.3204 430.616 61.0799L429.465 55.6342C429.105 55.7029 428.331 55.8747 427.644 55.8747C426.184 55.8747 425.171 55.325 425.171 53.2979V40.517H430.135V35.0199ZM446.644 61.9216C453.172 61.9216 457.569 58.7436 458.6 53.8477L451.832 53.401C451.093 55.4109 449.204 56.4588 446.764 56.4588C443.105 56.4588 440.786 54.0366 440.786 50.1027V50.0855H458.755V48.0756C458.755 39.1084 453.326 34.6763 446.352 34.6763C438.587 34.6763 433.554 40.1907 433.554 48.3333C433.554 56.6993 438.518 61.9216 446.644 61.9216ZM440.786 45.5504C440.941 42.5441 443.225 40.1391 446.472 40.1391C449.65 40.1391 451.849 42.4067 451.866 45.5504H440.786ZM475.452 61.9216C482.478 61.9216 486.893 57.7987 487.237 51.7347H480.331C479.902 54.552 478.046 56.1324 475.538 56.1324C472.12 56.1324 469.904 53.2636 469.904 48.2131C469.904 43.2313 472.137 40.3796 475.538 40.3796C478.218 40.3796 479.936 42.149 480.331 44.7773H487.237C486.928 38.6789 482.307 34.6763 475.418 34.6763C467.413 34.6763 462.465 40.225 462.465 48.3161C462.465 56.3386 467.327 61.9216 475.452 61.9216ZM499.241 46.1516C499.258 42.7503 501.336 40.7575 504.325 40.7575C507.297 40.7575 509.05 42.6644 509.032 45.9111V61.4062H516.35V44.6056C516.368 38.4213 512.726 34.6763 507.229 34.6763C503.226 34.6763 500.546 36.566 499.344 39.6753H499.034V26.2244H491.922V61.4062H499.241V46.1516Z" fill="#2B2B2B"/>
<path d="M523.21 57.1311C522.811 52.218 522.349 47.3364 521.824 42.4863C521.32 37.6362 520.575 32.7966 519.588 27.9675C519.546 27.7996 519.525 27.6526 519.525 27.5266C519.525 27.3796 519.525 27.2432 519.525 27.1172C519.525 26.6343 519.62 26.2144 519.809 25.8574C520.019 25.5005 520.292 25.2065 520.627 24.9756C520.963 24.7236 521.341 24.5347 521.761 24.4087C522.202 24.2827 522.664 24.2197 523.147 24.2197C524.428 24.2197 525.31 24.8181 525.792 26.0149C526.002 26.6238 526.212 27.4951 526.422 28.6289C526.653 29.7627 526.884 31.075 527.115 32.5657C527.367 34.0564 527.609 35.6941 527.84 37.4788C528.071 39.2424 528.291 41.0586 528.501 42.9272C528.564 43.4521 528.732 43.7146 529.005 43.7146C529.236 43.7146 529.477 43.5571 529.729 43.2422C532.795 39.2109 536.427 37.1953 540.626 37.1953C542.201 37.1953 543.671 37.5417 545.035 38.2346C546.4 38.9275 547.586 39.8723 548.594 41.0691C549.602 42.2659 550.389 43.6831 550.956 45.3208C551.544 46.9585 551.838 48.7222 551.838 50.6118C551.838 52.3755 551.555 54.0132 550.988 55.5249C550.442 57.0366 549.676 58.3384 548.689 59.4302C547.702 60.522 546.526 61.3828 545.161 62.0127C543.818 62.6216 542.348 62.926 540.752 62.926C538.779 62.926 536.847 62.5481 534.957 61.7922C533.068 61.0154 531.283 59.9761 529.603 58.6743C529.414 58.5063 529.215 58.4224 529.005 58.4224C528.732 58.4224 528.48 58.5693 528.249 58.8633C527.913 59.2412 527.556 59.4932 527.178 59.6191C526.8 59.7241 526.338 59.7766 525.792 59.7766C524.134 59.7766 523.273 58.8948 523.21 57.1311ZM539.524 43.0532C538.684 43.0532 537.844 43.2527 537.004 43.6516C536.186 44.0295 535.409 44.5754 534.674 45.2893C533.939 46.0032 533.257 46.864 532.627 47.8718C532.018 48.8586 531.503 49.9609 531.083 51.1787C531.042 51.2417 531.01 51.3362 530.989 51.4622C530.968 51.5881 530.958 51.6931 530.958 51.7771C530.958 52.134 531.083 52.407 531.335 52.5959C532.091 53.2468 532.868 53.8557 533.666 54.4226C534.485 54.9895 535.293 55.4829 536.091 55.9028C536.889 56.3228 537.676 56.6587 538.453 56.9106C539.23 57.1416 539.954 57.2571 540.626 57.2571C542.138 57.2571 543.282 56.8162 544.059 55.9343C544.857 55.0525 545.256 53.7717 545.256 52.092C545.256 50.7903 545.109 49.5935 544.815 48.5017C544.521 47.3889 544.122 46.4336 543.618 45.6357C543.114 44.8169 542.505 44.187 541.792 43.7461C541.099 43.2842 540.343 43.0532 539.524 43.0532ZM575.805 36.8804C576.96 36.8804 578.073 37.0588 579.144 37.4158C580.214 37.7727 581.159 38.2661 581.978 38.896C582.797 39.5259 583.448 40.2817 583.931 41.1636C584.435 42.0454 584.687 43.0217 584.687 44.0925C584.687 44.5334 584.582 44.9639 584.372 45.3838C584.183 45.7827 583.92 46.1396 583.584 46.4546C583.248 46.7485 582.86 46.99 582.419 47.179C581.999 47.3469 581.558 47.4309 581.096 47.4309C581.054 47.4309 581.012 47.4414 580.97 47.4624C580.949 47.4624 580.918 47.4624 580.876 47.4624C580.834 47.4834 580.792 47.4939 580.75 47.4939L580.876 50.0134C580.96 53.0159 581.38 55.21 582.135 56.5957C582.912 57.9814 583.92 58.6743 585.159 58.6743C585.6 58.6743 585.988 58.6323 586.324 58.5483C586.681 58.4644 587.007 58.3699 587.301 58.2649C587.615 58.1389 587.909 58.0339 588.182 57.95C588.455 57.866 588.728 57.824 589.001 57.824C589.484 57.824 589.904 58.0339 590.261 58.4539C590.639 58.8738 590.828 59.3777 590.828 59.9656C590.828 60.5535 590.597 61.1414 590.135 61.7292C589.694 62.3171 589.106 62.8525 588.371 63.3354C587.636 63.7974 586.807 64.1753 585.883 64.4692C584.959 64.7632 584.025 64.9102 583.08 64.9102C581.443 64.9102 580.004 64.2383 578.766 62.8945C577.527 61.5298 576.645 59.5352 576.12 56.9106C575.994 56.4907 575.826 56.2808 575.616 56.2808C575.364 56.2808 575.144 56.4067 574.955 56.6587C572.876 59.2832 570.661 61.2568 568.31 62.5796C565.958 63.8813 563.638 64.5322 561.349 64.5322C560.279 64.5322 559.313 64.3748 558.452 64.0598C557.591 63.7449 556.856 63.304 556.247 62.7371C555.659 62.1492 555.198 61.4458 554.862 60.627C554.547 59.7871 554.389 58.8528 554.389 57.824C554.389 56.3752 554.704 54.853 555.334 53.2573C555.985 51.6616 556.856 50.0869 557.948 48.5332C559.04 46.9795 560.3 45.4993 561.727 44.0925C563.176 42.6858 564.688 41.447 566.262 40.3762C567.858 39.3054 569.475 38.4551 571.113 37.8252C572.75 37.1953 574.314 36.8804 575.805 36.8804ZM574.766 47.7773C575.144 47.0635 575.49 46.5491 575.805 46.2341C576.12 45.8982 576.572 45.6777 577.159 45.5728C577.621 45.5098 577.852 45.3628 577.852 45.1318C577.852 44.9639 577.789 44.7854 577.663 44.5964C577.264 44.0505 576.844 43.5781 576.404 43.1792C575.963 42.7593 575.375 42.5493 574.64 42.5493C573.842 42.5493 572.95 42.7803 571.963 43.2422C570.976 43.7041 569.968 44.3235 568.939 45.1003C567.932 45.8562 566.934 46.7275 565.948 47.7144C564.982 48.6802 564.121 49.6775 563.365 50.7063C562.609 51.7351 562 52.7534 561.538 53.7612C561.076 54.769 560.845 55.6719 560.845 56.4697C560.845 57.1836 561.034 57.74 561.412 58.1389C561.811 58.5378 562.347 58.7373 563.019 58.7373C564.74 58.7373 566.619 57.824 568.656 55.9973C570.693 54.1707 572.729 51.4307 574.766 47.7773ZM590.167 28.5344C590.167 27.4426 590.481 26.6658 591.111 26.2039C591.741 25.7419 592.781 25.511 594.229 25.511C594.733 25.511 595.174 25.5635 595.552 25.6685C595.93 25.7734 596.245 25.9519 596.497 26.2039C596.749 26.4348 596.948 26.7603 597.095 27.1802C597.263 27.5791 597.4 28.0935 597.505 28.7234C597.778 30.592 598.051 32.5552 598.323 34.6128C598.617 36.6494 598.89 38.686 599.142 40.7227C599.415 42.7383 599.667 44.7119 599.898 46.6436C600.129 48.5542 600.329 50.3389 600.497 51.9976C600.686 53.6353 600.822 55.0945 600.906 56.3752C601.011 57.635 601.063 58.6323 601.063 59.3672C601.063 60.123 600.99 60.7634 600.843 61.2883C600.717 61.8132 600.486 62.2332 600.15 62.5481C599.835 62.863 599.415 63.094 598.89 63.241C598.386 63.3669 597.757 63.4299 597.001 63.4299C596.266 63.4299 595.678 63.241 595.237 62.863C594.817 62.4851 594.607 61.9077 594.607 61.1309C594.607 60.333 594.544 59.2727 594.418 57.95C594.292 56.6062 594.124 55.1155 593.914 53.4778C593.704 51.8401 593.463 50.0974 593.19 48.2498C592.938 46.4021 592.665 44.5754 592.371 42.7698C592.098 40.9641 591.825 39.2319 591.552 37.5732C591.3 35.8936 591.069 34.4133 590.859 33.1326C590.649 31.8308 590.481 30.7705 590.355 29.9517C590.229 29.1118 590.167 28.6394 590.167 28.5344ZM604.402 28.5344C604.402 27.4426 604.717 26.6658 605.347 26.2039C605.977 25.7419 607.016 25.511 608.465 25.511C608.969 25.511 609.409 25.5635 609.787 25.6685C610.165 25.7734 610.48 25.9519 610.732 26.2039C610.984 26.4348 611.184 26.7603 611.331 27.1802C611.499 27.5791 611.635 28.0935 611.74 28.7234C612.013 30.592 612.286 32.5552 612.559 34.6128C612.853 36.6494 613.126 38.686 613.378 40.7227C613.651 42.7383 613.903 44.7119 614.134 46.6436C614.365 48.5542 614.564 50.3389 614.732 51.9976C614.921 53.6353 615.057 55.0945 615.141 56.3752C615.246 57.635 615.299 58.6323 615.299 59.3672C615.299 60.123 615.225 60.7634 615.078 61.2883C614.952 61.8132 614.721 62.2332 614.385 62.5481C614.071 62.863 613.651 63.094 613.126 63.241C612.622 63.3669 611.992 63.4299 611.236 63.4299C610.501 63.4299 609.913 63.241 609.472 62.863C609.052 62.4851 608.843 61.9077 608.843 61.1309C608.843 60.333 608.78 59.2727 608.654 57.95C608.528 56.6062 608.36 55.1155 608.15 53.4778C607.94 51.8401 607.698 50.0974 607.425 48.2498C607.173 46.4021 606.9 44.5754 606.606 42.7698C606.333 40.9641 606.061 39.2319 605.788 37.5732C605.536 35.8936 605.305 34.4133 605.095 33.1326C604.885 31.8308 604.717 30.7705 604.591 29.9517C604.465 29.1118 604.402 28.6394 604.402 28.5344ZM620.747 53.9502C620.747 53.5933 620.789 53.1943 620.873 52.7534C620.957 52.3125 620.999 51.8296 620.999 51.3047C620.999 50.9478 620.842 50.6748 620.527 50.4858C620.233 50.2969 619.897 50.0869 619.519 49.856C619.141 49.625 618.795 49.3311 618.48 48.9741C618.186 48.6172 618.039 48.1028 618.039 47.4309C618.039 46.948 618.165 46.4651 618.417 45.9822C618.69 45.4993 619.078 45.0583 619.582 44.6594C620.821 43.7356 622.102 42.9062 623.424 42.1714C624.768 41.4365 626.101 40.8171 627.424 40.3132C628.768 39.8093 630.091 39.4209 631.392 39.1479C632.694 38.875 633.943 38.7385 635.14 38.7385C637.156 38.7385 639.045 39.1165 640.809 39.8723C642.594 40.6072 644.137 41.6255 645.439 42.9272C646.761 44.208 647.801 45.7197 648.557 47.4624C649.333 49.1841 649.722 51.0317 649.722 53.0054C649.722 54.937 649.312 56.7742 648.494 58.5168C647.696 60.2385 646.615 61.7502 645.25 63.052C643.885 64.3538 642.279 65.3826 640.431 66.1384C638.604 66.9153 636.673 67.3037 634.636 67.3037C632.642 67.3037 630.794 66.9678 629.093 66.2959C627.393 65.624 625.923 64.7002 624.684 63.5244C623.445 62.3276 622.479 60.9209 621.787 59.3042C621.094 57.6665 620.747 55.8818 620.747 53.9502ZM635.329 61.6348C636.211 61.6348 637.124 61.4563 638.069 61.0994C639.014 60.7424 639.875 60.228 640.652 59.5562C641.449 58.8633 642.1 58.0234 642.604 57.0366C643.129 56.0498 643.392 54.937 643.392 53.6982C643.392 52.4385 643.161 51.2627 642.699 50.1709C642.237 49.0791 641.596 48.1343 640.778 47.3364C639.98 46.5176 639.024 45.8772 637.912 45.4153C636.82 44.9534 635.634 44.7224 634.353 44.7224C632.022 44.7224 630.238 45.3313 628.999 46.5491C627.76 47.7458 627.141 49.5935 627.141 52.092C627.141 53.4568 627.34 54.7271 627.739 55.9028C628.159 57.0576 628.736 58.0654 629.471 58.9263C630.206 59.7661 631.067 60.4275 632.054 60.9104C633.062 61.3933 634.153 61.6348 635.329 61.6348ZM656.777 28.0305C656.777 26.9177 657.092 26.1409 657.721 25.7C658.351 25.238 659.391 25.0071 660.839 25.0071C661.364 25.0071 661.805 25.0596 662.162 25.1646C662.54 25.2485 662.855 25.4165 663.107 25.6685C663.38 25.9204 663.59 26.2563 663.737 26.6763C663.905 27.0752 664.041 27.5896 664.146 28.2195C664.398 30.1721 664.671 32.1877 664.965 34.2664C665.28 36.345 665.605 38.4341 665.941 40.5337C666.067 41.4785 666.561 41.9509 667.422 41.9509C667.653 41.9509 668.031 41.9299 668.555 41.8879C669.101 41.825 669.742 41.762 670.477 41.699C671.211 41.615 671.999 41.531 672.839 41.447C673.699 41.363 674.55 41.2896 675.39 41.2266C676.25 41.1426 677.059 41.0796 677.815 41.0376C678.592 40.9746 679.274 40.9431 679.862 40.9431C680.324 40.9431 680.691 41.0376 680.964 41.2266C681.237 41.3945 681.447 41.6255 681.594 41.9194C681.762 42.1924 681.867 42.5073 681.909 42.8643C681.972 43.2002 682.003 43.5466 682.003 43.9036C682.003 44.2185 681.94 44.5439 681.814 44.8799C681.709 45.2158 681.552 45.5203 681.342 45.7932C681.153 46.0452 680.912 46.2551 680.618 46.4231C680.324 46.5911 679.988 46.675 679.61 46.675C677.783 46.675 675.936 46.738 674.067 46.864C672.219 46.969 670.372 47.116 668.524 47.3049C667.579 47.4309 667.107 47.9033 667.107 48.7222C667.107 48.7852 667.117 48.8691 667.138 48.9741C667.159 49.0581 667.17 49.1316 667.17 49.1946C667.422 51.0212 667.653 52.7324 667.863 54.3281C668.094 55.9238 668.282 57.3516 668.429 58.6113C668.597 59.8501 668.723 60.8894 668.807 61.7292C668.912 62.5481 668.965 63.094 668.965 63.3669C668.965 64.1228 668.891 64.7527 668.744 65.2566C668.597 65.7815 668.356 66.2014 668.02 66.5164C667.684 66.8523 667.233 67.0833 666.666 67.2092C666.12 67.3562 665.427 67.4297 664.587 67.4297C663.789 67.4297 663.201 67.2407 662.823 66.8628C662.446 66.4849 662.236 65.9075 662.194 65.1306C662.068 62.6531 661.868 60.165 661.595 57.6665C661.322 55.147 661.007 52.6379 660.65 50.1394C660.461 49.2366 659.989 48.7852 659.233 48.7852C659.17 48.7852 659.097 48.7957 659.013 48.8167C658.929 48.8376 658.855 48.8481 658.792 48.8481C657.49 49.1421 656.262 49.436 655.107 49.73C653.953 50.0239 652.871 50.3389 651.864 50.6748C651.297 50.8638 650.793 51.0002 650.352 51.0842C649.911 51.1472 649.512 51.1787 649.155 51.1787C648.672 51.1787 648.315 50.9688 648.084 50.5488C647.853 50.1079 647.738 49.562 647.738 48.9111C647.738 48.6802 647.759 48.4177 647.801 48.1238C647.843 47.8088 647.927 47.5044 648.053 47.2104C648.158 46.8955 648.326 46.6121 648.557 46.3601C648.767 46.0872 649.061 45.8667 649.438 45.6987C650.32 45.3418 651.496 44.9744 652.966 44.5964C654.436 44.1975 656.094 43.8301 657.942 43.4941C658.362 43.3892 658.687 43.2212 658.918 42.9902C659.17 42.7383 659.296 42.3708 659.296 41.8879C659.296 41.783 659.296 41.678 659.296 41.573C659.296 41.447 659.275 41.321 659.233 41.1951C658.897 39.2634 658.572 37.5103 658.257 35.9355C657.963 34.3398 657.7 32.9751 657.469 31.8413C657.26 30.7075 657.092 29.8152 656.966 29.1643C656.84 28.5134 656.777 28.1355 656.777 28.0305Z" fill="#F7CA31"/>
<path d="M418.184 23.1963V8.79143H413.18V5.45557H426.827V8.79143H421.823V23.1963H418.184Z" fill="#2B2B2B"/>
<path d="M425.708 23.1963L432.683 5.45557H436.626L443.601 23.1963H439.81L438.294 19.2539H430.712L429.196 23.1963H425.708ZM431.925 16.2213H437.232L434.503 9.09469L431.925 16.2213Z" fill="#2B2B2B"/>
<path d="M448.358 23.1963V8.79143H443.354V5.45557H457.001V8.79143H451.997V23.1963H448.358Z" fill="#2B2B2B"/>
<path d="M467.312 23.6505C466.251 23.6505 465.341 23.4989 464.279 23.1956C463.218 22.8923 462.46 22.4375 461.702 21.9826C460.944 21.376 460.337 20.7695 459.731 20.0114C459.124 19.2532 458.821 18.3434 458.518 17.4337C458.214 16.5239 458.063 15.4625 458.063 14.4011C458.063 13.3397 458.214 12.2782 458.518 11.3685C458.821 10.4587 459.276 9.5489 459.731 8.79075C460.337 8.0326 460.944 7.42608 461.702 6.81956C462.46 6.21304 463.37 5.75815 464.279 5.45489C465.189 5.15163 466.251 5 467.312 5C468.373 5 469.283 5.15163 470.345 5.45489C471.254 5.75815 472.164 6.21304 472.922 6.66793C473.681 7.27445 474.287 7.88097 474.894 8.63912C475.5 9.39727 475.803 10.3071 476.107 11.2168C476.41 12.1266 476.561 13.188 476.561 14.2494C476.561 15.3108 476.41 16.3723 476.107 17.282C475.803 18.1918 475.348 19.1016 474.894 19.8597C474.287 20.6179 473.681 21.2244 472.922 21.8309C472.164 22.4375 471.254 22.8923 470.345 23.1956C469.435 23.4989 468.373 23.6505 467.312 23.6505ZM467.464 20.3146C468.222 20.3146 468.98 20.163 469.587 19.8597C470.193 19.5565 470.8 19.1016 471.254 18.6467C471.709 18.0402 472.164 17.4337 472.316 16.8271C472.619 16.069 472.771 15.3108 472.771 14.4011C472.771 13.4913 472.619 12.7331 472.316 11.975C472.013 11.2168 471.709 10.6103 471.254 10.1554C470.8 9.5489 470.193 9.24564 469.587 8.94238C468.98 8.63912 468.222 8.48749 467.464 8.48749C466.706 8.48749 465.947 8.63912 465.341 8.94238C464.734 9.24564 464.128 9.70053 463.673 10.1554C463.218 10.7619 462.763 11.3685 462.612 11.975C462.308 12.7331 462.157 13.4913 462.157 14.4011C462.157 15.3108 462.308 16.069 462.612 16.8271C462.915 17.5853 463.218 18.1918 463.673 18.6467C464.128 19.2532 464.734 19.5565 465.341 19.8597C465.947 20.163 466.554 20.3146 467.464 20.3146Z" fill="#2B2B2B"/>
<path d="M484.749 23.4989C483.688 23.4989 482.778 23.3472 481.868 22.8924C480.958 22.5891 480.2 21.9826 479.594 21.2244C478.987 20.4663 478.532 19.7081 478.381 18.7983L481.868 18.0402C482.02 18.7983 482.475 19.2532 482.93 19.7081C483.536 20.163 484.143 20.3146 484.901 20.3146C485.507 20.3146 485.962 20.163 486.265 20.0114C486.569 19.8598 487.024 19.5565 487.175 19.2532C487.327 18.95 487.478 18.4951 487.478 18.0402C487.478 17.4337 487.327 16.9788 486.872 16.6755C486.417 16.3723 485.81 16.069 484.901 15.7657L484.143 15.6141C482.323 15.1592 480.958 14.5527 480.049 13.6429C479.139 12.7331 478.684 11.6717 478.684 10.4587C478.684 9.70053 478.836 8.94238 479.139 8.33586C479.442 7.72934 479.897 7.12282 480.503 6.66793C481.11 6.21304 481.716 5.75815 482.475 5.45489C483.233 5.15163 483.991 5 484.901 5C485.81 5 486.872 5.15163 487.63 5.60652C488.54 5.90978 489.146 6.5163 489.753 7.12282C490.359 7.88097 490.663 8.63912 490.966 9.5489L487.478 10.3071C487.327 9.70053 486.872 9.09401 486.417 8.79075C485.962 8.48749 485.356 8.18423 484.749 8.18423C484.294 8.18423 483.839 8.33586 483.536 8.48749C483.233 8.63912 482.93 8.94238 482.626 9.24564C482.475 9.5489 482.323 9.85216 482.323 10.3071C482.323 10.9136 482.475 11.3685 482.93 11.6717C483.384 11.975 483.991 12.2782 484.901 12.4299L485.659 12.5815C487.478 13.0364 488.843 13.6429 489.753 14.5527C490.663 15.4625 491.118 16.5239 491.118 17.8886C491.118 18.7983 490.966 19.5565 490.663 20.163C490.359 20.9212 489.905 21.5277 489.298 21.9826C488.691 22.4375 488.085 22.8924 487.327 23.1956C486.417 23.3472 485.659 23.4989 484.749 23.4989Z" fill="#2B2B2B"/>
<path d="M397.06 31.5702L394.75 42.3502H403.64V51.1002H392.86L390.34 63.0002H381.03L383.55 51.1002H370.81L368.29 63.0002H359.05L361.57 51.1002H351V42.3502H363.46L365.77 31.5702H355.27V22.8202H367.66L370.11 11.2002H379.35L376.9 22.8202H389.64L392.09 11.2002H401.4L398.95 22.8202H407.91V31.5702H397.06ZM387.75 31.5702H375.01L372.7 42.3502H385.44L387.75 31.5702Z" fill="#2B2B2B"/>
</svg>
