<svg width="99" height="99" viewBox="0 0 99 99" fill="none" xmlns="http://www.w3.org/2000/svg">
<circle cx="49.5" cy="49.5" r="49.5" fill="#FFDA6A"/>
<path fill-rule="evenodd" clip-rule="evenodd" d="M17 50.2503C18.0339 67.5444 32.3865 81.2503 49.9404 81.2503C67.4942 81.2503 81.8469 67.5444 82.8808 50.2503H17Z" fill="#262C38"/>
<path fill-rule="evenodd" clip-rule="evenodd" d="M18.9135 23.8953C19.3857 23.052 20.4522 22.7512 21.2954 23.2234L33.7954 30.2234C34.3481 30.5329 34.6904 31.1169 34.6904 31.7503C34.6904 32.3837 34.3481 32.9677 33.7954 33.2772L21.2954 40.2772C20.4522 40.7494 19.3857 40.4486 18.9135 39.6054C18.4413 38.7621 18.742 37.6957 19.5853 37.2234L29.3587 31.7503L19.5853 26.2772C18.742 25.805 18.4413 24.7385 18.9135 23.8953Z" fill="#252B38"/>
<path fill-rule="evenodd" clip-rule="evenodd" d="M80.9672 40.1054C80.495 40.9486 79.4285 41.2494 78.5852 40.7772L66.0852 33.7772C65.5326 33.4677 65.1903 32.8837 65.1903 32.2503C65.1903 31.6169 65.5326 31.0329 66.0852 30.7234L78.5852 23.7234C79.4285 23.2512 80.4949 23.552 80.9672 24.3952C81.4394 25.2385 81.1386 26.3049 80.2954 26.7772L70.5219 32.2503L80.2954 37.7234C81.1386 38.1956 81.4394 39.2621 80.9672 40.1054Z" fill="#252B38"/>
<path fill-rule="evenodd" clip-rule="evenodd" d="M78.4226 64.9271L78.4404 64.2504C56.3376 57.631 43.8539 57.7779 21.4404 64.2504V64.8967C27.1668 74.6796 37.7862 81.2503 49.9404 81.2503C62.0819 81.2503 72.692 74.6933 78.4226 64.9271Z" fill="#F55065"/>
</svg>
