<svg width="441" height="366" viewBox="0 0 441 366" fill="none" xmlns="http://www.w3.org/2000/svg">
<rect width="441" height="366" rx="30" fill="white"/>
<path d="M29.126 96.7793L34.0332 86.6719H38.1348L30.9863 100.148V108H27.2656V100.148L20.1025 86.6719H24.2188L29.126 96.7793ZM38.4717 99.9287C38.4717 98.376 38.7793 96.9795 39.3945 95.7393C40.0098 94.4893 40.874 93.5322 41.9873 92.8682C43.1006 92.1943 44.3799 91.8574 45.8252 91.8574C47.9639 91.8574 49.6973 92.5459 51.0254 93.9229C52.3633 95.2998 53.0859 97.126 53.1934 99.4014L53.208 100.236C53.208 101.799 52.9053 103.195 52.2998 104.426C51.7041 105.656 50.8447 106.608 49.7217 107.282C48.6084 107.956 47.3193 108.293 45.8545 108.293C43.6182 108.293 41.8262 107.551 40.4785 106.066C39.1406 104.572 38.4717 102.585 38.4717 100.104V99.9287ZM42.0312 100.236C42.0312 101.867 42.3682 103.146 43.042 104.074C43.7158 104.992 44.6533 105.451 45.8545 105.451C47.0557 105.451 47.9883 104.982 48.6523 104.045C49.3262 103.107 49.6631 101.735 49.6631 99.9287C49.6631 98.3271 49.3164 97.0576 48.623 96.1201C47.9395 95.1826 47.0068 94.7139 45.8252 94.7139C44.6631 94.7139 43.7402 95.1777 43.0566 96.1055C42.373 97.0234 42.0312 98.4004 42.0312 100.236ZM65.8203 106.447C64.7754 107.678 63.291 108.293 61.3672 108.293C59.6484 108.293 58.3447 107.79 57.4561 106.784C56.5771 105.778 56.1377 104.323 56.1377 102.419V92.1504H59.6973V102.375C59.6973 104.387 60.5322 105.393 62.2021 105.393C63.9307 105.393 65.0977 104.772 65.7031 103.532V92.1504H69.2627V108H65.9082L65.8203 106.447ZM81.1865 95.4023C80.7178 95.3242 80.2344 95.2852 79.7363 95.2852C78.1055 95.2852 77.0068 95.9102 76.4404 97.1602V108H72.8809V92.1504H76.2793L76.3672 93.9229C77.2266 92.5459 78.418 91.8574 79.9414 91.8574C80.4492 91.8574 80.8691 91.9258 81.2012 92.0625L81.1865 95.4023ZM104.785 100.236C104.785 102.688 104.229 104.646 103.115 106.11C102.002 107.565 100.508 108.293 98.6328 108.293C96.8945 108.293 95.5029 107.722 94.458 106.579V114.094H90.8984V92.1504H94.1797L94.3262 93.7617C95.3711 92.4922 96.792 91.8574 98.5889 91.8574C100.522 91.8574 102.036 92.5801 103.13 94.0254C104.233 95.4609 104.785 97.458 104.785 100.017V100.236ZM101.24 99.9287C101.24 98.3467 100.923 97.0918 100.288 96.1641C99.6631 95.2363 98.7646 94.7725 97.5928 94.7725C96.1377 94.7725 95.0928 95.373 94.458 96.5742V103.605C95.1025 104.836 96.1572 105.451 97.6221 105.451C98.7549 105.451 99.6387 104.997 100.273 104.089C100.918 103.171 101.24 101.784 101.24 99.9287ZM114.79 108.293C112.534 108.293 110.703 107.585 109.297 106.169C107.9 104.743 107.202 102.849 107.202 100.485V100.046C107.202 98.4639 107.505 97.0527 108.11 95.8125C108.726 94.5625 109.585 93.5908 110.688 92.8975C111.792 92.2041 113.022 91.8574 114.38 91.8574C116.538 91.8574 118.203 92.5459 119.375 93.9229C120.557 95.2998 121.147 97.248 121.147 99.7676V101.203H110.791C110.898 102.512 111.333 103.547 112.095 104.309C112.866 105.07 113.833 105.451 114.995 105.451C116.626 105.451 117.954 104.792 118.979 103.474L120.898 105.305C120.264 106.252 119.414 106.989 118.35 107.517C117.295 108.034 116.108 108.293 114.79 108.293ZM114.365 94.7139C113.389 94.7139 112.598 95.0557 111.992 95.7393C111.396 96.4229 111.016 97.375 110.85 98.5957H117.632V98.332C117.554 97.1406 117.236 96.2422 116.68 95.6367C116.123 95.0215 115.352 94.7139 114.365 94.7139ZM132.222 95.4023C131.753 95.3242 131.27 95.2852 130.771 95.2852C129.141 95.2852 128.042 95.9102 127.476 97.1602V108H123.916V92.1504H127.314L127.402 93.9229C128.262 92.5459 129.453 91.8574 130.977 91.8574C131.484 91.8574 131.904 91.9258 132.236 92.0625L132.222 95.4023ZM140.688 105.451C141.577 105.451 142.314 105.192 142.9 104.675C143.486 104.157 143.799 103.518 143.838 102.756H147.192C147.153 103.742 146.846 104.665 146.27 105.524C145.693 106.374 144.912 107.048 143.926 107.546C142.939 108.044 141.875 108.293 140.732 108.293C138.516 108.293 136.758 107.575 135.459 106.14C134.16 104.704 133.511 102.722 133.511 100.192V99.8262C133.511 97.4141 134.155 95.4854 135.444 94.04C136.733 92.585 138.491 91.8574 140.718 91.8574C142.603 91.8574 144.136 92.4092 145.317 93.5127C146.509 94.6064 147.134 96.0469 147.192 97.834H143.838C143.799 96.9258 143.486 96.1787 142.9 95.5928C142.324 95.0068 141.587 94.7139 140.688 94.7139C139.536 94.7139 138.647 95.1338 138.022 95.9736C137.397 96.8037 137.08 98.0684 137.07 99.7676V100.339C137.07 102.058 137.378 103.342 137.993 104.191C138.618 105.031 139.517 105.451 140.688 105.451ZM156.86 108.293C154.604 108.293 152.773 107.585 151.367 106.169C149.971 104.743 149.272 102.849 149.272 100.485V100.046C149.272 98.4639 149.575 97.0527 150.181 95.8125C150.796 94.5625 151.655 93.5908 152.759 92.8975C153.862 92.2041 155.093 91.8574 156.45 91.8574C158.608 91.8574 160.273 92.5459 161.445 93.9229C162.627 95.2998 163.218 97.248 163.218 99.7676V101.203H152.861C152.969 102.512 153.403 103.547 154.165 104.309C154.937 105.07 155.903 105.451 157.065 105.451C158.696 105.451 160.024 104.792 161.05 103.474L162.969 105.305C162.334 106.252 161.484 106.989 160.42 107.517C159.365 108.034 158.179 108.293 156.86 108.293ZM156.436 94.7139C155.459 94.7139 154.668 95.0557 154.062 95.7393C153.467 96.4229 153.086 97.375 152.92 98.5957H159.702V98.332C159.624 97.1406 159.307 96.2422 158.75 95.6367C158.193 95.0215 157.422 94.7139 156.436 94.7139ZM169.297 92.1504L169.399 93.9814C170.571 92.5654 172.109 91.8574 174.014 91.8574C177.314 91.8574 178.994 93.7471 179.053 97.5264V108H175.493V97.7314C175.493 96.7256 175.273 95.9834 174.834 95.5049C174.404 95.0166 173.696 94.7725 172.71 94.7725C171.274 94.7725 170.205 95.4219 169.502 96.7207V108H165.942V92.1504H169.297ZM187.153 88.2979V92.1504H189.951V94.7871H187.153V103.635C187.153 104.24 187.271 104.68 187.505 104.953C187.749 105.217 188.179 105.349 188.794 105.349C189.204 105.349 189.619 105.3 190.039 105.202V107.956C189.229 108.181 188.447 108.293 187.695 108.293C184.961 108.293 183.594 106.784 183.594 103.767V94.7871H180.986V92.1504H183.594V88.2979H187.153ZM202.153 108C201.997 107.697 201.86 107.204 201.743 106.521C200.61 107.702 199.224 108.293 197.583 108.293C195.991 108.293 194.692 107.839 193.687 106.931C192.681 106.022 192.178 104.899 192.178 103.562C192.178 101.872 192.803 100.578 194.053 99.6797C195.312 98.7715 197.109 98.3174 199.443 98.3174H201.626V97.2773C201.626 96.457 201.396 95.8027 200.938 95.3145C200.479 94.8164 199.78 94.5674 198.843 94.5674C198.032 94.5674 197.368 94.7725 196.851 95.1826C196.333 95.583 196.074 96.0957 196.074 96.7207H192.515C192.515 95.8516 192.803 95.041 193.379 94.2891C193.955 93.5273 194.736 92.9316 195.723 92.502C196.719 92.0723 197.827 91.8574 199.048 91.8574C200.903 91.8574 202.383 92.3262 203.486 93.2637C204.59 94.1914 205.156 95.5 205.186 97.1895V104.338C205.186 105.764 205.386 106.901 205.786 107.751V108H202.153ZM198.242 105.437C198.945 105.437 199.604 105.266 200.22 104.924C200.845 104.582 201.313 104.123 201.626 103.547V100.559H199.707C198.389 100.559 197.397 100.788 196.733 101.247C196.069 101.706 195.737 102.355 195.737 103.195C195.737 103.879 195.962 104.426 196.411 104.836C196.87 105.236 197.48 105.437 198.242 105.437ZM208.291 99.958C208.291 97.4971 208.867 95.5342 210.02 94.0693C211.182 92.5947 212.72 91.8574 214.634 91.8574C216.44 91.8574 217.861 92.4873 218.896 93.7471L219.058 92.1504H222.266V107.517C222.266 109.597 221.616 111.237 220.317 112.438C219.028 113.64 217.285 114.24 215.088 114.24C213.926 114.24 212.788 113.996 211.675 113.508C210.571 113.029 209.731 112.399 209.155 111.618L210.84 109.479C211.934 110.778 213.281 111.428 214.883 111.428C216.064 111.428 216.997 111.105 217.681 110.461C218.364 109.826 218.706 108.889 218.706 107.648V106.579C217.681 107.722 216.313 108.293 214.604 108.293C212.749 108.293 211.23 107.556 210.049 106.081C208.877 104.606 208.291 102.565 208.291 99.958ZM211.836 100.266C211.836 101.857 212.158 103.112 212.803 104.03C213.457 104.938 214.36 105.393 215.513 105.393C216.948 105.393 218.013 104.777 218.706 103.547V96.5742C218.032 95.373 216.978 94.7725 215.542 94.7725C214.37 94.7725 213.457 95.2363 212.803 96.1641C212.158 97.0918 211.836 98.459 211.836 100.266ZM232.915 108.293C230.659 108.293 228.828 107.585 227.422 106.169C226.025 104.743 225.327 102.849 225.327 100.485V100.046C225.327 98.4639 225.63 97.0527 226.235 95.8125C226.851 94.5625 227.71 93.5908 228.813 92.8975C229.917 92.2041 231.147 91.8574 232.505 91.8574C234.663 91.8574 236.328 92.5459 237.5 93.9229C238.682 95.2998 239.272 97.248 239.272 99.7676V101.203H228.916C229.023 102.512 229.458 103.547 230.22 104.309C230.991 105.07 231.958 105.451 233.12 105.451C234.751 105.451 236.079 104.792 237.104 103.474L239.023 105.305C238.389 106.252 237.539 106.989 236.475 107.517C235.42 108.034 234.233 108.293 232.915 108.293ZM232.49 94.7139C231.514 94.7139 230.723 95.0557 230.117 95.7393C229.521 96.4229 229.141 97.375 228.975 98.5957H235.757V98.332C235.679 97.1406 235.361 96.2422 234.805 95.6367C234.248 95.0215 233.477 94.7139 232.49 94.7139ZM263.398 100.236C263.398 102.688 262.842 104.646 261.729 106.11C260.615 107.565 259.121 108.293 257.246 108.293C255.508 108.293 254.116 107.722 253.071 106.579V114.094H249.512V92.1504H252.793L252.939 93.7617C253.984 92.4922 255.405 91.8574 257.202 91.8574C259.136 91.8574 260.649 92.5801 261.743 94.0254C262.847 95.4609 263.398 97.458 263.398 100.017V100.236ZM259.854 99.9287C259.854 98.3467 259.536 97.0918 258.901 96.1641C258.276 95.2363 257.378 94.7725 256.206 94.7725C254.751 94.7725 253.706 95.373 253.071 96.5742V103.605C253.716 104.836 254.771 105.451 256.235 105.451C257.368 105.451 258.252 104.997 258.887 104.089C259.531 103.171 259.854 101.784 259.854 99.9287ZM273.403 108.293C271.147 108.293 269.316 107.585 267.91 106.169C266.514 104.743 265.815 102.849 265.815 100.485V100.046C265.815 98.4639 266.118 97.0527 266.724 95.8125C267.339 94.5625 268.198 93.5908 269.302 92.8975C270.405 92.2041 271.636 91.8574 272.993 91.8574C275.151 91.8574 276.816 92.5459 277.988 93.9229C279.17 95.2998 279.761 97.248 279.761 99.7676V101.203H269.404C269.512 102.512 269.946 103.547 270.708 104.309C271.479 105.07 272.446 105.451 273.608 105.451C275.239 105.451 276.567 104.792 277.593 103.474L279.512 105.305C278.877 106.252 278.027 106.989 276.963 107.517C275.908 108.034 274.722 108.293 273.403 108.293ZM272.979 94.7139C272.002 94.7139 271.211 95.0557 270.605 95.7393C270.01 96.4229 269.629 97.375 269.463 98.5957H276.245V98.332C276.167 97.1406 275.85 96.2422 275.293 95.6367C274.736 95.0215 273.965 94.7139 272.979 94.7139ZM290.835 95.4023C290.366 95.3242 289.883 95.2852 289.385 95.2852C287.754 95.2852 286.655 95.9102 286.089 97.1602V108H282.529V92.1504H285.928L286.016 93.9229C286.875 92.5459 288.066 91.8574 289.59 91.8574C290.098 91.8574 290.518 91.9258 290.85 92.0625L290.835 95.4023ZM294.629 108V94.7871H292.212V92.1504H294.629V90.7002C294.629 88.9424 295.117 87.585 296.094 86.6279C297.07 85.6709 298.438 85.1924 300.195 85.1924C300.82 85.1924 301.484 85.2803 302.188 85.4561L302.1 88.2393C301.709 88.1611 301.255 88.1221 300.737 88.1221C299.038 88.1221 298.188 88.9961 298.188 90.7441V92.1504H301.411V94.7871H298.188V108H294.629ZM303.345 99.9287C303.345 98.376 303.652 96.9795 304.268 95.7393C304.883 94.4893 305.747 93.5322 306.86 92.8682C307.974 92.1943 309.253 91.8574 310.698 91.8574C312.837 91.8574 314.57 92.5459 315.898 93.9229C317.236 95.2998 317.959 97.126 318.066 99.4014L318.081 100.236C318.081 101.799 317.778 103.195 317.173 104.426C316.577 105.656 315.718 106.608 314.595 107.282C313.481 107.956 312.192 108.293 310.728 108.293C308.491 108.293 306.699 107.551 305.352 106.066C304.014 104.572 303.345 102.585 303.345 100.104V99.9287ZM306.904 100.236C306.904 101.867 307.241 103.146 307.915 104.074C308.589 104.992 309.526 105.451 310.728 105.451C311.929 105.451 312.861 104.982 313.525 104.045C314.199 103.107 314.536 101.735 314.536 99.9287C314.536 98.3271 314.189 97.0576 313.496 96.1201C312.812 95.1826 311.88 94.7139 310.698 94.7139C309.536 94.7139 308.613 95.1777 307.93 96.1055C307.246 97.0234 306.904 98.4004 306.904 100.236ZM329.39 95.4023C328.921 95.3242 328.438 95.2852 327.939 95.2852C326.309 95.2852 325.21 95.9102 324.644 97.1602V108H321.084V92.1504H324.482L324.57 93.9229C325.43 92.5459 326.621 91.8574 328.145 91.8574C328.652 91.8574 329.072 91.9258 329.404 92.0625L329.39 95.4023ZM334.985 92.1504L335.088 93.8057C336.201 92.5068 337.725 91.8574 339.658 91.8574C341.777 91.8574 343.228 92.668 344.009 94.2891C345.161 92.668 346.782 91.8574 348.872 91.8574C350.62 91.8574 351.919 92.3408 352.769 93.3076C353.628 94.2744 354.067 95.7002 354.087 97.585V108H350.527V97.6875C350.527 96.6816 350.308 95.9443 349.868 95.4756C349.429 95.0068 348.701 94.7725 347.686 94.7725C346.875 94.7725 346.211 94.9922 345.693 95.4316C345.186 95.8613 344.829 96.4277 344.624 97.1309L344.639 108H341.079V97.5703C341.03 95.7051 340.078 94.7725 338.223 94.7725C336.797 94.7725 335.786 95.3535 335.19 96.5156V108H331.631V92.1504H334.985ZM367.212 108C367.056 107.697 366.919 107.204 366.802 106.521C365.669 107.702 364.282 108.293 362.642 108.293C361.05 108.293 359.751 107.839 358.745 106.931C357.739 106.022 357.236 104.899 357.236 103.562C357.236 101.872 357.861 100.578 359.111 99.6797C360.371 98.7715 362.168 98.3174 364.502 98.3174H366.685V97.2773C366.685 96.457 366.455 95.8027 365.996 95.3145C365.537 94.8164 364.839 94.5674 363.901 94.5674C363.091 94.5674 362.427 94.7725 361.909 95.1826C361.392 95.583 361.133 96.0957 361.133 96.7207H357.573C357.573 95.8516 357.861 95.041 358.438 94.2891C359.014 93.5273 359.795 92.9316 360.781 92.502C361.777 92.0723 362.886 91.8574 364.106 91.8574C365.962 91.8574 367.441 92.3262 368.545 93.2637C369.648 94.1914 370.215 95.5 370.244 97.1895V104.338C370.244 105.764 370.444 106.901 370.845 107.751V108H367.212ZM363.301 105.437C364.004 105.437 364.663 105.266 365.278 104.924C365.903 104.582 366.372 104.123 366.685 103.547V100.559H364.766C363.447 100.559 362.456 100.788 361.792 101.247C361.128 101.706 360.796 102.355 360.796 103.195C360.796 103.879 361.021 104.426 361.47 104.836C361.929 105.236 362.539 105.437 363.301 105.437ZM377.275 92.1504L377.378 93.9814C378.55 92.5654 380.088 91.8574 381.992 91.8574C385.293 91.8574 386.973 93.7471 387.031 97.5264V108H383.472V97.7314C383.472 96.7256 383.252 95.9834 382.812 95.5049C382.383 95.0166 381.675 94.7725 380.688 94.7725C379.253 94.7725 378.184 95.4219 377.48 96.7207V108H373.921V92.1504H377.275ZM397.183 105.451C398.071 105.451 398.809 105.192 399.395 104.675C399.98 104.157 400.293 103.518 400.332 102.756H403.687C403.647 103.742 403.34 104.665 402.764 105.524C402.188 106.374 401.406 107.048 400.42 107.546C399.434 108.044 398.369 108.293 397.227 108.293C395.01 108.293 393.252 107.575 391.953 106.14C390.654 104.704 390.005 102.722 390.005 100.192V99.8262C390.005 97.4141 390.649 95.4854 391.938 94.04C393.228 92.585 394.985 91.8574 397.212 91.8574C399.097 91.8574 400.63 92.4092 401.812 93.5127C403.003 94.6064 403.628 96.0469 403.687 97.834H400.332C400.293 96.9258 399.98 96.1787 399.395 95.5928C398.818 95.0068 398.081 94.7139 397.183 94.7139C396.03 94.7139 395.142 95.1338 394.517 95.9736C393.892 96.8037 393.574 98.0684 393.564 99.7676V100.339C393.564 102.058 393.872 103.342 394.487 104.191C395.112 105.031 396.011 105.451 397.183 105.451ZM413.354 108.293C411.099 108.293 409.268 107.585 407.861 106.169C406.465 104.743 405.767 102.849 405.767 100.485V100.046C405.767 98.4639 406.069 97.0527 406.675 95.8125C407.29 94.5625 408.149 93.5908 409.253 92.8975C410.356 92.2041 411.587 91.8574 412.944 91.8574C415.103 91.8574 416.768 92.5459 417.939 93.9229C419.121 95.2998 419.712 97.248 419.712 99.7676V101.203H409.355C409.463 102.512 409.897 103.547 410.659 104.309C411.431 105.07 412.397 105.451 413.56 105.451C415.19 105.451 416.519 104.792 417.544 103.474L419.463 105.305C418.828 106.252 417.979 106.989 416.914 107.517C415.859 108.034 414.673 108.293 413.354 108.293ZM412.93 94.7139C411.953 94.7139 411.162 95.0557 410.557 95.7393C409.961 96.4229 409.58 97.375 409.414 98.5957H416.196V98.332C416.118 97.1406 415.801 96.2422 415.244 95.6367C414.688 95.0215 413.916 94.7139 412.93 94.7139Z" fill="black"/>
<circle cx="220.5" cy="225.5" r="50" fill="white" stroke="#E5E5E5" stroke-width="9"/>
<path d="M220.5 175.472C220.5 173.002 222.505 170.981 224.967 171.183C235.02 172.01 244.679 175.615 252.845 181.636C262.214 188.544 269.125 198.271 272.565 209.392C276.006 220.513 275.795 232.443 271.964 243.435C268.133 254.428 260.884 263.905 251.276 270.478C241.669 277.052 230.21 280.377 218.576 279.966C206.943 279.555 195.747 275.43 186.627 268.195C177.508 260.96 170.945 250.995 167.899 239.76C165.244 229.968 165.383 219.659 168.254 209.989C168.957 207.622 171.567 206.484 173.869 207.379V207.379C176.171 208.273 177.289 210.861 176.624 213.239C174.423 221.117 174.376 229.472 176.53 237.42C179.076 246.812 184.563 255.141 192.186 261.189C199.808 267.237 209.168 270.685 218.892 271.028C228.617 271.372 238.196 268.593 246.226 263.098C254.257 257.603 260.317 249.681 263.519 240.492C266.721 231.304 266.897 221.331 264.022 212.035C261.146 202.74 255.369 194.609 247.537 188.834C240.91 183.947 233.105 180.964 224.965 180.162C222.507 179.92 220.5 177.941 220.5 175.472V175.472Z" fill="#3D86D0"/>
<path d="M198.604 231.829C197.291 233.009 195.822 233.599 194.196 233.599C191.811 233.599 189.92 232.792 188.523 231.178C187.126 229.564 186.427 227.408 186.427 224.71C186.427 223.024 186.819 221.458 187.602 220.013C188.384 218.568 189.48 217.424 190.89 216.581C192.311 215.737 193.877 215.316 195.587 215.316C197.321 215.316 198.887 215.756 200.284 216.635C201.693 217.502 202.789 218.736 203.572 220.338C204.355 221.928 204.759 223.765 204.783 225.849V228.179C204.783 231.082 204.211 233.599 203.066 235.731C201.934 237.863 200.314 239.501 198.207 240.645C196.099 241.789 193.642 242.361 190.835 242.361H190.456V237.483L191.612 237.465C195.804 237.261 198.134 235.382 198.604 231.829ZM195.84 229.209C197.165 229.209 198.116 228.637 198.694 227.493V224.963C198.694 223.277 198.411 222.031 197.845 221.224C197.279 220.417 196.514 220.013 195.551 220.013C194.696 220.013 193.979 220.471 193.401 221.386C192.823 222.302 192.534 223.41 192.534 224.71C192.534 226.083 192.829 227.18 193.419 227.999C194.009 228.806 194.816 229.209 195.84 229.209ZM221.53 242H215.424V222.561L209.426 224.313V219.688L220.97 215.695H221.53V242ZM229.479 220.754C229.479 219.128 230.009 217.815 231.069 216.815C232.129 215.816 233.55 215.316 235.333 215.316C237.14 215.316 238.567 215.816 239.615 216.815C240.663 217.803 241.187 219.146 241.187 220.844V222.145C241.187 223.771 240.663 225.078 239.615 226.065C238.567 227.053 237.152 227.547 235.369 227.547C233.599 227.547 232.171 227.059 231.087 226.083C230.015 225.096 229.479 223.747 229.479 222.037V220.754ZM233.4 222.145C233.4 222.771 233.575 223.283 233.924 223.681C234.273 224.066 234.755 224.259 235.369 224.259C236.634 224.259 237.266 223.452 237.266 221.838V220.754C237.266 220.128 237.097 219.616 236.76 219.218C236.423 218.809 235.947 218.604 235.333 218.604C234.743 218.604 234.273 218.803 233.924 219.2C233.575 219.586 233.4 220.116 233.4 220.79V222.145ZM241.981 235.55C241.981 233.912 242.511 232.599 243.571 231.612C244.643 230.624 246.064 230.13 247.835 230.13C249.63 230.13 251.057 230.618 252.117 231.594C253.177 232.569 253.707 233.93 253.707 235.677V236.941C253.707 238.579 253.183 239.892 252.135 240.88C251.087 241.868 249.666 242.361 247.871 242.361C246.101 242.361 244.673 241.874 243.589 240.898C242.517 239.91 241.981 238.561 241.981 236.851V235.55ZM245.884 236.941C245.884 237.507 246.076 238.007 246.462 238.441C246.847 238.862 247.317 239.073 247.871 239.073C249.039 239.073 249.672 238.519 249.768 237.411L249.786 235.55C249.786 234.912 249.611 234.4 249.262 234.015C248.913 233.617 248.437 233.418 247.835 233.418C247.257 233.418 246.793 233.605 246.444 233.979C246.095 234.34 245.908 234.834 245.884 235.46V236.941ZM236.525 240.031L233.689 238.604L246.534 218.044L249.371 219.471L236.525 240.031Z" fill="#3D86D0"/>
</svg>
